# Blender 5.2.0 LTS
# www.blender.org
mtllib Intro_D0_Out.mtl
o Intro_D0_Out
v -0.341350 -0.727362 0.159509
v -0.341350 -0.628466 0.159509
v -0.441840 -0.628466 0.159509
v -0.441840 0.451411 0.159509
v -0.341350 0.451411 0.159509
v -0.341350 0.550307 0.159509
v -0.242454 0.550307 0.159509
v -0.242454 0.647607 0.159509
v 0.245644 0.647607 0.159509
v 0.245644 0.550307 0.159509
v 0.342945 0.550307 0.159509
v 0.342945 0.451411 0.159509
v 0.441840 0.451411 0.159509
v 0.441840 -0.628466 0.159509
v 0.342945 -0.628466 0.159509
v 0.342945 -0.727362 0.159509
v 0.245644 -0.727362 0.159509
v 0.245644 -0.827853 0.159509
v -0.242454 -0.827853 0.159509
v -0.242454 -0.727362 0.159509
v -0.148344 -0.437055 0.159509
v -0.051043 -0.437055 0.159509
v -0.051043 -0.534356 0.159509
v 0.052638 -0.534356 0.159509
v 0.052638 -0.437055 0.159509
v 0.151534 -0.437055 0.159509
v 0.151534 0.258405 0.159509
v 0.052638 0.258405 0.159509
v 0.052638 0.357301 0.159509
v -0.051043 0.357301 0.159509
v -0.051043 0.258405 0.159509
v -0.148344 0.258405 0.159509
v -0.341350 -0.727362 -0.159509
v -0.341350 -0.628466 -0.159509
v -0.441840 -0.628466 -0.159509
v -0.441840 0.451411 -0.159509
v -0.341350 0.451411 -0.159509
v -0.341350 0.550307 -0.159509
v -0.242454 0.550307 -0.159509
v -0.242454 0.647607 -0.159509
v 0.245644 0.647607 -0.159509
v 0.245644 0.550307 -0.159509
v 0.342945 0.550307 -0.159509
v 0.342945 0.451411 -0.159509
v 0.441840 0.451411 -0.159509
v 0.441840 -0.628466 -0.159509
v 0.342945 -0.628466 -0.159509
v 0.342945 -0.727362 -0.159509
v 0.245644 -0.727362 -0.159509
v 0.245644 -0.827853 -0.159509
v -0.242454 -0.827853 -0.159509
v -0.242454 -0.727362 -0.159509
v -0.148344 -0.437055 -0.159509
v -0.051043 -0.437055 -0.159509
v -0.051043 -0.534356 -0.159509
v 0.052638 -0.534356 -0.159509
v 0.052638 -0.437055 -0.159509
v 0.151534 -0.437055 -0.159509
v 0.151534 0.258405 -0.159509
v 0.052638 0.258405 -0.159509
v 0.052638 0.357301 -0.159509
v -0.051043 0.357301 -0.159509
v -0.051043 0.258405 -0.159509
v -0.148344 0.258405 -0.159509
v -0.341350 -0.727362 -0.159509
v -0.341350 -0.727362 0.159509
v -0.341350 -0.628466 -0.159509
v -0.341350 -0.628466 0.159509
v -0.441840 -0.628466 -0.159509
v -0.441840 -0.628466 0.159509
v -0.441840 0.451411 -0.159509
v -0.441840 0.451411 0.159509
v -0.341350 0.451411 -0.159509
v -0.341350 0.451411 0.159509
v -0.341350 0.550307 -0.159509
v -0.341350 0.550307 0.159509
v -0.242454 0.550307 -0.159509
v -0.242454 0.550307 0.159509
v -0.242454 0.647607 -0.159509
v -0.242454 0.647607 0.159509
v 0.245644 0.647607 -0.159509
v 0.245644 0.647607 0.159509
v 0.245644 0.550307 -0.159509
v 0.245644 0.550307 0.159509
v 0.342945 0.550307 -0.159509
v 0.342945 0.550307 0.159509
v 0.342945 0.451411 -0.159509
v 0.342945 0.451411 0.159509
v 0.441840 0.451411 -0.159509
v 0.441840 0.451411 0.159509
v 0.441840 -0.628466 -0.159509
v 0.441840 -0.628466 0.159509
v 0.342945 -0.628466 -0.159509
v 0.342945 -0.628466 0.159509
v 0.342945 -0.727362 -0.159509
v 0.342945 -0.727362 0.159509
v 0.245644 -0.727362 -0.159509
v 0.245644 -0.727362 0.159509
v 0.245644 -0.827853 -0.159509
v 0.245644 -0.827853 0.159509
v -0.242454 -0.827853 -0.159509
v -0.242454 -0.827853 0.159509
v -0.242454 -0.727362 -0.159509
v -0.242454 -0.727362 0.159509
v -0.148344 -0.437055 -0.159509
v -0.148344 -0.437055 0.159509
v -0.051043 -0.437055 -0.159509
v -0.051043 -0.437055 0.159509
v -0.051043 -0.534356 -0.159509
v -0.051043 -0.534356 0.159509
v 0.052638 -0.534356 -0.159509
v 0.052638 -0.534356 0.159509
v 0.052638 -0.437055 -0.159509
v 0.052638 -0.437055 0.159509
v 0.151534 -0.437055 -0.159509
v 0.151534 -0.437055 0.159509
v 0.151534 0.258405 -0.159509
v 0.151534 0.258405 0.159509
v 0.052638 0.258405 -0.159509
v 0.052638 0.258405 0.159509
v 0.052638 0.357301 -0.159509
v 0.052638 0.357301 0.159509
v -0.051043 0.357301 -0.159509
v -0.051043 0.357301 0.159509
v -0.051043 0.258405 -0.159509
v -0.051043 0.258405 0.159509
v -0.148344 0.258405 -0.159509
v -0.148344 0.258405 0.159509
vn -0.0000 -0.0000 1.0000
vn -0.0000 -0.0000 -1.0000
vn -0.7071 -0.7071 -0.0000
vn -0.7071 0.7071 -0.0000
vn 0.7071 0.7071 -0.0000
vn 0.7071 -0.7071 -0.0000
vt 0.437500 0.500000
s 0
usemtl TA_Pal2
f 2/1/1 1/1/1 20/1/1
f 23/1/1 22/1/1 21/1/1
f 31/1/1 30/1/1 32/1/1
f 8/1/1 7/1/1 30/1/1
f 23/1/1 21/1/1 20/1/1
f 2/1/1 20/1/1 21/1/1
f 3/1/1 2/1/1 21/1/1
f 21/1/1 32/1/1 3/1/1
f 4/1/1 3/1/1 32/1/1
f 5/1/1 4/1/1 32/1/1
f 32/1/1 30/1/1 5/1/1
f 30/1/1 7/1/1 5/1/1
f 6/1/1 5/1/1 7/1/1
f 18/1/1 17/1/1 24/1/1
f 17/1/1 26/1/1 24/1/1
f 25/1/1 24/1/1 26/1/1
f 29/1/1 28/1/1 27/1/1
f 12/1/1 11/1/1 10/1/1
f 16/1/1 15/1/1 17/1/1
f 26/1/1 17/1/1 15/1/1
f 15/1/1 14/1/1 26/1/1
f 27/1/1 26/1/1 14/1/1
f 14/1/1 13/1/1 27/1/1
f 13/1/1 12/1/1 27/1/1
f 29/1/1 27/1/1 12/1/1
f 12/1/1 10/1/1 29/1/1
f 10/1/1 9/1/1 29/1/1
f 18/1/1 24/1/1 19/1/1
f 20/1/1 19/1/1 24/1/1
f 23/1/1 20/1/1 24/1/1
f 8/1/1 30/1/1 29/1/1
f 29/1/1 9/1/1 8/1/1
f 34/1/2 52/1/2 33/1/2
f 55/1/2 53/1/2 54/1/2
f 63/1/2 64/1/2 62/1/2
f 40/1/2 62/1/2 39/1/2
f 55/1/2 52/1/2 53/1/2
f 34/1/2 53/1/2 52/1/2
f 35/1/2 53/1/2 34/1/2
f 53/1/2 35/1/2 64/1/2
f 36/1/2 64/1/2 35/1/2
f 37/1/2 64/1/2 36/1/2
f 64/1/2 37/1/2 62/1/2
f 62/1/2 37/1/2 39/1/2
f 38/1/2 39/1/2 37/1/2
f 50/1/2 56/1/2 49/1/2
f 49/1/2 56/1/2 58/1/2
f 57/1/2 58/1/2 56/1/2
f 61/1/2 59/1/2 60/1/2
f 44/1/2 42/1/2 43/1/2
f 48/1/2 49/1/2 47/1/2
f 58/1/2 47/1/2 49/1/2
f 47/1/2 58/1/2 46/1/2
f 59/1/2 46/1/2 58/1/2
f 46/1/2 59/1/2 45/1/2
f 45/1/2 59/1/2 44/1/2
f 61/1/2 44/1/2 59/1/2
f 44/1/2 61/1/2 42/1/2
f 42/1/2 61/1/2 41/1/2
f 50/1/2 51/1/2 56/1/2
f 52/1/2 56/1/2 51/1/2
f 55/1/2 56/1/2 52/1/2
f 40/1/2 61/1/2 62/1/2
f 61/1/2 40/1/2 41/1/2
s 1
f 68/1/3 65/1/3 66/1/3
f 70/1/3 67/1/3 68/1/3
f 72/1/4 69/1/3 70/1/3
f 74/1/4 71/1/4 72/1/4
f 76/1/4 73/1/4 74/1/4
f 78/1/4 75/1/4 76/1/4
f 80/1/4 77/1/4 78/1/4
f 82/1/5 79/1/4 80/1/4
f 84/1/5 81/1/5 82/1/5
f 86/1/5 83/1/5 84/1/5
f 88/1/5 85/1/5 86/1/5
f 90/1/5 87/1/5 88/1/5
f 92/1/6 89/1/5 90/1/5
f 94/1/6 91/1/6 92/1/6
f 96/1/6 93/1/6 94/1/6
f 98/1/6 95/1/6 96/1/6
f 100/1/6 97/1/6 98/1/6
f 102/1/3 99/1/6 100/1/6
f 104/1/3 101/1/3 102/1/3
f 66/1/3 103/1/3 104/1/3
f 108/1/5 105/1/5 106/1/5
f 110/1/5 107/1/5 108/1/5
f 112/1/4 109/1/5 110/1/5
f 114/1/4 111/1/4 112/1/4
f 116/1/4 113/1/4 114/1/4
f 118/1/3 115/1/4 116/1/4
f 120/1/3 117/1/3 118/1/3
f 122/1/3 119/1/3 120/1/3
f 124/1/6 121/1/3 122/1/3
f 126/1/6 123/1/6 124/1/6
f 128/1/6 125/1/6 126/1/6
f 106/1/5 127/1/6 128/1/6
f 68/1/3 67/1/3 65/1/3
f 70/1/3 69/1/3 67/1/3
f 72/1/4 71/1/4 69/1/3
f 74/1/4 73/1/4 71/1/4
f 76/1/4 75/1/4 73/1/4
f 78/1/4 77/1/4 75/1/4
f 80/1/4 79/1/4 77/1/4
f 82/1/5 81/1/5 79/1/4
f 84/1/5 83/1/5 81/1/5
f 86/1/5 85/1/5 83/1/5
f 88/1/5 87/1/5 85/1/5
f 90/1/5 89/1/5 87/1/5
f 92/1/6 91/1/6 89/1/5
f 94/1/6 93/1/6 91/1/6
f 96/1/6 95/1/6 93/1/6
f 98/1/6 97/1/6 95/1/6
f 100/1/6 99/1/6 97/1/6
f 102/1/3 101/1/3 99/1/6
f 104/1/3 103/1/3 101/1/3
f 66/1/3 65/1/3 103/1/3
f 108/1/5 107/1/5 105/1/5
f 110/1/5 109/1/5 107/1/5
f 112/1/4 111/1/4 109/1/5
f 114/1/4 113/1/4 111/1/4
f 116/1/4 115/1/4 113/1/4
f 118/1/3 117/1/3 115/1/4
f 120/1/3 119/1/3 117/1/3
f 122/1/3 121/1/3 119/1/3
f 124/1/6 123/1/6 121/1/3
f 126/1/6 125/1/6 123/1/6
f 128/1/6 127/1/6 125/1/6
f 106/1/5 105/1/5 127/1/6
