# Blender 5.2.0 LTS
# www.blender.org
mtllib Intro_D9.mtl
o Intro_D9
v -0.253620 -0.639632 0.287117
v -0.253620 -0.540736 0.287117
v -0.354110 -0.540736 0.287117
v -0.354110 -0.425889 0.287117
v -0.236074 -0.425889 0.287117
v -0.236074 -0.524785 0.287117
v -0.138773 -0.524785 0.287117
v -0.138773 -0.622086 0.287117
v 0.140368 -0.622086 0.287117
v 0.140368 -0.524785 0.287117
v 0.239264 -0.524785 0.287117
v 0.239264 -0.245644 0.287117
v 0.157914 -0.245644 0.287117
v 0.157914 -0.344540 0.287117
v -0.154724 -0.344540 0.287117
v -0.154724 -0.245644 0.287117
v -0.253620 -0.245644 0.287117
v -0.253620 -0.146748 0.287117
v -0.354110 -0.146748 0.287117
v -0.354110 0.363681 0.287117
v -0.253620 0.363681 0.287117
v -0.253620 0.462577 0.287117
v -0.154724 0.462577 0.287117
v -0.154724 0.559877 0.287117
v 0.157914 0.559877 0.287117
v 0.157914 0.462577 0.287117
v 0.255215 0.462577 0.287117
v 0.255215 0.363681 0.287117
v 0.354110 0.363681 0.287117
v 0.354110 -0.540736 0.287117
v 0.255215 -0.540736 0.287117
v 0.255215 -0.639632 0.287117
v 0.157914 -0.639632 0.287117
v 0.157914 -0.740123 0.287117
v -0.154724 -0.740123 0.287117
v -0.154724 -0.639632 0.287117
v -0.138773 -0.228098 0.287117
v 0.140368 -0.228098 0.287117
v 0.140368 -0.129202 0.287117
v 0.239264 -0.129202 0.287117
v 0.239264 0.346135 0.287117
v 0.140368 0.346135 0.287117
v 0.140368 0.445031 0.287117
v -0.138773 0.445031 0.287117
v -0.138773 0.346135 0.287117
v -0.236074 0.346135 0.287117
v -0.236074 -0.129202 0.287117
v -0.138773 -0.129202 0.287117
v -0.253620 -0.639632 -0.287117
v -0.253620 -0.540736 -0.287117
v -0.354110 -0.540736 -0.287117
v -0.354110 -0.425889 -0.287117
v -0.236074 -0.425889 -0.287117
v -0.236074 -0.524785 -0.287117
v -0.138773 -0.524785 -0.287117
v -0.138773 -0.622086 -0.287117
v 0.140368 -0.622086 -0.287117
v 0.140368 -0.524785 -0.287117
v 0.239264 -0.524785 -0.287117
v 0.239264 -0.245644 -0.287117
v 0.157914 -0.245644 -0.287117
v 0.157914 -0.344540 -0.287117
v -0.154724 -0.344540 -0.287117
v -0.154724 -0.245644 -0.287117
v -0.253620 -0.245644 -0.287117
v -0.253620 -0.146748 -0.287117
v -0.354110 -0.146748 -0.287117
v -0.354110 0.363681 -0.287117
v -0.253620 0.363681 -0.287117
v -0.253620 0.462577 -0.287117
v -0.154724 0.462577 -0.287117
v -0.154724 0.559877 -0.287117
v 0.157914 0.559877 -0.287117
v 0.157914 0.462577 -0.287117
v 0.255215 0.462577 -0.287117
v 0.255215 0.363681 -0.287117
v 0.354110 0.363681 -0.287117
v 0.354110 -0.540736 -0.287117
v 0.255215 -0.540736 -0.287117
v 0.255215 -0.639632 -0.287117
v 0.157914 -0.639632 -0.287117
v 0.157914 -0.740123 -0.287117
v -0.154724 -0.740123 -0.287117
v -0.154724 -0.639632 -0.287117
v -0.138773 -0.228098 -0.287117
v 0.140368 -0.228098 -0.287117
v 0.140368 -0.129202 -0.287117
v 0.239264 -0.129202 -0.287117
v 0.239264 0.346135 -0.287117
v 0.140368 0.346135 -0.287117
v 0.140368 0.445031 -0.287117
v -0.138773 0.445031 -0.287117
v -0.138773 0.346135 -0.287117
v -0.236074 0.346135 -0.287117
v -0.236074 -0.129202 -0.287117
v -0.138773 -0.129202 -0.287117
v -0.253620 -0.639632 -0.287117
v -0.253620 -0.639632 0.287117
v -0.253620 -0.540736 -0.287117
v -0.253620 -0.540736 0.287117
v -0.354110 -0.540736 -0.287117
v -0.354110 -0.540736 0.287117
v -0.354110 -0.425889 -0.287117
v -0.354110 -0.425889 0.287117
v -0.236074 -0.425889 -0.287117
v -0.236074 -0.425889 0.287117
v -0.236074 -0.524785 -0.287117
v -0.236074 -0.524785 0.287117
v -0.138773 -0.524785 -0.287117
v -0.138773 -0.524785 0.287117
v -0.138773 -0.622086 -0.287117
v -0.138773 -0.622086 0.287117
v 0.140368 -0.622086 -0.287117
v 0.140368 -0.622086 0.287117
v 0.140368 -0.524785 -0.287117
v 0.140368 -0.524785 0.287117
v 0.239264 -0.524785 -0.287117
v 0.239264 -0.524785 0.287117
v 0.239264 -0.245644 -0.287117
v 0.239264 -0.245644 0.287117
v 0.157914 -0.245644 -0.287117
v 0.157914 -0.245644 0.287117
v 0.157914 -0.344540 -0.287117
v 0.157914 -0.344540 0.287117
v -0.154724 -0.344540 -0.287117
v -0.154724 -0.344540 0.287117
v -0.154724 -0.245644 -0.287117
v -0.154724 -0.245644 0.287117
v -0.253620 -0.245644 -0.287117
v -0.253620 -0.245644 0.287117
v -0.253620 -0.146748 -0.287117
v -0.253620 -0.146748 0.287117
v -0.354110 -0.146748 -0.287117
v -0.354110 -0.146748 0.287117
v -0.354110 0.363681 -0.287117
v -0.354110 0.363681 0.287117
v -0.253620 0.363681 -0.287117
v -0.253620 0.363681 0.287117
v -0.253620 0.462577 -0.287117
v -0.253620 0.462577 0.287117
v -0.154724 0.462577 -0.287117
v -0.154724 0.462577 0.287117
v -0.154724 0.559877 -0.287117
v -0.154724 0.559877 0.287117
v 0.157914 0.559877 -0.287117
v 0.157914 0.559877 0.287117
v 0.157914 0.462577 -0.287117
v 0.157914 0.462577 0.287117
v 0.255215 0.462577 -0.287117
v 0.255215 0.462577 0.287117
v 0.255215 0.363681 -0.287117
v 0.255215 0.363681 0.287117
v 0.354110 0.363681 -0.287117
v 0.354110 0.363681 0.287117
v 0.354110 -0.540736 -0.287117
v 0.354110 -0.540736 0.287117
v 0.255215 -0.540736 -0.287117
v 0.255215 -0.540736 0.287117
v 0.255215 -0.639632 -0.287117
v 0.255215 -0.639632 0.287117
v 0.157914 -0.639632 -0.287117
v 0.157914 -0.639632 0.287117
v 0.157914 -0.740123 -0.287117
v 0.157914 -0.740123 0.287117
v -0.154724 -0.740123 -0.287117
v -0.154724 -0.740123 0.287117
v -0.154724 -0.639632 -0.287117
v -0.154724 -0.639632 0.287117
v -0.138773 -0.228098 -0.287117
v -0.138773 -0.228098 0.287117
v 0.140368 -0.228098 -0.287117
v 0.140368 -0.228098 0.287117
v 0.140368 -0.129202 -0.287117
v 0.140368 -0.129202 0.287117
v 0.239264 -0.129202 -0.287117
v 0.239264 -0.129202 0.287117
v 0.239264 0.346135 -0.287117
v 0.239264 0.346135 0.287117
v 0.140368 0.346135 -0.287117
v 0.140368 0.346135 0.287117
v 0.140368 0.445031 -0.287117
v 0.140368 0.445031 0.287117
v -0.138773 0.445031 -0.287117
v -0.138773 0.445031 0.287117
v -0.138773 0.346135 -0.287117
v -0.138773 0.346135 0.287117
v -0.236074 0.346135 -0.287117
v -0.236074 0.346135 0.287117
v -0.236074 -0.129202 -0.287117
v -0.236074 -0.129202 0.287117
v -0.138773 -0.129202 -0.287117
v -0.138773 -0.129202 0.287117
vn -0.0000 -0.0000 1.0000
vn -0.0000 -0.0000 -1.0000
vn -0.7071 -0.7071 -0.0000
vn -0.7071 0.7071 -0.0000
vn 0.7071 0.7071 -0.0000
vn 0.7071 -0.7071 -0.0000
vt 0.187500 0.500000
s 0
usemtl TA_Pal
f 4/1/1 3/1/1 2/1/1
f 4/1/1 2/1/1 6/1/1
f 6/1/1 5/1/1 4/1/1
f 36/1/1 35/1/1 8/1/1
f 16/1/1 15/1/1 37/1/1
f 37/1/1 48/1/1 47/1/1
f 2/1/1 1/1/1 36/1/1
f 36/1/1 8/1/1 2/1/1
f 6/1/1 2/1/1 8/1/1
f 8/1/1 7/1/1 6/1/1
f 18/1/1 17/1/1 16/1/1
f 16/1/1 37/1/1 18/1/1
f 37/1/1 47/1/1 18/1/1
f 19/1/1 18/1/1 47/1/1
f 20/1/1 19/1/1 47/1/1
f 47/1/1 46/1/1 20/1/1
f 21/1/1 20/1/1 46/1/1
f 22/1/1 21/1/1 23/1/1
f 34/1/1 33/1/1 9/1/1
f 14/1/1 13/1/1 38/1/1
f 31/1/1 30/1/1 11/1/1
f 12/1/1 11/1/1 30/1/1
f 40/1/1 12/1/1 30/1/1
f 30/1/1 29/1/1 40/1/1
f 41/1/1 40/1/1 29/1/1
f 29/1/1 28/1/1 41/1/1
f 28/1/1 27/1/1 26/1/1
f 32/1/1 31/1/1 33/1/1
f 31/1/1 11/1/1 33/1/1
f 9/1/1 33/1/1 11/1/1
f 10/1/1 9/1/1 11/1/1
f 38/1/1 13/1/1 12/1/1
f 12/1/1 40/1/1 38/1/1
f 39/1/1 38/1/1 40/1/1
f 43/1/1 42/1/1 41/1/1
f 41/1/1 28/1/1 43/1/1
f 28/1/1 26/1/1 43/1/1
f 26/1/1 25/1/1 43/1/1
f 34/1/1 9/1/1 35/1/1
f 8/1/1 35/1/1 9/1/1
f 14/1/1 38/1/1 15/1/1
f 37/1/1 15/1/1 38/1/1
f 45/1/1 44/1/1 46/1/1
f 21/1/1 46/1/1 44/1/1
f 23/1/1 21/1/1 44/1/1
f 24/1/1 23/1/1 44/1/1
f 44/1/1 43/1/1 24/1/1
f 43/1/1 25/1/1 24/1/1
f 52/1/2 50/1/2 51/1/2
f 52/1/2 54/1/2 50/1/2
f 54/1/2 52/1/2 53/1/2
f 84/1/2 56/1/2 83/1/2
f 64/1/2 85/1/2 63/1/2
f 85/1/2 95/1/2 96/1/2
f 50/1/2 84/1/2 49/1/2
f 84/1/2 50/1/2 56/1/2
f 54/1/2 56/1/2 50/1/2
f 56/1/2 54/1/2 55/1/2
f 66/1/2 64/1/2 65/1/2
f 64/1/2 66/1/2 85/1/2
f 85/1/2 66/1/2 95/1/2
f 67/1/2 95/1/2 66/1/2
f 68/1/2 95/1/2 67/1/2
f 95/1/2 68/1/2 94/1/2
f 69/1/2 94/1/2 68/1/2
f 70/1/2 71/1/2 69/1/2
f 82/1/2 57/1/2 81/1/2
f 62/1/2 86/1/2 61/1/2
f 79/1/2 59/1/2 78/1/2
f 60/1/2 78/1/2 59/1/2
f 88/1/2 78/1/2 60/1/2
f 78/1/2 88/1/2 77/1/2
f 89/1/2 77/1/2 88/1/2
f 77/1/2 89/1/2 76/1/2
f 76/1/2 74/1/2 75/1/2
f 80/1/2 81/1/2 79/1/2
f 79/1/2 81/1/2 59/1/2
f 57/1/2 59/1/2 81/1/2
f 58/1/2 59/1/2 57/1/2
f 86/1/2 60/1/2 61/1/2
f 60/1/2 86/1/2 88/1/2
f 87/1/2 88/1/2 86/1/2
f 91/1/2 89/1/2 90/1/2
f 89/1/2 91/1/2 76/1/2
f 76/1/2 91/1/2 74/1/2
f 74/1/2 91/1/2 73/1/2
f 82/1/2 83/1/2 57/1/2
f 56/1/2 57/1/2 83/1/2
f 62/1/2 63/1/2 86/1/2
f 85/1/2 86/1/2 63/1/2
f 93/1/2 94/1/2 92/1/2
f 69/1/2 92/1/2 94/1/2
f 71/1/2 92/1/2 69/1/2
f 72/1/2 92/1/2 71/1/2
f 92/1/2 72/1/2 91/1/2
f 91/1/2 72/1/2 73/1/2
s 1
f 100/1/3 97/1/3 98/1/3
f 102/1/3 99/1/3 100/1/3
f 104/1/4 101/1/3 102/1/3
f 106/1/5 103/1/4 104/1/4
f 108/1/5 105/1/5 106/1/5
f 110/1/5 107/1/5 108/1/5
f 112/1/5 109/1/5 110/1/5
f 114/1/4 111/1/5 112/1/5
f 116/1/4 113/1/4 114/1/4
f 118/1/4 115/1/4 116/1/4
f 118/1/4 119/1/3 117/1/4
f 122/1/6 119/1/3 120/1/3
f 124/1/6 121/1/6 122/1/6
f 126/1/3 123/1/6 124/1/6
f 126/1/3 127/1/3 125/1/3
f 130/1/3 127/1/3 128/1/3
f 132/1/3 129/1/3 130/1/3
f 134/1/3 131/1/3 132/1/3
f 136/1/4 133/1/3 134/1/3
f 138/1/4 135/1/4 136/1/4
f 140/1/4 137/1/4 138/1/4
f 142/1/4 139/1/4 140/1/4
f 144/1/4 141/1/4 142/1/4
f 146/1/5 143/1/4 144/1/4
f 148/1/5 145/1/5 146/1/5
f 150/1/5 147/1/5 148/1/5
f 152/1/5 149/1/5 150/1/5
f 154/1/5 151/1/5 152/1/5
f 156/1/6 153/1/5 154/1/5
f 158/1/6 155/1/6 156/1/6
f 160/1/6 157/1/6 158/1/6
f 162/1/6 159/1/6 160/1/6
f 164/1/6 161/1/6 162/1/6
f 166/1/3 163/1/6 164/1/6
f 168/1/3 165/1/3 166/1/3
f 98/1/3 167/1/3 168/1/3
f 172/1/4 169/1/5 170/1/5
f 174/1/4 171/1/4 172/1/4
f 176/1/4 173/1/4 174/1/4
f 178/1/3 175/1/4 176/1/4
f 180/1/3 177/1/3 178/1/3
f 182/1/3 179/1/3 180/1/3
f 184/1/6 181/1/3 182/1/3
f 186/1/6 183/1/6 184/1/6
f 188/1/6 185/1/6 186/1/6
f 188/1/6 189/1/5 187/1/6
f 192/1/5 189/1/5 190/1/5
f 170/1/5 191/1/5 192/1/5
f 100/1/3 99/1/3 97/1/3
f 102/1/3 101/1/3 99/1/3
f 104/1/4 103/1/4 101/1/3
f 106/1/5 105/1/5 103/1/4
f 108/1/5 107/1/5 105/1/5
f 110/1/5 109/1/5 107/1/5
f 112/1/5 111/1/5 109/1/5
f 114/1/4 113/1/4 111/1/5
f 116/1/4 115/1/4 113/1/4
f 118/1/4 117/1/4 115/1/4
f 118/1/4 120/1/3 119/1/3
f 122/1/6 121/1/6 119/1/3
f 124/1/6 123/1/6 121/1/6
f 126/1/3 125/1/3 123/1/6
f 126/1/3 128/1/3 127/1/3
f 130/1/3 129/1/3 127/1/3
f 132/1/3 131/1/3 129/1/3
f 134/1/3 133/1/3 131/1/3
f 136/1/4 135/1/4 133/1/3
f 138/1/4 137/1/4 135/1/4
f 140/1/4 139/1/4 137/1/4
f 142/1/4 141/1/4 139/1/4
f 144/1/4 143/1/4 141/1/4
f 146/1/5 145/1/5 143/1/4
f 148/1/5 147/1/5 145/1/5
f 150/1/5 149/1/5 147/1/5
f 152/1/5 151/1/5 149/1/5
f 154/1/5 153/1/5 151/1/5
f 156/1/6 155/1/6 153/1/5
f 158/1/6 157/1/6 155/1/6
f 160/1/6 159/1/6 157/1/6
f 162/1/6 161/1/6 159/1/6
f 164/1/6 163/1/6 161/1/6
f 166/1/3 165/1/3 163/1/6
f 168/1/3 167/1/3 165/1/3
f 98/1/3 97/1/3 167/1/3
f 172/1/4 171/1/4 169/1/5
f 174/1/4 173/1/4 171/1/4
f 176/1/4 175/1/4 173/1/4
f 178/1/3 177/1/3 175/1/4
f 180/1/3 179/1/3 177/1/3
f 182/1/3 181/1/3 179/1/3
f 184/1/6 183/1/6 181/1/3
f 186/1/6 185/1/6 183/1/6
f 188/1/6 187/1/6 185/1/6
f 188/1/6 190/1/5 189/1/5
f 192/1/5 191/1/5 189/1/5
f 170/1/5 169/1/5 191/1/5
