# Blender 5.1.2
# www.blender.org
mtllib Target_Bull.mtl
o Target_Bull
v 0.000000 -0.125000 -0.500000
v 0.000000 0.125000 -0.500000
v 0.097545 -0.125000 -0.490393
v 0.097545 0.125000 -0.490393
v 0.191342 -0.125000 -0.461940
v 0.191342 0.125000 -0.461940
v 0.277785 -0.125000 -0.415735
v 0.277785 0.125000 -0.415735
v 0.353553 -0.125000 -0.353553
v 0.353553 0.125000 -0.353553
v 0.415735 -0.125000 -0.277785
v 0.415735 0.125000 -0.277785
v 0.461940 -0.125000 -0.191342
v 0.461940 0.125000 -0.191342
v 0.490393 -0.125000 -0.097545
v 0.490393 0.125000 -0.097545
v 0.500000 -0.125000 0.000000
v 0.500000 0.125000 0.000000
v 0.490393 -0.125000 0.097545
v 0.490393 0.125000 0.097545
v 0.461940 -0.125000 0.191342
v 0.461940 0.125000 0.191342
v 0.415735 -0.125000 0.277785
v 0.415735 0.125000 0.277785
v 0.353553 -0.125000 0.353553
v 0.353553 0.125000 0.353553
v 0.277785 -0.125000 0.415735
v 0.277785 0.125000 0.415735
v 0.191342 -0.125000 0.461940
v 0.191342 0.125000 0.461940
v 0.097545 -0.125000 0.490393
v 0.097545 0.125000 0.490393
v 0.000000 -0.125000 0.500000
v 0.000000 0.125000 0.500000
v -0.097545 -0.125000 0.490393
v -0.097545 0.125000 0.490393
v -0.191342 -0.125000 0.461940
v -0.191342 0.125000 0.461940
v -0.277785 -0.125000 0.415735
v -0.277785 0.125000 0.415735
v -0.353553 -0.125000 0.353553
v -0.353553 0.125000 0.353553
v -0.415735 -0.125000 0.277785
v -0.415735 0.125000 0.277785
v -0.461940 -0.125000 0.191342
v -0.461940 0.125000 0.191342
v -0.490393 -0.125000 0.097545
v -0.490393 0.125000 0.097545
v -0.500000 -0.125000 0.000000
v -0.500000 0.125000 0.000000
v -0.490393 -0.125000 -0.097545
v -0.490393 0.125000 -0.097545
v -0.461940 -0.125000 -0.191342
v -0.461940 0.125000 -0.191342
v -0.415735 -0.125000 -0.277785
v -0.415735 0.125000 -0.277785
v -0.353553 -0.125000 -0.353553
v -0.353553 0.125000 -0.353553
v -0.277785 -0.125000 -0.415735
v -0.277785 0.125000 -0.415735
v -0.191342 -0.125000 -0.461940
v -0.191342 0.125000 -0.461940
v -0.097545 -0.125000 -0.490393
v -0.097545 0.125000 -0.490393
vn 0.0980 -0.0000 -0.9952
vn 0.2903 -0.0000 -0.9569
vn 0.4714 -0.0000 -0.8819
vn 0.6344 -0.0000 -0.7730
vn 0.7730 -0.0000 -0.6344
vn 0.8819 -0.0000 -0.4714
vn 0.9569 -0.0000 -0.2903
vn 0.9952 -0.0000 -0.0980
vn 0.9952 -0.0000 0.0980
vn 0.9569 -0.0000 0.2903
vn 0.8819 -0.0000 0.4714
vn 0.7730 -0.0000 0.6344
vn 0.6344 -0.0000 0.7730
vn 0.4714 -0.0000 0.8819
vn 0.2903 -0.0000 0.9569
vn 0.0980 -0.0000 0.9952
vn -0.0980 -0.0000 0.9952
vn -0.2903 -0.0000 0.9569
vn -0.4714 -0.0000 0.8819
vn -0.6344 -0.0000 0.7730
vn -0.7730 -0.0000 0.6344
vn -0.8819 -0.0000 0.4714
vn -0.9569 -0.0000 0.2903
vn -0.9952 -0.0000 0.0980
vn -0.9952 -0.0000 -0.0980
vn -0.9569 -0.0000 -0.2903
vn -0.8819 -0.0000 -0.4714
vn -0.7730 -0.0000 -0.6344
vn -0.6344 -0.0000 -0.7730
vn -0.4714 -0.0000 -0.8819
vn -0.0000 1.0000 -0.0000
vn -0.2903 -0.0000 -0.9569
vn -0.0980 -0.0000 -0.9952
vn -0.0000 -1.0000 -0.0000
vt 0.627412 0.526414
vt 0.503631 0.526414
vt 0.503631 0.478816
vt 0.627412 0.478816
vt 0.503631 0.433980
vt 0.627412 0.433980
vt 0.503631 0.393628
vt 0.627412 0.393628
vt 0.627412 0.386365
vt 0.503631 0.386365
vt 0.503631 0.352049
vt 0.627412 0.352049
vt 0.503631 0.311698
vt 0.627412 0.311698
vt 0.503631 0.266861
vt 0.627412 0.266861
vt 0.503631 0.219264
vt 0.627412 0.219264
vt 0.503631 0.170733
vt 0.627412 0.170733
vt 0.503631 0.123135
vt 0.627412 0.123135
vt 0.503631 0.078299
vt 0.627412 0.078299
vt 0.503631 0.037947
vt 0.627412 0.037947
vt 0.503631 0.003631
vt 0.627412 0.003631
vt 0.758455 0.352049
vt 0.634674 0.352049
vt 0.634674 0.317733
vt 0.758455 0.317733
vt 0.634674 0.277382
vt 0.758455 0.277382
vt 0.634674 0.232545
vt 0.758455 0.232545
vt 0.634674 0.184947
vt 0.758455 0.184947
vt 0.634674 0.136417
vt 0.758455 0.136417
vt 0.634674 0.088819
vt 0.758455 0.088819
vt 0.634674 0.043983
vt 0.758455 0.043983
vt 0.634674 0.003631
vt 0.758455 0.003631
vt 0.758455 0.673414
vt 0.634674 0.673414
vt 0.634674 0.633062
vt 0.758455 0.633062
vt 0.634674 0.588226
vt 0.758455 0.588226
vt 0.634674 0.540628
vt 0.758455 0.540628
vt 0.634674 0.492098
vt 0.758455 0.492098
vt 0.634674 0.444500
vt 0.758455 0.444500
vt 0.634674 0.399663
vt 0.758455 0.399663
vt 0.634674 0.359312
vt 0.758455 0.359312
vt 0.627412 0.742046
vt 0.503631 0.742046
vt 0.503631 0.707730
vt 0.627412 0.707730
vt 0.503631 0.667378
vt 0.627412 0.667378
vt 0.503631 0.622542
vt 0.627412 0.622542
vt 0.092949 0.441367
vt 0.058633 0.407051
vt 0.031671 0.366699
vt 0.013099 0.321863
vt 0.003631 0.274265
vt 0.003631 0.225735
vt 0.013099 0.178137
vt 0.031671 0.133301
vt 0.058633 0.092949
vt 0.092949 0.058633
vt 0.133301 0.031671
vt 0.178137 0.013099
vt 0.225735 0.003631
vt 0.274265 0.003631
vt 0.321863 0.013099
vt 0.366699 0.031671
vt 0.407051 0.058633
vt 0.441367 0.092949
vt 0.468329 0.133301
vt 0.486901 0.178137
vt 0.496369 0.225735
vt 0.496369 0.274265
vt 0.486901 0.321863
vt 0.468329 0.366699
vt 0.441367 0.407051
vt 0.407051 0.441367
vt 0.366699 0.468329
vt 0.321863 0.486901
vt 0.274265 0.496369
vt 0.225735 0.496369
vt 0.178137 0.486901
vt 0.133301 0.468329
vt 0.503631 0.574944
vt 0.627412 0.574944
vt 0.058633 0.907051
vt 0.031671 0.866699
vt 0.013099 0.821863
vt 0.003631 0.774265
vt 0.003631 0.725735
vt 0.013099 0.678137
vt 0.031671 0.633301
vt 0.058633 0.592949
vt 0.092949 0.558633
vt 0.133301 0.531671
vt 0.178137 0.513099
vt 0.225735 0.503631
vt 0.274265 0.503631
vt 0.321863 0.513099
vt 0.366699 0.531671
vt 0.407051 0.558633
vt 0.441367 0.592949
vt 0.468329 0.633301
vt 0.486901 0.678137
vt 0.496369 0.725735
vt 0.496369 0.774265
vt 0.486901 0.821863
vt 0.468329 0.866699
vt 0.441367 0.907051
vt 0.407051 0.941367
vt 0.366699 0.968329
vt 0.321863 0.986901
vt 0.274265 0.996369
vt 0.225735 0.996369
vt 0.178137 0.986901
vt 0.133301 0.968329
vt 0.092949 0.941367
s 0
usemtl Material.004
f 1/1/1 2/2/1 4/3/1 3/4/1
f 3/4/2 4/3/2 6/5/2 5/6/2
f 5/6/3 6/5/3 8/7/3 7/8/3
f 7/9/4 8/10/4 10/11/4 9/12/4
f 9/12/5 10/11/5 12/13/5 11/14/5
f 11/14/6 12/13/6 14/15/6 13/16/6
f 13/16/7 14/15/7 16/17/7 15/18/7
f 15/18/8 16/17/8 18/19/8 17/20/8
f 17/20/9 18/19/9 20/21/9 19/22/9
f 19/22/10 20/21/10 22/23/10 21/24/10
f 21/24/11 22/23/11 24/25/11 23/26/11
f 23/26/12 24/25/12 26/27/12 25/28/12
f 25/29/13 26/30/13 28/31/13 27/32/13
f 27/32/14 28/31/14 30/33/14 29/34/14
f 29/34/15 30/33/15 32/35/15 31/36/15
f 31/36/16 32/35/16 34/37/16 33/38/16
f 33/38/17 34/37/17 36/39/17 35/40/17
f 35/40/18 36/39/18 38/41/18 37/42/18
f 37/42/19 38/41/19 40/43/19 39/44/19
f 39/44/20 40/43/20 42/45/20 41/46/20
f 41/47/21 42/48/21 44/49/21 43/50/21
f 43/50/22 44/49/22 46/51/22 45/52/22
f 45/52/23 46/51/23 48/53/23 47/54/23
f 47/54/24 48/53/24 50/55/24 49/56/24
f 49/56/25 50/55/25 52/57/25 51/58/25
f 51/58/26 52/57/26 54/59/26 53/60/26
f 53/60/27 54/59/27 56/61/27 55/62/27
f 55/63/28 56/64/28 58/65/28 57/66/28
f 57/66/29 58/65/29 60/67/29 59/68/29
f 59/68/30 60/67/30 62/69/30 61/70/30
f 4/71/31 2/72/31 64/73/31 62/74/31 60/75/31 58/76/31 56/77/31 54/78/31 52/79/31 50/80/31 48/81/31 46/82/31 44/83/31 42/84/31 40/85/31 38/86/31 36/87/31 34/88/31 32/89/31 30/90/31 28/91/31 26/92/31 24/93/31 22/94/31 20/95/31 18/96/31 16/97/31 14/98/31 12/99/31 10/100/31 8/101/31 6/102/31
f 61/70/32 62/69/32 64/103/32 63/104/32
f 63/104/33 64/103/33 2/2/33 1/1/33
f 1/105/34 3/106/34 5/107/34 7/108/34 9/109/34 11/110/34 13/111/34 15/112/34 17/113/34 19/114/34 21/115/34 23/116/34 25/117/34 27/118/34 29/119/34 31/120/34 33/121/34 35/122/34 37/123/34 39/124/34 41/125/34 43/126/34 45/127/34 47/128/34 49/129/34 51/130/34 53/131/34 55/132/34 57/133/34 59/134/34 61/135/34 63/136/34
