# Blender 5.2.0 LTS
# www.blender.org
mtllib Hammer_Pendulum.mtl
o 円柱.001
v 0.000000 -2.200000 -0.060000
v 0.000000 0.000000 -0.060000
v 0.035267 -2.200000 -0.048541
v 0.035267 0.000000 -0.048541
v 0.057063 -2.200000 -0.018541
v 0.057063 0.000000 -0.018541
v 0.057063 -2.200000 0.018541
v 0.057063 0.000000 0.018541
v 0.035267 -2.200000 0.048541
v 0.035267 0.000000 0.048541
v 0.000000 -2.200000 0.060000
v 0.000000 0.000000 0.060000
v -0.035267 -2.200000 0.048541
v -0.035267 0.000000 0.048541
v -0.057063 -2.200000 0.018541
v -0.057063 0.000000 0.018541
v -0.057063 -2.200000 -0.018541
v -0.057063 0.000000 -0.018541
v -0.035267 -2.200000 -0.048541
v -0.035267 0.000000 -0.048541
vn 0.3090 -0.0000 -0.9511
vn 0.8090 -0.0000 -0.5878
vn 1.0000 -0.0000 -0.0000
vn 0.8090 -0.0000 0.5878
vn 0.3090 -0.0000 0.9511
vn -0.3090 -0.0000 0.9511
vn -0.8090 -0.0000 0.5878
vn -1.0000 -0.0000 -0.0000
vn -0.0000 1.0000 -0.0000
vn -0.8090 -0.0000 -0.5878
vn -0.3090 -0.0000 -0.9511
vn -0.0000 -1.0000 -0.0000
vt 1.000000 0.500000
vt 1.000000 1.000000
vt 0.900000 1.000000
vt 0.900000 0.500000
vt 0.800000 1.000000
vt 0.800000 0.500000
vt 0.700000 1.000000
vt 0.700000 0.500000
vt 0.600000 1.000000
vt 0.600000 0.500000
vt 0.500000 1.000000
vt 0.500000 0.500000
vt 0.400000 1.000000
vt 0.400000 0.500000
vt 0.300000 1.000000
vt 0.300000 0.500000
vt 0.200000 1.000000
vt 0.200000 0.500000
vt 0.391068 0.444164
vt 0.250000 0.490000
vt 0.108932 0.444164
vt 0.021746 0.324164
vt 0.021746 0.175836
vt 0.108932 0.055836
vt 0.250000 0.010000
vt 0.391068 0.055836
vt 0.478254 0.175836
vt 0.478254 0.324164
vt 0.100000 1.000000
vt 0.100000 0.500000
vt -0.000000 1.000000
vt -0.000000 0.500000
vt 0.750000 0.490000
vt 0.891068 0.444164
vt 0.978254 0.324164
vt 0.978254 0.175836
vt 0.891068 0.055836
vt 0.750000 0.010000
vt 0.608932 0.055836
vt 0.521746 0.175836
vt 0.521746 0.324164
vt 0.608932 0.444164
s 0
usemtl hammer_shaft
f 1/1/1 2/2/1 4/3/1 3/4/1
f 3/4/2 4/3/2 6/5/2 5/6/2
f 5/6/3 6/5/3 8/7/3 7/8/3
f 7/8/4 8/7/4 10/9/4 9/10/4
f 9/10/5 10/9/5 12/11/5 11/12/5
f 11/12/6 12/11/6 14/13/6 13/14/6
f 13/14/7 14/13/7 16/15/7 15/16/7
f 15/16/8 16/15/8 18/17/8 17/18/8
f 4/19/9 2/20/9 20/21/9 18/22/9 16/23/9 14/24/9 12/25/9 10/26/9 8/27/9 6/28/9
f 17/18/10 18/17/10 20/29/10 19/30/10
f 19/30/11 20/29/11 2/31/11 1/32/11
f 1/33/12 3/34/12 5/35/12 7/36/12 9/37/12 11/38/12 13/39/12 15/40/12 17/41/12 19/42/12
o 円柱.002
v 0.000000 0.120000 -0.080000
v 0.000000 0.120000 0.080000
v 0.084853 0.084853 -0.080000
v 0.084853 0.084853 0.080000
v 0.120000 0.000000 -0.080000
v 0.120000 -0.000000 0.080000
v 0.084853 -0.084853 -0.080000
v 0.084853 -0.084853 0.080000
v 0.000000 -0.120000 -0.080000
v 0.000000 -0.120000 0.080000
v -0.084853 -0.084853 -0.080000
v -0.084853 -0.084853 0.080000
v -0.120000 0.000000 -0.080000
v -0.120000 -0.000000 0.080000
v -0.084853 0.084853 -0.080000
v -0.084853 0.084853 0.080000
vn 0.3827 0.9239 -0.0000
vn 0.9239 0.3827 -0.0000
vn 0.9239 -0.3827 -0.0000
vn 0.3827 -0.9239 -0.0000
vn -0.3827 -0.9239 -0.0000
vn -0.9239 -0.3827 -0.0000
vn -0.0000 -0.0000 1.0000
vn -0.9239 0.3827 -0.0000
vn -0.3827 0.9239 -0.0000
vn -0.0000 -0.0000 -1.0000
vt 1.000000 0.500000
vt 1.000000 1.000000
vt 0.875000 1.000000
vt 0.875000 0.500000
vt 0.750000 1.000000
vt 0.750000 0.500000
vt 0.625000 1.000000
vt 0.625000 0.500000
vt 0.500000 1.000000
vt 0.500000 0.500000
vt 0.375000 1.000000
vt 0.375000 0.500000
vt 0.250000 1.000000
vt 0.250000 0.500000
vt 0.419706 0.419706
vt 0.250000 0.490000
vt 0.080294 0.419706
vt 0.010000 0.250000
vt 0.080294 0.080294
vt 0.250000 0.010000
vt 0.419706 0.080294
vt 0.490000 0.250000
vt 0.125000 1.000000
vt 0.125000 0.500000
vt 0.000000 1.000000
vt 0.000000 0.500000
vt 0.750000 0.490000
vt 0.919706 0.419706
vt 0.990000 0.250000
vt 0.919706 0.080294
vt 0.750000 0.010000
vt 0.580294 0.080294
vt 0.510000 0.250000
vt 0.580294 0.419706
s 0
usemtl hammer_iron
f 21/43/13 22/44/13 24/45/13 23/46/13
f 23/46/14 24/45/14 26/47/14 25/48/14
f 25/48/15 26/47/15 28/49/15 27/50/15
f 27/50/16 28/49/16 30/51/16 29/52/16
f 29/52/17 30/51/17 32/53/17 31/54/17
f 31/54/18 32/53/18 34/55/18 33/56/18
f 24/57/19 22/58/19 36/59/19 34/60/19 32/61/19 30/62/19 28/63/19 26/64/19
f 33/56/20 34/55/20 36/65/20 35/66/20
f 35/66/21 36/65/21 22/67/21 21/68/21
f 21/69/22 23/70/22 25/71/22 27/72/22 29/73/22 31/74/22 33/75/22 35/76/22
o 立方体
v -0.210000 -2.625000 0.170000
v -0.210000 -2.075000 0.170000
v -0.210000 -2.625000 -0.170000
v -0.210000 -2.075000 -0.170000
v 0.210000 -2.625000 0.170000
v 0.210000 -2.075000 0.170000
v 0.210000 -2.625000 -0.170000
v 0.210000 -2.075000 -0.170000
vn -1.0000 -0.0000 -0.0000
vn -0.0000 -0.0000 -1.0000
vn 1.0000 -0.0000 -0.0000
vn -0.0000 -0.0000 1.0000
vn -0.0000 -1.0000 -0.0000
vn -0.0000 1.0000 -0.0000
vt 0.375000 0.000000
vt 0.625000 0.000000
vt 0.625000 0.250000
vt 0.375000 0.250000
vt 0.625000 0.500000
vt 0.375000 0.500000
vt 0.625000 0.750000
vt 0.375000 0.750000
vt 0.625000 1.000000
vt 0.375000 1.000000
vt 0.125000 0.500000
vt 0.125000 0.750000
vt 0.875000 0.500000
vt 0.875000 0.750000
s 0
usemtl hammer_iron
f 37/77/23 38/78/23 40/79/23 39/80/23
f 39/80/24 40/79/24 44/81/24 43/82/24
f 43/82/25 44/81/25 42/83/25 41/84/25
f 41/84/26 42/83/26 38/85/26 37/86/26
f 39/87/27 43/82/27 41/84/27 37/88/27
f 44/81/28 40/89/28 38/90/28 42/83/28
o 立方体.001
v -0.220000 -2.410000 0.180000
v -0.220000 -2.290000 0.180000
v -0.220000 -2.410000 -0.180000
v -0.220000 -2.290000 -0.180000
v 0.220000 -2.410000 0.180000
v 0.220000 -2.290000 0.180000
v 0.220000 -2.410000 -0.180000
v 0.220000 -2.290000 -0.180000
vn -1.0000 -0.0000 -0.0000
vn -0.0000 -0.0000 -1.0000
vn 1.0000 -0.0000 -0.0000
vn -0.0000 -0.0000 1.0000
vn -0.0000 -1.0000 -0.0000
vn -0.0000 1.0000 -0.0000
vt 0.375000 0.000000
vt 0.625000 0.000000
vt 0.625000 0.250000
vt 0.375000 0.250000
vt 0.625000 0.500000
vt 0.375000 0.500000
vt 0.625000 0.750000
vt 0.375000 0.750000
vt 0.625000 1.000000
vt 0.375000 1.000000
vt 0.125000 0.500000
vt 0.125000 0.750000
vt 0.875000 0.500000
vt 0.875000 0.750000
s 0
usemtl hammer_band
f 45/91/29 46/92/29 48/93/29 47/94/29
f 47/94/30 48/93/30 52/95/30 51/96/30
f 51/96/31 52/95/31 50/97/31 49/98/31
f 49/98/32 50/97/32 46/99/32 45/100/32
f 47/101/33 51/96/33 49/98/33 45/102/33
f 52/95/34 48/103/34 46/104/34 50/97/34
