# Blender 5.2.0 LTS
# www.blender.org
mtllib Hammer_Pendulum.mtl
o Hammer_Pendulum
v 0.000000 -2.200000 -0.060000
v 0.000000 0.000000 -0.060000
v 0.035267 -2.200000 -0.048541
v 0.035267 0.000000 -0.048541
v 0.057063 -2.200000 -0.018541
v 0.057063 0.000000 -0.018541
v 0.057063 -2.200000 0.018541
v 0.057063 0.000000 0.018541
v 0.035267 -2.200000 0.048541
v 0.035267 0.000000 0.048541
v 0.000000 -2.200000 0.060000
v 0.000000 0.000000 0.060000
v -0.035267 -2.200000 0.048541
v -0.035267 0.000000 0.048541
v -0.057063 -2.200000 0.018541
v -0.057063 0.000000 0.018541
v -0.057063 -2.200000 -0.018541
v -0.057063 0.000000 -0.018541
v -0.035267 -2.200000 -0.048541
v -0.035267 0.000000 -0.048541
v 0.000000 0.120000 -0.080000
v 0.000000 0.120000 0.080000
v 0.084853 0.084853 -0.080000
v 0.084853 0.084853 0.080000
v 0.120000 0.000000 -0.080000
v 0.120000 0.000000 0.080000
v 0.084853 -0.084853 -0.080000
v 0.084853 -0.084853 0.080000
v 0.000000 -0.120000 -0.080000
v 0.000000 -0.120000 0.080000
v -0.084853 -0.084853 -0.080000
v -0.084853 -0.084853 0.080000
v -0.120000 0.000000 -0.080000
v -0.120000 0.000000 0.080000
v -0.084853 0.084853 -0.080000
v -0.084853 0.084853 0.080000
v -0.210000 -2.625000 0.170000
v -0.210000 -2.075000 0.170000
v -0.210000 -2.625000 -0.170000
v -0.210000 -2.075000 -0.170000
v 0.210000 -2.625000 0.170000
v 0.210000 -2.075000 0.170000
v 0.210000 -2.625000 -0.170000
v 0.210000 -2.075000 -0.170000
v -0.220000 -2.410000 0.180000
v -0.220000 -2.290000 0.180000
v -0.220000 -2.410000 -0.180000
v -0.220000 -2.290000 -0.180000
v 0.220000 -2.410000 0.180000
v 0.220000 -2.290000 0.180000
v 0.220000 -2.410000 -0.180000
v 0.220000 -2.290000 -0.180000
vn 0.3090 -0.0000 -0.9511
vn 0.8090 -0.0000 -0.5878
vn 1.0000 -0.0000 -0.0000
vn 0.8090 -0.0000 0.5878
vn 0.3090 -0.0000 0.9511
vn -0.3090 -0.0000 0.9511
vn -0.8090 -0.0000 0.5878
vn -1.0000 -0.0000 -0.0000
vn -0.0000 1.0000 -0.0000
vn -0.8090 -0.0000 -0.5878
vn -0.3090 -0.0000 -0.9511
vn -0.0000 -1.0000 -0.0000
vn 0.3827 0.9239 -0.0000
vn 0.9239 0.3827 -0.0000
vn 0.9239 -0.3827 -0.0000
vn 0.3827 -0.9239 -0.0000
vn -0.3827 -0.9239 -0.0000
vn -0.9239 -0.3827 -0.0000
vn -0.0000 -0.0000 1.0000
vn -0.9239 0.3827 -0.0000
vn -0.3827 0.9239 -0.0000
vn -0.0000 -0.0000 -1.0000
vt 0.538677 0.993451
vt 0.538677 0.006549
vt 0.554497 0.006549
vt 0.554497 0.993451
vt 0.063196 0.989740
vt 0.063196 0.007498
vt 0.076654 0.006549
vt 0.076654 0.988791
vt 0.093289 0.006549
vt 0.093289 0.988791
vt 0.106747 0.007498
vt 0.106747 0.989740
vt 0.567594 0.993451
vt 0.567594 0.006549
vt 0.583415 0.006549
vt 0.583415 0.993451
vt 0.599236 0.006549
vt 0.599236 0.993451
vt 0.006549 0.993451
vt 0.006549 0.006549
vt 0.020006 0.006549
vt 0.020006 0.993451
vt 0.036641 0.006549
vt 0.036641 0.993451
vt 0.214494 0.776391
vt 0.204716 0.762934
vt 0.204716 0.746299
vt 0.214494 0.732841
vt 0.230314 0.727701
vt 0.246135 0.732841
vt 0.255912 0.746299
vt 0.255912 0.762934
vt 0.246135 0.776391
vt 0.230314 0.781532
vt 0.050099 0.006549
vt 0.050099 0.993451
vt 0.522856 0.993451
vt 0.522856 0.006549
vt 0.455207 0.770740
vt 0.455207 0.754106
vt 0.464984 0.740648
vt 0.480805 0.735508
vt 0.496626 0.740648
vt 0.506403 0.754106
vt 0.506403 0.770740
vt 0.496626 0.784198
vt 0.480805 0.789339
vt 0.464984 0.784198
vt 0.679261 0.569161
vt 0.751036 0.569161
vt 0.751036 0.607225
vt 0.679261 0.607225
vt 0.370335 0.735508
vt 0.442109 0.735508
vt 0.442109 0.771862
vt 0.370335 0.771862
vt 0.442109 0.811277
vt 0.370335 0.811277
vt 0.191619 0.803829
vt 0.119844 0.803829
vt 0.119844 0.765765
vt 0.191619 0.765765
vt 0.119844 0.727701
vt 0.191619 0.727701
vt 0.357237 0.811636
vt 0.285463 0.811636
vt 0.285463 0.773572
vt 0.357237 0.773572
vt 0.682667 0.629011
vt 0.711800 0.658144
vt 0.711800 0.699344
vt 0.682667 0.728477
vt 0.641466 0.728477
vt 0.612333 0.699344
vt 0.612333 0.658144
vt 0.641466 0.629011
vt 0.285463 0.735508
vt 0.357237 0.735508
vt 0.679261 0.531097
vt 0.751036 0.531097
vt 0.778728 0.447666
vt 0.778728 0.488866
vt 0.749595 0.517999
vt 0.708395 0.517999
vt 0.679261 0.488866
vt 0.679261 0.447666
vt 0.708395 0.418533
vt 0.749595 0.418533
vt 0.119844 0.513097
vt 0.119844 0.266372
vt 0.272365 0.266372
vt 0.272365 0.513097
vt 0.119844 0.253274
vt 0.119844 0.006549
vt 0.308253 0.006549
vt 0.308253 0.253274
vt 0.285463 0.511932
vt 0.285463 0.266372
vt 0.437984 0.266372
vt 0.437984 0.511932
vt 0.321350 0.253274
vt 0.321350 0.006549
vt 0.509759 0.006549
vt 0.509759 0.253274
vt 0.272365 0.526195
vt 0.272365 0.714603
vt 0.119844 0.714603
vt 0.119844 0.526195
vt 0.764854 0.217027
vt 0.764854 0.405435
vt 0.612333 0.405435
vt 0.612333 0.217027
vt 0.778728 0.790504
vt 0.724897 0.790504
vt 0.724897 0.629011
vt 0.778728 0.629011
vt 0.504912 0.463752
vt 0.451081 0.463752
vt 0.451081 0.266372
vt 0.504912 0.266372
vt 0.831528 0.378520
vt 0.777952 0.378520
vt 0.777952 0.217027
vt 0.831528 0.217027
vt 0.666164 0.615913
vt 0.612333 0.615913
vt 0.612333 0.418533
vt 0.666164 0.418533
vt 0.446956 0.525030
vt 0.446956 0.722410
vt 0.285463 0.722410
vt 0.285463 0.525030
vt 0.773826 0.006549
vt 0.773826 0.203929
vt 0.612333 0.203929
vt 0.612333 0.006549
s 0
usemtl Hammer_Pendulum_baked
f 1/1/1 2/2/1 4/3/1 3/4/1
f 3/5/2 4/6/2 6/7/2 5/8/2
f 5/8/3 6/7/3 8/9/3 7/10/3
f 7/10/4 8/9/4 10/11/4 9/12/4
f 9/13/5 10/14/5 12/15/5 11/16/5
f 11/16/6 12/15/6 14/17/6 13/18/6
f 13/19/7 14/20/7 16/21/7 15/22/7
f 15/22/8 16/21/8 18/23/8 17/24/8
f 4/25/9 2/26/9 20/27/9 18/28/9 16/29/9 14/30/9 12/31/9 10/32/9 8/33/9 6/34/9
f 17/24/10 18/23/10 20/35/10 19/36/10
f 19/37/11 20/38/11 2/2/11 1/1/11
f 1/39/12 3/40/12 5/41/12 7/42/12 9/43/12 11/44/12 13/45/12 15/46/12 17/47/12 19/48/12
f 21/49/13 22/50/13 24/51/13 23/52/13
f 23/53/14 24/54/14 26/55/14 25/56/14
f 25/56/15 26/55/15 28/57/15 27/58/15
f 27/59/16 28/60/16 30/61/16 29/62/16
f 29/62/17 30/61/17 32/63/17 31/64/17
f 31/65/18 32/66/18 34/67/18 33/68/18
f 24/69/19 22/70/19 36/71/19 34/72/19 32/73/19 30/74/19 28/75/19 26/76/19
f 33/68/20 34/67/20 36/77/20 35/78/20
f 35/79/21 36/80/21 22/50/21 21/49/21
f 21/81/22 23/82/22 25/83/22 27/84/22 29/85/22 31/86/22 33/87/22 35/88/22
f 37/89/8 38/90/8 40/91/8 39/92/8
f 39/93/22 40/94/22 44/95/22 43/96/22
f 43/97/3 44/98/3 42/99/3 41/100/3
f 41/101/19 42/102/19 38/103/19 37/104/19
f 39/105/12 43/106/12 41/107/12 37/108/12
f 44/109/9 40/110/9 38/111/9 42/112/9
f 45/113/8 46/114/8 48/115/8 47/116/8
f 47/117/22 48/118/22 52/119/22 51/120/22
f 51/121/3 52/122/3 50/123/3 49/124/3
f 49/125/19 50/126/19 46/127/19 45/128/19
f 47/129/12 51/130/12 49/131/12 45/132/12
f 52/133/9 48/134/9 46/135/9 50/136/9
