# Blender 5.2.0 LTS
# www.blender.org
mtllib Fan_Base.mtl
o Fan_Base
v 0.000000 -0.140000 -0.570000
v 0.000000 0.140000 -0.570000
v 0.147527 -0.140000 -0.550578
v 0.147527 0.140000 -0.550578
v 0.285000 -0.140000 -0.493634
v 0.285000 0.140000 -0.493634
v 0.403051 -0.140000 -0.403051
v 0.403051 0.140000 -0.403051
v 0.493634 -0.140000 -0.285000
v 0.493634 0.140000 -0.285000
v 0.550578 -0.140000 -0.147527
v 0.550578 0.140000 -0.147527
v 0.570000 -0.140000 0.000000
v 0.570000 0.140000 0.000000
v 0.550578 -0.140000 0.147527
v 0.550578 0.140000 0.147527
v 0.493634 -0.140000 0.285000
v 0.493634 0.140000 0.285000
v 0.403051 -0.140000 0.403051
v 0.403051 0.140000 0.403051
v 0.285000 -0.140000 0.493634
v 0.285000 0.140000 0.493634
v 0.147527 -0.140000 0.550578
v 0.147527 0.140000 0.550578
v 0.000000 -0.140000 0.570000
v 0.000000 0.140000 0.570000
v -0.147527 -0.140000 0.550578
v -0.147527 0.140000 0.550578
v -0.285000 -0.140000 0.493634
v -0.285000 0.140000 0.493634
v -0.403051 -0.140000 0.403051
v -0.403051 0.140000 0.403051
v -0.493634 -0.140000 0.285000
v -0.493634 0.140000 0.285000
v -0.550578 -0.140000 0.147527
v -0.550578 0.140000 0.147527
v -0.570000 -0.140000 0.000000
v -0.570000 0.140000 0.000000
v -0.550578 -0.140000 -0.147527
v -0.550578 0.140000 -0.147527
v -0.493634 -0.140000 -0.285000
v -0.493634 0.140000 -0.285000
v -0.403051 -0.140000 -0.403051
v -0.403051 0.140000 -0.403051
v -0.285000 -0.140000 -0.493634
v -0.285000 0.140000 -0.493634
v -0.147527 -0.140000 -0.550578
v -0.147527 0.140000 -0.550578
v 0.000000 -0.140000 -0.500000
v 0.000000 0.140000 -0.500000
v 0.129410 -0.140000 -0.482963
v 0.129410 0.140000 -0.482963
v 0.250000 -0.140000 -0.433013
v 0.250000 0.140000 -0.433013
v 0.353553 -0.140000 -0.353553
v 0.353553 0.140000 -0.353553
v 0.433013 -0.140000 -0.250000
v 0.433013 0.140000 -0.250000
v 0.482963 -0.140000 -0.129410
v 0.482963 0.140000 -0.129410
v 0.500000 -0.140000 0.000000
v 0.500000 0.140000 0.000000
v 0.482963 -0.140000 0.129410
v 0.482963 0.140000 0.129410
v 0.433013 -0.140000 0.250000
v 0.433013 0.140000 0.250000
v 0.353553 -0.140000 0.353553
v 0.353553 0.140000 0.353553
v 0.250000 -0.140000 0.433013
v 0.250000 0.140000 0.433013
v 0.129410 -0.140000 0.482963
v 0.129410 0.140000 0.482963
v 0.000000 -0.140000 0.500000
v 0.000000 0.140000 0.500000
v -0.129410 -0.140000 0.482963
v -0.129410 0.140000 0.482963
v -0.250000 -0.140000 0.433013
v -0.250000 0.140000 0.433013
v -0.353553 -0.140000 0.353553
v -0.353553 0.140000 0.353553
v -0.433013 -0.140000 0.250000
v -0.433013 0.140000 0.250000
v -0.482963 -0.140000 0.129410
v -0.482963 0.140000 0.129410
v -0.500000 -0.140000 0.000000
v -0.500000 0.140000 0.000000
v -0.482963 -0.140000 -0.129410
v -0.482963 0.140000 -0.129410
v -0.433013 -0.140000 -0.250000
v -0.433013 0.140000 -0.250000
v -0.353553 -0.140000 -0.353553
v -0.353553 0.140000 -0.353553
v -0.250000 -0.140000 -0.433013
v -0.250000 0.140000 -0.433013
v -0.129410 -0.140000 -0.482963
v -0.129410 0.140000 -0.482963
v -0.370000 -0.240000 0.150000
v -0.370000 -0.140000 0.150000
v -0.370000 -0.240000 -0.150000
v -0.370000 -0.140000 -0.150000
v -0.270000 -0.240000 0.150000
v -0.270000 -0.140000 0.150000
v -0.270000 -0.240000 -0.150000
v -0.270000 -0.140000 -0.150000
v 0.270000 -0.240000 0.150000
v 0.270000 -0.140000 0.150000
v 0.270000 -0.240000 -0.150000
v 0.270000 -0.140000 -0.150000
v 0.370000 -0.240000 0.150000
v 0.370000 -0.140000 0.150000
v 0.370000 -0.240000 -0.150000
v 0.370000 -0.140000 -0.150000
vn 0.1305 -0.0000 -0.9914
vn 0.3827 -0.0000 -0.9239
vn 0.6088 -0.0000 -0.7934
vn 0.7934 -0.0000 -0.6088
vn 0.9239 -0.0000 -0.3827
vn 0.9914 -0.0000 -0.1305
vn 0.9914 -0.0000 0.1305
vn 0.9239 -0.0000 0.3827
vn 0.7934 -0.0000 0.6088
vn 0.6088 -0.0000 0.7934
vn 0.3827 -0.0000 0.9239
vn 0.1305 -0.0000 0.9914
vn -0.1305 -0.0000 0.9914
vn -0.3827 -0.0000 0.9239
vn -0.6088 -0.0000 0.7934
vn -0.7934 -0.0000 0.6088
vn -0.9239 -0.0000 0.3827
vn -0.9914 -0.0000 0.1305
vn -0.9914 -0.0000 -0.1305
vn -0.9239 -0.0000 -0.3827
vn -0.7934 -0.0000 -0.6088
vn -0.6088 -0.0000 -0.7934
vn -0.3827 -0.0000 -0.9239
vn -0.1305 -0.0000 -0.9914
vn -0.0000 -1.0000 -0.0000
vn -0.0000 1.0000 -0.0000
vn -1.0000 -0.0000 -0.0000
vn -0.0000 -0.0000 -1.0000
vn 1.0000 -0.0000 -0.0000
vn -0.0000 -0.0000 1.0000
vt 0.607291 0.180997
vt 0.490546 0.180997
vt 0.490546 0.118972
vt 0.607291 0.118972
vt 0.490546 0.059431
vt 0.607291 0.059431
vt 0.490546 0.006431
vt 0.607291 0.006431
vt 0.607291 0.687593
vt 0.490546 0.687593
vt 0.490546 0.642722
vt 0.607291 0.642722
vt 0.490546 0.588291
vt 0.607291 0.588291
vt 0.490546 0.528009
vt 0.607291 0.528009
vt 0.490546 0.465984
vt 0.607291 0.465984
vt 0.490546 0.406443
vt 0.607291 0.406443
vt 0.490546 0.353443
vt 0.607291 0.353443
vt 0.736899 0.340581
vt 0.620154 0.340581
vt 0.620154 0.295710
vt 0.736899 0.295710
vt 0.620154 0.241279
vt 0.736899 0.241279
vt 0.620154 0.180997
vt 0.736899 0.180997
vt 0.620154 0.118972
vt 0.736899 0.118972
vt 0.620154 0.059431
vt 0.736899 0.059431
vt 0.620154 0.006431
vt 0.736899 0.006431
vt 0.736899 0.687593
vt 0.620154 0.687593
vt 0.620154 0.642722
vt 0.736899 0.642722
vt 0.620154 0.588291
vt 0.736899 0.588291
vt 0.620154 0.528009
vt 0.736899 0.528009
vt 0.620154 0.465984
vt 0.736899 0.465984
vt 0.620154 0.406443
vt 0.736899 0.406443
vt 0.620154 0.353443
vt 0.736899 0.353443
vt 0.607291 0.340581
vt 0.490546 0.340581
vt 0.490546 0.295710
vt 0.607291 0.295710
vt 0.490546 0.241279
vt 0.607291 0.241279
vt 0.866507 0.146417
vt 0.866507 0.200825
vt 0.749762 0.200825
vt 0.749762 0.146417
vt 0.866507 0.253054
vt 0.749762 0.253054
vt 0.866507 0.299545
vt 0.749762 0.299545
vt 0.866507 0.312407
vt 0.866507 0.351768
vt 0.749762 0.351768
vt 0.749762 0.312407
vt 0.866507 0.399514
vt 0.749762 0.399514
vt 0.866507 0.452393
vt 0.749762 0.452393
vt 0.866507 0.506801
vt 0.749762 0.506801
vt 0.866507 0.559030
vt 0.749762 0.559030
vt 0.866507 0.605521
vt 0.749762 0.605521
vt 0.866507 0.618384
vt 0.866507 0.657744
vt 0.749762 0.657744
vt 0.749762 0.618384
vt 0.866507 0.705490
vt 0.749762 0.705490
vt 0.866507 0.758369
vt 0.749762 0.758369
vt 0.866507 0.812777
vt 0.749762 0.812777
vt 0.866507 0.865006
vt 0.749762 0.865006
vt 0.866507 0.911497
vt 0.749762 0.911497
vt 0.607291 0.700455
vt 0.607291 0.739815
vt 0.490546 0.739815
vt 0.490546 0.700455
vt 0.607291 0.787562
vt 0.490546 0.787562
vt 0.607291 0.840441
vt 0.490546 0.840441
vt 0.607291 0.894849
vt 0.490546 0.894849
vt 0.607291 0.947078
vt 0.490546 0.947078
vt 0.607291 0.993569
vt 0.490546 0.993569
vt 0.866507 0.006431
vt 0.866507 0.045792
vt 0.749762 0.045791
vt 0.749762 0.006431
vt 0.866507 0.093538
vt 0.749762 0.093538
vt 0.006431 0.273078
vt 0.006431 0.211037
vt 0.035368 0.214846
vt 0.035368 0.269269
vt 0.022489 0.817121
vt 0.006431 0.757193
vt 0.035368 0.753384
vt 0.049453 0.805952
vt 0.022489 0.151109
vt 0.049453 0.162278
vt 0.053510 0.870850
vt 0.076665 0.853083
vt 0.053510 0.097380
vt 0.076665 0.115147
vt 0.097380 0.914720
vt 0.115147 0.891565
vt 0.097380 0.053510
vt 0.115147 0.076665
vt 0.151109 0.945741
vt 0.162278 0.918776
vt 0.151109 0.022489
vt 0.162278 0.049453
vt 0.211037 0.961799
vt 0.214846 0.932862
vt 0.211037 0.006431
vt 0.214846 0.035368
vt 0.273078 0.961799
vt 0.269269 0.932862
vt 0.273078 0.006431
vt 0.269269 0.035368
vt 0.333006 0.945741
vt 0.321837 0.918776
vt 0.333006 0.022489
vt 0.321837 0.049453
vt 0.386735 0.914720
vt 0.368968 0.891565
vt 0.386735 0.053510
vt 0.368968 0.076665
vt 0.430605 0.870850
vt 0.407450 0.853083
vt 0.430605 0.097380
vt 0.407450 0.115147
vt 0.461626 0.817121
vt 0.434662 0.805952
vt 0.461626 0.151109
vt 0.434662 0.162278
vt 0.477684 0.757193
vt 0.448747 0.753384
vt 0.477684 0.211037
vt 0.448747 0.214846
vt 0.477684 0.695152
vt 0.448747 0.698961
vt 0.477684 0.273078
vt 0.448747 0.269269
vt 0.461626 0.635224
vt 0.434662 0.646393
vt 0.461626 0.333006
vt 0.434662 0.321837
vt 0.430605 0.581495
vt 0.407450 0.599262
vt 0.430605 0.386735
vt 0.407450 0.368968
vt 0.386735 0.537625
vt 0.368968 0.560780
vt 0.386735 0.430605
vt 0.368968 0.407450
vt 0.333006 0.506604
vt 0.321837 0.533568
vt 0.333006 0.461626
vt 0.321837 0.434662
vt 0.273078 0.490546
vt 0.269269 0.519483
vt 0.273078 0.477684
vt 0.269269 0.448747
vt 0.211037 0.490546
vt 0.214846 0.519483
vt 0.211037 0.477684
vt 0.214846 0.448747
vt 0.151109 0.506604
vt 0.162278 0.533568
vt 0.151109 0.461626
vt 0.162278 0.434662
vt 0.097380 0.537625
vt 0.115147 0.560780
vt 0.097380 0.430605
vt 0.115147 0.407450
vt 0.053510 0.581495
vt 0.076665 0.599262
vt 0.053510 0.386735
vt 0.076665 0.368968
vt 0.022489 0.635224
vt 0.049453 0.646393
vt 0.022489 0.333006
vt 0.049453 0.321837
vt 0.006431 0.695152
vt 0.035368 0.698961
vt 0.921064 0.406682
vt 0.879369 0.406682
vt 0.879369 0.282325
vt 0.921064 0.282325
vt 0.620154 0.880096
vt 0.620154 0.838402
vt 0.661606 0.838402
vt 0.661606 0.880096
vt 0.921064 0.543902
vt 0.879369 0.543902
vt 0.879369 0.419545
vt 0.921064 0.419545
vt 0.674469 0.880096
vt 0.674469 0.838402
vt 0.715922 0.838402
vt 0.715922 0.880096
vt 0.661849 0.825539
vt 0.620154 0.825539
vt 0.620154 0.700455
vt 0.661849 0.700455
vt 0.716406 0.825539
vt 0.674711 0.825539
vt 0.674711 0.700455
vt 0.716406 0.700455
vt 0.921064 0.681122
vt 0.879369 0.681122
vt 0.879369 0.556765
vt 0.921064 0.556765
vt 0.879369 0.872900
vt 0.879369 0.831205
vt 0.920822 0.831205
vt 0.920822 0.872900
vt 0.921064 0.818343
vt 0.879369 0.818343
vt 0.879369 0.693985
vt 0.921064 0.693985
vt 0.879369 0.927457
vt 0.879369 0.885762
vt 0.920822 0.885762
vt 0.920822 0.927457
vt 0.921064 0.131515
vt 0.879369 0.131515
vt 0.879369 0.006431
vt 0.921064 0.006431
vt 0.921064 0.269462
vt 0.879369 0.269462
vt 0.879369 0.144378
vt 0.921064 0.144378
s 0
usemtl Fan_Base_baked
f 1/1/1 2/2/1 4/3/1 3/4/1
f 3/4/2 4/3/2 6/5/2 5/6/2
f 5/6/3 6/5/3 8/7/3 7/8/3
f 7/9/4 8/10/4 10/11/4 9/12/4
f 9/12/5 10/11/5 12/13/5 11/14/5
f 11/14/6 12/13/6 14/15/6 13/16/6
f 13/16/7 14/15/7 16/17/7 15/18/7
f 15/18/8 16/17/8 18/19/8 17/20/8
f 17/20/9 18/19/9 20/21/9 19/22/9
f 19/23/10 20/24/10 22/25/10 21/26/10
f 21/26/11 22/25/11 24/27/11 23/28/11
f 23/28/12 24/27/12 26/29/12 25/30/12
f 25/30/13 26/29/13 28/31/13 27/32/13
f 27/32/14 28/31/14 30/33/14 29/34/14
f 29/34/15 30/33/15 32/35/15 31/36/15
f 31/37/16 32/38/16 34/39/16 33/40/16
f 33/40/17 34/39/17 36/41/17 35/42/17
f 35/42/18 36/41/18 38/43/18 37/44/18
f 37/44/19 38/43/19 40/45/19 39/46/19
f 39/46/20 40/45/20 42/47/20 41/48/20
f 41/48/21 42/47/21 44/49/21 43/50/21
f 43/51/22 44/52/22 46/53/22 45/54/22
f 45/54/23 46/53/23 48/55/23 47/56/23
f 47/56/24 48/55/24 2/2/24 1/1/24
f 49/57/13 51/58/13 52/59/13 50/60/13
f 51/58/14 53/61/14 54/62/14 52/59/14
f 53/61/15 55/63/15 56/64/15 54/62/15
f 55/65/16 57/66/16 58/67/16 56/68/16
f 57/66/17 59/69/17 60/70/17 58/67/17
f 59/69/18 61/71/18 62/72/18 60/70/18
f 61/71/19 63/73/19 64/74/19 62/72/19
f 63/73/20 65/75/20 66/76/20 64/74/20
f 65/75/21 67/77/21 68/78/21 66/76/21
f 67/79/22 69/80/22 70/81/22 68/82/22
f 69/80/23 71/83/23 72/84/23 70/81/23
f 71/83/24 73/85/24 74/86/24 72/84/24
f 73/85/1 75/87/1 76/88/1 74/86/1
f 75/87/2 77/89/2 78/90/2 76/88/2
f 77/89/3 79/91/3 80/92/3 78/90/3
f 79/93/4 81/94/4 82/95/4 80/96/4
f 81/94/5 83/97/5 84/98/5 82/95/5
f 83/97/6 85/99/6 86/100/6 84/98/6
f 85/99/7 87/101/7 88/102/7 86/100/7
f 87/101/8 89/103/8 90/104/8 88/102/8
f 89/103/9 91/105/9 92/106/9 90/104/9
f 91/107/10 93/108/10 94/109/10 92/110/10
f 93/108/11 95/111/11 96/112/11 94/109/11
f 95/111/12 49/57/12 50/60/12 96/112/12
f 1/113/25 3/114/25 51/115/25 49/116/25
f 4/117/26 2/118/26 50/119/26 52/120/26
f 3/114/25 5/121/25 53/122/25 51/115/25
f 6/123/26 4/117/26 52/120/26 54/124/26
f 5/121/25 7/125/25 55/126/25 53/122/25
f 8/127/26 6/123/26 54/124/26 56/128/26
f 7/125/25 9/129/25 57/130/25 55/126/25
f 10/131/26 8/127/26 56/128/26 58/132/26
f 9/129/25 11/133/25 59/134/25 57/130/25
f 12/135/26 10/131/26 58/132/26 60/136/26
f 11/133/25 13/137/25 61/138/25 59/134/25
f 14/139/26 12/135/26 60/136/26 62/140/26
f 13/137/25 15/141/25 63/142/25 61/138/25
f 16/143/26 14/139/26 62/140/26 64/144/26
f 15/141/25 17/145/25 65/146/25 63/142/25
f 18/147/26 16/143/26 64/144/26 66/148/26
f 17/145/25 19/149/25 67/150/25 65/146/25
f 20/151/26 18/147/26 66/148/26 68/152/26
f 19/149/25 21/153/25 69/154/25 67/150/25
f 22/155/26 20/151/26 68/152/26 70/156/26
f 21/153/25 23/157/25 71/158/25 69/154/25
f 24/159/26 22/155/26 70/156/26 72/160/26
f 23/157/25 25/161/25 73/162/25 71/158/25
f 26/163/26 24/159/26 72/160/26 74/164/26
f 25/161/25 27/165/25 75/166/25 73/162/25
f 28/167/26 26/163/26 74/164/26 76/168/26
f 27/165/25 29/169/25 77/170/25 75/166/25
f 30/171/26 28/167/26 76/168/26 78/172/26
f 29/169/25 31/173/25 79/174/25 77/170/25
f 32/175/26 30/171/26 78/172/26 80/176/26
f 31/173/25 33/177/25 81/178/25 79/174/25
f 34/179/26 32/175/26 80/176/26 82/180/26
f 33/177/25 35/181/25 83/182/25 81/178/25
f 36/183/26 34/179/26 82/180/26 84/184/26
f 35/181/25 37/185/25 85/186/25 83/182/25
f 38/187/26 36/183/26 84/184/26 86/188/26
f 37/185/25 39/189/25 87/190/25 85/186/25
f 40/191/26 38/187/26 86/188/26 88/192/26
f 39/189/25 41/193/25 89/194/25 87/190/25
f 42/195/26 40/191/26 88/192/26 90/196/26
f 41/193/25 43/197/25 91/198/25 89/194/25
f 44/199/26 42/195/26 90/196/26 92/200/26
f 43/197/25 45/201/25 93/202/25 91/198/25
f 46/203/26 44/199/26 92/200/26 94/204/26
f 45/201/25 47/205/25 95/206/25 93/202/25
f 48/207/26 46/203/26 94/204/26 96/208/26
f 47/205/25 1/113/25 49/116/25 95/206/25
f 2/118/26 48/207/26 96/208/26 50/119/26
f 97/209/27 98/210/27 100/211/27 99/212/27
f 99/213/28 100/214/28 104/215/28 103/216/28
f 103/217/29 104/218/29 102/219/29 101/220/29
f 101/221/30 102/222/30 98/223/30 97/224/30
f 99/225/25 103/226/25 101/227/25 97/228/25
f 104/229/26 100/230/26 98/231/26 102/232/26
f 105/233/27 106/234/27 108/235/27 107/236/27
f 107/237/28 108/238/28 112/239/28 111/240/28
f 111/241/29 112/242/29 110/243/29 109/244/29
f 109/245/30 110/246/30 106/247/30 105/248/30
f 107/249/25 111/250/25 109/251/25 105/252/25
f 112/253/26 108/254/26 106/255/26 110/256/26
