# Blender 5.2.0 LTS
# www.blender.org
mtllib BG_Hand_M.mtl
o BG_Hand_M
v -0.030000 -0.020000 0.020000
v -0.030000 0.580000 0.020000
v -0.030000 -0.020000 -0.020000
v -0.030000 0.580000 -0.020000
v 0.030000 -0.020000 0.020000
v 0.030000 0.580000 0.020000
v 0.030000 -0.020000 -0.020000
v 0.030000 0.580000 -0.020000
v -0.070711 0.600000 0.020000
v 0.000000 0.670711 0.020000
v -0.070711 0.600000 -0.020000
v 0.000000 0.670711 -0.020000
v 0.000000 0.529289 0.020000
v 0.070711 0.600000 0.020000
v 0.000000 0.529289 -0.020000
v 0.070711 0.600000 -0.020000
v 0.000000 0.060000 -0.005000
v 0.000000 0.060000 0.045000
v 0.030000 0.051962 -0.005000
v 0.030000 0.051962 0.045000
v 0.051962 0.030000 -0.005000
v 0.051962 0.030000 0.045000
v 0.060000 0.000000 -0.005000
v 0.060000 0.000000 0.045000
v 0.051962 -0.030000 -0.005000
v 0.051962 -0.030000 0.045000
v 0.030000 -0.051962 -0.005000
v 0.030000 -0.051962 0.045000
v 0.000000 -0.060000 -0.005000
v 0.000000 -0.060000 0.045000
v -0.030000 -0.051962 -0.005000
v -0.030000 -0.051962 0.045000
v -0.051962 -0.030000 -0.005000
v -0.051962 -0.030000 0.045000
v -0.060000 0.000000 -0.005000
v -0.060000 0.000000 0.045000
v -0.051962 0.030000 -0.005000
v -0.051962 0.030000 0.045000
v -0.030000 0.051962 -0.005000
v -0.030000 0.051962 0.045000
vn -1.0000 -0.0000 -0.0000
vn -0.0000 -0.0000 -1.0000
vn 1.0000 -0.0000 -0.0000
vn -0.0000 -0.0000 1.0000
vn -0.0000 -1.0000 -0.0000
vn -0.0000 1.0000 -0.0000
vn -0.7071 0.7071 -0.0000
vn 0.7071 -0.7071 -0.0000
vn -0.7071 -0.7071 -0.0000
vn 0.7071 0.7071 -0.0000
vn 0.2588 0.9659 -0.0000
vn 0.9659 0.2588 -0.0000
vn 0.9659 -0.2588 -0.0000
vn 0.2588 -0.9659 -0.0000
vn -0.2588 -0.9659 -0.0000
vn -0.9659 -0.2588 -0.0000
vn -0.9659 0.2588 -0.0000
vn -0.2588 0.9659 -0.0000
vt 0.437500 0.500000
vt 0.062500 0.500000
s 0
usemtl TA_Pal
f 2/1/1 3/1/1 1/1/1
f 4/1/2 7/1/2 3/1/2
f 8/1/3 5/1/3 7/1/3
f 6/1/4 1/1/4 5/1/4
f 7/1/5 1/1/5 3/1/5
f 4/1/6 6/1/6 8/1/6
f 10/1/7 11/1/7 9/1/7
f 12/1/2 15/1/2 11/1/2
f 16/1/8 13/1/8 15/1/8
f 14/1/4 9/1/4 13/1/4
f 15/1/9 9/1/9 11/1/9
f 12/1/10 14/1/10 16/1/10
f 18/2/11 19/2/11 17/2/11
f 20/2/10 21/2/10 19/2/10
f 21/2/12 24/2/12 23/2/12
f 24/2/13 25/2/13 23/2/13
f 26/2/8 27/2/8 25/2/8
f 28/2/14 29/2/14 27/2/14
f 30/2/15 31/2/15 29/2/15
f 32/2/9 33/2/9 31/2/9
f 34/2/16 35/2/16 33/2/16
f 36/2/17 37/2/17 35/2/17
f 38/2/4 30/2/4 22/2/4
f 38/2/7 39/2/7 37/2/7
f 40/2/18 17/2/18 39/2/18
f 23/2/2 31/2/2 39/2/2
f 2/1/1 4/1/1 3/1/1
f 4/1/2 8/1/2 7/1/2
f 8/1/3 6/1/3 5/1/3
f 6/1/4 2/1/4 1/1/4
f 7/1/5 5/1/5 1/1/5
f 4/1/6 2/1/6 6/1/6
f 10/1/7 12/1/7 11/1/7
f 12/1/2 16/1/2 15/1/2
f 16/1/8 14/1/8 13/1/8
f 14/1/4 10/1/4 9/1/4
f 15/1/9 13/1/9 9/1/9
f 12/1/10 10/1/10 14/1/10
f 18/2/11 20/2/11 19/2/11
f 20/2/10 22/2/10 21/2/10
f 21/2/12 22/2/12 24/2/12
f 24/2/13 26/2/13 25/2/13
f 26/2/8 28/2/8 27/2/8
f 28/2/14 30/2/14 29/2/14
f 30/2/15 32/2/15 31/2/15
f 32/2/9 34/2/9 33/2/9
f 34/2/16 36/2/16 35/2/16
f 36/2/17 38/2/17 37/2/17
f 22/2/4 20/2/4 18/2/4
f 18/2/4 40/2/4 38/2/4
f 38/2/4 36/2/4 34/2/4
f 34/2/4 32/2/4 30/2/4
f 30/2/4 28/2/4 26/2/4
f 26/2/4 24/2/4 22/2/4
f 22/2/4 18/2/4 38/2/4
f 38/2/4 34/2/4 30/2/4
f 30/2/4 26/2/4 22/2/4
f 38/2/7 40/2/7 39/2/7
f 40/2/18 18/2/18 17/2/18
f 39/2/2 17/2/2 19/2/2
f 19/2/2 21/2/2 23/2/2
f 23/2/2 25/2/2 27/2/2
f 27/2/2 29/2/2 31/2/2
f 31/2/2 33/2/2 35/2/2
f 35/2/2 37/2/2 39/2/2
f 39/2/2 19/2/2 23/2/2
f 23/2/2 27/2/2 31/2/2
f 31/2/2 35/2/2 39/2/2
