# Blender 5.2.0 LTS
# www.blender.org
mtllib Intro_D4_Out.mtl
o Intro_D4_Out
v -0.483313 -0.628466 0.159509
v -0.483313 -0.338160 0.159509
v -0.384417 -0.338160 0.159509
v -0.384417 -0.239264 0.159509
v -0.287116 -0.239264 0.159509
v -0.287116 -0.041472 0.159509
v -0.193006 -0.041472 0.159509
v -0.193006 0.154724 0.159509
v -0.095705 0.154724 0.159509
v -0.095705 0.352515 0.159509
v 0.001595 0.352515 0.159509
v 0.001595 0.550307 0.159509
v 0.098896 0.550307 0.159509
v 0.098896 0.647607 0.159509
v 0.386012 0.647607 0.159509
v 0.386012 -0.338160 0.159509
v 0.483313 -0.338160 0.159509
v 0.483313 -0.628466 0.159509
v 0.386012 -0.628466 0.159509
v 0.386012 -0.827853 0.159509
v 0.098896 -0.827853 0.159509
v 0.098896 -0.628466 0.159509
v -0.097301 -0.338160 0.159509
v 0.098896 -0.338160 0.159509
v 0.098896 0.159509 0.159509
v 0.194601 0.159509 0.159509
v 0.194601 -0.036687 0.159509
v 0.097301 -0.036687 0.159509
v 0.097301 -0.234478 0.159509
v -0.000000 -0.234478 0.159509
v -0.000000 -0.432270 0.159509
v -0.097301 -0.432270 0.159509
v 0.098896 -0.036687 0.159509
v -0.000000 -0.338160 0.159509
v -0.483313 -0.628466 -0.159509
v -0.483313 -0.338160 -0.159509
v -0.384417 -0.338160 -0.159509
v -0.384417 -0.239264 -0.159509
v -0.287116 -0.239264 -0.159509
v -0.287116 -0.041472 -0.159509
v -0.193006 -0.041472 -0.159509
v -0.193006 0.154724 -0.159509
v -0.095705 0.154724 -0.159509
v -0.095705 0.352515 -0.159509
v 0.001595 0.352515 -0.159509
v 0.001595 0.550307 -0.159509
v 0.098896 0.550307 -0.159509
v 0.098896 0.647607 -0.159509
v 0.386012 0.647607 -0.159509
v 0.386012 -0.338160 -0.159509
v 0.483313 -0.338160 -0.159509
v 0.483313 -0.628466 -0.159509
v 0.386012 -0.628466 -0.159509
v 0.386012 -0.827853 -0.159509
v 0.098896 -0.827853 -0.159509
v 0.098896 -0.628466 -0.159509
v -0.097301 -0.338160 -0.159509
v 0.098896 -0.338160 -0.159509
v 0.098896 0.159509 -0.159509
v 0.194601 0.159509 -0.159509
v 0.194601 -0.036687 -0.159509
v 0.097301 -0.036687 -0.159509
v 0.097301 -0.234478 -0.159509
v -0.000000 -0.234478 -0.159509
v -0.000000 -0.432270 -0.159509
v -0.097301 -0.432270 -0.159509
v 0.098896 -0.036687 -0.159509
v -0.000000 -0.338160 -0.159509
v -0.483313 -0.628466 -0.159509
v -0.483313 -0.628466 0.159509
v -0.483313 -0.338160 -0.159509
v -0.483313 -0.338160 0.159509
v -0.384417 -0.338160 -0.159509
v -0.384417 -0.338160 0.159509
v -0.384417 -0.239264 -0.159509
v -0.384417 -0.239264 0.159509
v -0.287116 -0.239264 -0.159509
v -0.287116 -0.239264 0.159509
v -0.287116 -0.041472 -0.159509
v -0.287116 -0.041472 0.159509
v -0.193006 -0.041472 -0.159509
v -0.193006 -0.041472 0.159509
v -0.193006 0.154724 -0.159509
v -0.193006 0.154724 0.159509
v -0.095705 0.154724 -0.159509
v -0.095705 0.154724 0.159509
v -0.095705 0.352515 -0.159509
v -0.095705 0.352515 0.159509
v 0.001595 0.352515 -0.159509
v 0.001595 0.352515 0.159509
v 0.001595 0.550307 -0.159509
v 0.001595 0.550307 0.159509
v 0.098896 0.550307 -0.159509
v 0.098896 0.550307 0.159509
v 0.098896 0.647607 -0.159509
v 0.098896 0.647607 0.159509
v 0.386012 0.647607 -0.159509
v 0.386012 0.647607 0.159509
v 0.386012 -0.338160 -0.159509
v 0.386012 -0.338160 0.159509
v 0.483313 -0.338160 -0.159509
v 0.483313 -0.338160 0.159509
v 0.483313 -0.628466 -0.159509
v 0.483313 -0.628466 0.159509
v 0.386012 -0.628466 -0.159509
v 0.386012 -0.628466 0.159509
v 0.386012 -0.827853 -0.159509
v 0.386012 -0.827853 0.159509
v 0.098896 -0.827853 -0.159509
v 0.098896 -0.827853 0.159509
v 0.098896 -0.628466 -0.159509
v 0.098896 -0.628466 0.159509
v -0.097301 -0.338160 -0.159509
v -0.097301 -0.338160 0.159509
v 0.098896 -0.338160 -0.159509
v 0.098896 -0.338160 0.159509
v 0.098896 0.159509 -0.159509
v 0.098896 0.159509 0.159509
v 0.194601 0.159509 -0.159509
v 0.194601 0.159509 0.159509
v 0.194601 -0.036687 -0.159509
v 0.194601 -0.036687 0.159509
v 0.097301 -0.036687 -0.159509
v 0.097301 -0.036687 0.159509
v 0.097301 -0.234478 -0.159509
v 0.097301 -0.234478 0.159509
v -0.000000 -0.234478 -0.159509
v -0.000000 -0.234478 0.159509
v -0.000000 -0.432270 -0.159509
v -0.000000 -0.432270 0.159509
v -0.097301 -0.432270 -0.159509
v -0.097301 -0.432270 0.159509
vn -0.0000 -0.0000 1.0000
vn -0.0000 -0.0000 -1.0000
vn -0.7071 0.7071 -0.0000
vn -0.7071 -0.7071 -0.0000
vn 0.7071 0.7071 -0.0000
vn 0.7071 -0.7071 -0.0000
vt 0.437500 0.500000
s 0
usemtl TA_Pal2
f 2/1/1 1/1/1 3/1/1
f 6/1/1 5/1/1 7/1/1
f 4/1/1 3/1/1 5/1/1
f 23/1/1 32/1/1 31/1/1
f 10/1/1 9/1/1 11/1/1
f 3/1/1 1/1/1 32/1/1
f 32/1/1 23/1/1 3/1/1
f 5/1/1 3/1/1 23/1/1
f 23/1/1 30/1/1 5/1/1
f 7/1/1 5/1/1 30/1/1
f 8/1/1 7/1/1 9/1/1
f 18/1/1 17/1/1 16/1/1
f 18/1/1 16/1/1 19/1/1
f 26/1/1 27/1/1 16/1/1
f 22/1/1 21/1/1 20/1/1
f 20/1/1 19/1/1 22/1/1
f 24/1/1 22/1/1 19/1/1
f 19/1/1 16/1/1 24/1/1
f 16/1/1 27/1/1 24/1/1
f 27/1/1 26/1/1 25/1/1
f 26/1/1 15/1/1 13/1/1
f 14/1/1 13/1/1 15/1/1
f 32/1/1 1/1/1 22/1/1
f 31/1/1 32/1/1 22/1/1
f 22/1/1 24/1/1 31/1/1
f 23/1/1 31/1/1 34/1/1
f 30/1/1 23/1/1 34/1/1
f 29/1/1 28/1/1 30/1/1
f 7/1/1 30/1/1 28/1/1
f 9/1/1 7/1/1 28/1/1
f 28/1/1 25/1/1 9/1/1
f 11/1/1 9/1/1 25/1/1
f 25/1/1 26/1/1 11/1/1
f 26/1/1 13/1/1 11/1/1
f 12/1/1 11/1/1 13/1/1
f 15/1/1 26/1/1 16/1/1
f 25/1/1 28/1/1 33/1/1
f 27/1/1 25/1/1 33/1/1
f 24/1/1 27/1/1 33/1/1
f 31/1/1 24/1/1 34/1/1
f 36/1/2 37/1/2 35/1/2
f 40/1/2 41/1/2 39/1/2
f 38/1/2 39/1/2 37/1/2
f 57/1/2 65/1/2 66/1/2
f 44/1/2 45/1/2 43/1/2
f 37/1/2 66/1/2 35/1/2
f 66/1/2 37/1/2 57/1/2
f 39/1/2 57/1/2 37/1/2
f 57/1/2 39/1/2 64/1/2
f 41/1/2 64/1/2 39/1/2
f 42/1/2 43/1/2 41/1/2
f 52/1/2 50/1/2 51/1/2
f 52/1/2 53/1/2 50/1/2
f 60/1/2 50/1/2 61/1/2
f 56/1/2 54/1/2 55/1/2
f 54/1/2 56/1/2 53/1/2
f 58/1/2 53/1/2 56/1/2
f 53/1/2 58/1/2 50/1/2
f 50/1/2 58/1/2 61/1/2
f 61/1/2 59/1/2 60/1/2
f 60/1/2 47/1/2 49/1/2
f 48/1/2 49/1/2 47/1/2
f 66/1/2 56/1/2 35/1/2
f 65/1/2 56/1/2 66/1/2
f 56/1/2 65/1/2 58/1/2
f 57/1/2 68/1/2 65/1/2
f 64/1/2 68/1/2 57/1/2
f 63/1/2 64/1/2 62/1/2
f 41/1/2 62/1/2 64/1/2
f 43/1/2 62/1/2 41/1/2
f 62/1/2 43/1/2 59/1/2
f 45/1/2 59/1/2 43/1/2
f 59/1/2 45/1/2 60/1/2
f 60/1/2 45/1/2 47/1/2
f 46/1/2 47/1/2 45/1/2
f 49/1/2 50/1/2 60/1/2
f 59/1/2 67/1/2 62/1/2
f 61/1/2 67/1/2 59/1/2
f 58/1/2 67/1/2 61/1/2
f 65/1/2 68/1/2 58/1/2
s 1
f 72/1/3 69/1/4 70/1/4
f 74/1/3 71/1/3 72/1/3
f 76/1/3 73/1/3 74/1/3
f 78/1/3 75/1/3 76/1/3
f 80/1/3 77/1/3 78/1/3
f 82/1/3 79/1/3 80/1/3
f 84/1/3 81/1/3 82/1/3
f 86/1/3 83/1/3 84/1/3
f 88/1/3 85/1/3 86/1/3
f 90/1/3 87/1/3 88/1/3
f 92/1/3 89/1/3 90/1/3
f 94/1/3 91/1/3 92/1/3
f 96/1/3 93/1/3 94/1/3
f 98/1/5 95/1/3 96/1/3
f 100/1/5 97/1/5 98/1/5
f 102/1/5 99/1/5 100/1/5
f 104/1/6 101/1/5 102/1/5
f 106/1/6 103/1/6 104/1/6
f 108/1/6 105/1/6 106/1/6
f 110/1/4 107/1/6 108/1/6
f 112/1/4 109/1/4 110/1/4
f 70/1/4 111/1/4 112/1/4
f 116/1/3 113/1/3 114/1/3
f 118/1/3 115/1/3 116/1/3
f 120/1/5 117/1/3 118/1/3
f 122/1/6 119/1/5 120/1/5
f 124/1/6 121/1/6 122/1/6
f 124/1/6 125/1/6 123/1/6
f 128/1/6 125/1/6 126/1/6
f 130/1/6 127/1/6 128/1/6
f 132/1/4 129/1/6 130/1/6
f 132/1/4 113/1/3 131/1/4
f 72/1/3 71/1/3 69/1/4
f 74/1/3 73/1/3 71/1/3
f 76/1/3 75/1/3 73/1/3
f 78/1/3 77/1/3 75/1/3
f 80/1/3 79/1/3 77/1/3
f 82/1/3 81/1/3 79/1/3
f 84/1/3 83/1/3 81/1/3
f 86/1/3 85/1/3 83/1/3
f 88/1/3 87/1/3 85/1/3
f 90/1/3 89/1/3 87/1/3
f 92/1/3 91/1/3 89/1/3
f 94/1/3 93/1/3 91/1/3
f 96/1/3 95/1/3 93/1/3
f 98/1/5 97/1/5 95/1/3
f 100/1/5 99/1/5 97/1/5
f 102/1/5 101/1/5 99/1/5
f 104/1/6 103/1/6 101/1/5
f 106/1/6 105/1/6 103/1/6
f 108/1/6 107/1/6 105/1/6
f 110/1/4 109/1/4 107/1/6
f 112/1/4 111/1/4 109/1/4
f 70/1/4 69/1/4 111/1/4
f 116/1/3 115/1/3 113/1/3
f 118/1/3 117/1/3 115/1/3
f 120/1/5 119/1/5 117/1/3
f 122/1/6 121/1/6 119/1/5
f 124/1/6 123/1/6 121/1/6
f 124/1/6 126/1/6 125/1/6
f 128/1/6 127/1/6 125/1/6
f 130/1/6 129/1/6 127/1/6
f 132/1/4 131/1/4 129/1/6
f 132/1/4 114/1/3 113/1/3
