# Blender 5.2.0 LTS
# www.blender.org
mtllib Fan_Blades.mtl
o 円柱
v 0.000000 -0.050000 -0.080000
v 0.000000 0.050000 -0.080000
v 0.040000 -0.050000 -0.069282
v 0.040000 0.050000 -0.069282
v 0.069282 -0.050000 -0.040000
v 0.069282 0.050000 -0.040000
v 0.080000 -0.050000 0.000000
v 0.080000 0.050000 0.000000
v 0.069282 -0.050000 0.040000
v 0.069282 0.050000 0.040000
v 0.040000 -0.050000 0.069282
v 0.040000 0.050000 0.069282
v 0.000000 -0.050000 0.080000
v 0.000000 0.050000 0.080000
v -0.040000 -0.050000 0.069282
v -0.040000 0.050000 0.069282
v -0.069282 -0.050000 0.040000
v -0.069282 0.050000 0.040000
v -0.080000 -0.050000 0.000000
v -0.080000 0.050000 0.000000
v -0.069282 -0.050000 -0.040000
v -0.069282 0.050000 -0.040000
v -0.040000 -0.050000 -0.069282
v -0.040000 0.050000 -0.069282
vn 0.2588 -0.0000 -0.9659
vn 0.7071 -0.0000 -0.7071
vn 0.9659 -0.0000 -0.2588
vn 0.9659 -0.0000 0.2588
vn 0.7071 -0.0000 0.7071
vn 0.2588 -0.0000 0.9659
vn -0.2588 -0.0000 0.9659
vn -0.7071 -0.0000 0.7071
vn -0.9659 -0.0000 0.2588
vn -0.9659 -0.0000 -0.2588
vn -0.0000 1.0000 -0.0000
vn -0.7071 -0.0000 -0.7071
vn -0.2588 -0.0000 -0.9659
vn -0.0000 -1.0000 -0.0000
vt 1.000000 0.500000
vt 1.000000 1.000000
vt 0.916667 1.000000
vt 0.916667 0.500000
vt 0.833333 1.000000
vt 0.833333 0.500000
vt 0.750000 1.000000
vt 0.750000 0.500000
vt 0.666667 1.000000
vt 0.666667 0.500000
vt 0.583333 1.000000
vt 0.583333 0.500000
vt 0.500000 1.000000
vt 0.500000 0.500000
vt 0.416667 1.000000
vt 0.416667 0.500000
vt 0.333333 1.000000
vt 0.333333 0.500000
vt 0.250000 1.000000
vt 0.250000 0.500000
vt 0.166667 1.000000
vt 0.166667 0.500000
vt 0.370000 0.457846
vt 0.250000 0.490000
vt 0.130000 0.457846
vt 0.042154 0.370000
vt 0.010000 0.250000
vt 0.042154 0.130000
vt 0.130000 0.042154
vt 0.250000 0.010000
vt 0.370000 0.042154
vt 0.457846 0.130000
vt 0.490000 0.250000
vt 0.457846 0.370000
vt 0.083333 1.000000
vt 0.083333 0.500000
vt 0.000000 1.000000
vt 0.000000 0.500000
vt 0.750000 0.490000
vt 0.870000 0.457846
vt 0.957846 0.370000
vt 0.990000 0.250000
vt 0.957846 0.130000
vt 0.870000 0.042154
vt 0.750000 0.010000
vt 0.630000 0.042154
vt 0.542154 0.130000
vt 0.510000 0.250000
vt 0.542154 0.370000
vt 0.630000 0.457846
s 0
usemtl fan_hub
f 1/1/1 2/2/1 4/3/1 3/4/1
f 3/4/2 4/3/2 6/5/2 5/6/2
f 5/6/3 6/5/3 8/7/3 7/8/3
f 7/8/4 8/7/4 10/9/4 9/10/4
f 9/10/5 10/9/5 12/11/5 11/12/5
f 11/12/6 12/11/6 14/13/6 13/14/6
f 13/14/7 14/13/7 16/15/7 15/16/7
f 15/16/8 16/15/8 18/17/8 17/18/8
f 17/18/9 18/17/9 20/19/9 19/20/9
f 19/20/10 20/19/10 22/21/10 21/22/10
f 4/23/11 2/24/11 24/25/11 22/26/11 20/27/11 18/28/11 16/29/11 14/30/11 12/31/11 10/32/11 8/33/11 6/34/11
f 21/22/12 22/21/12 24/35/12 23/36/12
f 23/36/13 24/35/13 2/37/13 1/38/13
f 1/39/14 3/40/14 5/41/14 7/42/14 9/43/14 11/44/14 13/45/14 15/46/14 17/47/14 19/48/14 21/49/14 23/50/14
o 立方体
v 0.070000 -0.036998 0.048282
v 0.070000 -0.019339 0.057672
v 0.070000 0.019339 -0.057672
v 0.070000 0.036998 -0.048282
v 0.410000 -0.036998 0.048282
v 0.410000 -0.019339 0.057672
v 0.410000 0.019339 -0.057672
v 0.410000 0.036998 -0.048282
vn -1.0000 -0.0000 -0.0000
vn -0.0000 0.4695 -0.8829
vn 1.0000 -0.0000 -0.0000
vn -0.0000 -0.4695 0.8829
vn -0.0000 -0.8829 -0.4695
vn -0.0000 0.8829 0.4695
vt 0.375000 0.000000
vt 0.625000 0.000000
vt 0.625000 0.250000
vt 0.375000 0.250000
vt 0.625000 0.500000
vt 0.375000 0.500000
vt 0.625000 0.750000
vt 0.375000 0.750000
vt 0.625000 1.000000
vt 0.375000 1.000000
vt 0.125000 0.500000
vt 0.125000 0.750000
vt 0.875000 0.500000
vt 0.875000 0.750000
s 0
usemtl fan_blade
f 25/51/15 26/52/15 28/53/15 27/54/15
f 27/54/16 28/53/16 32/55/16 31/56/16
f 31/56/17 32/55/17 30/57/17 29/58/17
f 29/58/18 30/57/18 26/59/18 25/60/18
f 27/61/19 31/56/19 29/58/19 25/62/19
f 32/55/20 28/63/20 26/64/20 30/57/20
o 立方体.001
v 0.006814 -0.036998 -0.084763
v 0.014945 -0.019339 -0.089458
v -0.084945 0.019339 -0.031786
v -0.076814 0.036998 -0.036481
v -0.163186 -0.036998 -0.379211
v -0.155055 -0.019339 -0.383906
v -0.254945 0.019339 -0.326235
v -0.246814 0.036998 -0.330929
vn 0.5000 -0.0000 0.8660
vn -0.7647 0.4695 0.4415
vn -0.5000 -0.0000 -0.8660
vn 0.7647 -0.4695 -0.4415
vn -0.4066 -0.8829 0.2347
vn 0.4066 0.8829 -0.2347
vt 0.375000 0.000000
vt 0.625000 0.000000
vt 0.625000 0.250000
vt 0.375000 0.250000
vt 0.625000 0.500000
vt 0.375000 0.500000
vt 0.625000 0.750000
vt 0.375000 0.750000
vt 0.625000 1.000000
vt 0.375000 1.000000
vt 0.125000 0.500000
vt 0.125000 0.750000
vt 0.875000 0.500000
vt 0.875000 0.750000
s 0
usemtl fan_blade
f 33/65/21 34/66/21 36/67/21 35/68/21
f 35/68/22 36/67/22 40/69/22 39/70/22
f 39/70/23 40/69/23 38/71/23 37/72/23
f 37/72/24 38/71/24 34/73/24 33/74/24
f 35/75/25 39/70/25 37/72/25 33/76/25
f 40/69/26 36/77/26 34/78/26 38/71/26
o 立方体.002
v -0.076814 -0.036998 0.036481
v -0.084945 -0.019339 0.031786
v 0.014945 0.019339 0.089458
v 0.006814 0.036998 0.084763
v -0.246814 -0.036998 0.330929
v -0.254945 -0.019339 0.326235
v -0.155055 0.019339 0.383906
v -0.163186 0.036998 0.379211
vn 0.5000 -0.0000 -0.8660
vn 0.7647 0.4695 0.4415
vn -0.5000 -0.0000 0.8660
vn -0.7647 -0.4695 -0.4415
vn 0.4066 -0.8829 0.2347
vn -0.4066 0.8829 -0.2347
vt 0.375000 0.000000
vt 0.625000 0.000000
vt 0.625000 0.250000
vt 0.375000 0.250000
vt 0.625000 0.500000
vt 0.375000 0.500000
vt 0.625000 0.750000
vt 0.375000 0.750000
vt 0.625000 1.000000
vt 0.375000 1.000000
vt 0.125000 0.500000
vt 0.125000 0.750000
vt 0.875000 0.500000
vt 0.875000 0.750000
s 0
usemtl fan_blade
f 41/79/27 42/80/27 44/81/27 43/82/27
f 43/82/28 44/81/28 48/83/28 47/84/28
f 47/84/29 48/83/29 46/85/29 45/86/29
f 45/86/30 46/85/30 42/87/30 41/88/30
f 43/89/31 47/84/31 45/86/31 41/90/31
f 48/83/32 44/91/32 42/92/32 46/85/32
