# Blender 5.1.2
# www.blender.org
mtllib Hammer_Frag.mtl
o HF_chunk
v -0.002857 -0.084547 -0.003586
v 0.077535 -0.043951 0.057359
v -0.049323 -0.041401 0.092856
v -0.080808 -0.060990 0.024353
v -0.054962 -0.037587 -0.112149
v 0.052109 -0.021308 -0.086761
v 0.039638 0.028643 0.086637
v -0.108696 0.022767 0.056126
v -0.098183 0.020999 -0.042346
v 0.028238 0.069739 -0.090002
v 0.099534 0.049180 -0.008418
v 0.009747 0.096690 0.002560
vn 0.1077 -0.8871 0.4488
vn 0.5696 -0.7906 -0.2247
vn -0.1590 -0.9275 0.3383
vn -0.3543 -0.9082 -0.2228
vn 0.2421 -0.8428 -0.4808
vn 0.9045 -0.3671 -0.2172
vn 0.2568 -0.2432 0.9354
vn -0.7645 -0.4350 0.4758
vn -0.8946 -0.3804 -0.2346
vn 0.2271 0.0249 -0.9736
vn 0.8091 0.1994 0.5529
vn -0.2024 0.3387 0.9189
vn -0.9548 -0.2811 -0.0969
vn -0.4687 0.5119 -0.7199
vn 0.7628 0.1778 -0.6217
vn 0.4594 0.7632 0.4544
vn -0.1640 0.7375 0.6552
vn -0.5518 0.8307 -0.0738
vn -0.4455 0.8318 -0.3312
vn 0.4451 0.8797 -0.1672
vt 0.250000 0.250000
vt 0.750000 0.250000
s 0
usemtl HammerDustMat
f 1/1/1 2/1/1 3/1/1
f 2/1/2 1/1/2 6/1/2
f 1/1/3 3/1/3 4/1/3
f 1/1/4 4/1/4 5/1/4
f 1/2/5 5/2/5 6/2/5
f 2/2/6 6/2/6 11/2/6
f 3/2/7 2/2/7 7/2/7
f 4/2/8 3/2/8 8/2/8
f 5/1/9 4/1/9 9/1/9
f 6/2/10 5/2/10 10/2/10
f 2/1/11 11/1/11 7/1/11
f 3/2/12 7/2/12 8/2/12
f 4/1/13 8/1/13 9/1/13
f 5/1/14 9/1/14 10/1/14
f 6/2/15 10/2/15 11/2/15
f 7/2/16 11/2/16 12/2/16
f 8/1/17 7/1/17 12/1/17
f 9/2/18 8/2/18 12/2/18
f 10/1/19 9/1/19 12/1/19
f 11/2/20 10/2/20 12/2/20
