# Blender 5.2.0 LTS
# www.blender.org
mtllib Saw_Disc.mtl
o Saw_Disc
v 0.000000 0.440000 -0.045000
v 0.000000 0.440000 0.045000
v 0.097909 0.428968 -0.045000
v 0.097909 0.428968 0.045000
v 0.190909 0.396426 -0.045000
v 0.190909 0.396426 0.045000
v 0.274336 0.344006 -0.045000
v 0.274336 0.344006 0.045000
v 0.344006 0.274336 -0.045000
v 0.344006 0.274336 0.045000
v 0.396426 0.190909 -0.045000
v 0.396426 0.190909 0.045000
v 0.428968 0.097909 -0.045000
v 0.428968 0.097909 0.045000
v 0.440000 0.000000 -0.045000
v 0.440000 -0.000000 0.045000
v 0.428968 -0.097909 -0.045000
v 0.428968 -0.097909 0.045000
v 0.396426 -0.190909 -0.045000
v 0.396426 -0.190909 0.045000
v 0.344006 -0.274336 -0.045000
v 0.344006 -0.274336 0.045000
v 0.274336 -0.344006 -0.045000
v 0.274336 -0.344006 0.045000
v 0.190909 -0.396426 -0.045000
v 0.190909 -0.396426 0.045000
v 0.097909 -0.428968 -0.045000
v 0.097909 -0.428968 0.045000
v 0.000000 -0.440000 -0.045000
v 0.000000 -0.440000 0.045000
v -0.097909 -0.428968 -0.045000
v -0.097909 -0.428968 0.045000
v -0.190909 -0.396426 -0.045000
v -0.190909 -0.396426 0.045000
v -0.274336 -0.344006 -0.045000
v -0.274336 -0.344006 0.045000
v -0.344006 -0.274336 -0.045000
v -0.344006 -0.274336 0.045000
v -0.396426 -0.190909 -0.045000
v -0.396426 -0.190909 0.045000
v -0.428968 -0.097909 -0.045000
v -0.428968 -0.097909 0.045000
v -0.440000 0.000000 -0.045000
v -0.440000 -0.000000 0.045000
v -0.428968 0.097909 -0.045000
v -0.428968 0.097909 0.045000
v -0.396426 0.190909 -0.045000
v -0.396426 0.190909 0.045000
v -0.344006 0.274336 -0.045000
v -0.344006 0.274336 0.045000
v -0.274336 0.344006 -0.045000
v -0.274336 0.344006 0.045000
v -0.190909 0.396426 -0.045000
v -0.190909 0.396426 0.045000
v -0.097909 0.428968 -0.045000
v -0.097909 0.428968 0.045000
v 0.000000 0.130000 -0.075000
v 0.000000 0.130000 0.075000
v 0.049749 0.120104 -0.075000
v 0.049749 0.120104 0.075000
v 0.091924 0.091924 -0.075000
v 0.091924 0.091924 0.075000
v 0.120104 0.049749 -0.075000
v 0.120104 0.049749 0.075000
v 0.130000 0.000000 -0.075000
v 0.130000 -0.000000 0.075000
v 0.120104 -0.049749 -0.075000
v 0.120104 -0.049749 0.075000
v 0.091924 -0.091924 -0.075000
v 0.091924 -0.091924 0.075000
v 0.049749 -0.120104 -0.075000
v 0.049749 -0.120104 0.075000
v 0.000000 -0.130000 -0.075000
v 0.000000 -0.130000 0.075000
v -0.049749 -0.120104 -0.075000
v -0.049749 -0.120104 0.075000
v -0.091924 -0.091924 -0.075000
v -0.091924 -0.091924 0.075000
v -0.120104 -0.049749 -0.075000
v -0.120104 -0.049749 0.075000
v -0.130000 0.000000 -0.075000
v -0.130000 -0.000000 0.075000
v -0.120104 0.049749 -0.075000
v -0.120104 0.049749 0.075000
v -0.091924 0.091924 -0.075000
v -0.091924 0.091924 0.075000
v -0.049749 0.120104 -0.075000
v -0.049749 0.120104 0.075000
v -0.060919 0.403309 0.035000
v -0.026283 0.538957 0.035000
v -0.060919 0.403309 -0.035000
v -0.026283 0.538957 -0.035000
v 0.026283 0.381043 0.035000
v 0.060919 0.516691 0.035000
v 0.026283 0.381043 -0.035000
v 0.060919 0.516691 -0.035000
v 0.148897 0.379736 0.035000
v 0.246717 0.479892 0.035000
v 0.148897 0.379736 -0.035000
v 0.246717 0.479892 -0.035000
v 0.213283 0.316851 0.035000
v 0.311103 0.417008 0.035000
v 0.213283 0.316851 -0.035000
v 0.311103 0.417008 -0.035000
v 0.318816 0.254412 0.035000
v 0.453609 0.292240 0.035000
v 0.318816 0.254412 -0.035000
v 0.453609 0.292240 -0.035000
v 0.343134 0.167760 0.035000
v 0.477927 0.205588 0.035000
v 0.343134 0.167760 -0.035000
v 0.477927 0.205588 -0.035000
v 0.403309 0.060919 0.035000
v 0.538957 0.026283 0.035000
v 0.403309 0.060919 -0.035000
v 0.538957 0.026283 -0.035000
v 0.381043 -0.026283 0.035000
v 0.516691 -0.060919 0.035000
v 0.381043 -0.026283 -0.035000
v 0.516691 -0.060919 -0.035000
v 0.379736 -0.148897 0.035000
v 0.479892 -0.246717 0.035000
v 0.379736 -0.148897 -0.035000
v 0.479892 -0.246717 -0.035000
v 0.316851 -0.213283 0.035000
v 0.417008 -0.311103 0.035000
v 0.316851 -0.213283 -0.035000
v 0.417008 -0.311103 -0.035000
v 0.254412 -0.318816 0.035000
v 0.292240 -0.453609 0.035000
v 0.254412 -0.318816 -0.035000
v 0.292240 -0.453609 -0.035000
v 0.167760 -0.343134 0.035000
v 0.205588 -0.477927 0.035000
v 0.167760 -0.343134 -0.035000
v 0.205588 -0.477927 -0.035000
v 0.060919 -0.403309 0.035000
v 0.026283 -0.538957 0.035000
v 0.060919 -0.403309 -0.035000
v 0.026283 -0.538957 -0.035000
v -0.026283 -0.381043 0.035000
v -0.060919 -0.516691 0.035000
v -0.026283 -0.381043 -0.035000
v -0.060919 -0.516691 -0.035000
v -0.148897 -0.379736 0.035000
v -0.246717 -0.479892 0.035000
v -0.148897 -0.379736 -0.035000
v -0.246717 -0.479892 -0.035000
v -0.213283 -0.316851 0.035000
v -0.311103 -0.417008 0.035000
v -0.213283 -0.316851 -0.035000
v -0.311103 -0.417008 -0.035000
v -0.318816 -0.254412 0.035000
v -0.453609 -0.292240 0.035000
v -0.318816 -0.254412 -0.035000
v -0.453609 -0.292240 -0.035000
v -0.343134 -0.167760 0.035000
v -0.477927 -0.205588 0.035000
v -0.343134 -0.167760 -0.035000
v -0.477927 -0.205588 -0.035000
v -0.403309 -0.060919 0.035000
v -0.538957 -0.026283 0.035000
v -0.403309 -0.060919 -0.035000
v -0.538957 -0.026283 -0.035000
v -0.381043 0.026283 0.035000
v -0.516691 0.060919 0.035000
v -0.381043 0.026283 -0.035000
v -0.516691 0.060919 -0.035000
v -0.379736 0.148897 0.035000
v -0.479892 0.246717 0.035000
v -0.379736 0.148897 -0.035000
v -0.479892 0.246717 -0.035000
v -0.316851 0.213283 0.035000
v -0.417008 0.311103 0.035000
v -0.316851 0.213283 -0.035000
v -0.417008 0.311103 -0.035000
v -0.254412 0.318816 0.035000
v -0.292240 0.453609 0.035000
v -0.254412 0.318816 -0.035000
v -0.292240 0.453609 -0.035000
v -0.167760 0.343134 0.035000
v -0.205588 0.477927 0.035000
v -0.167760 0.343134 -0.035000
v -0.205588 0.477927 -0.035000
vn 0.1120 0.9937 -0.0000
vn 0.3303 0.9439 -0.0000
vn 0.5320 0.8467 -0.0000
vn 0.7071 0.7071 -0.0000
vn 0.8467 0.5320 -0.0000
vn 0.9439 0.3303 -0.0000
vn 0.9937 0.1120 -0.0000
vn 0.9937 -0.1120 -0.0000
vn 0.9439 -0.3303 -0.0000
vn 0.8467 -0.5320 -0.0000
vn 0.7071 -0.7071 -0.0000
vn 0.5320 -0.8467 -0.0000
vn 0.3303 -0.9439 -0.0000
vn 0.1120 -0.9937 -0.0000
vn -0.1120 -0.9937 -0.0000
vn -0.3303 -0.9439 -0.0000
vn -0.5320 -0.8467 -0.0000
vn -0.7071 -0.7071 -0.0000
vn -0.8467 -0.5320 -0.0000
vn -0.9439 -0.3303 -0.0000
vn -0.9937 -0.1120 -0.0000
vn -0.9937 0.1120 -0.0000
vn -0.9439 0.3303 -0.0000
vn -0.8467 0.5320 -0.0000
vn -0.7071 0.7071 -0.0000
vn -0.5320 0.8467 -0.0000
vn -0.0000 -0.0000 1.0000
vn -0.3303 0.9439 -0.0000
vn -0.1120 0.9937 -0.0000
vn -0.0000 -0.0000 -1.0000
vn 0.1951 0.9808 -0.0000
vn 0.5556 0.8315 -0.0000
vn 0.8315 0.5556 -0.0000
vn 0.9808 0.1951 -0.0000
vn 0.9808 -0.1951 -0.0000
vn 0.8315 -0.5556 -0.0000
vn 0.5556 -0.8315 -0.0000
vn 0.1951 -0.9808 -0.0000
vn -0.1951 -0.9808 -0.0000
vn -0.5556 -0.8315 -0.0000
vn -0.8315 -0.5556 -0.0000
vn -0.9808 -0.1951 -0.0000
vn -0.9808 0.1951 -0.0000
vn -0.8315 0.5556 -0.0000
vn -0.5556 0.8315 -0.0000
vn -0.1951 0.9808 -0.0000
vn -0.9689 0.2474 -0.0000
vn 0.9689 -0.2474 -0.0000
vn -0.2474 -0.9689 -0.0000
vn 0.2474 0.9689 -0.0000
vn -0.7154 0.6987 -0.0000
vn 0.7154 -0.6987 -0.0000
vn -0.6987 -0.7154 -0.0000
vn 0.6987 0.7154 -0.0000
vn -0.2702 0.9628 -0.0000
vn 0.2702 -0.9628 -0.0000
vn -0.9628 -0.2702 -0.0000
vn 0.9628 0.2702 -0.0000
vt 1.000000 0.500000
vt 1.000000 1.000000
vt 0.964286 1.000000
vt 0.964286 0.500000
vt 0.928571 1.000000
vt 0.928571 0.500000
vt 0.892857 1.000000
vt 0.892857 0.500000
vt 0.857143 1.000000
vt 0.857143 0.500000
vt 0.821429 1.000000
vt 0.821429 0.500000
vt 0.785714 1.000000
vt 0.785714 0.500000
vt 0.750000 1.000000
vt 0.750000 0.500000
vt 0.714286 1.000000
vt 0.714286 0.500000
vt 0.678572 1.000000
vt 0.678572 0.500000
vt 0.642857 1.000000
vt 0.642857 0.500000
vt 0.607143 1.000000
vt 0.607143 0.500000
vt 0.571429 1.000000
vt 0.571429 0.500000
vt 0.535715 1.000000
vt 0.535715 0.500000
vt 0.500000 1.000000
vt 0.500000 0.500000
vt 0.464286 1.000000
vt 0.464286 0.500000
vt 0.428572 1.000000
vt 0.428572 0.500000
vt 0.392857 1.000000
vt 0.392857 0.500000
vt 0.357143 1.000000
vt 0.357143 0.500000
vt 0.321429 1.000000
vt 0.321429 0.500000
vt 0.285714 1.000000
vt 0.285714 0.500000
vt 0.250000 1.000000
vt 0.250000 0.500000
vt 0.214286 1.000000
vt 0.214286 0.500000
vt 0.178572 1.000000
vt 0.178572 0.500000
vt 0.142857 1.000000
vt 0.142857 0.500000
vt 0.107143 1.000000
vt 0.107143 0.500000
vt 0.071429 1.000000
vt 0.071429 0.500000
vt 0.303405 0.483983
vt 0.250000 0.490000
vt 0.196595 0.483983
vt 0.145868 0.466233
vt 0.100362 0.437640
vt 0.062360 0.399638
vt 0.033767 0.354132
vt 0.016017 0.303405
vt 0.010000 0.250000
vt 0.016017 0.196595
vt 0.033767 0.145868
vt 0.062360 0.100362
vt 0.100362 0.062360
vt 0.145868 0.033767
vt 0.196595 0.016017
vt 0.250000 0.010000
vt 0.303405 0.016017
vt 0.354132 0.033767
vt 0.399638 0.062360
vt 0.437640 0.100362
vt 0.466233 0.145868
vt 0.483983 0.196595
vt 0.490000 0.250000
vt 0.483983 0.303405
vt 0.466233 0.354132
vt 0.437640 0.399638
vt 0.399638 0.437640
vt 0.354132 0.466233
vt 0.035714 1.000000
vt 0.035714 0.500000
vt 0.000000 1.000000
vt 0.000000 0.500000
vt 0.750000 0.490000
vt 0.803405 0.483983
vt 0.854132 0.466233
vt 0.899638 0.437640
vt 0.937640 0.399638
vt 0.966233 0.354132
vt 0.983983 0.303405
vt 0.990000 0.250000
vt 0.983983 0.196595
vt 0.966233 0.145868
vt 0.937640 0.100362
vt 0.899638 0.062360
vt 0.854132 0.033767
vt 0.803405 0.016017
vt 0.750000 0.010000
vt 0.696595 0.016017
vt 0.645868 0.033767
vt 0.600362 0.062360
vt 0.562360 0.100362
vt 0.533767 0.145868
vt 0.516017 0.196595
vt 0.510000 0.250000
vt 0.516017 0.303405
vt 0.533767 0.354132
vt 0.562360 0.399638
vt 0.600362 0.437640
vt 0.645868 0.466233
vt 0.696595 0.483983
vt 0.937500 1.000000
vt 0.937500 0.500000
vt 0.875000 1.000000
vt 0.875000 0.500000
vt 0.812500 1.000000
vt 0.812500 0.500000
vt 0.750000 1.000000
vt 0.750000 0.500000
vt 0.687500 1.000000
vt 0.687500 0.500000
vt 0.625000 1.000000
vt 0.625000 0.500000
vt 0.562500 1.000000
vt 0.562500 0.500000
vt 0.500000 1.000000
vt 0.500000 0.500000
vt 0.437500 1.000000
vt 0.437500 0.500000
vt 0.375000 1.000000
vt 0.375000 0.500000
vt 0.312500 1.000000
vt 0.312500 0.500000
vt 0.250000 1.000000
vt 0.250000 0.500000
vt 0.187500 1.000000
vt 0.187500 0.500000
vt 0.125000 1.000000
vt 0.125000 0.500000
vt 0.341844 0.471731
vt 0.158156 0.471731
vt 0.080294 0.419706
vt 0.028269 0.341844
vt 0.010000 0.250000
vt 0.028269 0.158156
vt 0.080294 0.080294
vt 0.158156 0.028269
vt 0.250000 0.010000
vt 0.341844 0.028269
vt 0.419706 0.080294
vt 0.471731 0.158156
vt 0.471731 0.341844
vt 0.419706 0.419706
vt 0.062500 1.000000
vt 0.062500 0.500000
vt 0.000000 1.000000
vt 0.000000 0.500000
vt 0.841844 0.471731
vt 0.919706 0.419706
vt 0.971731 0.341844
vt 0.971731 0.158156
vt 0.919706 0.080294
vt 0.841844 0.028269
vt 0.750000 0.010000
vt 0.658156 0.028269
vt 0.580294 0.080294
vt 0.528269 0.158156
vt 0.528269 0.341844
vt 0.580294 0.419706
vt 0.658156 0.471731
vt 0.375000 0.000000
vt 0.625000 0.000000
vt 0.625000 0.250000
vt 0.375000 0.250000
vt 0.625000 0.750000
vt 0.375000 0.750000
vt 0.125000 0.750000
vt 0.875000 0.750000
s 0
usemtl Saw_Disc
f 1/1/1 2/2/1 4/3/1 3/4/1
f 3/4/2 4/3/2 6/5/2 5/6/2
f 5/6/3 6/5/3 8/7/3 7/8/3
f 7/8/4 8/7/4 10/9/4 9/10/4
f 9/10/5 10/9/5 12/11/5 11/12/5
f 11/12/6 12/11/6 14/13/6 13/14/6
f 13/14/7 14/13/7 16/15/7 15/16/7
f 15/16/8 16/15/8 18/17/8 17/18/8
f 17/18/9 18/17/9 20/19/9 19/20/9
f 19/20/10 20/19/10 22/21/10 21/22/10
f 21/22/11 22/21/11 24/23/11 23/24/11
f 23/24/12 24/23/12 26/25/12 25/26/12
f 25/26/13 26/25/13 28/27/13 27/28/13
f 27/28/14 28/27/14 30/29/14 29/30/14
f 29/30/15 30/29/15 32/31/15 31/32/15
f 31/32/16 32/31/16 34/33/16 33/34/16
f 33/34/17 34/33/17 36/35/17 35/36/17
f 35/36/18 36/35/18 38/37/18 37/38/18
f 37/38/19 38/37/19 40/39/19 39/40/19
f 39/40/20 40/39/20 42/41/20 41/42/20
f 41/42/21 42/41/21 44/43/21 43/44/21
f 43/44/22 44/43/22 46/45/22 45/46/22
f 45/46/23 46/45/23 48/47/23 47/48/23
f 47/48/24 48/47/24 50/49/24 49/50/24
f 49/50/25 50/49/25 52/51/25 51/52/25
f 51/52/26 52/51/26 54/53/26 53/54/26
f 4/55/27 2/56/27 56/57/27 54/58/27 52/59/27 50/60/27 48/61/27 46/62/27 44/63/27 42/64/27 40/65/27 38/66/27 36/67/27 34/68/27 32/69/27 30/70/27 28/71/27 26/72/27 24/73/27 22/74/27 20/75/27 18/76/27 16/77/27 14/78/27 12/79/27 10/80/27 8/81/27 6/82/27
f 53/54/28 54/53/28 56/83/28 55/84/28
f 55/84/29 56/83/29 2/85/29 1/86/29
f 1/87/30 3/88/30 5/89/30 7/90/30 9/91/30 11/92/30 13/93/30 15/94/30 17/95/30 19/96/30 21/97/30 23/98/30 25/99/30 27/100/30 29/101/30 31/102/30 33/103/30 35/104/30 37/105/30 39/106/30 41/107/30 43/108/30 45/109/30 47/110/30 49/111/30 51/112/30 53/113/30 55/114/30
f 57/1/31 58/2/31 60/115/31 59/116/31
f 59/116/32 60/115/32 62/117/32 61/118/32
f 61/118/33 62/117/33 64/119/33 63/120/33
f 63/120/34 64/119/34 66/121/34 65/122/34
f 65/122/35 66/121/35 68/123/35 67/124/35
f 67/124/36 68/123/36 70/125/36 69/126/36
f 69/126/37 70/125/37 72/127/37 71/128/37
f 71/128/38 72/127/38 74/129/38 73/130/38
f 73/130/39 74/129/39 76/131/39 75/132/39
f 75/132/40 76/131/40 78/133/40 77/134/40
f 77/134/41 78/133/41 80/135/41 79/136/41
f 79/136/42 80/135/42 82/137/42 81/138/42
f 81/138/43 82/137/43 84/139/43 83/140/43
f 83/140/44 84/139/44 86/141/44 85/142/44
f 60/143/27 58/56/27 88/144/27 86/145/27 84/146/27 82/147/27 80/148/27 78/149/27 76/150/27 74/151/27 72/152/27 70/153/27 68/154/27 66/77/27 64/155/27 62/156/27
f 85/142/45 86/141/45 88/157/45 87/158/45
f 87/158/46 88/157/46 58/159/46 57/160/46
f 57/87/30 59/161/30 61/162/30 63/163/30 65/94/30 67/164/30 69/165/30 71/166/30 73/167/30 75/168/30 77/169/30 79/170/30 81/108/30 83/171/30 85/172/30 87/173/30
f 89/174/47 90/175/47 92/176/47 91/177/47
f 91/177/30 92/176/30 96/126/30 95/134/30
f 95/134/48 96/126/48 94/178/48 93/179/48
f 93/179/27 94/178/27 90/125/27 89/133/27
f 91/142/49 95/134/49 93/179/49 89/180/49
f 96/126/50 92/118/50 90/181/50 94/178/50
f 97/174/51 98/175/51 100/176/51 99/177/51
f 99/177/30 100/176/30 104/126/30 103/134/30
f 103/134/52 104/126/52 102/178/52 101/179/52
f 101/179/27 102/178/27 98/125/27 97/133/27
f 99/142/53 103/134/53 101/179/53 97/180/53
f 104/126/54 100/118/54 98/181/54 102/178/54
f 105/174/55 106/175/55 108/176/55 107/177/55
f 107/177/30 108/176/30 112/126/30 111/134/30
f 111/134/56 112/126/56 110/178/56 109/179/56
f 109/179/27 110/178/27 106/125/27 105/133/27
f 107/142/57 111/134/57 109/179/57 105/180/57
f 112/126/58 108/118/58 106/181/58 110/178/58
f 113/174/50 114/175/50 116/176/50 115/177/50
f 115/177/30 116/176/30 120/126/30 119/134/30
f 119/134/49 120/126/49 118/178/49 117/179/49
f 117/179/27 118/178/27 114/125/27 113/133/27
f 115/142/47 119/134/47 117/179/47 113/180/47
f 120/126/48 116/118/48 114/181/48 118/178/48
f 121/174/54 122/175/54 124/176/54 123/177/54
f 123/177/30 124/176/30 128/126/30 127/134/30
f 127/134/53 128/126/53 126/178/53 125/179/53
f 125/179/27 126/178/27 122/125/27 121/133/27
f 123/142/51 127/134/51 125/179/51 121/180/51
f 128/126/52 124/118/52 122/181/52 126/178/52
f 129/174/58 130/175/58 132/176/58 131/177/58
f 131/177/30 132/176/30 136/126/30 135/134/30
f 135/134/57 136/126/57 134/178/57 133/179/57
f 133/179/27 134/178/27 130/125/27 129/133/27
f 131/142/55 135/134/55 133/179/55 129/180/55
f 136/126/56 132/118/56 130/181/56 134/178/56
f 137/174/48 138/175/48 140/176/48 139/177/48
f 139/177/30 140/176/30 144/126/30 143/134/30
f 143/134/47 144/126/47 142/178/47 141/179/47
f 141/179/27 142/178/27 138/125/27 137/133/27
f 139/142/50 143/134/50 141/179/50 137/180/50
f 144/126/49 140/118/49 138/181/49 142/178/49
f 145/174/52 146/175/52 148/176/52 147/177/52
f 147/177/30 148/176/30 152/126/30 151/134/30
f 151/134/51 152/126/51 150/178/51 149/179/51
f 149/179/27 150/178/27 146/125/27 145/133/27
f 147/142/54 151/134/54 149/179/54 145/180/54
f 152/126/53 148/118/53 146/181/53 150/178/53
f 153/174/56 154/175/56 156/176/56 155/177/56
f 155/177/30 156/176/30 160/126/30 159/134/30
f 159/134/55 160/126/55 158/178/55 157/179/55
f 157/179/27 158/178/27 154/125/27 153/133/27
f 155/142/58 159/134/58 157/179/58 153/180/58
f 160/126/57 156/118/57 154/181/57 158/178/57
f 161/174/49 162/175/49 164/176/49 163/177/49
f 163/177/30 164/176/30 168/126/30 167/134/30
f 167/134/50 168/126/50 166/178/50 165/179/50
f 165/179/27 166/178/27 162/125/27 161/133/27
f 163/142/48 167/134/48 165/179/48 161/180/48
f 168/126/47 164/118/47 162/181/47 166/178/47
f 169/174/53 170/175/53 172/176/53 171/177/53
f 171/177/30 172/176/30 176/126/30 175/134/30
f 175/134/54 176/126/54 174/178/54 173/179/54
f 173/179/27 174/178/27 170/125/27 169/133/27
f 171/142/52 175/134/52 173/179/52 169/180/52
f 176/126/51 172/118/51 170/181/51 174/178/51
f 177/174/57 178/175/57 180/176/57 179/177/57
f 179/177/30 180/176/30 184/126/30 183/134/30
f 183/134/58 184/126/58 182/178/58 181/179/58
f 181/179/27 182/178/27 178/125/27 177/133/27
f 179/142/56 183/134/56 181/179/56 177/180/56
f 184/126/55 180/118/55 178/181/55 182/178/55
