# Blender 5.1.2
# www.blender.org
mtllib BG_Shard_Rock.mtl
o BG_Shard_Rock
v 0.003855 -0.287197 0.053504
v 0.381355 -0.067430 0.247776
v -0.143396 -0.071560 0.374522
v -0.500000 -0.082946 0.053504
v -0.140226 -0.067284 -0.260601
v 0.408458 -0.081389 -0.154716
v 0.107171 0.266307 0.278740
v -0.332184 0.300067 0.226440
v -0.403905 0.337006 -0.156341
v 0.142722 0.314244 -0.249234
v 0.500000 0.333723 0.053504
v 0.003855 0.453064 0.053504
v 0.116125 -0.453064 0.006726
v 0.183823 -0.401346 0.055911
v 0.090267 -0.401346 0.086310
v 0.032444 -0.401346 0.006726
v 0.090267 -0.401346 -0.072859
v 0.183823 -0.401346 -0.042460
v 0.141983 -0.317665 0.086310
v 0.048426 -0.317665 0.055911
v 0.048426 -0.317665 -0.042460
v 0.141983 -0.317665 -0.072859
v 0.199805 -0.317665 0.006726
v 0.116125 -0.265948 0.006726
v 0.023111 0.159626 -0.195372
v 0.083793 0.173497 -0.175017
v 0.093985 0.223775 -0.134308
v 0.043495 0.260181 -0.113953
v -0.017187 0.246310 -0.134308
v -0.027379 0.196032 -0.175017
v 0.067965 0.380895 -0.374522
vn 0.1506 -0.7873 0.5979
vn 0.4779 -0.8762 0.0626
vn -0.3426 -0.8451 0.4105
vn -0.3391 -0.8366 -0.4302
vn 0.0953 -0.7944 -0.5999
vn 0.9655 -0.2499 0.0737
vn 0.2328 0.1015 0.9672
vn -0.6677 -0.0430 0.7432
vn -0.6354 -0.2239 -0.7390
vn 0.1857 -0.1086 -0.9766
vn 0.4402 0.2826 0.8523
vn -0.0865 0.3306 0.9398
vn -0.9272 0.3141 0.2040
vn -0.1597 0.1475 -0.9761
vn 0.6203 0.2381 -0.7474
vn 0.1917 0.7969 0.5729
vn -0.0177 0.7657 0.6430
vn -0.3429 0.9267 0.1537
vn -0.0355 0.9021 -0.4300
vn 0.2215 0.9209 -0.3207
vn 0.1876 -0.7947 0.5774
vn 0.6071 -0.7947 -0.0000
vn -0.4911 -0.7947 0.3568
vn -0.4911 -0.7947 -0.3568
vn 0.1876 -0.7947 -0.5774
vn 0.9822 -0.1876 -0.0000
vn 0.3035 -0.1876 0.9342
vn -0.7946 -0.1876 0.5774
vn -0.7946 -0.1876 -0.5774
vn 0.3035 -0.1876 -0.9342
vn 0.7946 0.1876 0.5774
vn -0.3035 0.1876 0.9342
vn -0.9822 0.1876 -0.0000
vn -0.3035 0.1876 -0.9342
vn 0.7946 0.1876 -0.5774
vn 0.4911 0.7947 0.3568
vn -0.1876 0.7947 0.5774
vn -0.6071 0.7947 -0.0000
vn -0.1876 0.7947 -0.5774
vn 0.4911 0.7947 -0.3568
vn 0.3727 -0.6284 -0.6828
vn 0.9851 -0.0741 -0.1552
vn 0.6369 0.6750 0.3725
vn -0.3238 0.8697 0.3725
vn -0.1235 -0.6092 0.7833
vn -0.9362 0.3154 -0.1552
vn -0.5880 -0.4337 -0.6828
vt 0.342304 0.874017
vt 0.543707 0.697865
vt 0.508185 0.954791
vt 0.342304 0.594992
vt 0.125281 0.380036
vt 0.005627 0.235782
vt 0.110802 0.080880
vt 0.313623 0.255193
vt 0.331050 0.514822
vt 0.524390 0.492353
vt 0.342303 0.391963
vt 0.342303 0.091092
vt 0.531291 0.241186
vt 0.197041 0.794483
vt 0.005627 0.819780
vt 0.007473 0.628514
vt 0.331050 0.005627
vt 0.907574 0.050941
vt 0.899846 0.351348
vt 0.688511 0.189283
vt 0.577676 0.005627
vt 0.564974 0.481099
vt 0.197041 0.526076
vt 0.667088 0.498904
vt 0.667088 0.005627
vt 0.655834 0.279733
vt 0.667207 0.510157
vt 0.857033 0.532554
vt 0.837979 0.709943
vt 0.667088 0.817113
vt 0.857033 0.994373
vt 0.279629 0.595383
vt 0.327386 0.567944
vt 0.320955 0.615009
vt 0.279629 0.540420
vt 0.237667 0.746516
vt 0.208294 0.716946
vt 0.238540 0.691422
vt 0.285194 0.720045
vt 0.283781 0.763256
vt 0.320955 0.526076
vt 0.634442 0.688533
vt 0.604083 0.733430
vt 0.580344 0.688252
vt 0.255968 0.848583
vt 0.212459 0.863522
vt 0.208294 0.821277
vt 0.285194 0.674113
vt 0.315363 0.848848
vt 0.269021 0.828517
vt 0.315363 0.798634
vt 0.554961 0.716874
vt 0.604083 0.644228
vt 0.255968 0.793571
vt 0.267222 0.774510
vt 0.629511 0.793214
vt 0.603553 0.808448
vt 0.603553 0.755510
vt 0.554961 0.744684
vt 0.557479 0.778455
vt 0.554961 0.661744
vt 0.212459 0.774510
vt 0.554961 0.830339
vt 0.208295 0.643396
vt 0.268375 0.526076
vt 0.242804 0.645481
vt 0.268375 0.662859
vt 0.554961 0.599507
vt 0.564813 0.492353
vt 0.586455 0.584006
vt 0.329611 0.662206
vt 0.329611 0.763256
vt 0.296448 0.676668
vt 0.586455 0.632974
vt 0.554961 0.623991
vt 0.617948 0.592989
vt 0.617948 0.617473
vt 0.868287 0.668565
vt 0.884709 0.510158
vt 0.904905 0.668565
vt 0.868287 0.835517
vt 0.868287 0.679818
vt 0.903906 0.829395
s 0
usemtl BG_Shard_Rock
f 1/1/1 2/2/1 3/3/1
f 2/2/2 1/1/2 6/4/2
f 1/5/3 3/6/3 4/7/3
f 1/5/4 4/7/4 5/8/4
f 1/5/5 5/8/5 6/9/5
f 2/2/6 6/4/6 11/10/6
f 3/11/7 2/12/7 7/13/7
f 4/14/8 3/15/8 8/16/8
f 5/8/9 4/7/9 9/17/9
f 6/18/10 5/19/10 10/20/10
f 2/12/11 11/21/11 7/13/11
f 3/11/12 7/13/12 8/22/12
f 4/14/13 8/16/13 9/23/13
f 5/19/14 9/24/14 10/20/14
f 6/18/15 10/20/15 11/25/15
f 7/13/16 11/21/16 12/26/16
f 8/22/17 7/13/17 12/26/17
f 9/27/18 8/28/18 12/29/18
f 10/30/19 9/27/19 12/29/19
f 11/31/20 10/30/20 12/29/20
f 13/32/21 14/33/21 15/34/21
f 14/33/22 13/32/22 18/35/22
f 13/36/23 15/37/23 16/38/23
f 13/36/24 16/38/24 17/39/24
f 13/36/25 17/39/25 18/40/25
f 14/33/26 18/35/26 23/41/26
f 15/42/27 14/43/27 19/44/27
f 16/45/28 15/46/28 20/47/28
f 17/39/29 16/38/29 21/48/29
f 18/49/30 17/50/30 22/51/30
f 14/43/31 23/52/31 19/44/31
f 15/42/32 19/44/32 20/53/32
f 16/45/33 20/47/33 21/54/33
f 17/50/34 21/55/34 22/51/34
f 18/56/35 22/57/35 23/58/35
f 19/59/36 23/58/36 24/60/36
f 20/53/37 19/44/37 24/61/37
f 21/54/38 20/47/38 24/62/38
f 22/57/39 21/63/39 24/60/39
f 23/58/40 22/57/40 24/60/40
f 25/64/41 31/65/41 26/66/41
f 26/66/42 31/65/42 27/67/42
f 27/68/43 31/69/43 28/70/43
f 28/71/44 31/72/44 29/73/44
f 25/74/45 26/75/45 27/68/45 28/70/45 29/76/45 30/77/45
f 29/78/46 31/79/46 30/80/46
f 30/81/47 31/82/47 25/83/47
