# Blender 4.1.1
# www.blender.org
mtllib Needle_Small.mtl
o Cube
v 1.000000 0.200000 -1.000000
v 1.000000 -0.200000 -1.000000
v 1.000000 0.200000 1.000000
v 1.000000 -0.200000 1.000000
v -1.000000 0.200000 -1.000000
v -1.000000 -0.200000 -1.000000
v -1.000000 0.200000 1.000000
v -1.000000 -0.200000 1.000000
v -0.480492 0.181750 -0.967545
v -0.014097 0.181778 -0.494474
v -0.487136 0.181750 -0.028046
v -0.953532 0.181778 -0.501117
v -0.483814 0.595356 -0.497795
v 0.495948 0.181750 -0.967545
v 0.962344 0.181778 -0.494474
v 0.489305 0.181750 -0.028046
v 0.022909 0.181778 -0.501117
v 0.492627 0.595356 -0.497795
v 0.495948 0.181750 0.012440
v 0.962344 0.181778 0.485511
v 0.489305 0.181750 0.951939
v 0.022909 0.181778 0.478868
v 0.492627 0.595356 0.482189
v -0.480492 0.181750 0.012440
v -0.014097 0.181778 0.485511
v -0.487136 0.181750 0.951939
v -0.953532 0.181778 0.478868
v -0.483814 0.595356 0.482189
vn -0.0000 1.0000 -0.0000
vn -0.0000 -0.0000 1.0000
vn -1.0000 -0.0000 -0.0000
vn -0.0000 -1.0000 -0.0000
vn 1.0000 -0.0000 -0.0000
vn -0.0000 -0.0000 -1.0000
vn 0.5552 0.6262 -0.5474
vn 0.5474 0.6262 0.5552
vn -0.5552 0.6262 0.5474
vn -0.5474 0.6262 -0.5552
vn -0.0000 -1.0000 -0.0001
vn -0.0000 -1.0000 0.0001
vt 0.335083 0.753906
vt 0.236241 0.852748
vt 0.236241 0.753906
vt 0.137399 0.951591
vt 0.137399 0.852748
vt 0.236241 0.556222
vt 0.137399 0.655064
vt 0.137399 0.556222
vt 0.137399 0.753906
vt 0.038557 0.852748
vt 0.038557 0.753906
vt 0.236241 0.655064
vt 0.875854 0.876534
vt 0.264526 0.265206
vt 0.335083 0.852748
vt 0.236241 0.951591
s 0
usemtl Material
f 5/1/1 3/2/1 1/3/1
f 3/2/2 8/4/2 4/5/2
f 7/6/3 6/7/3 8/8/3
f 2/9/4 8/10/4 6/11/4
f 1/3/5 4/5/5 2/9/5
f 5/12/6 2/9/6 6/7/6
f 9/13/7 13/13/7 10/13/7
f 10/13/8 13/13/8 11/13/8
f 11/13/9 13/13/9 12/13/9
f 12/13/10 13/13/10 9/13/10
f 12/14/11 10/14/11 11/14/11
f 14/13/7 18/13/7 15/13/7
f 15/13/8 18/13/8 16/13/8
f 16/13/9 18/13/9 17/13/9
f 17/13/10 18/13/10 14/13/10
f 17/14/11 15/14/11 16/14/11
f 19/13/7 23/13/7 20/13/7
f 20/13/8 23/13/8 21/13/8
f 21/13/9 23/13/9 22/13/9
f 22/13/10 23/13/10 19/13/10
f 22/14/11 20/14/11 21/14/11
f 24/13/7 28/13/7 25/13/7
f 25/13/8 28/13/8 26/13/8
f 26/13/9 28/13/9 27/13/9
f 27/13/10 28/13/10 24/13/10
f 27/14/11 25/14/11 26/14/11
f 5/1/1 7/15/1 3/2/1
f 3/2/2 7/16/2 8/4/2
f 7/6/3 5/12/3 6/7/3
f 2/9/4 4/5/4 8/10/4
f 1/3/5 3/2/5 4/5/5
f 5/12/6 1/3/6 2/9/6
f 12/14/12 9/14/12 10/14/12
f 17/14/12 14/14/12 15/14/12
f 22/14/12 19/14/12 20/14/12
f 27/14/12 24/14/12 25/14/12
