# Blender 5.2.0 LTS
# www.blender.org
mtllib Intro_D7_Out.mtl
o Intro_D7_Out
v -0.242454 -0.827853 0.159509
v -0.242454 -0.338160 0.159509
v -0.145153 -0.338160 0.159509
v -0.145153 -0.041472 0.159509
v -0.046258 -0.041472 0.159509
v -0.046258 0.253620 0.159509
v 0.052638 0.253620 0.159509
v 0.052638 0.451411 0.159509
v 0.151534 0.451411 0.159509
v 0.151534 0.357301 0.159509
v -0.441840 0.357301 0.159509
v -0.441840 0.647607 0.159509
v 0.441840 0.647607 0.159509
v 0.441840 0.258405 0.159509
v 0.342945 0.258405 0.159509
v 0.342945 0.060614 0.159509
v 0.245644 0.060614 0.159509
v 0.245644 -0.234478 0.159509
v 0.146748 -0.234478 0.159509
v 0.146748 -0.529570 0.159509
v 0.047853 -0.529570 0.159509
v 0.047853 -0.827853 0.159509
v 0.052638 0.357301 0.159509
v -0.242454 -0.827853 -0.159509
v -0.242454 -0.338160 -0.159509
v -0.145153 -0.338160 -0.159509
v -0.145153 -0.041472 -0.159509
v -0.046258 -0.041472 -0.159509
v -0.046258 0.253620 -0.159509
v 0.052638 0.253620 -0.159509
v 0.052638 0.451411 -0.159509
v 0.151534 0.451411 -0.159509
v 0.151534 0.357301 -0.159509
v -0.441840 0.357301 -0.159509
v -0.441840 0.647607 -0.159509
v 0.441840 0.647607 -0.159509
v 0.441840 0.258405 -0.159509
v 0.342945 0.258405 -0.159509
v 0.342945 0.060614 -0.159509
v 0.245644 0.060614 -0.159509
v 0.245644 -0.234478 -0.159509
v 0.146748 -0.234478 -0.159509
v 0.146748 -0.529570 -0.159509
v 0.047853 -0.529570 -0.159509
v 0.047853 -0.827853 -0.159509
v 0.052638 0.357301 -0.159509
v -0.242454 -0.827853 -0.159509
v -0.242454 -0.827853 0.159509
v -0.242454 -0.338160 -0.159509
v -0.242454 -0.338160 0.159509
v -0.145153 -0.338160 -0.159509
v -0.145153 -0.338160 0.159509
v -0.145153 -0.041472 -0.159509
v -0.145153 -0.041472 0.159509
v -0.046258 -0.041472 -0.159509
v -0.046258 -0.041472 0.159509
v -0.046258 0.253620 -0.159509
v -0.046258 0.253620 0.159509
v 0.052638 0.253620 -0.159509
v 0.052638 0.253620 0.159509
v 0.052638 0.451411 -0.159509
v 0.052638 0.451411 0.159509
v 0.151534 0.451411 -0.159509
v 0.151534 0.451411 0.159509
v 0.151534 0.357301 -0.159509
v 0.151534 0.357301 0.159509
v -0.441840 0.357301 -0.159509
v -0.441840 0.357301 0.159509
v -0.441840 0.647607 -0.159509
v -0.441840 0.647607 0.159509
v 0.441840 0.647607 -0.159509
v 0.441840 0.647607 0.159509
v 0.441840 0.258405 -0.159509
v 0.441840 0.258405 0.159509
v 0.342945 0.258405 -0.159509
v 0.342945 0.258405 0.159509
v 0.342945 0.060614 -0.159509
v 0.342945 0.060614 0.159509
v 0.245644 0.060614 -0.159509
v 0.245644 0.060614 0.159509
v 0.245644 -0.234478 -0.159509
v 0.245644 -0.234478 0.159509
v 0.146748 -0.234478 -0.159509
v 0.146748 -0.234478 0.159509
v 0.146748 -0.529570 -0.159509
v 0.146748 -0.529570 0.159509
v 0.047853 -0.529570 -0.159509
v 0.047853 -0.529570 0.159509
v 0.047853 -0.827853 -0.159509
v 0.047853 -0.827853 0.159509
vn -0.0000 -0.0000 1.0000
vn -0.0000 -0.0000 -1.0000
vn -0.7071 -0.7071 -0.0000
vn -0.7071 0.7071 -0.0000
vn 0.7071 0.7071 -0.0000
vn 0.7071 -0.7071 -0.0000
vt 0.437500 0.500000
s 0
usemtl TA_Pal2
f 6/1/1 5/1/1 7/1/1
f 22/1/1 21/1/1 1/1/1
f 2/1/1 1/1/1 21/1/1
f 3/1/1 2/1/1 21/1/1
f 5/1/1 4/1/1 3/1/1
f 10/1/1 9/1/1 8/1/1
f 15/1/1 14/1/1 13/1/1
f 17/1/1 16/1/1 15/1/1
f 18/1/1 17/1/1 19/1/1
f 9/1/1 10/1/1 15/1/1
f 15/1/1 13/1/1 9/1/1
f 8/1/1 9/1/1 13/1/1
f 20/1/1 19/1/1 21/1/1
f 3/1/1 21/1/1 19/1/1
f 5/1/1 3/1/1 19/1/1
f 19/1/1 17/1/1 5/1/1
f 7/1/1 5/1/1 17/1/1
f 17/1/1 15/1/1 7/1/1
f 15/1/1 10/1/1 7/1/1
f 10/1/1 8/1/1 23/1/1
f 23/1/1 8/1/1 11/1/1
f 12/1/1 11/1/1 8/1/1
f 8/1/1 13/1/1 12/1/1
f 7/1/1 10/1/1 23/1/1
f 29/1/2 30/1/2 28/1/2
f 45/1/2 24/1/2 44/1/2
f 25/1/2 44/1/2 24/1/2
f 26/1/2 44/1/2 25/1/2
f 28/1/2 26/1/2 27/1/2
f 33/1/2 31/1/2 32/1/2
f 38/1/2 36/1/2 37/1/2
f 40/1/2 38/1/2 39/1/2
f 41/1/2 42/1/2 40/1/2
f 32/1/2 38/1/2 33/1/2
f 38/1/2 32/1/2 36/1/2
f 31/1/2 36/1/2 32/1/2
f 43/1/2 44/1/2 42/1/2
f 26/1/2 42/1/2 44/1/2
f 28/1/2 42/1/2 26/1/2
f 42/1/2 28/1/2 40/1/2
f 30/1/2 40/1/2 28/1/2
f 40/1/2 30/1/2 38/1/2
f 38/1/2 30/1/2 33/1/2
f 33/1/2 46/1/2 31/1/2
f 46/1/2 34/1/2 31/1/2
f 35/1/2 31/1/2 34/1/2
f 31/1/2 35/1/2 36/1/2
f 30/1/2 46/1/2 33/1/2
s 1
f 48/1/3 49/1/4 47/1/3
f 52/1/4 49/1/4 50/1/4
f 54/1/4 51/1/4 52/1/4
f 56/1/4 53/1/4 54/1/4
f 56/1/4 57/1/4 55/1/4
f 60/1/4 57/1/4 58/1/4
f 62/1/4 59/1/4 60/1/4
f 64/1/5 61/1/4 62/1/4
f 66/1/6 63/1/5 64/1/5
f 68/1/3 65/1/6 66/1/6
f 68/1/3 69/1/4 67/1/3
f 72/1/5 69/1/4 70/1/4
f 74/1/6 71/1/5 72/1/5
f 76/1/6 73/1/6 74/1/6
f 76/1/6 77/1/6 75/1/6
f 80/1/6 77/1/6 78/1/6
f 82/1/6 79/1/6 80/1/6
f 84/1/6 81/1/6 82/1/6
f 86/1/6 83/1/6 84/1/6
f 88/1/6 85/1/6 86/1/6
f 90/1/6 87/1/6 88/1/6
f 48/1/3 89/1/6 90/1/6
f 48/1/3 50/1/4 49/1/4
f 52/1/4 51/1/4 49/1/4
f 54/1/4 53/1/4 51/1/4
f 56/1/4 55/1/4 53/1/4
f 56/1/4 58/1/4 57/1/4
f 60/1/4 59/1/4 57/1/4
f 62/1/4 61/1/4 59/1/4
f 64/1/5 63/1/5 61/1/4
f 66/1/6 65/1/6 63/1/5
f 68/1/3 67/1/3 65/1/6
f 68/1/3 70/1/4 69/1/4
f 72/1/5 71/1/5 69/1/4
f 74/1/6 73/1/6 71/1/5
f 76/1/6 75/1/6 73/1/6
f 76/1/6 78/1/6 77/1/6
f 80/1/6 79/1/6 77/1/6
f 82/1/6 81/1/6 79/1/6
f 84/1/6 83/1/6 81/1/6
f 86/1/6 85/1/6 83/1/6
f 88/1/6 87/1/6 85/1/6
f 90/1/6 89/1/6 87/1/6
f 48/1/3 47/1/3 89/1/6
