# Blender 5.2.0 LTS
# www.blender.org
mtllib BG_Hand_S.mtl
o BG_Hand_S
v -0.015000 -0.040000 0.017500
v -0.015000 0.880000 0.017500
v -0.015000 -0.040000 -0.017500
v -0.015000 0.880000 -0.017500
v 0.015000 -0.040000 0.017500
v 0.015000 0.880000 0.017500
v 0.015000 -0.040000 -0.017500
v 0.015000 0.880000 -0.017500
v -0.022500 -0.230000 0.017500
v -0.022500 -0.070000 0.017500
v -0.022500 -0.230000 -0.017500
v -0.022500 -0.070000 -0.017500
v 0.022500 -0.230000 0.017500
v 0.022500 -0.070000 0.017500
v 0.022500 -0.230000 -0.017500
v 0.022500 -0.070000 -0.017500
v 0.000000 -0.185000 -0.020000
v 0.000000 -0.185000 0.020000
v 0.027500 -0.192369 -0.020000
v 0.027500 -0.192369 0.020000
v 0.047631 -0.212500 -0.020000
v 0.047631 -0.212500 0.020000
v 0.055000 -0.240000 -0.020000
v 0.055000 -0.240000 0.020000
v 0.047631 -0.267500 -0.020000
v 0.047631 -0.267500 0.020000
v 0.027500 -0.287631 -0.020000
v 0.027500 -0.287631 0.020000
v 0.000000 -0.295000 -0.020000
v 0.000000 -0.295000 0.020000
v -0.027500 -0.287631 -0.020000
v -0.027500 -0.287631 0.020000
v -0.047631 -0.267500 -0.020000
v -0.047631 -0.267500 0.020000
v -0.055000 -0.240000 -0.020000
v -0.055000 -0.240000 0.020000
v -0.047631 -0.212500 -0.020000
v -0.047631 -0.212500 0.020000
v -0.027500 -0.192369 -0.020000
v -0.027500 -0.192369 0.020000
v 0.000000 0.050000 0.000000
v 0.000000 0.050000 0.050000
v 0.025000 0.043301 0.000000
v 0.025000 0.043301 0.050000
v 0.043301 0.025000 0.000000
v 0.043301 0.025000 0.050000
v 0.050000 -0.000000 0.000000
v 0.050000 -0.000000 0.050000
v 0.043301 -0.025000 -0.000000
v 0.043301 -0.025000 0.050000
v 0.025000 -0.043301 -0.000000
v 0.025000 -0.043301 0.050000
v 0.000000 -0.050000 -0.000000
v 0.000000 -0.050000 0.050000
v -0.025000 -0.043301 -0.000000
v -0.025000 -0.043301 0.050000
v -0.043301 -0.025000 -0.000000
v -0.043301 -0.025000 0.050000
v -0.050000 -0.000000 0.000000
v -0.050000 -0.000000 0.050000
v -0.043301 0.025000 0.000000
v -0.043301 0.025000 0.050000
v -0.025000 0.043301 0.000000
v -0.025000 0.043301 0.050000
vn -1.0000 -0.0000 -0.0000
vn -0.0000 -0.0000 -1.0000
vn 1.0000 -0.0000 -0.0000
vn -0.0000 -0.0000 1.0000
vn -0.0000 -1.0000 -0.0000
vn -0.0000 1.0000 -0.0000
vn 0.2588 0.9659 -0.0000
vn 0.7071 0.7071 -0.0000
vn 0.9659 0.2588 -0.0000
vn 0.9659 -0.2588 -0.0000
vn 0.7071 -0.7071 -0.0000
vn 0.2588 -0.9659 -0.0000
vn -0.2588 -0.9659 -0.0000
vn -0.7071 -0.7071 -0.0000
vn -0.9659 -0.2588 -0.0000
vn -0.9659 0.2588 -0.0000
vn -0.7071 0.7071 -0.0000
vn -0.2588 0.9659 -0.0000
vt 0.937500 0.500000
vt 0.187500 0.500000
s 0
usemtl TA_Pal
f 2/1/1 3/1/1 1/1/1
f 4/1/2 7/1/2 3/1/2
f 8/1/3 5/1/3 7/1/3
f 6/1/4 1/1/4 5/1/4
f 7/1/5 1/1/5 3/1/5
f 4/1/6 6/1/6 8/1/6
f 10/1/1 11/1/1 9/1/1
f 12/1/2 15/1/2 11/1/2
f 16/1/3 13/1/3 15/1/3
f 14/1/4 9/1/4 13/1/4
f 15/1/5 9/1/5 11/1/5
f 12/1/6 14/1/6 16/1/6
f 18/1/7 19/1/7 17/1/7
f 20/1/8 21/1/8 19/1/8
f 22/1/9 23/1/9 21/1/9
f 24/1/10 25/1/10 23/1/10
f 26/1/11 27/1/11 25/1/11
f 28/1/12 29/1/12 27/1/12
f 30/1/13 31/1/13 29/1/13
f 32/1/14 33/1/14 31/1/14
f 33/1/15 36/1/15 35/1/15
f 35/1/16 38/1/16 37/1/16
f 38/1/4 30/1/4 22/1/4
f 38/1/17 39/1/17 37/1/17
f 40/1/18 17/1/18 39/1/18
f 23/1/2 31/1/2 39/1/2
f 42/2/7 43/2/7 41/2/7
f 44/2/8 45/2/8 43/2/8
f 46/2/9 47/2/9 45/2/9
f 47/2/10 50/2/10 49/2/10
f 50/2/11 51/2/11 49/2/11
f 52/2/12 53/2/12 51/2/12
f 54/2/13 55/2/13 53/2/13
f 56/2/14 57/2/14 55/2/14
f 58/2/15 59/2/15 57/2/15
f 60/2/16 61/2/16 59/2/16
f 62/2/4 54/2/4 46/2/4
f 62/2/17 63/2/17 61/2/17
f 64/2/18 41/2/18 63/2/18
f 47/2/2 55/2/2 63/2/2
f 2/1/1 4/1/1 3/1/1
f 4/1/2 8/1/2 7/1/2
f 8/1/3 6/1/3 5/1/3
f 6/1/4 2/1/4 1/1/4
f 7/1/5 5/1/5 1/1/5
f 4/1/6 2/1/6 6/1/6
f 10/1/1 12/1/1 11/1/1
f 12/1/2 16/1/2 15/1/2
f 16/1/3 14/1/3 13/1/3
f 14/1/4 10/1/4 9/1/4
f 15/1/5 13/1/5 9/1/5
f 12/1/6 10/1/6 14/1/6
f 18/1/7 20/1/7 19/1/7
f 20/1/8 22/1/8 21/1/8
f 22/1/9 24/1/9 23/1/9
f 24/1/10 26/1/10 25/1/10
f 26/1/11 28/1/11 27/1/11
f 28/1/12 30/1/12 29/1/12
f 30/1/13 32/1/13 31/1/13
f 32/1/14 34/1/14 33/1/14
f 33/1/15 34/1/15 36/1/15
f 35/1/16 36/1/16 38/1/16
f 22/1/4 20/1/4 18/1/4
f 18/1/4 40/1/4 38/1/4
f 38/1/4 36/1/4 34/1/4
f 34/1/4 32/1/4 30/1/4
f 30/1/4 28/1/4 26/1/4
f 26/1/4 24/1/4 22/1/4
f 22/1/4 18/1/4 38/1/4
f 38/1/4 34/1/4 30/1/4
f 30/1/4 26/1/4 22/1/4
f 38/1/17 40/1/17 39/1/17
f 40/1/18 18/1/18 17/1/18
f 39/1/2 17/1/2 19/1/2
f 19/1/2 21/1/2 23/1/2
f 23/1/2 25/1/2 27/1/2
f 27/1/2 29/1/2 31/1/2
f 31/1/2 33/1/2 35/1/2
f 35/1/2 37/1/2 39/1/2
f 39/1/2 19/1/2 23/1/2
f 23/1/2 27/1/2 31/1/2
f 31/1/2 35/1/2 39/1/2
f 42/2/7 44/2/7 43/2/7
f 44/2/8 46/2/8 45/2/8
f 46/2/9 48/2/9 47/2/9
f 47/2/10 48/2/10 50/2/10
f 50/2/11 52/2/11 51/2/11
f 52/2/12 54/2/12 53/2/12
f 54/2/13 56/2/13 55/2/13
f 56/2/14 58/2/14 57/2/14
f 58/2/15 60/2/15 59/2/15
f 60/2/16 62/2/16 61/2/16
f 46/2/4 44/2/4 42/2/4
f 42/2/4 64/2/4 62/2/4
f 62/2/4 60/2/4 58/2/4
f 58/2/4 56/2/4 54/2/4
f 54/2/4 52/2/4 50/2/4
f 50/2/4 48/2/4 46/2/4
f 46/2/4 42/2/4 62/2/4
f 62/2/4 58/2/4 54/2/4
f 54/2/4 50/2/4 46/2/4
f 62/2/17 64/2/17 63/2/17
f 64/2/18 42/2/18 41/2/18
f 63/2/2 41/2/2 43/2/2
f 43/2/2 45/2/2 47/2/2
f 47/2/2 49/2/2 51/2/2
f 51/2/2 53/2/2 55/2/2
f 55/2/2 57/2/2 59/2/2
f 59/2/2 61/2/2 63/2/2
f 63/2/2 43/2/2 47/2/2
f 47/2/2 51/2/2 55/2/2
f 55/2/2 59/2/2 63/2/2
