# Blender 5.2.0 LTS
# www.blender.org
mtllib Intro_D2.mtl
o Intro_D2
v -0.354110 -0.740123 0.287117
v -0.354110 -0.326994 0.287117
v -0.253620 -0.326994 0.287117
v -0.253620 -0.228098 0.287117
v -0.154724 -0.228098 0.287117
v -0.154724 -0.129202 0.287117
v 0.041472 -0.129202 0.287117
v 0.041472 -0.030307 0.287117
v 0.140368 -0.030307 0.287117
v 0.140368 0.066994 0.287117
v 0.239264 0.066994 0.287117
v 0.239264 0.346135 0.287117
v 0.140368 0.346135 0.287117
v 0.140368 0.445031 0.287117
v -0.138773 0.445031 0.287117
v -0.138773 0.346135 0.287117
v -0.236074 0.346135 0.287117
v -0.236074 0.051043 0.287117
v -0.354110 0.051043 0.287117
v -0.354110 0.363681 0.287117
v -0.253620 0.363681 0.287117
v -0.253620 0.462577 0.287117
v -0.154724 0.462577 0.287117
v -0.154724 0.559877 0.287117
v 0.157914 0.559877 0.287117
v 0.157914 0.462577 0.287117
v 0.255215 0.462577 0.287117
v 0.255215 0.363681 0.287117
v 0.354110 0.363681 0.287117
v 0.354110 0.051043 0.287117
v 0.255215 0.051043 0.287117
v 0.255215 -0.047853 0.287117
v 0.157914 -0.047853 0.287117
v 0.157914 -0.146748 0.287117
v 0.059018 -0.146748 0.287117
v 0.059018 -0.245644 0.287117
v -0.138773 -0.245644 0.287117
v -0.138773 -0.344540 0.287117
v -0.236074 -0.344540 0.287117
v -0.236074 -0.622086 0.287117
v 0.354110 -0.622086 0.287117
v 0.354110 -0.740123 0.287117
v -0.354110 -0.740123 -0.287117
v -0.354110 -0.326994 -0.287117
v -0.253620 -0.326994 -0.287117
v -0.253620 -0.228098 -0.287117
v -0.154724 -0.228098 -0.287117
v -0.154724 -0.129202 -0.287117
v 0.041472 -0.129202 -0.287117
v 0.041472 -0.030307 -0.287117
v 0.140368 -0.030307 -0.287117
v 0.140368 0.066994 -0.287117
v 0.239264 0.066994 -0.287117
v 0.239264 0.346135 -0.287117
v 0.140368 0.346135 -0.287117
v 0.140368 0.445031 -0.287117
v -0.138773 0.445031 -0.287117
v -0.138773 0.346135 -0.287117
v -0.236074 0.346135 -0.287117
v -0.236074 0.051043 -0.287117
v -0.354110 0.051043 -0.287117
v -0.354110 0.363681 -0.287117
v -0.253620 0.363681 -0.287117
v -0.253620 0.462577 -0.287117
v -0.154724 0.462577 -0.287117
v -0.154724 0.559877 -0.287117
v 0.157914 0.559877 -0.287117
v 0.157914 0.462577 -0.287117
v 0.255215 0.462577 -0.287117
v 0.255215 0.363681 -0.287117
v 0.354110 0.363681 -0.287117
v 0.354110 0.051043 -0.287117
v 0.255215 0.051043 -0.287117
v 0.255215 -0.047853 -0.287117
v 0.157914 -0.047853 -0.287117
v 0.157914 -0.146748 -0.287117
v 0.059018 -0.146748 -0.287117
v 0.059018 -0.245644 -0.287117
v -0.138773 -0.245644 -0.287117
v -0.138773 -0.344540 -0.287117
v -0.236074 -0.344540 -0.287117
v -0.236074 -0.622086 -0.287117
v 0.354110 -0.622086 -0.287117
v 0.354110 -0.740123 -0.287117
v -0.354110 -0.740123 -0.287117
v -0.354110 -0.740123 0.287117
v -0.354110 -0.326994 -0.287117
v -0.354110 -0.326994 0.287117
v -0.253620 -0.326994 -0.287117
v -0.253620 -0.326994 0.287117
v -0.253620 -0.228098 -0.287117
v -0.253620 -0.228098 0.287117
v -0.154724 -0.228098 -0.287117
v -0.154724 -0.228098 0.287117
v -0.154724 -0.129202 -0.287117
v -0.154724 -0.129202 0.287117
v 0.041472 -0.129202 -0.287117
v 0.041472 -0.129202 0.287117
v 0.041472 -0.030307 -0.287117
v 0.041472 -0.030307 0.287117
v 0.140368 -0.030307 -0.287117
v 0.140368 -0.030307 0.287117
v 0.140368 0.066994 -0.287117
v 0.140368 0.066994 0.287117
v 0.239264 0.066994 -0.287117
v 0.239264 0.066994 0.287117
v 0.239264 0.346135 -0.287117
v 0.239264 0.346135 0.287117
v 0.140368 0.346135 -0.287117
v 0.140368 0.346135 0.287117
v 0.140368 0.445031 -0.287117
v 0.140368 0.445031 0.287117
v -0.138773 0.445031 -0.287117
v -0.138773 0.445031 0.287117
v -0.138773 0.346135 -0.287117
v -0.138773 0.346135 0.287117
v -0.236074 0.346135 -0.287117
v -0.236074 0.346135 0.287117
v -0.236074 0.051043 -0.287117
v -0.236074 0.051043 0.287117
v -0.354110 0.051043 -0.287117
v -0.354110 0.051043 0.287117
v -0.354110 0.363681 -0.287117
v -0.354110 0.363681 0.287117
v -0.253620 0.363681 -0.287117
v -0.253620 0.363681 0.287117
v -0.253620 0.462577 -0.287117
v -0.253620 0.462577 0.287117
v -0.154724 0.462577 -0.287117
v -0.154724 0.462577 0.287117
v -0.154724 0.559877 -0.287117
v -0.154724 0.559877 0.287117
v 0.157914 0.559877 -0.287117
v 0.157914 0.559877 0.287117
v 0.157914 0.462577 -0.287117
v 0.157914 0.462577 0.287117
v 0.255215 0.462577 -0.287117
v 0.255215 0.462577 0.287117
v 0.255215 0.363681 -0.287117
v 0.255215 0.363681 0.287117
v 0.354110 0.363681 -0.287117
v 0.354110 0.363681 0.287117
v 0.354110 0.051043 -0.287117
v 0.354110 0.051043 0.287117
v 0.255215 0.051043 -0.287117
v 0.255215 0.051043 0.287117
v 0.255215 -0.047853 -0.287117
v 0.255215 -0.047853 0.287117
v 0.157914 -0.047853 -0.287117
v 0.157914 -0.047853 0.287117
v 0.157914 -0.146748 -0.287117
v 0.157914 -0.146748 0.287117
v 0.059018 -0.146748 -0.287117
v 0.059018 -0.146748 0.287117
v 0.059018 -0.245644 -0.287117
v 0.059018 -0.245644 0.287117
v -0.138773 -0.245644 -0.287117
v -0.138773 -0.245644 0.287117
v -0.138773 -0.344540 -0.287117
v -0.138773 -0.344540 0.287117
v -0.236074 -0.344540 -0.287117
v -0.236074 -0.344540 0.287117
v -0.236074 -0.622086 -0.287117
v -0.236074 -0.622086 0.287117
v 0.354110 -0.622086 -0.287117
v 0.354110 -0.622086 0.287117
v 0.354110 -0.740123 -0.287117
v 0.354110 -0.740123 0.287117
vn -0.0000 -0.0000 1.0000
vn -0.0000 -0.0000 -1.0000
vn -0.7071 0.7071 -0.0000
vn -0.7071 -0.7071 -0.0000
vn 0.7071 -0.7071 -0.0000
vn 0.7071 0.7071 -0.0000
vt 0.187500 0.500000
s 0
usemtl TA_Pal
f 2/1/1 1/1/1 40/1/1
f 40/1/1 39/1/1 2/1/1
f 3/1/1 2/1/1 39/1/1
f 6/1/1 5/1/1 37/1/1
f 37/1/1 7/1/1 6/1/1
f 16/1/1 15/1/1 17/1/1
f 15/1/1 24/1/1 23/1/1
f 38/1/1 37/1/1 39/1/1
f 3/1/1 39/1/1 37/1/1
f 37/1/1 5/1/1 3/1/1
f 4/1/1 3/1/1 5/1/1
f 18/1/1 17/1/1 19/1/1
f 20/1/1 19/1/1 17/1/1
f 21/1/1 20/1/1 17/1/1
f 17/1/1 15/1/1 21/1/1
f 15/1/1 23/1/1 21/1/1
f 22/1/1 21/1/1 23/1/1
f 34/1/1 33/1/1 35/1/1
f 11/1/1 31/1/1 30/1/1
f 12/1/1 11/1/1 30/1/1
f 30/1/1 29/1/1 12/1/1
f 29/1/1 28/1/1 12/1/1
f 32/1/1 31/1/1 33/1/1
f 31/1/1 11/1/1 33/1/1
f 9/1/1 33/1/1 11/1/1
f 10/1/1 9/1/1 11/1/1
f 14/1/1 13/1/1 12/1/1
f 12/1/1 28/1/1 14/1/1
f 26/1/1 14/1/1 28/1/1
f 28/1/1 27/1/1 26/1/1
f 14/1/1 26/1/1 25/1/1
f 40/1/1 1/1/1 42/1/1
f 42/1/1 41/1/1 40/1/1
f 7/1/1 37/1/1 36/1/1
f 36/1/1 35/1/1 7/1/1
f 35/1/1 33/1/1 7/1/1
f 33/1/1 9/1/1 7/1/1
f 9/1/1 8/1/1 7/1/1
f 24/1/1 15/1/1 14/1/1
f 14/1/1 25/1/1 24/1/1
f 44/1/2 82/1/2 43/1/2
f 82/1/2 44/1/2 81/1/2
f 45/1/2 81/1/2 44/1/2
f 48/1/2 79/1/2 47/1/2
f 79/1/2 48/1/2 49/1/2
f 58/1/2 59/1/2 57/1/2
f 57/1/2 65/1/2 66/1/2
f 80/1/2 81/1/2 79/1/2
f 45/1/2 79/1/2 81/1/2
f 79/1/2 45/1/2 47/1/2
f 46/1/2 47/1/2 45/1/2
f 60/1/2 61/1/2 59/1/2
f 62/1/2 59/1/2 61/1/2
f 63/1/2 59/1/2 62/1/2
f 59/1/2 63/1/2 57/1/2
f 57/1/2 63/1/2 65/1/2
f 64/1/2 65/1/2 63/1/2
f 76/1/2 77/1/2 75/1/2
f 53/1/2 72/1/2 73/1/2
f 54/1/2 72/1/2 53/1/2
f 72/1/2 54/1/2 71/1/2
f 71/1/2 54/1/2 70/1/2
f 74/1/2 75/1/2 73/1/2
f 73/1/2 75/1/2 53/1/2
f 51/1/2 53/1/2 75/1/2
f 52/1/2 53/1/2 51/1/2
f 56/1/2 54/1/2 55/1/2
f 54/1/2 56/1/2 70/1/2
f 68/1/2 70/1/2 56/1/2
f 70/1/2 68/1/2 69/1/2
f 56/1/2 67/1/2 68/1/2
f 82/1/2 84/1/2 43/1/2
f 84/1/2 82/1/2 83/1/2
f 49/1/2 78/1/2 79/1/2
f 78/1/2 49/1/2 77/1/2
f 77/1/2 49/1/2 75/1/2
f 75/1/2 49/1/2 51/1/2
f 51/1/2 49/1/2 50/1/2
f 66/1/2 56/1/2 57/1/2
f 56/1/2 66/1/2 67/1/2
s 1
f 88/1/3 85/1/4 86/1/4
f 90/1/3 87/1/3 88/1/3
f 92/1/3 89/1/3 90/1/3
f 94/1/3 91/1/3 92/1/3
f 96/1/3 93/1/3 94/1/3
f 98/1/3 95/1/3 96/1/3
f 100/1/3 97/1/3 98/1/3
f 102/1/3 99/1/3 100/1/3
f 104/1/3 101/1/3 102/1/3
f 106/1/3 103/1/3 104/1/3
f 108/1/4 105/1/3 106/1/3
f 110/1/4 107/1/4 108/1/4
f 112/1/4 109/1/4 110/1/4
f 114/1/5 111/1/4 112/1/4
f 116/1/5 113/1/5 114/1/5
f 118/1/5 115/1/5 116/1/5
f 120/1/5 117/1/5 118/1/5
f 122/1/4 119/1/5 120/1/5
f 124/1/3 121/1/4 122/1/4
f 126/1/3 123/1/3 124/1/3
f 128/1/3 125/1/3 126/1/3
f 130/1/3 127/1/3 128/1/3
f 132/1/3 129/1/3 130/1/3
f 134/1/6 131/1/3 132/1/3
f 136/1/6 133/1/6 134/1/6
f 138/1/6 135/1/6 136/1/6
f 140/1/6 137/1/6 138/1/6
f 142/1/6 139/1/6 140/1/6
f 144/1/5 141/1/6 142/1/6
f 146/1/5 143/1/5 144/1/5
f 148/1/5 145/1/5 146/1/5
f 150/1/5 147/1/5 148/1/5
f 152/1/5 149/1/5 150/1/5
f 154/1/5 151/1/5 152/1/5
f 156/1/5 153/1/5 154/1/5
f 158/1/5 155/1/5 156/1/5
f 160/1/5 157/1/5 158/1/5
f 162/1/5 159/1/5 160/1/5
f 162/1/5 163/1/6 161/1/5
f 166/1/6 163/1/6 164/1/6
f 168/1/5 165/1/6 166/1/6
f 86/1/4 167/1/5 168/1/5
f 88/1/3 87/1/3 85/1/4
f 90/1/3 89/1/3 87/1/3
f 92/1/3 91/1/3 89/1/3
f 94/1/3 93/1/3 91/1/3
f 96/1/3 95/1/3 93/1/3
f 98/1/3 97/1/3 95/1/3
f 100/1/3 99/1/3 97/1/3
f 102/1/3 101/1/3 99/1/3
f 104/1/3 103/1/3 101/1/3
f 106/1/3 105/1/3 103/1/3
f 108/1/4 107/1/4 105/1/3
f 110/1/4 109/1/4 107/1/4
f 112/1/4 111/1/4 109/1/4
f 114/1/5 113/1/5 111/1/4
f 116/1/5 115/1/5 113/1/5
f 118/1/5 117/1/5 115/1/5
f 120/1/5 119/1/5 117/1/5
f 122/1/4 121/1/4 119/1/5
f 124/1/3 123/1/3 121/1/4
f 126/1/3 125/1/3 123/1/3
f 128/1/3 127/1/3 125/1/3
f 130/1/3 129/1/3 127/1/3
f 132/1/3 131/1/3 129/1/3
f 134/1/6 133/1/6 131/1/3
f 136/1/6 135/1/6 133/1/6
f 138/1/6 137/1/6 135/1/6
f 140/1/6 139/1/6 137/1/6
f 142/1/6 141/1/6 139/1/6
f 144/1/5 143/1/5 141/1/6
f 146/1/5 145/1/5 143/1/5
f 148/1/5 147/1/5 145/1/5
f 150/1/5 149/1/5 147/1/5
f 152/1/5 151/1/5 149/1/5
f 154/1/5 153/1/5 151/1/5
f 156/1/5 155/1/5 153/1/5
f 158/1/5 157/1/5 155/1/5
f 160/1/5 159/1/5 157/1/5
f 162/1/5 161/1/5 159/1/5
f 162/1/5 164/1/6 163/1/6
f 166/1/6 165/1/6 163/1/6
f 168/1/5 167/1/5 165/1/6
f 86/1/4 85/1/4 167/1/5
