# Blender 5.1.2
# www.blender.org
mtllib Bridge_Plank.mtl
o Bridge_Plank
v -0.440000 -0.500000 0.440000
v -0.440000 -0.440000 0.500000
v -0.500000 -0.440000 0.440000
v -0.440000 0.440000 0.500000
v -0.440000 0.500000 0.440000
v -0.500000 0.440000 0.440000
v -0.440000 -0.500000 -0.440000
v -0.500000 -0.440000 -0.440000
v -0.440000 -0.440000 -0.500000
v -0.440000 0.500000 -0.440000
v -0.440000 0.440000 -0.500000
v -0.500000 0.440000 -0.440000
v 0.440000 -0.500000 0.440000
v 0.500000 -0.440000 0.440000
v 0.440000 -0.440000 0.500000
v 0.440000 0.500000 0.440000
v 0.440000 0.440000 0.500000
v 0.500000 0.440000 0.440000
v 0.440000 -0.500000 -0.440000
v 0.440000 -0.440000 -0.500000
v 0.500000 -0.440000 -0.440000
v 0.440000 0.500000 -0.440000
v 0.500000 0.440000 -0.440000
v 0.440000 0.440000 -0.500000
vn -0.5774 -0.5774 0.5774
vn -0.5774 0.5774 0.5774
vn -0.5774 -0.5774 -0.5774
vn -0.5774 0.5774 -0.5774
vn 0.5774 -0.5774 0.5774
vn 0.5774 0.5774 0.5774
vn 0.5774 -0.5774 -0.5774
vn 0.5774 0.5774 -0.5774
vn -0.7071 -0.7071 -0.0000
vn -0.7071 -0.0000 0.7071
vn -0.7071 0.7071 -0.0000
vn -0.7071 -0.0000 -0.7071
vn -0.0000 -0.7071 -0.7071
vn -0.0000 0.7071 -0.7071
vn 0.7071 -0.0000 -0.7071
vn 0.7071 -0.7071 -0.0000
vn 0.7071 0.7071 -0.0000
vn 0.7071 -0.0000 0.7071
vn -0.0000 -0.7071 0.7071
vn -0.0000 0.7071 0.7071
vn -0.0000 -1.0000 -0.0000
vn -1.0000 -0.0000 -0.0000
vn -0.0000 -0.0000 1.0000
vn -0.0000 1.0000 -0.0000
vn -0.0000 -0.0000 -1.0000
vn 1.0000 -0.0000 -0.0000
vt 0.771545 0.711819
vt 0.756221 0.733491
vt 0.740896 0.711819
vt 0.019027 0.852453
vt 0.003703 0.830781
vt 0.034351 0.830781
vt 0.771545 0.393971
vt 0.740897 0.393971
vt 0.756221 0.372300
vt 0.003703 0.512933
vt 0.019027 0.491262
vt 0.034351 0.512933
vt 0.771545 0.025374
vt 0.740897 0.025374
vt 0.756221 0.003703
vt 0.343222 0.228455
vt 0.364894 0.243779
vt 0.343222 0.259103
vt 0.771545 0.343222
vt 0.756221 0.364894
vt 0.740897 0.343222
vt 0.025374 0.228455
vt 0.025374 0.259103
vt 0.003703 0.243779
vt 0.711819 0.025374
vt 0.393971 0.025374
vt 0.393971 0.003703
vt 0.711819 0.003703
vt 0.393971 0.711819
vt 0.711819 0.711819
vt 0.711819 0.733491
vt 0.393971 0.733491
vt 0.733491 0.393971
vt 0.733491 0.711819
vt 0.711819 0.393971
vt 0.372300 0.711819
vt 0.372300 0.393971
vt 0.393971 0.393971
vt 0.393971 0.372300
vt 0.711819 0.372300
vt 0.393971 0.343222
vt 0.711819 0.343222
vt 0.711819 0.364894
vt 0.393971 0.364894
vt 0.733491 0.025374
vt 0.733491 0.343222
vt 0.372300 0.343222
vt 0.372300 0.025374
vt 0.996297 0.343222
vt 0.996297 0.025374
vt 0.259103 0.830781
vt 0.259104 0.512933
vt 0.025374 0.003703
vt 0.343222 0.003703
vt 0.025374 0.483856
vt 0.343222 0.483856
s 0
usemtl Material.005
f 1/1/1 2/2/1 3/3/1
f 4/4/2 5/5/2 6/6/2
f 7/7/3 8/8/3 9/9/3
f 10/10/4 11/11/4 12/12/4
f 13/13/5 14/14/5 15/15/5
f 16/16/6 17/17/6 18/18/6
f 19/19/7 20/20/7 21/21/7
f 22/22/8 23/23/8 24/24/8
f 7/7/9 1/1/9 3/3/9 8/8/9
f 2/25/10 4/26/10 6/27/10 3/28/10
f 5/5/11 10/10/11 12/12/11 6/6/11
f 11/29/12 9/30/12 8/31/12 12/32/12
f 19/33/13 7/34/13 9/30/13 20/35/13
f 10/36/14 22/37/14 24/38/14 11/29/14
f 23/39/15 21/40/15 20/35/15 24/38/15
f 13/13/16 19/19/16 21/21/16 14/14/16
f 22/22/17 16/16/17 18/18/17 23/23/17
f 17/41/18 15/42/18 14/43/18 18/44/18
f 1/45/19 13/46/19 15/42/19 2/25/19
f 16/47/20 5/48/20 4/26/20 17/41/20
f 7/49/21 19/19/21 13/13/21 1/50/21
f 3/51/22 6/6/22 12/12/22 8/52/22
f 15/42/23 17/41/23 4/26/23 2/25/23
f 22/22/24 10/53/24 5/54/24 16/16/24
f 9/30/25 11/29/25 24/38/25 20/35/25
f 21/55/26 23/23/26 18/18/26 14/56/26
