# Blender 5.2.0 LTS
# www.blender.org
mtllib Intro_D1.mtl
o Intro_D1
v 0.039877 -0.740123 0.287117
v 0.039877 0.445031 0.287117
v -0.156319 0.445031 0.287117
v -0.156319 0.559877 0.287117
v 0.156319 0.559877 0.287117
v 0.156319 -0.740123 0.287117
v 0.039877 -0.740123 -0.287117
v 0.039877 0.445031 -0.287117
v -0.156319 0.445031 -0.287117
v -0.156319 0.559877 -0.287117
v 0.156319 0.559877 -0.287117
v 0.156319 -0.740123 -0.287117
v 0.039877 -0.740123 -0.287117
v 0.039877 -0.740123 0.287117
v 0.039877 0.445031 -0.287117
v 0.039877 0.445031 0.287117
v -0.156319 0.445031 -0.287117
v -0.156319 0.445031 0.287117
v -0.156319 0.559877 -0.287117
v -0.156319 0.559877 0.287117
v 0.156319 0.559877 -0.287117
v 0.156319 0.559877 0.287117
v 0.156319 -0.740123 -0.287117
v 0.156319 -0.740123 0.287117
vn -0.0000 -0.0000 1.0000
vn -0.0000 -0.0000 -1.0000
vn -0.7071 -0.7071 -0.0000
vn -0.7071 0.7071 -0.0000
vn 0.7071 0.7071 -0.0000
vn 0.7071 -0.7071 -0.0000
vt 0.187500 0.500000
s 0
usemtl TA_Pal
f 2/1/1 6/1/1 5/1/1
f 6/1/1 2/1/1 1/1/1
f 4/1/1 3/1/1 2/1/1
f 2/1/1 5/1/1 4/1/1
f 8/1/2 11/1/2 12/1/2
f 12/1/2 7/1/2 8/1/2
f 10/1/2 8/1/2 9/1/2
f 8/1/2 10/1/2 11/1/2
s 1
f 16/1/3 13/1/3 14/1/3
f 18/1/3 15/1/3 16/1/3
f 20/1/4 17/1/3 18/1/3
f 22/1/5 19/1/4 20/1/4
f 24/1/6 21/1/5 22/1/5
f 14/1/3 23/1/6 24/1/6
f 16/1/3 15/1/3 13/1/3
f 18/1/3 17/1/3 15/1/3
f 20/1/4 19/1/4 17/1/3
f 22/1/5 21/1/5 19/1/4
f 24/1/6 23/1/6 21/1/5
f 14/1/3 13/1/3 23/1/6
