# Blender 5.1.2
# www.blender.org
mtllib BG_Shard_Gear.mtl
o BG_Shard_Gear
v 0.337166 0.106007 -0.057941
v 0.337166 0.106007 0.084057
v 0.396215 -0.004466 -0.057941
v 0.396215 -0.004466 0.084057
v 0.432577 -0.124336 -0.057941
v 0.432577 -0.124336 0.084057
v 0.173193 -0.096845 0.084057
v 0.173193 -0.096845 -0.057941
v 0.289973 0.163511 0.084057
v 0.289973 0.163511 -0.057941
v 0.157071 -0.066682 0.084057
v 0.157071 -0.066682 -0.057941
v 0.434470 -0.143555 0.084057
v 0.434470 -0.143555 -0.057941
v 0.173398 -0.097521 0.084057
v 0.173398 -0.097521 -0.057941
v 0.354899 0.031433 0.062758
v 0.257163 0.171015 0.062758
v 0.354899 0.031433 -0.036641
v 0.257163 0.171015 -0.036641
v 0.471217 0.112880 0.062758
v 0.373481 0.252461 0.062758
v 0.471217 0.112880 -0.036641
v 0.373481 0.252461 -0.036641
v 0.094759 0.295632 0.062758
v -0.065363 0.353911 0.062758
v 0.094759 0.295632 -0.036641
v -0.065363 0.353911 -0.036641
v 0.143325 0.429066 0.062758
v -0.016796 0.487346 0.062758
v 0.143325 0.429066 -0.036641
v -0.016796 0.487346 -0.036641
v -0.269874 0.362840 0.062758
v -0.434465 0.318738 0.062758
v -0.269874 0.362840 -0.036641
v -0.434465 0.318738 -0.036641
v -0.306626 0.500000 0.062758
v -0.471217 0.455898 0.062758
v -0.306626 0.500000 -0.036641
v -0.471217 0.455898 -0.036641
v 0.334097 -0.248998 -0.069301
v 0.325577 -0.248998 -0.054544
v 0.308537 -0.248998 -0.054544
v 0.300017 -0.248998 -0.069301
v 0.308537 -0.248998 -0.084057
v 0.325577 -0.248998 -0.084057
v 0.323947 -0.145944 -0.069301
v 0.315590 -0.147606 -0.054544
v 0.298878 -0.150931 -0.054544
v 0.290522 -0.152593 -0.069301
v 0.298878 -0.150931 -0.084057
v 0.315590 -0.147606 -0.084057
v 0.293887 -0.046851 -0.069301
v 0.286016 -0.050112 -0.054544
v 0.270273 -0.056633 -0.054544
v 0.262402 -0.059893 -0.069301
v 0.270273 -0.056633 -0.084057
v 0.286016 -0.050112 -0.084057
v 0.245073 0.044473 -0.069301
v 0.237989 0.039740 -0.054544
v 0.223821 0.030273 -0.054544
v 0.216737 0.025540 -0.069301
v 0.223821 0.030273 -0.084057
v 0.237989 0.039740 -0.084057
v 0.179381 0.124520 -0.069301
v 0.173356 0.118495 -0.054544
v 0.161307 0.106446 -0.054544
v 0.155283 0.100422 -0.069301
v 0.161307 0.106446 -0.084057
v 0.173356 0.118495 -0.084057
v 0.099334 0.190212 -0.069301
v 0.094600 0.183128 -0.054544
v 0.085134 0.168960 -0.054544
v 0.080400 0.161876 -0.069301
v 0.085134 0.168960 -0.084057
v 0.094600 0.183128 -0.084057
v 0.008010 0.239026 -0.069301
v 0.004749 0.231155 -0.054544
v -0.001772 0.215412 -0.054544
v -0.005032 0.207541 -0.069301
v -0.001772 0.215412 -0.084057
v 0.004749 0.231155 -0.084057
v -0.091083 0.269086 -0.069301
v -0.092746 0.260730 -0.054544
v -0.096070 0.244017 -0.054544
v -0.097732 0.235661 -0.069301
v -0.096070 0.244017 -0.084057
v -0.092746 0.260730 -0.084057
v -0.194137 0.279236 -0.069301
v -0.194137 0.270716 -0.054544
v -0.194137 0.253676 -0.054544
v -0.194137 0.245156 -0.069301
v -0.194137 0.253676 -0.084057
v -0.194137 0.270716 -0.084057
v -0.297190 0.269086 -0.069301
v -0.295528 0.260730 -0.054544
v -0.292203 0.244017 -0.054544
v -0.290541 0.235661 -0.069301
v -0.292203 0.244017 -0.084057
v -0.295528 0.260730 -0.084057
v -0.396283 0.239026 -0.069301
v -0.393023 0.231155 -0.054544
v -0.386502 0.215412 -0.054544
v -0.383241 0.207541 -0.069301
v -0.386502 0.215412 -0.084057
v -0.393023 0.231155 -0.084057
v 0.293887 -0.451144 -0.069301
v 0.286016 -0.447883 -0.054544
v 0.270273 -0.441363 -0.054544
v 0.262402 -0.438102 -0.069301
v 0.270273 -0.441363 -0.084057
v 0.286016 -0.447883 -0.084057
v 0.323947 -0.352051 -0.069301
v 0.315591 -0.350389 -0.054544
v 0.298878 -0.347064 -0.054544
v 0.290522 -0.345402 -0.069301
v 0.298878 -0.347064 -0.084057
v 0.315591 -0.350389 -0.084057
v -0.445139 0.212912 -0.069301
v -0.438874 0.206647 -0.054544
v -0.426343 0.194116 -0.054544
v -0.420078 0.187851 -0.069301
v -0.426343 0.194116 -0.084057
v -0.438874 0.206647 -0.084057
v 0.267773 -0.500000 -0.069301
v 0.261508 -0.493735 -0.054544
v 0.248977 -0.481204 -0.054544
v 0.242712 -0.474939 -0.069301
v 0.248977 -0.481204 -0.084057
v 0.261508 -0.493735 -0.084057
vn 0.7730 0.6344 -0.0000
vn 0.8819 0.4714 -0.0000
vn 0.9569 0.2903 -0.0000
vn 0.9952 0.0980 -0.0000
vn -0.0000 -0.0000 1.0000
vn -0.0000 -0.0000 -1.0000
vn -0.8819 -0.4714 -0.0000
vn -0.9569 -0.2903 -0.0000
vn -0.8660 0.5000 -0.0000
vn -0.1736 -0.9848 -0.0000
vn -0.8192 -0.5736 -0.0000
vn 0.8192 0.5736 -0.0000
vn 0.5736 -0.8192 -0.0000
vn -0.5736 0.8192 -0.0000
vn -0.3420 -0.9397 -0.0000
vn 0.3420 0.9397 -0.0000
vn 0.9397 -0.3420 -0.0000
vn -0.9397 0.3420 -0.0000
vn 0.2588 -0.9659 -0.0000
vn -0.2588 0.9659 -0.0000
vn 0.9659 0.2588 -0.0000
vn -0.9659 -0.2588 -0.0000
vn 0.8629 0.0850 0.4982
vn -0.8629 -0.0850 0.4982
vn -0.8629 -0.0850 -0.4982
vn 0.8629 0.0850 -0.4982
vn 0.8297 0.2517 0.4982
vn -0.8297 -0.2517 0.4982
vn -0.8297 -0.2517 -0.4982
vn 0.8297 0.2517 -0.4982
vn 0.7647 0.4087 0.4982
vn -0.7647 -0.4087 0.4982
vn -0.7647 -0.4087 -0.4982
vn 0.7647 0.4087 -0.4982
vn 0.6703 0.5501 0.4982
vn -0.6703 -0.5501 0.4982
vn -0.6703 -0.5501 -0.4982
vn 0.6703 0.5501 -0.4982
vn 0.5501 0.6703 0.4982
vn -0.5501 -0.6703 0.4982
vn -0.5501 -0.6703 -0.4982
vn 0.5501 0.6703 -0.4982
vn 0.4087 0.7647 0.4982
vn -0.4087 -0.7647 0.4982
vn -0.4087 -0.7647 -0.4982
vn 0.4087 0.7647 -0.4982
vn 0.2517 0.8297 0.4982
vn -0.2517 -0.8297 0.4982
vn -0.2517 -0.8297 -0.4982
vn 0.2517 0.8297 -0.4982
vn 0.0850 0.8629 0.4982
vn -0.0850 -0.8629 0.4982
vn -0.0850 -0.8629 -0.4982
vn 0.0850 0.8629 -0.4982
vn -0.0850 0.8629 0.4982
vn 0.0850 -0.8629 0.4982
vn 0.0850 -0.8629 -0.4982
vn -0.0850 0.8629 -0.4982
vn -0.2517 0.8297 0.4982
vn 0.2517 -0.8297 0.4982
vn 0.2517 -0.8297 -0.4982
vn -0.2517 0.8297 -0.4982
vn -0.4087 0.7647 0.4982
vn 0.4087 -0.7647 0.4982
vn 0.4087 -0.7647 -0.4982
vn -0.4087 0.7647 -0.4982
vn 0.7647 -0.4087 0.4982
vn -0.7647 0.4087 0.4982
vn -0.7647 0.4087 -0.4982
vn 0.7647 -0.4087 -0.4982
vn 0.8297 -0.2517 0.4982
vn -0.8297 0.2517 0.4982
vn -0.8297 0.2517 -0.4982
vn 0.8297 -0.2517 -0.4982
vn 0.8629 -0.0850 0.4982
vn -0.8629 0.0850 0.4982
vn -0.8629 0.0850 -0.4982
vn 0.8629 -0.0850 -0.4982
vn -0.7071 -0.7071 -0.0000
vt 0.686567 0.509000
vt 0.582471 0.509000
vt 0.582471 0.456042
vt 0.686567 0.456042
vt 0.686567 0.600738
vt 0.582471 0.600738
vt 0.686567 0.691511
vt 0.582471 0.691511
vt 0.582471 0.704819
vt 0.686567 0.704819
vt 0.582471 0.373917
vt 0.590717 0.362410
vt 0.657740 0.299636
vt 0.735721 0.251145
vt 0.786759 0.231935
vt 0.786759 0.426791
vt 0.765468 0.440031
vt 0.765090 0.440385
vt 0.603762 0.215924
vt 0.582471 0.202685
vt 0.582471 0.007828
vt 0.633510 0.027038
vt 0.711491 0.075530
vt 0.778513 0.138303
vt 0.786759 0.149810
vt 0.604140 0.216278
vt 0.967260 0.683999
vt 0.942244 0.683999
vt 0.942244 0.579903
vt 0.967260 0.579903
vt 0.941730 0.683999
vt 0.941730 0.579903
vt 0.702224 0.867813
vt 0.702224 0.720475
vt 0.806320 0.720475
vt 0.806320 0.867813
vt 0.582471 0.720475
vt 0.686567 0.720475
vt 0.686567 0.876771
vt 0.582471 0.876771
vt 0.910501 0.843229
vt 0.910501 0.720475
vt 0.983369 0.720475
vt 0.983369 0.843229
vt 0.702224 0.704819
vt 0.702224 0.579903
vt 0.806320 0.579903
vt 0.806320 0.704819
vt 0.877002 0.466845
vt 0.877002 0.343617
vt 0.949869 0.343617
vt 0.949869 0.466845
vt 0.007828 0.874509
vt 0.007828 0.749594
vt 0.111925 0.749594
vt 0.111925 0.874509
vt 0.702224 0.558985
vt 0.702224 0.456042
vt 0.775092 0.456042
vt 0.775092 0.558985
vt 0.080696 0.890166
vt 0.080696 0.990292
vt 0.007828 0.990292
vt 0.007828 0.890166
vt 0.821977 0.882226
vt 0.821977 0.794944
vt 0.894845 0.794944
vt 0.894845 0.882226
vt 0.127581 0.874509
vt 0.127581 0.749593
vt 0.231677 0.749593
vt 0.231678 0.874509
vt 0.169220 0.890166
vt 0.169220 0.987072
vt 0.096353 0.987072
vt 0.096353 0.890166
vt 0.247334 0.874509
vt 0.247334 0.749593
vt 0.351431 0.749593
vt 0.351431 0.874509
vt 0.877002 0.557964
vt 0.877002 0.482502
vt 0.949869 0.482502
vt 0.949869 0.557964
vt 0.894845 0.720475
vt 0.821977 0.720475
vt 0.983369 0.858886
vt 0.983369 0.981309
vt 0.910501 0.981309
vt 0.910501 0.858886
vt 0.471183 0.749594
vt 0.471183 0.874509
vt 0.367087 0.874509
vt 0.367087 0.749594
vt 0.559708 0.749594
vt 0.559708 0.874185
vt 0.486840 0.874185
vt 0.486840 0.749594
vt 0.926073 0.579903
vt 0.926073 0.704819
vt 0.821977 0.704819
vt 0.821977 0.579903
vt 0.486840 0.992172
vt 0.486840 0.889842
vt 0.559708 0.889842
vt 0.559708 0.992172
vt 0.775091 0.883470
vt 0.775091 0.986191
vt 0.702224 0.986191
vt 0.702224 0.883470
vt 0.813234 0.433727
vt 0.813234 0.362369
vt 0.824052 0.360824
vt 0.824052 0.431032
vt 0.119418 0.640284
vt 0.072037 0.582550
vt 0.082423 0.575610
vt 0.128251 0.631452
vt 0.839709 0.411757
vt 0.839709 0.343332
vt 0.850527 0.341919
vt 0.850527 0.409184
vt 0.861345 0.343332
vt 0.861345 0.411757
vt 0.446392 0.631452
vt 0.492219 0.575610
vt 0.502606 0.582550
vt 0.455224 0.640284
vt 0.802416 0.431032
vt 0.802416 0.360824
vt 0.813234 0.287330
vt 0.824052 0.286996
vt 0.036830 0.516682
vt 0.048370 0.511901
vt 0.839709 0.271703
vt 0.850527 0.271504
vt 0.861345 0.271703
vt 0.526272 0.511901
vt 0.537813 0.516682
vt 0.802416 0.286996
vt 0.813234 0.211494
vt 0.824052 0.212382
vt 0.015149 0.445210
vt 0.027401 0.442773
vt 0.839709 0.199623
vt 0.850527 0.200646
vt 0.861345 0.199623
vt 0.547242 0.442773
vt 0.559494 0.445210
vt 0.802416 0.212382
vt 0.813234 0.137774
vt 0.824052 0.139852
vt 0.007828 0.370882
vt 0.020320 0.370883
vt 0.839709 0.129862
vt 0.850527 0.132067
vt 0.861345 0.129862
vt 0.554323 0.370883
vt 0.566814 0.370883
vt 0.802416 0.139852
vt 0.813234 0.069005
vt 0.824052 0.072192
vt 0.015149 0.296555
vt 0.027401 0.298992
vt 0.839709 0.065101
vt 0.850527 0.068404
vt 0.861345 0.065101
vt 0.547242 0.298992
vt 0.559494 0.296555
vt 0.802416 0.072192
vt 0.813234 0.007828
vt 0.824052 0.012002
vt 0.036830 0.225083
vt 0.048370 0.229864
vt 0.839709 0.007828
vt 0.850527 0.012102
vt 0.861345 0.007828
vt 0.526272 0.229864
vt 0.537813 0.225083
vt 0.802416 0.012002
vt 0.887820 0.007828
vt 0.887820 0.069243
vt 0.877002 0.072401
vt 0.877002 0.011977
vt 0.072037 0.159215
vt 0.082423 0.166155
vt 0.935930 0.007828
vt 0.935930 0.060369
vt 0.925112 0.064189
vt 0.925112 0.012540
vt 0.914295 0.060369
vt 0.914295 0.007828
vt 0.492219 0.166155
vt 0.502606 0.159215
vt 0.898638 0.011977
vt 0.898638 0.072401
vt 0.887820 0.138181
vt 0.877002 0.140228
vt 0.119418 0.101481
vt 0.128251 0.110314
vt 0.935930 0.121572
vt 0.925112 0.124355
vt 0.914295 0.121572
vt 0.446392 0.110314
vt 0.455225 0.101481
vt 0.898638 0.140228
vt 0.887820 0.211996
vt 0.877002 0.212852
vt 0.177153 0.054100
vt 0.184092 0.064486
vt 0.935930 0.189085
vt 0.925112 0.190724
vt 0.914295 0.189085
vt 0.390550 0.064486
vt 0.397490 0.054100
vt 0.898638 0.212852
vt 0.887820 0.287849
vt 0.877002 0.287482
vt 0.243021 0.018892
vt 0.247801 0.030433
vt 0.935930 0.260315
vt 0.925112 0.260746
vt 0.914295 0.260315
vt 0.326842 0.030433
vt 0.331622 0.018892
vt 0.898638 0.287482
vt 0.877002 0.325125
vt 0.887820 0.327960
vt 0.279493 0.007828
vt 0.279493 0.020819
vt 0.935930 0.293419
vt 0.925112 0.291354
vt 0.914295 0.293419
vt 0.295150 0.007828
vt 0.295150 0.020819
vt 0.898638 0.325125
vt 0.195695 0.890166
vt 0.206513 0.894266
vt 0.206513 0.925329
vt 0.195695 0.923264
vt 0.279493 0.733937
vt 0.243021 0.722873
vt 0.247801 0.711332
vt 0.279493 0.720946
vt 0.247334 0.914485
vt 0.247334 0.890166
vt 0.258152 0.894834
vt 0.258152 0.917319
vt 0.268970 0.890166
vt 0.268970 0.914485
vt 0.331622 0.722873
vt 0.295150 0.733937
vt 0.295150 0.720946
vt 0.326841 0.711332
vt 0.184877 0.925329
vt 0.184877 0.894266
vt 0.813234 0.554678
vt 0.813234 0.498662
vt 0.824052 0.494919
vt 0.824052 0.550032
vt 0.177152 0.687666
vt 0.184092 0.677279
vt 0.839709 0.528702
vt 0.839709 0.474349
vt 0.850527 0.470715
vt 0.850527 0.524147
vt 0.861345 0.474349
vt 0.861345 0.528702
vt 0.390550 0.677279
vt 0.397490 0.687666
vt 0.802416 0.550032
vt 0.802416 0.494919
vt 0.321920 0.908397
vt 0.321920 0.896243
vt 0.332738 0.890166
vt 0.343556 0.896243
vt 0.343556 0.908397
vt 0.332738 0.914474
vt 0.295445 0.914474
vt 0.284627 0.908397
vt 0.284627 0.896243
vt 0.295445 0.890166
vt 0.306263 0.896243
vt 0.306263 0.908397
s 0
usemtl BG_Shard_Gear
f 2/1/1 1/2/1 10/3/1 9/4/1
f 1/2/2 2/1/2 4/5/2 3/6/2
f 3/6/3 4/5/3 6/7/3 5/8/3
f 14/9/4 5/8/4 6/7/4 13/10/4
f 13/11/5 6/12/5 4/13/5 2/14/5 9/15/5 11/16/5 7/17/5 15/18/5
f 8/19/6 12/20/6 10/21/6 1/22/6 3/23/6 5/24/6 14/25/6 16/26/6
f 12/27/7 8/28/7 7/29/7 11/30/7
f 7/29/8 8/28/8 16/31/8 15/32/8
f 11/33/9 9/34/9 10/35/9 12/36/9
f 14/37/10 13/38/10 15/39/10 16/40/10
f 17/41/11 18/42/11 20/43/11 19/44/11
f 19/45/6 20/46/6 24/47/6 23/48/6
f 23/49/12 24/50/12 22/51/12 21/52/12
f 21/53/5 22/54/5 18/55/5 17/56/5
f 19/57/13 23/58/13 21/59/13 17/60/13
f 24/61/14 20/62/14 18/63/14 22/64/14
f 25/65/15 26/66/15 28/67/15 27/68/15
f 27/69/6 28/70/6 32/71/6 31/72/6
f 31/73/16 32/74/16 30/75/16 29/76/16
f 29/77/5 30/78/5 26/79/5 25/80/5
f 27/81/17 31/82/17 29/83/17 25/84/17
f 32/85/18 28/67/18 26/66/18 30/86/18
f 33/87/19 34/88/19 36/89/19 35/90/19
f 35/91/6 36/92/6 40/93/6 39/94/6
f 39/95/20 40/96/20 38/97/20 37/98/20
f 37/99/5 38/100/5 34/101/5 33/102/5
f 35/103/21 39/104/21 37/105/21 33/106/21
f 40/107/22 36/108/22 34/109/22 38/110/22
f 41/111/23 47/112/23 48/113/23 42/114/23
f 42/115/5 48/116/5 49/117/5 43/118/5
f 43/119/24 49/120/24 50/121/24 44/122/24
f 44/122/25 50/121/25 51/123/25 45/124/25
f 45/125/6 51/126/6 52/127/6 46/128/6
f 46/129/26 52/130/26 47/112/26 41/111/26
f 47/112/27 53/131/27 54/132/27 48/113/27
f 48/116/5 54/133/5 55/134/5 49/117/5
f 49/120/28 55/135/28 56/136/28 50/121/28
f 50/121/29 56/136/29 57/137/29 51/123/29
f 51/126/6 57/138/6 58/139/6 52/127/6
f 52/130/30 58/140/30 53/131/30 47/112/30
f 53/131/31 59/141/31 60/142/31 54/132/31
f 54/133/5 60/143/5 61/144/5 55/134/5
f 55/135/32 61/145/32 62/146/32 56/136/32
f 56/136/33 62/146/33 63/147/33 57/137/33
f 57/138/6 63/148/6 64/149/6 58/139/6
f 58/140/34 64/150/34 59/141/34 53/131/34
f 59/141/35 65/151/35 66/152/35 60/142/35
f 60/143/5 66/153/5 67/154/5 61/144/5
f 61/145/36 67/155/36 68/156/36 62/146/36
f 62/146/37 68/156/37 69/157/37 63/147/37
f 63/148/6 69/158/6 70/159/6 64/149/6
f 64/150/38 70/160/38 65/151/38 59/141/38
f 65/151/39 71/161/39 72/162/39 66/152/39
f 66/153/5 72/163/5 73/164/5 67/154/5
f 67/155/40 73/165/40 74/166/40 68/156/40
f 68/156/41 74/166/41 75/167/41 69/157/41
f 69/158/6 75/168/6 76/169/6 70/159/6
f 70/160/42 76/170/42 71/161/42 65/151/42
f 71/161/43 77/171/43 78/172/43 72/162/43
f 72/163/5 78/173/5 79/174/5 73/164/5
f 73/165/44 79/175/44 80/176/44 74/166/44
f 74/166/45 80/176/45 81/177/45 75/167/45
f 75/168/6 81/178/6 82/179/6 76/169/6
f 76/170/46 82/180/46 77/171/46 71/161/46
f 77/181/47 83/182/47 84/183/47 78/184/47
f 78/173/5 84/185/5 85/186/5 79/174/5
f 79/187/48 85/188/48 86/189/48 80/190/48
f 80/190/49 86/189/49 87/191/49 81/192/49
f 81/178/6 87/193/6 88/194/6 82/179/6
f 82/195/50 88/196/50 83/182/50 77/181/50
f 83/182/51 89/197/51 90/198/51 84/183/51
f 84/185/5 90/199/5 91/200/5 85/186/5
f 85/188/52 91/201/52 92/202/52 86/189/52
f 86/189/53 92/202/53 93/203/53 87/191/53
f 87/193/6 93/204/6 94/205/6 88/194/6
f 88/196/54 94/206/54 89/197/54 83/182/54
f 89/197/55 95/207/55 96/208/55 90/198/55
f 90/199/5 96/209/5 97/210/5 91/200/5
f 91/201/56 97/211/56 98/212/56 92/202/56
f 92/202/57 98/212/57 99/213/57 93/203/57
f 93/204/6 99/214/6 100/215/6 94/205/6
f 94/206/58 100/216/58 95/207/58 89/197/58
f 95/207/59 101/217/59 102/218/59 96/208/59
f 96/209/5 102/219/5 103/220/5 97/210/5
f 97/211/60 103/221/60 104/222/60 98/212/60
f 98/212/61 104/222/61 105/223/61 99/213/61
f 99/214/6 105/224/6 106/225/6 100/215/6
f 100/216/62 106/226/62 101/217/62 95/207/62
f 120/227/63 102/218/63 101/217/63 119/228/63
f 102/219/5 120/229/5 121/230/5 103/220/5
f 103/221/64 121/231/64 122/232/64 104/222/64
f 105/223/65 104/222/65 122/232/65 123/233/65
f 124/234/6 106/225/6 105/224/6 123/235/6
f 119/228/66 101/217/66 106/226/66 124/236/66
f 107/237/67 108/238/67 126/239/67 125/240/67
f 126/241/5 108/242/5 109/243/5 127/244/5
f 127/245/68 109/246/68 110/247/68 128/248/68
f 128/248/69 110/247/69 111/249/69 129/250/69
f 112/251/6 130/252/6 129/253/6 111/254/6
f 107/237/70 125/240/70 130/255/70 112/256/70
f 107/257/71 113/258/71 114/259/71 108/260/71
f 108/242/5 114/261/5 115/262/5 109/243/5
f 109/263/72 115/264/72 116/265/72 110/266/72
f 110/266/73 116/265/73 117/267/73 111/268/73
f 111/254/6 117/269/6 118/270/6 112/251/6
f 112/271/74 118/272/74 113/258/74 107/257/74
f 113/258/75 41/111/75 42/114/75 114/259/75
f 114/261/5 42/115/5 43/118/5 115/262/5
f 115/264/76 43/119/76 44/122/76 116/265/76
f 116/265/77 44/122/77 45/124/77 117/267/77
f 117/269/6 45/125/6 46/128/6 118/270/6
f 118/272/78 46/129/78 41/111/78 113/258/78
f 121/273/79 120/274/79 119/275/79 124/276/79 123/277/79 122/278/79
f 125/279/79 126/280/79 127/281/79 128/282/79 129/283/79 130/284/79
