# Blender 5.1.2
# www.blender.org
mtllib Timed_Door.mtl
o Timed_Door
v -0.450000 -0.500000 0.450000
v -0.450000 -0.450000 0.500000
v -0.500000 -0.450000 0.450000
v -0.450000 0.450000 0.500000
v -0.450000 0.500000 0.450000
v -0.500000 0.450000 0.450000
v -0.450000 -0.500000 -0.450000
v -0.500000 -0.450000 -0.450000
v -0.450000 -0.450000 -0.500000
v -0.450000 0.500000 -0.450000
v -0.450000 0.450000 -0.500000
v -0.500000 0.450000 -0.450000
v 0.450000 -0.500000 0.450000
v 0.500000 -0.450000 0.450000
v 0.450000 -0.450000 0.500000
v 0.450000 0.500000 0.450000
v 0.450000 0.450000 0.500000
v 0.500000 0.450000 0.450000
v 0.450000 -0.500000 -0.450000
v 0.450000 -0.450000 -0.500000
v 0.500000 -0.450000 -0.450000
v 0.450000 0.500000 -0.450000
v 0.500000 0.450000 -0.450000
v 0.450000 0.450000 -0.500000
vn -0.5774 -0.5774 0.5774
vn -0.5774 0.5774 0.5774
vn -0.5774 -0.5774 -0.5774
vn -0.5774 0.5774 -0.5774
vn 0.5774 -0.5774 0.5774
vn 0.5774 0.5774 0.5774
vn 0.5774 -0.5774 -0.5774
vn 0.5774 0.5774 -0.5774
vn -0.7071 -0.7071 -0.0000
vn -0.7071 -0.0000 0.7071
vn -0.7071 0.7071 -0.0000
vn -0.7071 -0.0000 -0.7071
vn -0.0000 -0.7071 -0.7071
vn -0.0000 0.7071 -0.7071
vn 0.7071 -0.0000 -0.7071
vn 0.7071 -0.7071 -0.0000
vn 0.7071 0.7071 -0.0000
vn 0.7071 -0.0000 0.7071
vn -0.0000 -0.7071 0.7071
vn -0.0000 0.7071 0.7071
vn -0.0000 -1.0000 -0.0000
vn -1.0000 -0.0000 -0.0000
vn -0.0000 -0.0000 1.0000
vn -0.0000 1.0000 -0.0000
vn -0.0000 -0.0000 -1.0000
vn 1.0000 -0.0000 -0.0000
vt 0.766431 0.715449
vt 0.753660 0.733510
vt 0.740889 0.715449
vt 0.016460 0.857590
vt 0.003689 0.839529
vt 0.029232 0.839529
vt 0.766431 0.390350
vt 0.740889 0.390350
vt 0.753660 0.372289
vt 0.003689 0.514431
vt 0.016460 0.496370
vt 0.029232 0.514431
vt 0.766431 0.021750
vt 0.740889 0.021750
vt 0.753660 0.003689
vt 0.346849 0.233569
vt 0.364910 0.246340
vt 0.346849 0.259111
vt 0.766431 0.346849
vt 0.753660 0.364910
vt 0.740889 0.346849
vt 0.021750 0.233569
vt 0.021750 0.259111
vt 0.003689 0.246340
vt 0.715449 0.021750
vt 0.390350 0.021750
vt 0.390350 0.003689
vt 0.715449 0.003689
vt 0.390350 0.715449
vt 0.715449 0.715449
vt 0.715449 0.733510
vt 0.390350 0.733510
vt 0.733510 0.390350
vt 0.733510 0.715449
vt 0.715449 0.390350
vt 0.372289 0.715449
vt 0.372289 0.390350
vt 0.390350 0.390350
vt 0.390350 0.372289
vt 0.715449 0.372289
vt 0.390350 0.346849
vt 0.715449 0.346849
vt 0.715449 0.364910
vt 0.390350 0.364910
vt 0.733510 0.021750
vt 0.733510 0.346849
vt 0.372289 0.346849
vt 0.372289 0.021750
vt 0.996311 0.346849
vt 0.996311 0.021750
vt 0.259111 0.839529
vt 0.259111 0.514431
vt 0.021750 0.003689
vt 0.346849 0.003689
vt 0.021750 0.488991
vt 0.346849 0.488991
s 0
usemtl Material.008
f 1/1/1 2/2/1 3/3/1
f 4/4/2 5/5/2 6/6/2
f 7/7/3 8/8/3 9/9/3
f 10/10/4 11/11/4 12/12/4
f 13/13/5 14/14/5 15/15/5
f 16/16/6 17/17/6 18/18/6
f 19/19/7 20/20/7 21/21/7
f 22/22/8 23/23/8 24/24/8
f 7/7/9 1/1/9 3/3/9 8/8/9
f 2/25/10 4/26/10 6/27/10 3/28/10
f 5/5/11 10/10/11 12/12/11 6/6/11
f 11/29/12 9/30/12 8/31/12 12/32/12
f 19/33/13 7/34/13 9/30/13 20/35/13
f 10/36/14 22/37/14 24/38/14 11/29/14
f 23/39/15 21/40/15 20/35/15 24/38/15
f 13/13/16 19/19/16 21/21/16 14/14/16
f 22/22/17 16/16/17 18/18/17 23/23/17
f 17/41/18 15/42/18 14/43/18 18/44/18
f 1/45/19 13/46/19 15/42/19 2/25/19
f 16/47/20 5/48/20 4/26/20 17/41/20
f 7/49/21 19/19/21 13/13/21 1/50/21
f 3/51/22 6/6/22 12/12/22 8/52/22
f 15/42/23 17/41/23 4/26/23 2/25/23
f 22/22/24 10/53/24 5/54/24 16/16/24
f 9/30/25 11/29/25 24/38/25 20/35/25
f 21/55/26 23/23/26 18/18/26 14/56/26
