# Blender 5.2.0 LTS
# www.blender.org
mtllib Intro_D4.mtl
o Intro_D4
v -0.395583 -0.540736 0.287117
v -0.395583 -0.425889 0.287117
v -0.296687 -0.425889 0.287117
v -0.296687 -0.326994 0.287117
v -0.199386 -0.326994 0.287117
v -0.199386 -0.129202 0.287117
v -0.105276 -0.129202 0.287117
v -0.105276 0.066994 0.287117
v -0.007975 0.066994 0.287117
v -0.007975 0.264785 0.287117
v 0.089325 0.264785 0.287117
v 0.089325 0.462577 0.287117
v 0.186626 0.462577 0.287117
v 0.186626 0.559877 0.287117
v 0.298282 0.559877 0.287117
v 0.298282 -0.425889 0.287117
v 0.395583 -0.425889 0.287117
v 0.395583 -0.540736 0.287117
v 0.298282 -0.540736 0.287117
v 0.298282 -0.740123 0.287117
v 0.186626 -0.740123 0.287117
v 0.186626 -0.540736 0.287117
v -0.185031 -0.425889 0.287117
v 0.186626 -0.425889 0.287117
v 0.186626 0.247239 0.287117
v 0.106871 0.247239 0.287117
v 0.106871 0.051043 0.287117
v 0.009571 0.051043 0.287117
v 0.009571 -0.146748 0.287117
v -0.087730 -0.146748 0.287117
v -0.087730 -0.344540 0.287117
v -0.185031 -0.344540 0.287117
v -0.395583 -0.540736 -0.287117
v -0.395583 -0.425889 -0.287117
v -0.296687 -0.425889 -0.287117
v -0.296687 -0.326994 -0.287117
v -0.199386 -0.326994 -0.287117
v -0.199386 -0.129202 -0.287117
v -0.105276 -0.129202 -0.287117
v -0.105276 0.066994 -0.287117
v -0.007975 0.066994 -0.287117
v -0.007975 0.264785 -0.287117
v 0.089325 0.264785 -0.287117
v 0.089325 0.462577 -0.287117
v 0.186626 0.462577 -0.287117
v 0.186626 0.559877 -0.287117
v 0.298282 0.559877 -0.287117
v 0.298282 -0.425889 -0.287117
v 0.395583 -0.425889 -0.287117
v 0.395583 -0.540736 -0.287117
v 0.298282 -0.540736 -0.287117
v 0.298282 -0.740123 -0.287117
v 0.186626 -0.740123 -0.287117
v 0.186626 -0.540736 -0.287117
v -0.185031 -0.425889 -0.287117
v 0.186626 -0.425889 -0.287117
v 0.186626 0.247239 -0.287117
v 0.106871 0.247239 -0.287117
v 0.106871 0.051043 -0.287117
v 0.009571 0.051043 -0.287117
v 0.009571 -0.146748 -0.287117
v -0.087730 -0.146748 -0.287117
v -0.087730 -0.344540 -0.287117
v -0.185031 -0.344540 -0.287117
v -0.395583 -0.540736 -0.287117
v -0.395583 -0.540736 0.287117
v -0.395583 -0.425889 -0.287117
v -0.395583 -0.425889 0.287117
v -0.296687 -0.425889 -0.287117
v -0.296687 -0.425889 0.287117
v -0.296687 -0.326994 -0.287117
v -0.296687 -0.326994 0.287117
v -0.199386 -0.326994 -0.287117
v -0.199386 -0.326994 0.287117
v -0.199386 -0.129202 -0.287117
v -0.199386 -0.129202 0.287117
v -0.105276 -0.129202 -0.287117
v -0.105276 -0.129202 0.287117
v -0.105276 0.066994 -0.287117
v -0.105276 0.066994 0.287117
v -0.007975 0.066994 -0.287117
v -0.007975 0.066994 0.287117
v -0.007975 0.264785 -0.287117
v -0.007975 0.264785 0.287117
v 0.089325 0.264785 -0.287117
v 0.089325 0.264785 0.287117
v 0.089325 0.462577 -0.287117
v 0.089325 0.462577 0.287117
v 0.186626 0.462577 -0.287117
v 0.186626 0.462577 0.287117
v 0.186626 0.559877 -0.287117
v 0.186626 0.559877 0.287117
v 0.298282 0.559877 -0.287117
v 0.298282 0.559877 0.287117
v 0.298282 -0.425889 -0.287117
v 0.298282 -0.425889 0.287117
v 0.395583 -0.425889 -0.287117
v 0.395583 -0.425889 0.287117
v 0.395583 -0.540736 -0.287117
v 0.395583 -0.540736 0.287117
v 0.298282 -0.540736 -0.287117
v 0.298282 -0.540736 0.287117
v 0.298282 -0.740123 -0.287117
v 0.298282 -0.740123 0.287117
v 0.186626 -0.740123 -0.287117
v 0.186626 -0.740123 0.287117
v 0.186626 -0.540736 -0.287117
v 0.186626 -0.540736 0.287117
v -0.185031 -0.425889 -0.287117
v -0.185031 -0.425889 0.287117
v 0.186626 -0.425889 -0.287117
v 0.186626 -0.425889 0.287117
v 0.186626 0.247239 -0.287117
v 0.186626 0.247239 0.287117
v 0.106871 0.247239 -0.287117
v 0.106871 0.247239 0.287117
v 0.106871 0.051043 -0.287117
v 0.106871 0.051043 0.287117
v 0.009571 0.051043 -0.287117
v 0.009571 0.051043 0.287117
v 0.009571 -0.146748 -0.287117
v 0.009571 -0.146748 0.287117
v -0.087730 -0.146748 -0.287117
v -0.087730 -0.146748 0.287117
v -0.087730 -0.344540 -0.287117
v -0.087730 -0.344540 0.287117
v -0.185031 -0.344540 -0.287117
v -0.185031 -0.344540 0.287117
vn -0.0000 -0.0000 1.0000
vn -0.0000 -0.0000 -1.0000
vn -0.7071 0.7071 -0.0000
vn -0.7071 -0.7071 -0.0000
vn 0.7071 0.7071 -0.0000
vn 0.7071 -0.7071 -0.0000
vt 0.187500 0.500000
s 0
usemtl TA_Pal
f 2/1/1 1/1/1 3/1/1
f 3/1/1 1/1/1 23/1/1
f 23/1/1 32/1/1 3/1/1
f 32/1/1 5/1/1 3/1/1
f 4/1/1 3/1/1 5/1/1
f 7/1/1 30/1/1 29/1/1
f 29/1/1 28/1/1 7/1/1
f 8/1/1 7/1/1 28/1/1
f 28/1/1 9/1/1 8/1/1
f 5/1/1 32/1/1 31/1/1
f 31/1/1 30/1/1 5/1/1
f 6/1/1 5/1/1 30/1/1
f 30/1/1 7/1/1 6/1/1
f 11/1/1 26/1/1 25/1/1
f 18/1/1 17/1/1 16/1/1
f 18/1/1 16/1/1 19/1/1
f 14/1/1 13/1/1 15/1/1
f 22/1/1 21/1/1 20/1/1
f 20/1/1 19/1/1 22/1/1
f 24/1/1 22/1/1 19/1/1
f 19/1/1 16/1/1 24/1/1
f 15/1/1 13/1/1 25/1/1
f 11/1/1 25/1/1 13/1/1
f 12/1/1 11/1/1 13/1/1
f 23/1/1 1/1/1 22/1/1
f 22/1/1 24/1/1 23/1/1
f 24/1/1 16/1/1 25/1/1
f 9/1/1 28/1/1 27/1/1
f 27/1/1 26/1/1 9/1/1
f 10/1/1 9/1/1 26/1/1
f 26/1/1 11/1/1 10/1/1
f 15/1/1 25/1/1 16/1/1
f 34/1/2 35/1/2 33/1/2
f 35/1/2 55/1/2 33/1/2
f 55/1/2 35/1/2 64/1/2
f 64/1/2 35/1/2 37/1/2
f 36/1/2 37/1/2 35/1/2
f 39/1/2 61/1/2 62/1/2
f 61/1/2 39/1/2 60/1/2
f 40/1/2 60/1/2 39/1/2
f 60/1/2 40/1/2 41/1/2
f 37/1/2 63/1/2 64/1/2
f 63/1/2 37/1/2 62/1/2
f 38/1/2 62/1/2 37/1/2
f 62/1/2 38/1/2 39/1/2
f 43/1/2 57/1/2 58/1/2
f 50/1/2 48/1/2 49/1/2
f 50/1/2 51/1/2 48/1/2
f 46/1/2 47/1/2 45/1/2
f 54/1/2 52/1/2 53/1/2
f 52/1/2 54/1/2 51/1/2
f 56/1/2 51/1/2 54/1/2
f 51/1/2 56/1/2 48/1/2
f 47/1/2 57/1/2 45/1/2
f 43/1/2 45/1/2 57/1/2
f 44/1/2 45/1/2 43/1/2
f 55/1/2 54/1/2 33/1/2
f 54/1/2 55/1/2 56/1/2
f 56/1/2 57/1/2 48/1/2
f 41/1/2 59/1/2 60/1/2
f 59/1/2 41/1/2 58/1/2
f 42/1/2 58/1/2 41/1/2
f 58/1/2 42/1/2 43/1/2
f 47/1/2 48/1/2 57/1/2
s 1
f 68/1/3 65/1/4 66/1/4
f 70/1/3 67/1/3 68/1/3
f 72/1/3 69/1/3 70/1/3
f 74/1/3 71/1/3 72/1/3
f 74/1/3 75/1/3 73/1/3
f 78/1/3 75/1/3 76/1/3
f 80/1/3 77/1/3 78/1/3
f 82/1/3 79/1/3 80/1/3
f 84/1/3 81/1/3 82/1/3
f 86/1/3 83/1/3 84/1/3
f 88/1/3 85/1/3 86/1/3
f 90/1/3 87/1/3 88/1/3
f 92/1/3 89/1/3 90/1/3
f 94/1/5 91/1/3 92/1/3
f 96/1/5 93/1/5 94/1/5
f 98/1/5 95/1/5 96/1/5
f 100/1/6 97/1/5 98/1/5
f 102/1/6 99/1/6 100/1/6
f 104/1/6 101/1/6 102/1/6
f 106/1/4 103/1/6 104/1/6
f 108/1/4 105/1/4 106/1/4
f 66/1/4 107/1/4 108/1/4
f 112/1/3 109/1/5 110/1/5
f 114/1/4 111/1/3 112/1/3
f 116/1/6 113/1/4 114/1/4
f 118/1/6 115/1/6 116/1/6
f 120/1/6 117/1/6 118/1/6
f 122/1/6 119/1/6 120/1/6
f 124/1/6 121/1/6 122/1/6
f 126/1/6 123/1/6 124/1/6
f 128/1/6 125/1/6 126/1/6
f 110/1/5 127/1/6 128/1/6
f 68/1/3 67/1/3 65/1/4
f 70/1/3 69/1/3 67/1/3
f 72/1/3 71/1/3 69/1/3
f 74/1/3 73/1/3 71/1/3
f 74/1/3 76/1/3 75/1/3
f 78/1/3 77/1/3 75/1/3
f 80/1/3 79/1/3 77/1/3
f 82/1/3 81/1/3 79/1/3
f 84/1/3 83/1/3 81/1/3
f 86/1/3 85/1/3 83/1/3
f 88/1/3 87/1/3 85/1/3
f 90/1/3 89/1/3 87/1/3
f 92/1/3 91/1/3 89/1/3
f 94/1/5 93/1/5 91/1/3
f 96/1/5 95/1/5 93/1/5
f 98/1/5 97/1/5 95/1/5
f 100/1/6 99/1/6 97/1/5
f 102/1/6 101/1/6 99/1/6
f 104/1/6 103/1/6 101/1/6
f 106/1/4 105/1/4 103/1/6
f 108/1/4 107/1/4 105/1/4
f 66/1/4 65/1/4 107/1/4
f 112/1/3 111/1/3 109/1/5
f 114/1/4 113/1/4 111/1/3
f 116/1/6 115/1/6 113/1/4
f 118/1/6 117/1/6 115/1/6
f 120/1/6 119/1/6 117/1/6
f 122/1/6 121/1/6 119/1/6
f 124/1/6 123/1/6 121/1/6
f 126/1/6 125/1/6 123/1/6
f 128/1/6 127/1/6 125/1/6
f 110/1/5 109/1/5 127/1/6
