# Blender 5.1.2
# www.blender.org
mtllib Hammer_Splinter.mtl
o HF_splinter
v -0.015000 -0.085000 0.012500
v -0.003750 0.085000 0.003125
v -0.015000 -0.085000 -0.012500
v -0.003750 0.085000 -0.003125
v 0.015000 -0.085000 0.012500
v 0.003750 0.085000 0.003125
v 0.015000 -0.085000 -0.012500
v 0.003750 0.085000 -0.003125
vn -0.9978 0.0660 -0.0000
vn -0.0000 0.0551 -0.9985
vn 0.9978 0.0660 -0.0000
vn -0.0000 0.0551 0.9985
vn -0.0000 -1.0000 -0.0000
vn -0.0000 1.0000 -0.0000
vt 0.250000 0.750000
s 0
usemtl HammerDustMat
f 2/1/1 3/1/1 1/1/1
f 3/1/2 8/1/2 7/1/2
f 8/1/3 5/1/3 7/1/3
f 5/1/4 2/1/4 1/1/4
f 7/1/5 1/1/5 3/1/5
f 4/1/6 6/1/6 8/1/6
f 2/1/1 4/1/1 3/1/1
f 3/1/2 4/1/2 8/1/2
f 8/1/3 6/1/3 5/1/3
f 5/1/4 6/1/4 2/1/4
f 7/1/5 5/1/5 1/1/5
f 4/1/6 2/1/6 6/1/6
