# Blender 5.2.0 LTS
# www.blender.org
mtllib Intro_D7.mtl
o Intro_D7
v -0.154724 -0.740123 0.287117
v -0.154724 -0.425889 0.287117
v -0.057423 -0.425889 0.287117
v -0.057423 -0.129202 0.287117
v 0.041472 -0.129202 0.287117
v 0.041472 0.165890 0.287117
v 0.140368 0.165890 0.287117
v 0.140368 0.363681 0.287117
v 0.239264 0.363681 0.287117
v 0.239264 0.445031 0.287117
v -0.354110 0.445031 0.287117
v -0.354110 0.559877 0.287117
v 0.354110 0.559877 0.287117
v 0.354110 0.346135 0.287117
v 0.255215 0.346135 0.287117
v 0.255215 0.148344 0.287117
v 0.157914 0.148344 0.287117
v 0.157914 -0.146748 0.287117
v 0.059018 -0.146748 0.287117
v 0.059018 -0.441840 0.287117
v -0.039877 -0.441840 0.287117
v -0.039877 -0.740123 0.287117
v -0.154724 -0.740123 -0.287117
v -0.154724 -0.425889 -0.287117
v -0.057423 -0.425889 -0.287117
v -0.057423 -0.129202 -0.287117
v 0.041472 -0.129202 -0.287117
v 0.041472 0.165890 -0.287117
v 0.140368 0.165890 -0.287117
v 0.140368 0.363681 -0.287117
v 0.239264 0.363681 -0.287117
v 0.239264 0.445031 -0.287117
v -0.354110 0.445031 -0.287117
v -0.354110 0.559877 -0.287117
v 0.354110 0.559877 -0.287117
v 0.354110 0.346135 -0.287117
v 0.255215 0.346135 -0.287117
v 0.255215 0.148344 -0.287117
v 0.157914 0.148344 -0.287117
v 0.157914 -0.146748 -0.287117
v 0.059018 -0.146748 -0.287117
v 0.059018 -0.441840 -0.287117
v -0.039877 -0.441840 -0.287117
v -0.039877 -0.740123 -0.287117
v -0.154724 -0.740123 -0.287117
v -0.154724 -0.740123 0.287117
v -0.154724 -0.425889 -0.287117
v -0.154724 -0.425889 0.287117
v -0.057423 -0.425889 -0.287117
v -0.057423 -0.425889 0.287117
v -0.057423 -0.129202 -0.287117
v -0.057423 -0.129202 0.287117
v 0.041472 -0.129202 -0.287117
v 0.041472 -0.129202 0.287117
v 0.041472 0.165890 -0.287117
v 0.041472 0.165890 0.287117
v 0.140368 0.165890 -0.287117
v 0.140368 0.165890 0.287117
v 0.140368 0.363681 -0.287117
v 0.140368 0.363681 0.287117
v 0.239264 0.363681 -0.287117
v 0.239264 0.363681 0.287117
v 0.239264 0.445031 -0.287117
v 0.239264 0.445031 0.287117
v -0.354110 0.445031 -0.287117
v -0.354110 0.445031 0.287117
v -0.354110 0.559877 -0.287117
v -0.354110 0.559877 0.287117
v 0.354110 0.559877 -0.287117
v 0.354110 0.559877 0.287117
v 0.354110 0.346135 -0.287117
v 0.354110 0.346135 0.287117
v 0.255215 0.346135 -0.287117
v 0.255215 0.346135 0.287117
v 0.255215 0.148344 -0.287117
v 0.255215 0.148344 0.287117
v 0.157914 0.148344 -0.287117
v 0.157914 0.148344 0.287117
v 0.157914 -0.146748 -0.287117
v 0.157914 -0.146748 0.287117
v 0.059018 -0.146748 -0.287117
v 0.059018 -0.146748 0.287117
v 0.059018 -0.441840 -0.287117
v 0.059018 -0.441840 0.287117
v -0.039877 -0.441840 -0.287117
v -0.039877 -0.441840 0.287117
v -0.039877 -0.740123 -0.287117
v -0.039877 -0.740123 0.287117
vn -0.0000 -0.0000 1.0000
vn -0.0000 -0.0000 -1.0000
vn -0.7071 0.7071 -0.0000
vn -0.7071 -0.7071 -0.0000
vn 0.7071 0.7071 -0.0000
vn 0.7071 -0.7071 -0.0000
vt 0.187500 0.500000
s 0
usemtl TA_Pal
f 22/1/1 21/1/1 1/1/1
f 2/1/1 1/1/1 21/1/1
f 3/1/1 2/1/1 21/1/1
f 21/1/1 20/1/1 3/1/1
f 10/1/1 9/1/1 15/1/1
f 15/1/1 14/1/1 10/1/1
f 14/1/1 13/1/1 10/1/1
f 7/1/1 17/1/1 16/1/1
f 16/1/1 15/1/1 7/1/1
f 8/1/1 7/1/1 15/1/1
f 15/1/1 9/1/1 8/1/1
f 3/1/1 20/1/1 19/1/1
f 4/1/1 3/1/1 19/1/1
f 5/1/1 4/1/1 19/1/1
f 19/1/1 18/1/1 5/1/1
f 18/1/1 17/1/1 5/1/1
f 6/1/1 5/1/1 17/1/1
f 17/1/1 7/1/1 6/1/1
f 12/1/1 11/1/1 10/1/1
f 10/1/1 13/1/1 12/1/1
f 44/1/2 23/1/2 43/1/2
f 24/1/2 43/1/2 23/1/2
f 25/1/2 43/1/2 24/1/2
f 43/1/2 25/1/2 42/1/2
f 32/1/2 37/1/2 31/1/2
f 37/1/2 32/1/2 36/1/2
f 36/1/2 32/1/2 35/1/2
f 29/1/2 38/1/2 39/1/2
f 38/1/2 29/1/2 37/1/2
f 30/1/2 37/1/2 29/1/2
f 37/1/2 30/1/2 31/1/2
f 25/1/2 41/1/2 42/1/2
f 26/1/2 41/1/2 25/1/2
f 27/1/2 41/1/2 26/1/2
f 41/1/2 27/1/2 40/1/2
f 40/1/2 27/1/2 39/1/2
f 28/1/2 39/1/2 27/1/2
f 39/1/2 28/1/2 29/1/2
f 34/1/2 32/1/2 33/1/2
f 32/1/2 34/1/2 35/1/2
s 1
f 48/1/3 45/1/4 46/1/4
f 50/1/3 47/1/3 48/1/3
f 50/1/3 51/1/3 49/1/3
f 54/1/3 51/1/3 52/1/3
f 56/1/3 53/1/3 54/1/3
f 58/1/3 55/1/3 56/1/3
f 58/1/3 59/1/3 57/1/3
f 62/1/3 59/1/3 60/1/3
f 64/1/4 61/1/3 62/1/3
f 66/1/4 63/1/4 64/1/4
f 68/1/3 65/1/4 66/1/4
f 70/1/5 67/1/3 68/1/3
f 72/1/6 69/1/5 70/1/5
f 74/1/6 71/1/6 72/1/6
f 76/1/6 73/1/6 74/1/6
f 78/1/6 75/1/6 76/1/6
f 80/1/6 77/1/6 78/1/6
f 82/1/6 79/1/6 80/1/6
f 84/1/6 81/1/6 82/1/6
f 86/1/6 83/1/6 84/1/6
f 88/1/6 85/1/6 86/1/6
f 46/1/4 87/1/6 88/1/6
f 48/1/3 47/1/3 45/1/4
f 50/1/3 49/1/3 47/1/3
f 50/1/3 52/1/3 51/1/3
f 54/1/3 53/1/3 51/1/3
f 56/1/3 55/1/3 53/1/3
f 58/1/3 57/1/3 55/1/3
f 58/1/3 60/1/3 59/1/3
f 62/1/3 61/1/3 59/1/3
f 64/1/4 63/1/4 61/1/3
f 66/1/4 65/1/4 63/1/4
f 68/1/3 67/1/3 65/1/4
f 70/1/5 69/1/5 67/1/3
f 72/1/6 71/1/6 69/1/5
f 74/1/6 73/1/6 71/1/6
f 76/1/6 75/1/6 73/1/6
f 78/1/6 77/1/6 75/1/6
f 80/1/6 79/1/6 77/1/6
f 82/1/6 81/1/6 79/1/6
f 84/1/6 83/1/6 81/1/6
f 86/1/6 85/1/6 83/1/6
f 88/1/6 87/1/6 85/1/6
f 46/1/4 45/1/4 87/1/6
