# Blender 5.2.0 LTS
# www.blender.org
mtllib Hammer_Age2.mtl
o Hammer_Age2
v 0.000000 -1.200000 -0.060000
v 0.000000 0.000000 -0.060000
v 0.035267 -1.200000 -0.048541
v 0.035267 0.000000 -0.048541
v 0.057063 -1.200000 -0.018541
v 0.057063 0.000000 -0.018541
v 0.057063 -1.200000 0.018541
v 0.057063 0.000000 0.018541
v 0.035267 -1.200000 0.048541
v 0.035267 0.000000 0.048541
v 0.000000 -1.200000 0.060000
v 0.000000 0.000000 0.060000
v -0.035267 -1.200000 0.048541
v -0.035267 0.000000 0.048541
v -0.057063 -1.200000 0.018541
v -0.057063 0.000000 0.018541
v -0.057063 -1.200000 -0.018541
v -0.057063 0.000000 -0.018541
v -0.035267 -1.200000 -0.048541
v -0.035267 0.000000 -0.048541
v 0.002972 -2.265901 -0.058000
v 0.137028 -1.174100 -0.058000
v 0.036809 -2.270055 -0.046923
v 0.170866 -1.178254 -0.046923
v 0.057722 -2.272623 -0.017923
v 0.191778 -1.180822 -0.017923
v 0.057722 -2.272623 0.017923
v 0.191778 -1.180822 0.017923
v 0.036809 -2.270055 0.046923
v 0.170866 -1.178254 0.046923
v 0.002972 -2.265901 0.058000
v 0.137028 -1.174100 0.058000
v -0.030866 -2.261746 0.046923
v 0.103191 -1.169945 0.046923
v -0.051778 -2.259178 0.017923
v 0.082278 -1.167377 0.017923
v -0.051778 -2.259178 -0.017923
v 0.082278 -1.167377 -0.017923
v -0.030866 -2.261746 -0.046923
v 0.103191 -1.169945 -0.046923
v 0.000000 0.120000 -0.080000
v 0.000000 0.120000 0.080000
v 0.084853 0.084853 -0.080000
v 0.084853 0.084853 0.080000
v 0.120000 0.000000 -0.080000
v 0.120000 0.000000 0.080000
v 0.084853 -0.084853 -0.080000
v 0.084853 -0.084853 0.080000
v 0.000000 -0.120000 -0.080000
v 0.000000 -0.120000 0.080000
v -0.084853 -0.084853 -0.080000
v -0.084853 -0.084853 0.080000
v -0.120000 0.000000 -0.080000
v -0.120000 0.000000 0.080000
v -0.084853 0.084853 -0.080000
v -0.084853 0.084853 0.080000
v -0.108671 -2.639681 0.170000
v -0.070305 -2.091021 0.170000
v -0.108671 -2.639681 -0.170000
v -0.070305 -2.091021 -0.170000
v 0.310305 -2.668979 0.170000
v 0.348671 -2.120319 0.170000
v 0.310305 -2.668979 -0.170000
v 0.348671 -2.120319 -0.170000
v 0.355111 -2.081177 -0.160000
v 0.319248 -2.215020 -0.080000
v 0.319248 -2.215020 0.080000
v 0.355111 -2.081177 0.160000
v 0.390974 -1.947334 0.080000
v 0.390974 -1.947334 -0.080000
v 0.644889 -2.158823 0.000000
v -0.058564 -2.710303 0.185000
v -0.075772 -2.601657 0.185000
v -0.058564 -2.710303 -0.185000
v -0.075772 -2.601657 -0.185000
v 0.395772 -2.638343 0.185000
v 0.378564 -2.529697 0.185000
v 0.395772 -2.638343 -0.185000
v 0.378564 -2.529697 -0.185000
vn 0.3090 -0.0000 -0.9511
vn 0.8090 -0.0000 -0.5878
vn 1.0000 -0.0000 -0.0000
vn 0.8090 -0.0000 0.5878
vn 0.3090 -0.0000 0.9511
vn -0.3090 -0.0000 0.9511
vn -0.8090 -0.0000 0.5878
vn -1.0000 -0.0000 -0.0000
vn -0.0000 1.0000 -0.0000
vn -0.8090 -0.0000 -0.5878
vn -0.3090 -0.0000 -0.9511
vn -0.0000 -1.0000 -0.0000
vn 0.3067 -0.0377 -0.9511
vn 0.8030 -0.0986 -0.5878
vn 0.9925 -0.1219 -0.0000
vn 0.8030 -0.0986 0.5878
vn 0.3067 -0.0377 0.9511
vn -0.3067 0.0377 0.9511
vn -0.8030 0.0986 0.5878
vn -0.9925 0.1219 -0.0000
vn 0.1219 0.9925 -0.0000
vn -0.8030 0.0986 -0.5878
vn -0.3067 0.0377 -0.9511
vn -0.1219 -0.9925 -0.0000
vn 0.3827 0.9239 -0.0000
vn 0.9239 0.3827 -0.0000
vn 0.9239 -0.3827 -0.0000
vn 0.3827 -0.9239 -0.0000
vn -0.3827 -0.9239 -0.0000
vn -0.9239 -0.3827 -0.0000
vn -0.0000 -0.0000 1.0000
vn -0.9239 0.3827 -0.0000
vn -0.3827 0.9239 -0.0000
vn -0.0000 -0.0000 -1.0000
vn -0.9976 0.0698 -0.0000
vn 0.9976 -0.0698 -0.0000
vn -0.0698 -0.9976 -0.0000
vn 0.0698 0.9976 -0.0000
vn 0.2875 -0.5470 -0.7862
vn 0.1701 -0.9854 -0.0000
vn 0.2875 -0.5470 0.7862
vn 0.5225 0.3299 0.7862
vn -0.9659 0.2588 -0.0000
vn 0.6400 0.7684 -0.0000
vn 0.5225 0.3299 -0.7862
vn -0.9877 -0.1564 -0.0000
vn 0.9877 0.1564 -0.0000
vn 0.1564 -0.9877 -0.0000
vn -0.1564 0.9877 -0.0000
vt 0.905983 0.991707
vt 0.905983 0.474598
vt 0.921181 0.474598
vt 0.921181 0.991707
vt 0.660269 0.991754
vt 0.660269 0.474654
vt 0.673197 0.474598
vt 0.673197 0.991697
vt 0.689176 0.474598
vt 0.689176 0.991697
vt 0.702104 0.474654
vt 0.702104 0.991754
vt 0.937672 0.991707
vt 0.937672 0.474598
vt 0.952870 0.474598
vt 0.952870 0.991707
vt 0.968067 0.474598
vt 0.968067 0.991707
vt 0.718595 0.988302
vt 0.718595 0.474598
vt 0.731523 0.475674
vt 0.731523 0.989378
vt 0.747503 0.475674
vt 0.747503 0.989378
vt 0.287313 0.780890
vt 0.272285 0.776226
vt 0.262998 0.763524
vt 0.262998 0.747638
vt 0.272285 0.734635
vt 0.287313 0.729481
vt 0.302340 0.734145
vt 0.311627 0.746847
vt 0.311627 0.762733
vt 0.302340 0.775737
vt 0.760431 0.474598
vt 0.760431 0.988302
vt 0.890786 0.991707
vt 0.890786 0.474598
vt 0.603724 0.218849
vt 0.588529 0.213911
vt 0.579139 0.200983
vt 0.579139 0.185004
vt 0.588529 0.172076
vt 0.603724 0.167138
vt 0.618918 0.172076
vt 0.628309 0.185004
vt 0.628309 0.200983
vt 0.618918 0.213911
vt 0.231816 0.988781
vt 0.231816 0.514764
vt 0.246507 0.514764
vt 0.246507 0.988781
vt 0.833854 0.945422
vt 0.833854 0.474598
vt 0.846351 0.475650
vt 0.846351 0.946474
vt 0.861798 0.475650
vt 0.861798 0.946474
vt 0.874295 0.474598
vt 0.874295 0.945422
vt 0.171252 0.988781
vt 0.171252 0.514764
vt 0.185942 0.514764
vt 0.185942 0.988781
vt 0.200633 0.514764
vt 0.200633 0.988781
vt 0.776922 0.948669
vt 0.776922 0.474664
vt 0.789419 0.474598
vt 0.789419 0.948602
vt 0.804866 0.474598
vt 0.804866 0.948602
vt 0.621089 0.828144
vt 0.606427 0.832917
vt 0.591764 0.828144
vt 0.582703 0.815647
vt 0.582703 0.800200
vt 0.591764 0.787704
vt 0.606427 0.782930
vt 0.621089 0.787704
vt 0.630151 0.800200
vt 0.630151 0.815647
vt 0.817362 0.474664
vt 0.817362 0.948669
vt 0.217125 0.988781
vt 0.217125 0.514764
vt 0.357789 0.833379
vt 0.343245 0.828606
vt 0.334257 0.816109
vt 0.334257 0.800662
vt 0.343245 0.788165
vt 0.357789 0.783392
vt 0.372332 0.788165
vt 0.381320 0.800662
vt 0.381320 0.816109
vt 0.372332 0.828606
vt 0.497263 0.816097
vt 0.566211 0.816097
vt 0.566211 0.854820
vt 0.497263 0.854820
vt 0.071510 0.673898
vt 0.140458 0.673898
vt 0.140458 0.710371
vt 0.071510 0.710371
vt 0.140458 0.747027
vt 0.071510 0.747027
vt 0.709671 0.341071
vt 0.778619 0.341071
vt 0.778619 0.377929
vt 0.709671 0.377929
vt 0.778619 0.414187
vt 0.709671 0.414187
vt 0.140458 0.836167
vt 0.071510 0.836167
vt 0.071510 0.801578
vt 0.140458 0.801578
vt 0.564827 0.670889
vt 0.592813 0.698875
vt 0.592813 0.738453
vt 0.564827 0.766439
vt 0.525249 0.766439
vt 0.497263 0.738453
vt 0.497263 0.698875
vt 0.525249 0.670889
vt 0.071510 0.763519
vt 0.140458 0.763519
vt 0.497263 0.782930
vt 0.566211 0.782930
vt 0.429807 0.699337
vt 0.429807 0.738915
vt 0.401821 0.766900
vt 0.362243 0.766900
vt 0.334257 0.738915
vt 0.334257 0.699337
vt 0.362243 0.671351
vt 0.401821 0.671351
vt 0.008246 0.498514
vt 0.008246 0.261746
vt 0.154760 0.261746
vt 0.154760 0.498514
vt 0.008246 0.245254
vt 0.008246 0.008246
vt 0.189234 0.008246
vt 0.189234 0.245254
vt 0.171252 0.498273
vt 0.171252 0.261746
vt 0.317766 0.261746
vt 0.317766 0.498273
vt 0.205725 0.245254
vt 0.205725 0.008246
vt 0.386714 0.008246
vt 0.386714 0.245254
vt 0.334257 0.654860
vt 0.334257 0.474598
vt 0.480772 0.474598
vt 0.480772 0.654860
vt 0.497263 0.654398
vt 0.497263 0.474598
vt 0.643778 0.474598
vt 0.643778 0.654398
vt 0.062454 0.540043
vt 0.116661 0.657407
vt 0.008246 0.565081
vt 0.704046 0.136784
vt 0.771015 0.008246
vt 0.771015 0.153184
vt 0.687554 0.058321
vt 0.579139 0.150647
vt 0.633347 0.033283
vt 0.579139 0.008246
vt 0.629286 0.364891
vt 0.569739 0.398528
vt 0.510191 0.363773
vt 0.510191 0.295382
vt 0.569739 0.261746
vt 0.629286 0.296500
vt 0.778619 0.200303
vt 0.744145 0.324580
vt 0.709671 0.200303
vt 0.116661 0.515006
vt 0.833167 0.167688
vt 0.787507 0.167688
vt 0.787507 0.008246
vt 0.833167 0.008246
vt 0.310400 0.712989
vt 0.262998 0.712989
vt 0.262998 0.514764
vt 0.310400 0.514764
vt 0.055018 0.833340
vt 0.008246 0.833340
vt 0.008246 0.673898
vt 0.055018 0.673898
vt 0.645778 0.200303
vt 0.693180 0.200303
vt 0.693180 0.398528
vt 0.645778 0.398528
vt 0.334257 0.458106
vt 0.334257 0.261746
vt 0.493699 0.261746
vt 0.493699 0.458106
vt 0.403205 0.195022
vt 0.403205 0.008246
vt 0.562647 0.008246
vt 0.562647 0.195022
s 0
usemtl Hammer_Age2_baked.001
f 1/1/1 2/2/1 4/3/1 3/4/1
f 3/5/2 4/6/2 6/7/2 5/8/2
f 5/8/3 6/7/3 8/9/3 7/10/3
f 7/10/4 8/9/4 10/11/4 9/12/4
f 9/13/5 10/14/5 12/15/5 11/16/5
f 11/16/6 12/15/6 14/17/6 13/18/6
f 13/19/7 14/20/7 16/21/7 15/22/7
f 15/22/8 16/21/8 18/23/8 17/24/8
f 4/25/9 2/26/9 20/27/9 18/28/9 16/29/9 14/30/9 12/31/9 10/32/9 8/33/9 6/34/9
f 17/24/10 18/23/10 20/35/10 19/36/10
f 19/37/11 20/38/11 2/2/11 1/1/11
f 1/39/12 3/40/12 5/41/12 7/42/12 9/43/12 11/44/12 13/45/12 15/46/12 17/47/12 19/48/12
f 21/49/13 22/50/13 24/51/13 23/52/13
f 23/53/14 24/54/14 26/55/14 25/56/14
f 25/56/15 26/55/15 28/57/15 27/58/15
f 27/58/16 28/57/16 30/59/16 29/60/16
f 29/61/17 30/62/17 32/63/17 31/64/17
f 31/64/18 32/63/18 34/65/18 33/66/18
f 33/67/19 34/68/19 36/69/19 35/70/19
f 35/70/20 36/69/20 38/71/20 37/72/20
f 24/73/21 22/74/21 40/75/21 38/76/21 36/77/21 34/78/21 32/79/21 30/80/21 28/81/21 26/82/21
f 37/72/22 38/71/22 40/83/22 39/84/22
f 39/85/23 40/86/23 22/50/23 21/49/23
f 21/87/24 23/88/24 25/89/24 27/90/24 29/91/24 31/92/24 33/93/24 35/94/24 37/95/24 39/96/24
f 41/97/25 42/98/25 44/99/25 43/100/25
f 43/101/26 44/102/26 46/103/26 45/104/26
f 45/104/27 46/103/27 48/105/27 47/106/27
f 47/107/28 48/108/28 50/109/28 49/110/28
f 49/110/29 50/109/29 52/111/29 51/112/29
f 51/113/30 52/114/30 54/115/30 53/116/30
f 44/117/31 42/118/31 56/119/31 54/120/31 52/121/31 50/122/31 48/123/31 46/124/31
f 53/116/32 54/115/32 56/125/32 55/126/32
f 55/127/33 56/128/33 42/98/33 41/97/33
f 41/129/34 43/130/34 45/131/34 47/132/34 49/133/34 51/134/34 53/135/34 55/136/34
f 57/137/35 58/138/35 60/139/35 59/140/35
f 59/141/34 60/142/34 64/143/34 63/144/34
f 63/145/36 64/146/36 62/147/36 61/148/36
f 61/149/31 62/150/31 58/151/31 57/152/31
f 59/153/37 63/154/37 61/155/37 57/156/37
f 64/157/38 60/158/38 58/159/38 62/160/38
f 65/161/39 71/162/39 66/163/39
f 66/164/40 71/165/40 67/166/40
f 67/167/41 71/168/41 68/169/41
f 68/169/42 71/168/42 69/170/42
f 65/171/43 66/172/43 67/173/43 68/174/43 69/175/43 70/176/43
f 69/177/44 71/178/44 70/179/44
f 70/180/45 71/162/45 65/161/45
f 72/181/46 73/182/46 75/183/46 74/184/46
f 74/185/34 75/186/34 79/187/34 78/188/34
f 78/189/47 79/190/47 77/191/47 76/192/47
f 76/193/31 77/194/31 73/195/31 72/196/31
f 74/197/48 78/198/48 76/199/48 72/200/48
f 79/201/49 75/202/49 73/203/49 77/204/49
