# Blender 5.1.2
# www.blender.org
mtllib Saw_Blade.mtl
o Saw_Blade
v 0.000000 -0.060000 -0.420000
v 0.000000 0.060000 -0.420000
v 0.108704 -0.060000 -0.405689
v 0.108704 0.060000 -0.405689
v 0.210000 -0.060000 -0.363731
v 0.210000 0.060000 -0.363731
v 0.296985 -0.060000 -0.296985
v 0.296985 0.060000 -0.296985
v 0.363731 -0.060000 -0.210000
v 0.363731 0.060000 -0.210000
v 0.405689 -0.060000 -0.108704
v 0.405689 0.060000 -0.108704
v 0.420000 -0.060000 0.000000
v 0.420000 0.060000 0.000000
v 0.405689 -0.060000 0.108704
v 0.405689 0.060000 0.108704
v 0.363731 -0.060000 0.210000
v 0.363731 0.060000 0.210000
v 0.296985 -0.060000 0.296985
v 0.296985 0.060000 0.296985
v 0.210000 -0.060000 0.363731
v 0.210000 0.060000 0.363731
v 0.108704 -0.060000 0.405689
v 0.108704 0.060000 0.405689
v 0.000000 -0.060000 0.420000
v 0.000000 0.060000 0.420000
v -0.108704 -0.060000 0.405689
v -0.108704 0.060000 0.405689
v -0.210000 -0.060000 0.363731
v -0.210000 0.060000 0.363731
v -0.296985 -0.060000 0.296985
v -0.296985 0.060000 0.296985
v -0.363731 -0.060000 0.210000
v -0.363731 0.060000 0.210000
v -0.405689 -0.060000 0.108704
v -0.405689 0.060000 0.108704
v -0.420000 -0.060000 0.000000
v -0.420000 0.060000 0.000000
v -0.405689 -0.060000 -0.108704
v -0.405689 0.060000 -0.108704
v -0.363731 -0.060000 -0.210000
v -0.363731 0.060000 -0.210000
v -0.296985 -0.060000 -0.296985
v -0.296985 0.060000 -0.296985
v -0.210000 -0.060000 -0.363731
v -0.210000 0.060000 -0.363731
v -0.108704 -0.060000 -0.405689
v -0.108704 0.060000 -0.405689
v 0.389674 -0.050000 0.066275
v 0.389674 0.050000 0.066275
v 0.358814 -0.050000 -0.018269
v 0.358814 0.050000 -0.018269
v 0.521186 -0.050000 0.018269
v 0.521186 0.050000 0.018269
v 0.490326 -0.050000 -0.066275
v 0.490326 0.050000 -0.066275
v 0.322405 -0.050000 -0.228678
v 0.322405 0.050000 -0.228678
v 0.240801 -0.050000 -0.266638
v 0.240801 0.050000 -0.266638
v 0.381453 -0.050000 -0.355616
v 0.381453 0.050000 -0.355616
v 0.299849 -0.050000 -0.393576
v 0.299849 0.050000 -0.393576
v 0.066275 -0.050000 -0.389674
v 0.066275 0.050000 -0.389674
v -0.018269 -0.050000 -0.358814
v -0.018269 0.050000 -0.358814
v 0.018269 -0.050000 -0.521186
v 0.018269 0.050000 -0.521186
v -0.066275 -0.050000 -0.490326
v -0.066275 0.050000 -0.490326
v -0.228678 -0.050000 -0.322405
v -0.228678 0.050000 -0.322405
v -0.266638 -0.050000 -0.240801
v -0.266638 0.050000 -0.240801
v -0.355616 -0.050000 -0.381453
v -0.355616 0.050000 -0.381453
v -0.393576 -0.050000 -0.299849
v -0.393576 0.050000 -0.299849
v -0.389674 -0.050000 -0.066275
v -0.389674 0.050000 -0.066275
v -0.358814 -0.050000 0.018269
v -0.358814 0.050000 0.018269
v -0.521186 -0.050000 -0.018269
v -0.521186 0.050000 -0.018269
v -0.490326 -0.050000 0.066275
v -0.490326 0.050000 0.066275
v -0.322405 -0.050000 0.228678
v -0.322405 0.050000 0.228678
v -0.240801 -0.050000 0.266638
v -0.240801 0.050000 0.266638
v -0.381453 -0.050000 0.355616
v -0.381453 0.050000 0.355616
v -0.299849 -0.050000 0.393576
v -0.299849 0.050000 0.393576
v -0.066275 -0.050000 0.389674
v -0.066275 0.050000 0.389674
v 0.018269 -0.050000 0.358814
v 0.018269 0.050000 0.358814
v -0.018269 -0.050000 0.521186
v -0.018269 0.050000 0.521186
v 0.066275 -0.050000 0.490326
v 0.066275 0.050000 0.490326
v 0.228678 -0.050000 0.322405
v 0.228678 0.050000 0.322405
v 0.266638 -0.050000 0.240801
v 0.266638 0.050000 0.240801
v 0.355616 -0.050000 0.381453
v 0.355616 0.050000 0.381453
v 0.393576 -0.050000 0.299849
v 0.393576 0.050000 0.299849
vn 0.1305 -0.0000 -0.9914
vn 0.3827 -0.0000 -0.9239
vn 0.6088 -0.0000 -0.7934
vn 0.7934 -0.0000 -0.6088
vn 0.9239 -0.0000 -0.3827
vn 0.9914 -0.0000 -0.1305
vn 0.9914 -0.0000 0.1305
vn 0.9239 -0.0000 0.3827
vn 0.7934 -0.0000 0.6088
vn 0.6088 -0.0000 0.7934
vn 0.3827 -0.0000 0.9239
vn 0.1305 -0.0000 0.9914
vn -0.1305 -0.0000 0.9914
vn -0.3827 -0.0000 0.9239
vn -0.6088 -0.0000 0.7934
vn -0.7934 -0.0000 0.6088
vn -0.9239 -0.0000 0.3827
vn -0.9914 -0.0000 0.1305
vn -0.9914 -0.0000 -0.1305
vn -0.9239 -0.0000 -0.3827
vn -0.7934 -0.0000 -0.6088
vn -0.6088 -0.0000 -0.7934
vn -0.0000 1.0000 -0.0000
vn -0.3827 -0.0000 -0.9239
vn -0.1305 -0.0000 -0.9914
vn -0.0000 -1.0000 -0.0000
vn -0.9394 -0.0000 0.3429
vn -0.3429 -0.0000 -0.9394
vn 0.9394 -0.0000 -0.3429
vn 0.3429 -0.0000 0.9394
vn -0.4218 -0.0000 0.9067
vn -0.9067 -0.0000 -0.4218
vn 0.4218 -0.0000 -0.9067
vn 0.9067 -0.0000 0.4218
vt 0.651124 0.181702
vt 0.583231 0.181702
vt 0.583231 0.119761
vt 0.651124 0.119761
vt 0.583231 0.060798
vt 0.651124 0.060798
vt 0.583231 0.008832
vt 0.651124 0.008832
vt 0.651124 0.696612
vt 0.583231 0.696612
vt 0.583231 0.650442
vt 0.651124 0.650442
vt 0.583231 0.595123
vt 0.651124 0.595123
vt 0.583231 0.534424
vt 0.651124 0.534424
vt 0.583231 0.472483
vt 0.651124 0.472483
vt 0.583231 0.413520
vt 0.651124 0.413520
vt 0.583231 0.361554
vt 0.651124 0.361554
vt 0.565568 0.344781
vt 0.497675 0.344781
vt 0.497675 0.294661
vt 0.565568 0.294661
vt 0.497675 0.236788
vt 0.565568 0.236788
vt 0.497675 0.175107
vt 0.565568 0.175107
vt 0.497675 0.113822
vt 0.565568 0.113822
vt 0.497675 0.057108
vt 0.565568 0.057108
vt 0.497675 0.008832
vt 0.565568 0.008832
vt 0.565568 0.697503
vt 0.497675 0.697503
vt 0.497675 0.651333
vt 0.565568 0.651333
vt 0.497675 0.596014
vt 0.565568 0.596014
vt 0.497675 0.535315
vt 0.565568 0.535315
vt 0.497675 0.473374
vt 0.565568 0.473374
vt 0.497675 0.414411
vt 0.565568 0.414411
vt 0.497675 0.362445
vt 0.565568 0.362445
vt 0.651124 0.343890
vt 0.583231 0.343890
vt 0.583231 0.297720
vt 0.651124 0.297720
vt 0.024887 0.335356
vt 0.008832 0.275438
vt 0.008832 0.213406
vt 0.024887 0.153487
vt 0.055903 0.099766
vt 0.099766 0.055903
vt 0.153487 0.024887
vt 0.213406 0.008832
vt 0.275438 0.008832
vt 0.335356 0.024887
vt 0.389077 0.055903
vt 0.432941 0.099766
vt 0.463957 0.153487
vt 0.480012 0.213406
vt 0.480012 0.275438
vt 0.463957 0.335356
vt 0.432941 0.389077
vt 0.389077 0.432941
vt 0.335356 0.463957
vt 0.275438 0.480012
vt 0.213406 0.480012
vt 0.153487 0.463957
vt 0.099766 0.432941
vt 0.055903 0.389077
vt 0.583231 0.242401
vt 0.651124 0.242401
vt 0.008832 0.764281
vt 0.008832 0.702249
vt 0.024887 0.642331
vt 0.055903 0.588610
vt 0.099766 0.544746
vt 0.153487 0.513730
vt 0.213406 0.497675
vt 0.275438 0.497675
vt 0.335356 0.513730
vt 0.389077 0.544746
vt 0.432941 0.588610
vt 0.463957 0.642331
vt 0.480012 0.702249
vt 0.480012 0.764281
vt 0.463957 0.824200
vt 0.432941 0.877921
vt 0.389077 0.921784
vt 0.335356 0.952800
vt 0.275438 0.968855
vt 0.213406 0.968855
vt 0.153487 0.952800
vt 0.099766 0.921784
vt 0.055903 0.877921
vt 0.024887 0.824200
vt 0.885851 0.139649
vt 0.885851 0.083072
vt 0.932202 0.083072
vt 0.932202 0.139649
vt 0.639808 0.786378
vt 0.583231 0.786378
vt 0.583231 0.714276
vt 0.639808 0.714276
vt 0.883176 0.918852
vt 0.883176 0.862275
vt 0.929527 0.862275
vt 0.929527 0.918852
vt 0.725364 0.083878
vt 0.668787 0.083878
vt 0.668787 0.008832
vt 0.725364 0.008832
vt 0.793947 0.668533
vt 0.793947 0.747740
vt 0.743028 0.747740
vt 0.743028 0.668533
vt 0.668787 0.824460
vt 0.668787 0.745252
vt 0.719706 0.745252
vt 0.719706 0.824460
vt 0.668787 0.987345
vt 0.668787 0.930768
vt 0.714418 0.930768
vt 0.714418 0.987345
vt 0.725364 0.268422
vt 0.668787 0.268422
vt 0.668787 0.194252
vt 0.725364 0.194252
vt 0.883176 0.356023
vt 0.883176 0.299446
vt 0.930857 0.299446
vt 0.930857 0.356023
vt 0.725364 0.360255
vt 0.668787 0.360255
vt 0.668787 0.286085
vt 0.725364 0.286085
vt 0.548595 0.804932
vt 0.548595 0.884140
vt 0.497675 0.884140
vt 0.497675 0.804932
vt 0.583231 0.883249
vt 0.583231 0.804042
vt 0.634151 0.804042
vt 0.634151 0.883249
vt 0.817268 0.356023
vt 0.817268 0.299446
vt 0.865512 0.299446
vt 0.865512 0.356023
vt 0.554252 0.787269
vt 0.497675 0.787269
vt 0.497675 0.715167
vt 0.554252 0.715167
vt 0.885851 0.213890
vt 0.885851 0.157313
vt 0.932202 0.157313
vt 0.932202 0.213890
vt 0.799605 0.260464
vt 0.743028 0.260464
vt 0.743028 0.188363
vt 0.799605 0.188363
vt 0.793947 0.765404
vt 0.793947 0.844612
vt 0.743028 0.844612
vt 0.743028 0.765404
vt 0.811611 0.457126
vt 0.811611 0.377919
vt 0.862530 0.377919
vt 0.862530 0.457126
vt 0.880194 0.508736
vt 0.880194 0.452159
vt 0.927874 0.452159
vt 0.927874 0.508736
vt 0.799605 0.933256
vt 0.743028 0.933256
vt 0.743028 0.862275
vt 0.799605 0.862275
vt 0.880194 0.628238
vt 0.880194 0.571661
vt 0.927874 0.571661
vt 0.927874 0.628238
vt 0.725364 0.727588
vt 0.668787 0.727588
vt 0.668787 0.653419
vt 0.725364 0.653419
vt 0.862530 0.668533
vt 0.862530 0.747740
vt 0.811611 0.747740
vt 0.811611 0.668533
vt 0.811611 0.844612
vt 0.811611 0.765404
vt 0.862530 0.765404
vt 0.862530 0.844612
vt 0.885851 0.065409
vt 0.885851 0.008832
vt 0.932202 0.008832
vt 0.932202 0.065409
vt 0.725364 0.176588
vt 0.668787 0.176588
vt 0.668787 0.101542
vt 0.725364 0.101542
vt 0.583231 0.957490
vt 0.583231 0.900913
vt 0.629582 0.900913
vt 0.629582 0.957490
vt 0.799605 0.080934
vt 0.743028 0.080934
vt 0.743028 0.008832
vt 0.799605 0.008832
vt 0.811611 0.553998
vt 0.811611 0.474790
vt 0.862530 0.474790
vt 0.862530 0.553998
vt 0.862530 0.571661
vt 0.862530 0.650869
vt 0.811611 0.650869
vt 0.811611 0.571661
vt 0.880194 0.434496
vt 0.880194 0.377919
vt 0.927874 0.377919
vt 0.927874 0.434496
vt 0.725364 0.452088
vt 0.668787 0.452088
vt 0.668787 0.377919
vt 0.725364 0.377919
vt 0.945538 0.434496
vt 0.945538 0.377919
vt 0.991168 0.377919
vt 0.991168 0.434496
vt 0.725364 0.543922
vt 0.668787 0.543922
vt 0.668787 0.469752
vt 0.725364 0.469752
vt 0.743028 0.553998
vt 0.743028 0.474790
vt 0.793947 0.474790
vt 0.793947 0.553998
vt 0.793947 0.571661
vt 0.793947 0.650869
vt 0.743028 0.650869
vt 0.743028 0.571661
vt 0.497675 0.958380
vt 0.497675 0.901804
vt 0.544026 0.901804
vt 0.544026 0.958380
vt 0.799605 0.170699
vt 0.743028 0.170699
vt 0.743028 0.098597
vt 0.799605 0.098597
vt 0.817268 0.918852
vt 0.817268 0.862275
vt 0.865512 0.862275
vt 0.865512 0.918852
vt 0.799605 0.350230
vt 0.743028 0.350230
vt 0.743028 0.278128
vt 0.799605 0.278128
vt 0.817268 0.184911
vt 0.817268 0.105703
vt 0.868187 0.105703
vt 0.868187 0.184911
vt 0.868187 0.202574
vt 0.868187 0.281782
vt 0.817268 0.281782
vt 0.817268 0.202574
vt 0.880194 0.702479
vt 0.880194 0.645902
vt 0.927874 0.645902
vt 0.927874 0.702479
vt 0.725364 0.635755
vt 0.668787 0.635755
vt 0.668787 0.561585
vt 0.725364 0.561585
vt 0.880194 0.776719
vt 0.880194 0.720142
vt 0.927874 0.720142
vt 0.927874 0.776719
vt 0.725364 0.913104
vt 0.668787 0.913104
vt 0.668787 0.842123
vt 0.725364 0.842123
vt 0.743028 0.457126
vt 0.743028 0.377919
vt 0.793947 0.377919
vt 0.793947 0.457126
vt 0.868188 0.008832
vt 0.868188 0.088039
vt 0.817268 0.088039
vt 0.817268 0.008832
s 0
usemtl Material.007
f 1/1/1 2/2/1 4/3/1 3/4/1
f 3/4/2 4/3/2 6/5/2 5/6/2
f 5/6/3 6/5/3 8/7/3 7/8/3
f 7/9/4 8/10/4 10/11/4 9/12/4
f 9/12/5 10/11/5 12/13/5 11/14/5
f 11/14/6 12/13/6 14/15/6 13/16/6
f 13/16/7 14/15/7 16/17/7 15/18/7
f 15/18/8 16/17/8 18/19/8 17/20/8
f 17/20/9 18/19/9 20/21/9 19/22/9
f 19/23/10 20/24/10 22/25/10 21/26/10
f 21/26/11 22/25/11 24/27/11 23/28/11
f 23/28/12 24/27/12 26/29/12 25/30/12
f 25/30/13 26/29/13 28/31/13 27/32/13
f 27/32/14 28/31/14 30/33/14 29/34/14
f 29/34/15 30/33/15 32/35/15 31/36/15
f 31/37/16 32/38/16 34/39/16 33/40/16
f 33/40/17 34/39/17 36/41/17 35/42/17
f 35/42/18 36/41/18 38/43/18 37/44/18
f 37/44/19 38/43/19 40/45/19 39/46/19
f 39/46/20 40/45/20 42/47/20 41/48/20
f 41/48/21 42/47/21 44/49/21 43/50/21
f 43/51/22 44/52/22 46/53/22 45/54/22
f 4/55/23 2/56/23 48/57/23 46/58/23 44/59/23 42/60/23 40/61/23 38/62/23 36/63/23 34/64/23 32/65/23 30/66/23 28/67/23 26/68/23 24/69/23 22/70/23 20/71/23 18/72/23 16/73/23 14/74/23 12/75/23 10/76/23 8/77/23 6/78/23
f 45/54/24 46/53/24 48/79/24 47/80/24
f 47/80/25 48/79/25 2/2/25 1/1/25
f 1/81/26 3/82/26 5/83/26 7/84/26 9/85/26 11/86/26 13/87/26 15/88/26 17/89/26 19/90/26 21/91/26 23/92/26 25/93/26 27/94/26 29/95/26 31/96/26 33/97/26 35/98/26 37/99/26 39/100/26 41/101/26 43/102/26 45/103/26 47/104/26
f 49/105/27 50/106/27 52/107/27 51/108/27
f 51/109/28 52/110/28 56/111/28 55/112/28
f 55/113/29 56/114/29 54/115/29 53/116/29
f 53/117/30 54/118/30 50/119/30 49/120/30
f 51/121/26 55/122/26 53/123/26 49/124/26
f 56/125/23 52/126/23 50/127/23 54/128/23
f 57/129/31 58/130/31 60/131/31 59/132/31
f 59/133/32 60/134/32 64/135/32 63/136/32
f 63/137/33 64/138/33 62/139/33 61/140/33
f 61/141/34 62/142/34 58/143/34 57/144/34
f 59/145/26 63/146/26 61/147/26 57/148/26
f 64/149/23 60/150/23 58/151/23 62/152/23
f 65/153/30 66/154/30 68/155/30 67/156/30
f 67/157/27 68/158/27 72/159/27 71/160/27
f 71/161/28 72/162/28 70/163/28 69/164/28
f 69/165/29 70/166/29 66/167/29 65/168/29
f 67/169/26 71/170/26 69/171/26 65/172/26
f 72/173/23 68/174/23 66/175/23 70/176/23
f 73/177/34 74/178/34 76/179/34 75/180/34
f 75/181/31 76/182/31 80/183/31 79/184/31
f 79/185/32 80/186/32 78/187/32 77/188/32
f 77/189/33 78/190/33 74/191/33 73/192/33
f 75/193/26 79/194/26 77/195/26 73/196/26
f 80/197/23 76/198/23 74/199/23 78/200/23
f 81/201/29 82/202/29 84/203/29 83/204/29
f 83/205/30 84/206/30 88/207/30 87/208/30
f 87/209/27 88/210/27 86/211/27 85/212/27
f 85/213/28 86/214/28 82/215/28 81/216/28
f 83/217/26 87/218/26 85/219/26 81/220/26
f 88/221/23 84/222/23 82/223/23 86/224/23
f 89/225/33 90/226/33 92/227/33 91/228/33
f 91/229/34 92/230/34 96/231/34 95/232/34
f 95/233/31 96/234/31 94/235/31 93/236/31
f 93/237/32 94/238/32 90/239/32 89/240/32
f 91/241/26 95/242/26 93/243/26 89/244/26
f 96/245/23 92/246/23 90/247/23 94/248/23
f 97/249/28 98/250/28 100/251/28 99/252/28
f 99/253/29 100/254/29 104/255/29 103/256/29
f 103/257/30 104/258/30 102/259/30 101/260/30
f 101/261/27 102/262/27 98/263/27 97/264/27
f 99/265/26 103/266/26 101/267/26 97/268/26
f 104/269/23 100/270/23 98/271/23 102/272/23
f 105/273/32 106/274/32 108/275/32 107/276/32
f 107/277/33 108/278/33 112/279/33 111/280/33
f 111/281/34 112/282/34 110/283/34 109/284/34
f 109/285/31 110/286/31 106/287/31 105/288/31
f 107/289/26 111/290/26 109/291/26 105/292/26
f 112/293/23 108/294/23 106/295/23 110/296/23
