# Blender 5.2.0 LTS
# www.blender.org
mtllib Hourglass.mtl
o Hourglass
v 0.000000 0.005000 -0.420000
v 0.000000 0.555000 -0.050000
v 0.160727 0.005000 -0.388029
v 0.019134 0.555000 -0.046194
v 0.296985 0.005000 -0.296985
v 0.035355 0.555000 -0.035355
v 0.388029 0.005000 -0.160727
v 0.046194 0.555000 -0.019134
v 0.420000 0.005000 0.000000
v 0.050000 0.555000 0.000000
v 0.388029 0.005000 0.160727
v 0.046194 0.555000 0.019134
v 0.296985 0.005000 0.296985
v 0.035355 0.555000 0.035355
v 0.160727 0.005000 0.388029
v 0.019134 0.555000 0.046194
v 0.000000 0.005000 0.420000
v 0.000000 0.555000 0.050000
v -0.160727 0.005000 0.388029
v -0.019134 0.555000 0.046194
v -0.296985 0.005000 0.296985
v -0.035355 0.555000 0.035355
v -0.388029 0.005000 0.160727
v -0.046194 0.555000 0.019134
v -0.420000 0.005000 0.000000
v -0.050000 0.555000 0.000000
v -0.388029 0.005000 -0.160727
v -0.046194 0.555000 -0.019134
v -0.296985 0.005000 -0.296985
v -0.035355 0.555000 -0.035355
v -0.160727 0.005000 -0.388029
v -0.019134 0.555000 -0.046194
v 0.000000 -0.005000 0.420000
v 0.000000 -0.555000 0.050000
v 0.160727 -0.005000 0.388029
v 0.019134 -0.555000 0.046194
v 0.296985 -0.005000 0.296985
v 0.035355 -0.555000 0.035355
v 0.388029 -0.005000 0.160727
v 0.046194 -0.555000 0.019134
v 0.420000 -0.005000 0.000000
v 0.050000 -0.555000 -0.000000
v 0.388029 -0.005000 -0.160727
v 0.046194 -0.555000 -0.019134
v 0.296985 -0.005000 -0.296985
v 0.035355 -0.555000 -0.035355
v 0.160727 -0.005000 -0.388029
v 0.019134 -0.555000 -0.046194
v 0.000000 -0.005000 -0.420000
v 0.000000 -0.555000 -0.050000
v -0.160727 -0.005000 -0.388029
v -0.019134 -0.555000 -0.046194
v -0.296985 -0.005000 -0.296985
v -0.035355 -0.555000 -0.035355
v -0.388029 -0.005000 -0.160727
v -0.046194 -0.555000 -0.019134
v -0.420000 -0.005000 0.000000
v -0.050000 -0.555000 -0.000000
v -0.388029 -0.005000 0.160727
v -0.046194 -0.555000 0.019134
v -0.296985 -0.005000 0.296985
v -0.035355 -0.555000 0.035355
v -0.160727 -0.005000 0.388029
v -0.019134 -0.555000 0.046194
v 0.000000 -0.145000 0.300000
v 0.000000 -0.495000 0.030000
v 0.150000 -0.145000 0.259808
v 0.015000 -0.495000 0.025981
v 0.259808 -0.145000 0.150000
v 0.025981 -0.495000 0.015000
v 0.300000 -0.145000 0.000000
v 0.030000 -0.495000 -0.000000
v 0.259808 -0.145000 -0.150000
v 0.025981 -0.495000 -0.015000
v 0.150000 -0.145000 -0.259808
v 0.015000 -0.495000 -0.025981
v 0.000000 -0.145000 -0.300000
v 0.000000 -0.495000 -0.030000
v -0.150000 -0.145000 -0.259808
v -0.015000 -0.495000 -0.025981
v -0.259808 -0.145000 -0.150000
v -0.025981 -0.495000 -0.015000
v -0.300000 -0.145000 0.000000
v -0.030000 -0.495000 -0.000000
v -0.259808 -0.145000 0.150000
v -0.025981 -0.495000 0.015000
v -0.150000 -0.145000 0.259808
v -0.015000 -0.495000 0.025981
v 0.000000 0.560000 -0.500000
v 0.000000 0.680000 -0.500000
v 0.191342 0.560000 -0.461940
v 0.191342 0.680000 -0.461940
v 0.353553 0.560000 -0.353553
v 0.353553 0.680000 -0.353553
v 0.461940 0.560000 -0.191342
v 0.461940 0.680000 -0.191342
v 0.500000 0.560000 0.000000
v 0.500000 0.680000 0.000000
v 0.461940 0.560000 0.191342
v 0.461940 0.680000 0.191342
v 0.353553 0.560000 0.353553
v 0.353553 0.680000 0.353553
v 0.191342 0.560000 0.461940
v 0.191342 0.680000 0.461940
v 0.000000 0.560000 0.500000
v 0.000000 0.680000 0.500000
v -0.191342 0.560000 0.461940
v -0.191342 0.680000 0.461940
v -0.353553 0.560000 0.353553
v -0.353553 0.680000 0.353553
v -0.461940 0.560000 0.191342
v -0.461940 0.680000 0.191342
v -0.500000 0.560000 0.000000
v -0.500000 0.680000 0.000000
v -0.461940 0.560000 -0.191342
v -0.461940 0.680000 -0.191342
v -0.353553 0.560000 -0.353553
v -0.353553 0.680000 -0.353553
v -0.191342 0.560000 -0.461940
v -0.191342 0.680000 -0.461940
v 0.000000 -0.680000 -0.500000
v 0.000000 -0.560000 -0.500000
v 0.191342 -0.680000 -0.461940
v 0.191342 -0.560000 -0.461940
v 0.353553 -0.680000 -0.353553
v 0.353553 -0.560000 -0.353553
v 0.461940 -0.680000 -0.191342
v 0.461940 -0.560000 -0.191342
v 0.500000 -0.680000 0.000000
v 0.500000 -0.560000 0.000000
v 0.461940 -0.680000 0.191342
v 0.461940 -0.560000 0.191342
v 0.353553 -0.680000 0.353553
v 0.353553 -0.560000 0.353553
v 0.191342 -0.680000 0.461940
v 0.191342 -0.560000 0.461940
v 0.000000 -0.680000 0.500000
v 0.000000 -0.560000 0.500000
v -0.191342 -0.680000 0.461940
v -0.191342 -0.560000 0.461940
v -0.353553 -0.680000 0.353553
v -0.353553 -0.560000 0.353553
v -0.461940 -0.680000 0.191342
v -0.461940 -0.560000 0.191342
v -0.500000 -0.680000 0.000000
v -0.500000 -0.560000 0.000000
v -0.461940 -0.680000 -0.191342
v -0.461940 -0.560000 -0.191342
v -0.353553 -0.680000 -0.353553
v -0.353553 -0.560000 -0.353553
v -0.191342 -0.680000 -0.461940
v -0.191342 -0.560000 -0.461940
v 0.460000 -0.620000 -0.045000
v 0.460000 0.620000 -0.045000
v 0.491820 -0.620000 -0.031820
v 0.491820 0.620000 -0.031820
v 0.505000 -0.620000 0.000000
v 0.505000 0.620000 0.000000
v 0.491820 -0.620000 0.031820
v 0.491820 0.620000 0.031820
v 0.460000 -0.620000 0.045000
v 0.460000 0.620000 0.045000
v 0.428180 -0.620000 0.031820
v 0.428180 0.620000 0.031820
v 0.415000 -0.620000 0.000000
v 0.415000 0.620000 0.000000
v 0.428180 -0.620000 -0.031820
v 0.428180 0.620000 -0.031820
v -0.230000 -0.620000 -0.443372
v -0.230000 0.620000 -0.443372
v -0.198180 -0.620000 -0.430192
v -0.198180 0.620000 -0.430192
v -0.185000 -0.620000 -0.398372
v -0.185000 0.620000 -0.398372
v -0.198180 -0.620000 -0.366552
v -0.198180 0.620000 -0.366552
v -0.230000 -0.620000 -0.353372
v -0.230000 0.620000 -0.353372
v -0.261820 -0.620000 -0.366552
v -0.261820 0.620000 -0.366552
v -0.275000 -0.620000 -0.398372
v -0.275000 0.620000 -0.398372
v -0.261820 -0.620000 -0.430192
v -0.261820 0.620000 -0.430192
v -0.230000 -0.620000 0.353372
v -0.230000 0.620000 0.353372
v -0.198180 -0.620000 0.366552
v -0.198180 0.620000 0.366552
v -0.185000 -0.620000 0.398372
v -0.185000 0.620000 0.398372
v -0.198180 -0.620000 0.430192
v -0.198180 0.620000 0.430192
v -0.230000 -0.620000 0.443372
v -0.230000 0.620000 0.443372
v -0.261820 -0.620000 0.430192
v -0.261820 0.620000 0.430192
v -0.275000 -0.620000 0.398372
v -0.275000 0.620000 0.398372
v -0.261820 -0.620000 0.366552
v -0.261820 0.620000 0.366552
vn 0.1628 0.5507 -0.8186
vn 0.4637 0.5507 -0.6940
vn 0.6940 0.5507 -0.4637
vn 0.8186 0.5507 -0.1628
vn 0.8186 0.5507 0.1628
vn 0.6940 0.5507 0.4637
vn 0.4637 0.5507 0.6940
vn 0.1628 0.5507 0.8186
vn -0.1628 0.5507 0.8186
vn -0.4637 0.5507 0.6940
vn -0.6940 0.5507 0.4637
vn -0.8186 0.5507 0.1628
vn -0.8186 0.5507 -0.1628
vn -0.6940 0.5507 -0.4637
vn -0.0000 1.0000 -0.0000
vn -0.4637 0.5507 -0.6940
vn -0.1628 0.5507 -0.8186
vn -0.0000 -1.0000 -0.0000
vn 0.1628 -0.5507 0.8186
vn 0.4637 -0.5507 0.6940
vn 0.6940 -0.5507 0.4637
vn 0.8186 -0.5507 0.1628
vn 0.8186 -0.5507 -0.1628
vn 0.6940 -0.5507 -0.4637
vn 0.4637 -0.5507 -0.6940
vn 0.1628 -0.5507 -0.8186
vn -0.1628 -0.5507 -0.8186
vn -0.4637 -0.5507 -0.6940
vn -0.6940 -0.5507 -0.4637
vn -0.8186 -0.5507 -0.1628
vn -0.8186 -0.5507 0.1628
vn -0.6940 -0.5507 0.4637
vn -0.4637 -0.5507 0.6940
vn -0.1628 -0.5507 0.8186
vn 0.2075 -0.5975 0.7745
vn 0.5670 -0.5975 0.5670
vn 0.7745 -0.5975 0.2075
vn 0.7745 -0.5975 -0.2075
vn 0.5670 -0.5975 -0.5670
vn 0.2075 -0.5975 -0.7745
vn -0.2075 -0.5975 -0.7745
vn -0.5670 -0.5975 -0.5670
vn -0.7745 -0.5975 -0.2075
vn -0.7745 -0.5975 0.2075
vn -0.5670 -0.5975 0.5670
vn -0.2075 -0.5975 0.7745
vn 0.1951 -0.0000 -0.9808
vn 0.5556 -0.0000 -0.8315
vn 0.8315 -0.0000 -0.5556
vn 0.9808 -0.0000 -0.1951
vn 0.9808 -0.0000 0.1951
vn 0.8315 -0.0000 0.5556
vn 0.5556 -0.0000 0.8315
vn 0.1951 -0.0000 0.9808
vn -0.1951 -0.0000 0.9808
vn -0.5556 -0.0000 0.8315
vn -0.8315 -0.0000 0.5556
vn -0.9808 -0.0000 0.1951
vn -0.9808 -0.0000 -0.1951
vn -0.8315 -0.0000 -0.5556
vn -0.5556 -0.0000 -0.8315
vn -0.1951 -0.0000 -0.9808
vn 0.3827 -0.0000 -0.9239
vn 0.9239 -0.0000 -0.3827
vn 0.9239 -0.0000 0.3827
vn 0.3827 -0.0000 0.9239
vn -0.3827 -0.0000 0.9239
vn -0.9239 -0.0000 0.3827
vn -0.9239 -0.0000 -0.3827
vn -0.3827 -0.0000 -0.9239
vt 0.802739 0.656161
vt 0.669810 0.621939
vt 0.669810 0.617315
vt 0.802739 0.617315
vt 0.669810 0.612690
vt 0.802739 0.578469
vt 0.669810 0.608770
vt 0.802739 0.545537
vt 0.651870 0.689093
vt 0.518941 0.625860
vt 0.518941 0.621939
vt 0.651870 0.656161
vt 0.518941 0.617315
vt 0.651870 0.617315
vt 0.518941 0.612690
vt 0.651870 0.578469
vt 0.518941 0.608770
vt 0.651870 0.545537
vt 0.802739 0.849402
vt 0.669810 0.794807
vt 0.669810 0.790583
vt 0.802739 0.813918
vt 0.669810 0.785878
vt 0.802739 0.774401
vt 0.669810 0.781410
vt 0.802739 0.736868
vt 0.669810 0.777858
vt 0.802739 0.707033
vt 0.802739 0.527597
vt 0.669810 0.464363
vt 0.669810 0.460443
vt 0.802739 0.494665
vt 0.669810 0.455819
vt 0.802739 0.455819
vt 0.669810 0.451194
vt 0.802739 0.416972
vt 0.737803 0.147139
vt 0.735999 0.142783
vt 0.735999 0.138068
vt 0.737803 0.133711
vt 0.741137 0.130377
vt 0.745493 0.128573
vt 0.750208 0.128573
vt 0.754565 0.130377
vt 0.757899 0.133711
vt 0.759703 0.138068
vt 0.759703 0.142783
vt 0.757899 0.147139
vt 0.754565 0.150473
vt 0.750208 0.152277
vt 0.745493 0.152277
vt 0.741137 0.150473
vt 0.669810 0.447273
vt 0.802739 0.384040
vt 0.802739 0.689093
vt 0.669810 0.625860
vt 0.008970 0.638303
vt 0.008970 0.598696
vt 0.024127 0.562104
vt 0.052133 0.534098
vt 0.088725 0.518941
vt 0.128333 0.518941
vt 0.164925 0.534097
vt 0.192931 0.562104
vt 0.208088 0.598696
vt 0.208088 0.638303
vt 0.192931 0.674895
vt 0.164925 0.702902
vt 0.128333 0.718059
vt 0.088726 0.718059
vt 0.052133 0.702902
vt 0.024127 0.674895
vt 0.518941 0.813918
vt 0.651870 0.790583
vt 0.651870 0.794807
vt 0.518941 0.849402
vt 0.518941 0.384040
vt 0.651870 0.447274
vt 0.651870 0.451194
vt 0.518941 0.416972
vt 0.651870 0.455819
vt 0.518941 0.455819
vt 0.651870 0.460443
vt 0.518941 0.494665
vt 0.651870 0.464364
vt 0.518941 0.527597
vt 0.226028 0.680437
vt 0.358957 0.743670
vt 0.358957 0.747590
vt 0.226028 0.713369
vt 0.358957 0.752215
vt 0.226028 0.752215
vt 0.358957 0.756839
vt 0.226028 0.791061
vt 0.358957 0.760760
vt 0.226028 0.823993
vt 0.226028 0.518941
vt 0.358957 0.582174
vt 0.358957 0.586094
vt 0.226028 0.551873
vt 0.358957 0.590719
vt 0.226028 0.590719
vt 0.358957 0.595343
vt 0.226028 0.629565
vt 0.358957 0.599264
vt 0.226028 0.662497
vt 0.518941 0.707033
vt 0.651870 0.777858
vt 0.651870 0.781410
vt 0.518941 0.736868
vt 0.757899 0.175356
vt 0.759703 0.179712
vt 0.759703 0.184427
vt 0.757899 0.188783
vt 0.754565 0.192117
vt 0.750208 0.193922
vt 0.745493 0.193922
vt 0.741137 0.192117
vt 0.737803 0.188783
vt 0.735999 0.184427
vt 0.735999 0.179712
vt 0.737803 0.175356
vt 0.741137 0.172022
vt 0.745493 0.170217
vt 0.750208 0.170217
vt 0.754565 0.172022
vt 0.651870 0.785878
vt 0.518941 0.774401
vt 0.718059 0.088725
vt 0.718059 0.128333
vt 0.702902 0.164925
vt 0.674895 0.192931
vt 0.638303 0.208088
vt 0.598696 0.208088
vt 0.562104 0.192931
vt 0.534098 0.164925
vt 0.518941 0.128333
vt 0.518941 0.088725
vt 0.534098 0.052133
vt 0.562104 0.024127
vt 0.598696 0.008970
vt 0.638303 0.008970
vt 0.674895 0.024127
vt 0.702902 0.052133
vt 0.461488 0.551403
vt 0.376897 0.568431
vt 0.376897 0.565185
vt 0.461488 0.518941
vt 0.461488 0.741083
vt 0.376897 0.701358
vt 0.376897 0.697890
vt 0.461488 0.706408
vt 0.376897 0.694169
vt 0.461488 0.669197
vt 0.376897 0.691192
vt 0.461488 0.639420
vt 0.735999 0.008970
vt 0.820590 0.048695
vt 0.820590 0.052163
vt 0.735999 0.043645
vt 0.820590 0.055884
vt 0.735999 0.080856
vt 0.820590 0.058862
vt 0.735999 0.110633
vt 0.676953 0.226028
vt 0.761544 0.265753
vt 0.761544 0.269221
vt 0.676953 0.260703
vt 0.761544 0.272942
vt 0.676953 0.297915
vt 0.761544 0.275920
vt 0.676953 0.327691
vt 0.841229 0.347508
vt 0.843105 0.350758
vt 0.843105 0.354511
vt 0.841229 0.357762
vt 0.837978 0.359638
vt 0.834225 0.359638
vt 0.830975 0.357762
vt 0.829098 0.354511
vt 0.829098 0.350758
vt 0.830975 0.347508
vt 0.834225 0.345631
vt 0.837978 0.345631
vt 0.461488 0.621480
vt 0.376897 0.575439
vt 0.376897 0.572185
vt 0.461488 0.588935
vt 0.659013 0.277298
vt 0.659013 0.314830
vt 0.640247 0.347334
vt 0.607743 0.366100
vt 0.570211 0.366100
vt 0.537707 0.347334
vt 0.518941 0.314830
vt 0.518941 0.277298
vt 0.537707 0.244794
vt 0.570211 0.226028
vt 0.607743 0.226028
vt 0.640247 0.244794
vt 0.896624 0.833371
vt 0.867622 0.833371
vt 0.867622 0.787125
vt 0.896624 0.787125
vt 0.867622 0.740880
vt 0.896624 0.740880
vt 0.867622 0.701675
vt 0.896624 0.701675
vt 0.808487 0.327691
vt 0.779484 0.327691
vt 0.779484 0.288486
vt 0.808487 0.288486
vt 0.779484 0.242241
vt 0.808487 0.242241
vt 0.779484 0.195996
vt 0.808487 0.195996
vt 0.779484 0.156791
vt 0.808487 0.156791
vt 0.178801 0.905486
vt 0.149798 0.905486
vt 0.149798 0.863243
vt 0.178801 0.863243
vt 0.149798 0.816199
vt 0.178801 0.816199
vt 0.149798 0.771517
vt 0.178801 0.771517
vt 0.149798 0.735999
vt 0.178801 0.735999
vt 0.849682 0.872575
vt 0.820679 0.872575
vt 0.820679 0.833371
vt 0.849682 0.833371
vt 0.820679 0.787125
vt 0.849682 0.787125
vt 0.820679 0.740880
vt 0.849682 0.740880
vt 0.027014 0.194630
vt 0.008970 0.151068
vt 0.008970 0.103917
vt 0.027014 0.060355
vt 0.060355 0.027014
vt 0.103917 0.008970
vt 0.151068 0.008970
vt 0.194630 0.027014
vt 0.227971 0.060355
vt 0.246015 0.103917
vt 0.246015 0.151068
vt 0.227971 0.194630
vt 0.194630 0.227971
vt 0.151068 0.246015
vt 0.103917 0.246015
vt 0.060355 0.227971
vt 0.820679 0.701675
vt 0.849682 0.701675
vt 0.896624 0.872575
vt 0.867622 0.872575
vt 0.008970 0.406054
vt 0.008970 0.358902
vt 0.027014 0.315340
vt 0.060355 0.281999
vt 0.103917 0.263955
vt 0.151068 0.263955
vt 0.194630 0.281999
vt 0.227971 0.315340
vt 0.246015 0.358902
vt 0.246015 0.406054
vt 0.227971 0.449616
vt 0.194630 0.482957
vt 0.151068 0.501001
vt 0.103917 0.501001
vt 0.060355 0.482957
vt 0.027014 0.449616
vt 0.037973 0.867694
vt 0.008970 0.867694
vt 0.008970 0.821449
vt 0.037973 0.821449
vt 0.008970 0.775204
vt 0.037973 0.775204
vt 0.008970 0.735999
vt 0.037973 0.735999
vt 0.084915 0.906899
vt 0.055913 0.906899
vt 0.055913 0.867694
vt 0.084915 0.867694
vt 0.055913 0.821449
vt 0.084915 0.821449
vt 0.055913 0.775204
vt 0.084915 0.775204
vt 0.055913 0.735999
vt 0.084915 0.735999
vt 0.405900 0.928510
vt 0.376897 0.928510
vt 0.376897 0.886267
vt 0.405900 0.886267
vt 0.376897 0.839224
vt 0.405900 0.839224
vt 0.376897 0.794542
vt 0.405900 0.794542
vt 0.376897 0.759023
vt 0.405900 0.759023
vt 0.131858 0.906899
vt 0.102855 0.906899
vt 0.102855 0.867694
vt 0.131858 0.867694
vt 0.102855 0.821449
vt 0.131858 0.821449
vt 0.102855 0.775204
vt 0.131858 0.775204
vt 0.281999 0.194630
vt 0.263955 0.151068
vt 0.263955 0.103917
vt 0.281999 0.060355
vt 0.315340 0.027014
vt 0.358902 0.008970
vt 0.406054 0.008970
vt 0.449616 0.027014
vt 0.482957 0.060355
vt 0.501001 0.103917
vt 0.501001 0.151068
vt 0.482957 0.194630
vt 0.449616 0.227971
vt 0.406054 0.246015
vt 0.358902 0.246015
vt 0.315340 0.227971
vt 0.102855 0.735999
vt 0.131858 0.735999
vt 0.037973 0.906899
vt 0.008970 0.906899
vt 0.263955 0.406054
vt 0.263955 0.358902
vt 0.281999 0.315340
vt 0.315340 0.281999
vt 0.358902 0.263955
vt 0.406054 0.263955
vt 0.449616 0.281999
vt 0.482957 0.315340
vt 0.501001 0.358902
vt 0.501001 0.406054
vt 0.482957 0.449616
vt 0.449616 0.482957
vt 0.406054 0.501001
vt 0.358902 0.501001
vt 0.315340 0.482957
vt 0.281999 0.449616
vt 0.941505 0.308665
vt 0.941505 0.008970
vt 0.949829 0.008970
vt 0.949829 0.308665
vt 0.955715 0.008970
vt 0.955715 0.308665
vt 0.956442 0.683735
vt 0.956442 0.384040
vt 0.964766 0.384040
vt 0.964766 0.683735
vt 0.891503 0.683735
vt 0.891503 0.384040
vt 0.898096 0.384040
vt 0.898096 0.683735
vt 0.906351 0.384040
vt 0.906351 0.683735
vt 0.838530 0.308665
vt 0.838530 0.008970
vt 0.844416 0.008970
vt 0.844416 0.308665
vt 0.805272 0.365727
vt 0.796948 0.365727
vt 0.791062 0.359841
vt 0.791062 0.351517
vt 0.796948 0.345631
vt 0.805272 0.345631
vt 0.811158 0.351517
vt 0.811158 0.359841
vt 0.852740 0.008970
vt 0.852740 0.308665
vt 0.858626 0.008970
vt 0.858626 0.308665
vt 0.429726 0.817156
vt 0.423840 0.811270
vt 0.423840 0.802946
vt 0.429726 0.797060
vt 0.438050 0.797060
vt 0.443936 0.802946
vt 0.443936 0.811270
vt 0.438050 0.817156
vt 0.973655 0.308665
vt 0.973655 0.008970
vt 0.981979 0.008970
vt 0.981979 0.308665
vt 0.909354 0.308665
vt 0.909354 0.008970
vt 0.915240 0.008970
vt 0.915240 0.308665
vt 0.923565 0.008970
vt 0.923565 0.308665
vt 0.858715 0.683735
vt 0.858715 0.384040
vt 0.865308 0.384040
vt 0.865308 0.683735
vt 0.873563 0.384040
vt 0.873563 0.683735
vt 0.479428 0.818635
vt 0.479428 0.518941
vt 0.485315 0.518941
vt 0.485315 0.818635
vt 0.697049 0.359841
vt 0.691163 0.365727
vt 0.682839 0.365727
vt 0.676953 0.359841
vt 0.676953 0.351517
vt 0.682839 0.345631
vt 0.691163 0.345631
vt 0.697049 0.351517
vt 0.493639 0.518941
vt 0.493639 0.818635
vt 0.499525 0.518941
vt 0.499525 0.818635
vt 0.729199 0.365727
vt 0.720875 0.365727
vt 0.714989 0.359841
vt 0.714989 0.351517
vt 0.720875 0.345631
vt 0.729199 0.345631
vt 0.735085 0.351517
vt 0.735085 0.359841
vt 0.982706 0.683735
vt 0.982706 0.384040
vt 0.991030 0.384040
vt 0.991030 0.683735
vt 0.924291 0.683735
vt 0.924291 0.384040
vt 0.930178 0.384040
vt 0.930178 0.683735
vt 0.938502 0.384040
vt 0.938502 0.683735
vt 0.876566 0.308665
vt 0.876566 0.008970
vt 0.883159 0.008970
vt 0.883159 0.308665
vt 0.891414 0.008970
vt 0.891414 0.308665
vt 0.820679 0.683735
vt 0.820679 0.384040
vt 0.826565 0.384040
vt 0.826565 0.683735
vt 0.773122 0.359841
vt 0.767236 0.365727
vt 0.758912 0.365727
vt 0.753026 0.359841
vt 0.753026 0.351517
vt 0.758912 0.345631
vt 0.767236 0.345631
vt 0.773122 0.351517
vt 0.834889 0.384040
vt 0.834889 0.683735
vt 0.840775 0.384040
vt 0.840775 0.683735
vt 0.438050 0.779120
vt 0.429726 0.779120
vt 0.423840 0.773234
vt 0.423840 0.764909
vt 0.429726 0.759023
vt 0.438050 0.759023
vt 0.443936 0.764909
vt 0.443936 0.773234
s 0
usemtl Hourglass_baked
f 1/1/1 2/2/1 4/3/1 3/4/1
f 3/4/2 4/3/2 6/5/2 5/6/2
f 5/6/3 6/5/3 8/7/3 7/8/3
f 7/9/4 8/10/4 10/11/4 9/12/4
f 9/12/5 10/11/5 12/13/5 11/14/5
f 11/14/6 12/13/6 14/15/6 13/16/6
f 13/16/7 14/15/7 16/17/7 15/18/7
f 15/19/8 16/20/8 18/21/8 17/22/8
f 17/22/9 18/21/9 20/23/9 19/24/9
f 19/24/10 20/23/10 22/25/10 21/26/10
f 21/26/11 22/25/11 24/27/11 23/28/11
f 23/29/12 24/30/12 26/31/12 25/32/12
f 25/32/13 26/31/13 28/33/13 27/34/13
f 27/34/14 28/33/14 30/35/14 29/36/14
f 4/37/15 2/38/15 32/39/15 30/40/15 28/41/15 26/42/15 24/43/15 22/44/15 20/45/15 18/46/15 16/47/15 14/48/15 12/49/15 10/50/15 8/51/15 6/52/15
f 29/36/16 30/35/16 32/53/16 31/54/16
f 31/55/17 32/56/17 2/2/17 1/1/17
f 1/57/18 3/58/18 5/59/18 7/60/18 9/61/18 11/62/18 13/63/18 15/64/18 17/65/18 19/66/18 21/67/18 23/68/18 25/69/18 27/70/18 29/71/18 31/72/18
f 33/73/19 34/74/19 36/75/19 35/76/19
f 35/77/20 36/78/20 38/79/20 37/80/20
f 37/80/21 38/79/21 40/81/21 39/82/21
f 39/82/22 40/81/22 42/83/22 41/84/22
f 41/84/23 42/83/23 44/85/23 43/86/23
f 43/87/24 44/88/24 46/89/24 45/90/24
f 45/90/25 46/89/25 48/91/25 47/92/25
f 47/92/26 48/91/26 50/93/26 49/94/26
f 49/94/27 50/93/27 52/95/27 51/96/27
f 51/97/28 52/98/28 54/99/28 53/100/28
f 53/100/29 54/99/29 56/101/29 55/102/29
f 55/102/30 56/101/30 58/103/30 57/104/30
f 57/104/31 58/103/31 60/105/31 59/106/31
f 59/107/32 60/108/32 62/109/32 61/110/32
f 36/111/18 34/112/18 64/113/18 62/114/18 60/115/18 58/116/18 56/117/18 54/118/18 52/119/18 50/120/18 48/121/18 46/122/18 44/123/18 42/124/18 40/125/18 38/126/18
f 61/110/33 62/109/33 64/127/33 63/128/33
f 63/128/34 64/127/34 34/74/34 33/73/34
f 33/129/15 35/130/15 37/131/15 39/132/15 41/133/15 43/134/15 45/135/15 47/136/15 49/137/15 51/138/15 53/139/15 55/140/15 57/141/15 59/142/15 61/143/15 63/144/15
f 65/145/35 66/146/35 68/147/35 67/148/35
f 67/149/36 68/150/36 70/151/36 69/152/36
f 69/152/37 70/151/37 72/153/37 71/154/37
f 71/154/38 72/153/38 74/155/38 73/156/38
f 73/157/39 74/158/39 76/159/39 75/160/39
f 75/160/40 76/159/40 78/161/40 77/162/40
f 77/162/41 78/161/41 80/163/41 79/164/41
f 79/165/42 80/166/42 82/167/42 81/168/42
f 81/168/43 82/167/43 84/169/43 83/170/43
f 83/170/44 84/169/44 86/171/44 85/172/44
f 68/173/18 66/174/18 88/175/18 86/176/18 84/177/18 82/178/18 80/179/18 78/180/18 76/181/18 74/182/18 72/183/18 70/184/18
f 85/185/45 86/186/45 88/187/45 87/188/45
f 87/188/46 88/187/46 66/146/46 65/145/46
f 65/189/15 67/190/15 69/191/15 71/192/15 73/193/15 75/194/15 77/195/15 79/196/15 81/197/15 83/198/15 85/199/15 87/200/15
f 89/201/47 90/202/47 92/203/47 91/204/47
f 91/204/48 92/203/48 94/205/48 93/206/48
f 93/206/49 94/205/49 96/207/49 95/208/49
f 95/209/50 96/210/50 98/211/50 97/212/50
f 97/212/51 98/211/51 100/213/51 99/214/51
f 99/214/52 100/213/52 102/215/52 101/216/52
f 101/216/53 102/215/53 104/217/53 103/218/53
f 103/219/54 104/220/54 106/221/54 105/222/54
f 105/222/55 106/221/55 108/223/55 107/224/55
f 107/224/56 108/223/56 110/225/56 109/226/56
f 109/226/57 110/225/57 112/227/57 111/228/57
f 111/229/58 112/230/58 114/231/58 113/232/58
f 113/232/59 114/231/59 116/233/59 115/234/59
f 115/234/60 116/233/60 118/235/60 117/236/60
f 92/237/15 90/238/15 120/239/15 118/240/15 116/241/15 114/242/15 112/243/15 110/244/15 108/245/15 106/246/15 104/247/15 102/248/15 100/249/15 98/250/15 96/251/15 94/252/15
f 117/236/61 118/235/61 120/253/61 119/254/61
f 119/255/62 120/256/62 90/202/62 89/201/62
f 89/257/18 91/258/18 93/259/18 95/260/18 97/261/18 99/262/18 101/263/18 103/264/18 105/265/18 107/266/18 109/267/18 111/268/18 113/269/18 115/270/18 117/271/18 119/272/18
f 121/273/47 122/274/47 124/275/47 123/276/47
f 123/276/48 124/275/48 126/277/48 125/278/48
f 125/278/49 126/277/49 128/279/49 127/280/49
f 127/281/50 128/282/50 130/283/50 129/284/50
f 129/284/51 130/283/51 132/285/51 131/286/51
f 131/286/52 132/285/52 134/287/52 133/288/52
f 133/288/53 134/287/53 136/289/53 135/290/53
f 135/291/54 136/292/54 138/293/54 137/294/54
f 137/294/55 138/293/55 140/295/55 139/296/55
f 139/296/56 140/295/56 142/297/56 141/298/56
f 141/298/57 142/297/57 144/299/57 143/300/57
f 143/301/58 144/302/58 146/303/58 145/304/58
f 145/304/59 146/303/59 148/305/59 147/306/59
f 147/306/60 148/305/60 150/307/60 149/308/60
f 124/309/15 122/310/15 152/311/15 150/312/15 148/313/15 146/314/15 144/315/15 142/316/15 140/317/15 138/318/15 136/319/15 134/320/15 132/321/15 130/322/15 128/323/15 126/324/15
f 149/308/61 150/307/61 152/325/61 151/326/61
f 151/327/62 152/328/62 122/274/62 121/273/62
f 121/329/18 123/330/18 125/331/18 127/332/18 129/333/18 131/334/18 133/335/18 135/336/18 137/337/18 139/338/18 141/339/18 143/340/18 145/341/18 147/342/18 149/343/18 151/344/18
f 153/345/63 154/346/63 156/347/63 155/348/63
f 155/348/64 156/347/64 158/349/64 157/350/64
f 157/351/65 158/352/65 160/353/65 159/354/65
f 159/355/66 160/356/66 162/357/66 161/358/66
f 161/358/67 162/357/67 164/359/67 163/360/67
f 163/361/68 164/362/68 166/363/68 165/364/68
f 156/365/15 154/366/15 168/367/15 166/368/15 164/369/15 162/370/15 160/371/15 158/372/15
f 165/364/69 166/363/69 168/373/69 167/374/69
f 167/374/70 168/373/70 154/375/70 153/376/70
f 153/377/18 155/378/18 157/379/18 159/380/18 161/381/18 163/382/18 165/383/18 167/384/18
f 169/385/63 170/386/63 172/387/63 171/388/63
f 171/389/64 172/390/64 174/391/64 173/392/64
f 173/392/65 174/391/65 176/393/65 175/394/65
f 175/395/66 176/396/66 178/397/66 177/398/66
f 177/398/67 178/397/67 180/399/67 179/400/67
f 179/401/68 180/402/68 182/403/68 181/404/68
f 172/405/15 170/406/15 184/407/15 182/408/15 180/409/15 178/410/15 176/411/15 174/412/15
f 181/404/69 182/403/69 184/413/69 183/414/69
f 183/414/70 184/413/70 170/415/70 169/416/70
f 169/417/18 171/418/18 173/419/18 175/420/18 177/421/18 179/422/18 181/423/18 183/424/18
f 185/425/63 186/426/63 188/427/63 187/428/63
f 187/429/64 188/430/64 190/431/64 189/432/64
f 189/432/65 190/431/65 192/433/65 191/434/65
f 191/435/66 192/436/66 194/437/66 193/438/66
f 193/438/67 194/437/67 196/439/67 195/440/67
f 195/441/68 196/442/68 198/443/68 197/444/68
f 188/445/15 186/446/15 200/447/15 198/448/15 196/449/15 194/450/15 192/451/15 190/452/15
f 197/444/69 198/443/69 200/453/69 199/454/69
f 199/454/70 200/453/70 186/455/70 185/456/70
f 185/457/18 187/458/18 189/459/18 191/460/18 193/461/18 195/462/18 197/463/18 199/464/18
