# Blender 5.2.0 LTS
# www.blender.org
mtllib Hourglass.mtl
o 円錐
v 0.000000 0.005000 -0.420000
v 0.000000 0.555000 -0.050000
v 0.160727 0.005000 -0.388029
v 0.019134 0.555000 -0.046194
v 0.296985 0.005000 -0.296985
v 0.035355 0.555000 -0.035355
v 0.388029 0.005000 -0.160727
v 0.046194 0.555000 -0.019134
v 0.420000 0.005000 0.000000
v 0.050000 0.555000 0.000000
v 0.388029 0.005000 0.160727
v 0.046194 0.555000 0.019134
v 0.296985 0.005000 0.296985
v 0.035355 0.555000 0.035355
v 0.160727 0.005000 0.388029
v 0.019134 0.555000 0.046194
v 0.000000 0.005000 0.420000
v 0.000000 0.555000 0.050000
v -0.160727 0.005000 0.388029
v -0.019134 0.555000 0.046194
v -0.296985 0.005000 0.296985
v -0.035355 0.555000 0.035355
v -0.388029 0.005000 0.160727
v -0.046194 0.555000 0.019134
v -0.420000 0.005000 0.000000
v -0.050000 0.555000 0.000000
v -0.388029 0.005000 -0.160727
v -0.046194 0.555000 -0.019134
v -0.296985 0.005000 -0.296985
v -0.035355 0.555000 -0.035355
v -0.160727 0.005000 -0.388029
v -0.019134 0.555000 -0.046194
vn 0.1628 0.5507 -0.8186
vn 0.4637 0.5507 -0.6940
vn 0.6940 0.5507 -0.4637
vn 0.8186 0.5507 -0.1628
vn 0.8186 0.5507 0.1628
vn 0.6940 0.5507 0.4637
vn 0.4637 0.5507 0.6940
vn 0.1628 0.5507 0.8186
vn -0.1628 0.5507 0.8186
vn -0.4637 0.5507 0.6940
vn -0.6940 0.5507 0.4637
vn -0.8186 0.5507 0.1628
vn -0.8186 0.5507 -0.1628
vn -0.6940 0.5507 -0.4637
vn -0.0000 1.0000 -0.0000
vn -0.4637 0.5507 -0.6940
vn -0.1628 0.5507 -0.8186
vn -0.0000 -1.0000 -0.0000
vt 1.000000 0.500000
vt 1.000000 1.000000
vt 0.937500 1.000000
vt 0.937500 0.500000
vt 0.875000 1.000000
vt 0.875000 0.500000
vt 0.812500 1.000000
vt 0.812500 0.500000
vt 0.750000 1.000000
vt 0.750000 0.500000
vt 0.687500 1.000000
vt 0.687500 0.500000
vt 0.625000 1.000000
vt 0.625000 0.500000
vt 0.562500 1.000000
vt 0.562500 0.500000
vt 0.500000 1.000000
vt 0.500000 0.500000
vt 0.437500 1.000000
vt 0.437500 0.500000
vt 0.375000 1.000000
vt 0.375000 0.500000
vt 0.312500 1.000000
vt 0.312500 0.500000
vt 0.250000 1.000000
vt 0.250000 0.500000
vt 0.187500 1.000000
vt 0.187500 0.500000
vt 0.125000 1.000000
vt 0.125000 0.500000
vt 0.341844 0.471731
vt 0.250000 0.490000
vt 0.158156 0.471731
vt 0.080294 0.419706
vt 0.028269 0.341844
vt 0.010000 0.250000
vt 0.028269 0.158156
vt 0.080294 0.080294
vt 0.158156 0.028269
vt 0.250000 0.010000
vt 0.341844 0.028269
vt 0.419706 0.080294
vt 0.471731 0.158156
vt 0.490000 0.250000
vt 0.471731 0.341844
vt 0.419706 0.419706
vt 0.062500 1.000000
vt 0.062500 0.500000
vt 0.000000 1.000000
vt 0.000000 0.500000
vt 0.750000 0.490000
vt 0.841844 0.471731
vt 0.919706 0.419706
vt 0.971731 0.341844
vt 0.990000 0.250000
vt 0.971731 0.158156
vt 0.919706 0.080294
vt 0.841844 0.028269
vt 0.750000 0.010000
vt 0.658156 0.028269
vt 0.580294 0.080294
vt 0.528269 0.158156
vt 0.510000 0.250000
vt 0.528269 0.341844
vt 0.580294 0.419706
vt 0.658156 0.471731
s 0
usemtl hg_glass
f 1/1/1 2/2/1 4/3/1 3/4/1
f 3/4/2 4/3/2 6/5/2 5/6/2
f 5/6/3 6/5/3 8/7/3 7/8/3
f 7/8/4 8/7/4 10/9/4 9/10/4
f 9/10/5 10/9/5 12/11/5 11/12/5
f 11/12/6 12/11/6 14/13/6 13/14/6
f 13/14/7 14/13/7 16/15/7 15/16/7
f 15/16/8 16/15/8 18/17/8 17/18/8
f 17/18/9 18/17/9 20/19/9 19/20/9
f 19/20/10 20/19/10 22/21/10 21/22/10
f 21/22/11 22/21/11 24/23/11 23/24/11
f 23/24/12 24/23/12 26/25/12 25/26/12
f 25/26/13 26/25/13 28/27/13 27/28/13
f 27/28/14 28/27/14 30/29/14 29/30/14
f 4/31/15 2/32/15 32/33/15 30/34/15 28/35/15 26/36/15 24/37/15 22/38/15 20/39/15 18/40/15 16/41/15 14/42/15 12/43/15 10/44/15 8/45/15 6/46/15
f 29/30/16 30/29/16 32/47/16 31/48/16
f 31/48/17 32/47/17 2/49/17 1/50/17
f 1/51/18 3/52/18 5/53/18 7/54/18 9/55/18 11/56/18 13/57/18 15/58/18 17/59/18 19/60/18 21/61/18 23/62/18 25/63/18 27/64/18 29/65/18 31/66/18
o 円錐.001
v 0.000000 -0.005000 0.420000
v 0.000000 -0.555000 0.050000
v 0.160727 -0.005000 0.388029
v 0.019134 -0.555000 0.046194
v 0.296985 -0.005000 0.296985
v 0.035355 -0.555000 0.035355
v 0.388029 -0.005000 0.160727
v 0.046194 -0.555000 0.019134
v 0.420000 -0.005000 0.000000
v 0.050000 -0.555000 -0.000000
v 0.388029 -0.005000 -0.160727
v 0.046194 -0.555000 -0.019134
v 0.296985 -0.005000 -0.296985
v 0.035355 -0.555000 -0.035355
v 0.160727 -0.005000 -0.388029
v 0.019134 -0.555000 -0.046194
v 0.000000 -0.005000 -0.420000
v 0.000000 -0.555000 -0.050000
v -0.160727 -0.005000 -0.388029
v -0.019134 -0.555000 -0.046194
v -0.296985 -0.005000 -0.296985
v -0.035355 -0.555000 -0.035355
v -0.388029 -0.005000 -0.160727
v -0.046194 -0.555000 -0.019134
v -0.420000 -0.005000 0.000000
v -0.050000 -0.555000 -0.000000
v -0.388029 -0.005000 0.160727
v -0.046194 -0.555000 0.019134
v -0.296985 -0.005000 0.296985
v -0.035355 -0.555000 0.035355
v -0.160727 -0.005000 0.388029
v -0.019134 -0.555000 0.046194
vn 0.1628 -0.5507 0.8186
vn 0.4637 -0.5507 0.6940
vn 0.6940 -0.5507 0.4637
vn 0.8186 -0.5507 0.1628
vn 0.8186 -0.5507 -0.1628
vn 0.6940 -0.5507 -0.4637
vn 0.4637 -0.5507 -0.6940
vn 0.1628 -0.5507 -0.8186
vn -0.1628 -0.5507 -0.8186
vn -0.4637 -0.5507 -0.6940
vn -0.6940 -0.5507 -0.4637
vn -0.8186 -0.5507 -0.1628
vn -0.8186 -0.5507 0.1628
vn -0.6940 -0.5507 0.4637
vn -0.0000 -1.0000 -0.0000
vn -0.4637 -0.5507 0.6940
vn -0.1628 -0.5507 0.8186
vn -0.0000 1.0000 -0.0000
vt 1.000000 0.500000
vt 1.000000 1.000000
vt 0.937500 1.000000
vt 0.937500 0.500000
vt 0.875000 1.000000
vt 0.875000 0.500000
vt 0.812500 1.000000
vt 0.812500 0.500000
vt 0.750000 1.000000
vt 0.750000 0.500000
vt 0.687500 1.000000
vt 0.687500 0.500000
vt 0.625000 1.000000
vt 0.625000 0.500000
vt 0.562500 1.000000
vt 0.562500 0.500000
vt 0.500000 1.000000
vt 0.500000 0.500000
vt 0.437500 1.000000
vt 0.437500 0.500000
vt 0.375000 1.000000
vt 0.375000 0.500000
vt 0.312500 1.000000
vt 0.312500 0.500000
vt 0.250000 1.000000
vt 0.250000 0.500000
vt 0.187500 1.000000
vt 0.187500 0.500000
vt 0.125000 1.000000
vt 0.125000 0.500000
vt 0.341844 0.471731
vt 0.250000 0.490000
vt 0.158156 0.471731
vt 0.080294 0.419706
vt 0.028269 0.341844
vt 0.010000 0.250000
vt 0.028269 0.158156
vt 0.080294 0.080294
vt 0.158156 0.028269
vt 0.250000 0.010000
vt 0.341844 0.028269
vt 0.419706 0.080294
vt 0.471731 0.158156
vt 0.490000 0.250000
vt 0.471731 0.341844
vt 0.419706 0.419706
vt 0.062500 1.000000
vt 0.062500 0.500000
vt 0.000000 1.000000
vt 0.000000 0.500000
vt 0.750000 0.490000
vt 0.841844 0.471731
vt 0.919706 0.419706
vt 0.971731 0.341844
vt 0.990000 0.250000
vt 0.971731 0.158156
vt 0.919706 0.080294
vt 0.841844 0.028269
vt 0.750000 0.010000
vt 0.658156 0.028269
vt 0.580294 0.080294
vt 0.528269 0.158156
vt 0.510000 0.250000
vt 0.528269 0.341844
vt 0.580294 0.419706
vt 0.658156 0.471731
s 0
usemtl hg_glass
f 33/67/19 34/68/19 36/69/19 35/70/19
f 35/70/20 36/69/20 38/71/20 37/72/20
f 37/72/21 38/71/21 40/73/21 39/74/21
f 39/74/22 40/73/22 42/75/22 41/76/22
f 41/76/23 42/75/23 44/77/23 43/78/23
f 43/78/24 44/77/24 46/79/24 45/80/24
f 45/80/25 46/79/25 48/81/25 47/82/25
f 47/82/26 48/81/26 50/83/26 49/84/26
f 49/84/27 50/83/27 52/85/27 51/86/27
f 51/86/28 52/85/28 54/87/28 53/88/28
f 53/88/29 54/87/29 56/89/29 55/90/29
f 55/90/30 56/89/30 58/91/30 57/92/30
f 57/92/31 58/91/31 60/93/31 59/94/31
f 59/94/32 60/93/32 62/95/32 61/96/32
f 36/97/33 34/98/33 64/99/33 62/100/33 60/101/33 58/102/33 56/103/33 54/104/33 52/105/33 50/106/33 48/107/33 46/108/33 44/109/33 42/110/33 40/111/33 38/112/33
f 61/96/34 62/95/34 64/113/34 63/114/34
f 63/114/35 64/113/35 34/115/35 33/116/35
f 33/117/36 35/118/36 37/119/36 39/120/36 41/121/36 43/122/36 45/123/36 47/124/36 49/125/36 51/126/36 53/127/36 55/128/36 57/129/36 59/130/36 61/131/36 63/132/36
o 円錐.002
v 0.000000 -0.145000 0.300000
v 0.000000 -0.495000 0.030000
v 0.150000 -0.145000 0.259808
v 0.015000 -0.495000 0.025981
v 0.259808 -0.145000 0.150000
v 0.025981 -0.495000 0.015000
v 0.300000 -0.145000 0.000000
v 0.030000 -0.495000 -0.000000
v 0.259808 -0.145000 -0.150000
v 0.025981 -0.495000 -0.015000
v 0.150000 -0.145000 -0.259808
v 0.015000 -0.495000 -0.025981
v 0.000000 -0.145000 -0.300000
v 0.000000 -0.495000 -0.030000
v -0.150000 -0.145000 -0.259808
v -0.015000 -0.495000 -0.025981
v -0.259808 -0.145000 -0.150000
v -0.025981 -0.495000 -0.015000
v -0.300000 -0.145000 0.000000
v -0.030000 -0.495000 -0.000000
v -0.259808 -0.145000 0.150000
v -0.025981 -0.495000 0.015000
v -0.150000 -0.145000 0.259808
v -0.015000 -0.495000 0.025981
vn 0.2075 -0.5975 0.7745
vn 0.5670 -0.5975 0.5670
vn 0.7745 -0.5975 0.2075
vn 0.7745 -0.5975 -0.2075
vn 0.5670 -0.5975 -0.5670
vn 0.2075 -0.5975 -0.7745
vn -0.2075 -0.5975 -0.7745
vn -0.5670 -0.5975 -0.5670
vn -0.7745 -0.5975 -0.2075
vn -0.7745 -0.5975 0.2075
vn -0.0000 -1.0000 -0.0000
vn -0.5670 -0.5975 0.5670
vn -0.2075 -0.5975 0.7745
vn -0.0000 1.0000 -0.0000
vt 1.000000 0.500000
vt 1.000000 1.000000
vt 0.916667 1.000000
vt 0.916667 0.500000
vt 0.833333 1.000000
vt 0.833333 0.500000
vt 0.750000 1.000000
vt 0.750000 0.500000
vt 0.666667 1.000000
vt 0.666667 0.500000
vt 0.583333 1.000000
vt 0.583333 0.500000
vt 0.500000 1.000000
vt 0.500000 0.500000
vt 0.416667 1.000000
vt 0.416667 0.500000
vt 0.333333 1.000000
vt 0.333333 0.500000
vt 0.250000 1.000000
vt 0.250000 0.500000
vt 0.166667 1.000000
vt 0.166667 0.500000
vt 0.370000 0.457846
vt 0.250000 0.490000
vt 0.130000 0.457846
vt 0.042154 0.370000
vt 0.010000 0.250000
vt 0.042154 0.130000
vt 0.130000 0.042154
vt 0.250000 0.010000
vt 0.370000 0.042154
vt 0.457846 0.130000
vt 0.490000 0.250000
vt 0.457846 0.370000
vt 0.083333 1.000000
vt 0.083333 0.500000
vt 0.000000 1.000000
vt 0.000000 0.500000
vt 0.750000 0.490000
vt 0.870000 0.457846
vt 0.957846 0.370000
vt 0.990000 0.250000
vt 0.957846 0.130000
vt 0.870000 0.042154
vt 0.750000 0.010000
vt 0.630000 0.042154
vt 0.542154 0.130000
vt 0.510000 0.250000
vt 0.542154 0.370000
vt 0.630000 0.457846
s 0
usemtl hg_sand
f 65/133/37 66/134/37 68/135/37 67/136/37
f 67/136/38 68/135/38 70/137/38 69/138/38
f 69/138/39 70/137/39 72/139/39 71/140/39
f 71/140/40 72/139/40 74/141/40 73/142/40
f 73/142/41 74/141/41 76/143/41 75/144/41
f 75/144/42 76/143/42 78/145/42 77/146/42
f 77/146/43 78/145/43 80/147/43 79/148/43
f 79/148/44 80/147/44 82/149/44 81/150/44
f 81/150/45 82/149/45 84/151/45 83/152/45
f 83/152/46 84/151/46 86/153/46 85/154/46
f 68/155/47 66/156/47 88/157/47 86/158/47 84/159/47 82/160/47 80/161/47 78/162/47 76/163/47 74/164/47 72/165/47 70/166/47
f 85/154/48 86/153/48 88/167/48 87/168/48
f 87/168/49 88/167/49 66/169/49 65/170/49
f 65/171/50 67/172/50 69/173/50 71/174/50 73/175/50 75/176/50 77/177/50 79/178/50 81/179/50 83/180/50 85/181/50 87/182/50
o 円柱.001
v 0.000000 0.560000 -0.500000
v 0.000000 0.680000 -0.500000
v 0.191342 0.560000 -0.461940
v 0.191342 0.680000 -0.461940
v 0.353553 0.560000 -0.353553
v 0.353553 0.680000 -0.353553
v 0.461940 0.560000 -0.191342
v 0.461940 0.680000 -0.191342
v 0.500000 0.560000 0.000000
v 0.500000 0.680000 0.000000
v 0.461940 0.560000 0.191342
v 0.461940 0.680000 0.191342
v 0.353553 0.560000 0.353553
v 0.353553 0.680000 0.353553
v 0.191342 0.560000 0.461940
v 0.191342 0.680000 0.461940
v 0.000000 0.560000 0.500000
v 0.000000 0.680000 0.500000
v -0.191342 0.560000 0.461940
v -0.191342 0.680000 0.461940
v -0.353553 0.560000 0.353553
v -0.353553 0.680000 0.353553
v -0.461940 0.560000 0.191342
v -0.461940 0.680000 0.191342
v -0.500000 0.560000 0.000000
v -0.500000 0.680000 0.000000
v -0.461940 0.560000 -0.191342
v -0.461940 0.680000 -0.191342
v -0.353553 0.560000 -0.353553
v -0.353553 0.680000 -0.353553
v -0.191342 0.560000 -0.461940
v -0.191342 0.680000 -0.461940
vn 0.1951 -0.0000 -0.9808
vn 0.5556 -0.0000 -0.8315
vn 0.8315 -0.0000 -0.5556
vn 0.9808 -0.0000 -0.1951
vn 0.9808 -0.0000 0.1951
vn 0.8315 -0.0000 0.5556
vn 0.5556 -0.0000 0.8315
vn 0.1951 -0.0000 0.9808
vn -0.1951 -0.0000 0.9808
vn -0.5556 -0.0000 0.8315
vn -0.8315 -0.0000 0.5556
vn -0.9808 -0.0000 0.1951
vn -0.9808 -0.0000 -0.1951
vn -0.8315 -0.0000 -0.5556
vn -0.0000 1.0000 -0.0000
vn -0.5556 -0.0000 -0.8315
vn -0.1951 -0.0000 -0.9808
vn -0.0000 -1.0000 -0.0000
vt 1.000000 0.500000
vt 1.000000 1.000000
vt 0.937500 1.000000
vt 0.937500 0.500000
vt 0.875000 1.000000
vt 0.875000 0.500000
vt 0.812500 1.000000
vt 0.812500 0.500000
vt 0.750000 1.000000
vt 0.750000 0.500000
vt 0.687500 1.000000
vt 0.687500 0.500000
vt 0.625000 1.000000
vt 0.625000 0.500000
vt 0.562500 1.000000
vt 0.562500 0.500000
vt 0.500000 1.000000
vt 0.500000 0.500000
vt 0.437500 1.000000
vt 0.437500 0.500000
vt 0.375000 1.000000
vt 0.375000 0.500000
vt 0.312500 1.000000
vt 0.312500 0.500000
vt 0.250000 1.000000
vt 0.250000 0.500000
vt 0.187500 1.000000
vt 0.187500 0.500000
vt 0.125000 1.000000
vt 0.125000 0.500000
vt 0.341844 0.471731
vt 0.250000 0.490000
vt 0.158156 0.471731
vt 0.080294 0.419706
vt 0.028269 0.341844
vt 0.010000 0.250000
vt 0.028269 0.158156
vt 0.080294 0.080294
vt 0.158156 0.028269
vt 0.250000 0.010000
vt 0.341844 0.028269
vt 0.419706 0.080294
vt 0.471731 0.158156
vt 0.490000 0.250000
vt 0.471731 0.341844
vt 0.419706 0.419706
vt 0.062500 1.000000
vt 0.062500 0.500000
vt 0.000000 1.000000
vt 0.000000 0.500000
vt 0.750000 0.490000
vt 0.841844 0.471731
vt 0.919706 0.419706
vt 0.971731 0.341844
vt 0.990000 0.250000
vt 0.971731 0.158156
vt 0.919706 0.080294
vt 0.841844 0.028269
vt 0.750000 0.010000
vt 0.658156 0.028269
vt 0.580294 0.080294
vt 0.528269 0.158156
vt 0.510000 0.250000
vt 0.528269 0.341844
vt 0.580294 0.419706
vt 0.658156 0.471731
s 0
usemtl hg_frame
f 89/183/51 90/184/51 92/185/51 91/186/51
f 91/186/52 92/185/52 94/187/52 93/188/52
f 93/188/53 94/187/53 96/189/53 95/190/53
f 95/190/54 96/189/54 98/191/54 97/192/54
f 97/192/55 98/191/55 100/193/55 99/194/55
f 99/194/56 100/193/56 102/195/56 101/196/56
f 101/196/57 102/195/57 104/197/57 103/198/57
f 103/198/58 104/197/58 106/199/58 105/200/58
f 105/200/59 106/199/59 108/201/59 107/202/59
f 107/202/60 108/201/60 110/203/60 109/204/60
f 109/204/61 110/203/61 112/205/61 111/206/61
f 111/206/62 112/205/62 114/207/62 113/208/62
f 113/208/63 114/207/63 116/209/63 115/210/63
f 115/210/64 116/209/64 118/211/64 117/212/64
f 92/213/65 90/214/65 120/215/65 118/216/65 116/217/65 114/218/65 112/219/65 110/220/65 108/221/65 106/222/65 104/223/65 102/224/65 100/225/65 98/226/65 96/227/65 94/228/65
f 117/212/66 118/211/66 120/229/66 119/230/66
f 119/230/67 120/229/67 90/231/67 89/232/67
f 89/233/68 91/234/68 93/235/68 95/236/68 97/237/68 99/238/68 101/239/68 103/240/68 105/241/68 107/242/68 109/243/68 111/244/68 113/245/68 115/246/68 117/247/68 119/248/68
o 円柱.002
v 0.000000 -0.680000 -0.500000
v 0.000000 -0.560000 -0.500000
v 0.191342 -0.680000 -0.461940
v 0.191342 -0.560000 -0.461940
v 0.353553 -0.680000 -0.353553
v 0.353553 -0.560000 -0.353553
v 0.461940 -0.680000 -0.191342
v 0.461940 -0.560000 -0.191342
v 0.500000 -0.680000 0.000000
v 0.500000 -0.560000 0.000000
v 0.461940 -0.680000 0.191342
v 0.461940 -0.560000 0.191342
v 0.353553 -0.680000 0.353553
v 0.353553 -0.560000 0.353553
v 0.191342 -0.680000 0.461940
v 0.191342 -0.560000 0.461940
v 0.000000 -0.680000 0.500000
v 0.000000 -0.560000 0.500000
v -0.191342 -0.680000 0.461940
v -0.191342 -0.560000 0.461940
v -0.353553 -0.680000 0.353553
v -0.353553 -0.560000 0.353553
v -0.461940 -0.680000 0.191342
v -0.461940 -0.560000 0.191342
v -0.500000 -0.680000 0.000000
v -0.500000 -0.560000 0.000000
v -0.461940 -0.680000 -0.191342
v -0.461940 -0.560000 -0.191342
v -0.353553 -0.680000 -0.353553
v -0.353553 -0.560000 -0.353553
v -0.191342 -0.680000 -0.461940
v -0.191342 -0.560000 -0.461940
vn 0.1951 -0.0000 -0.9808
vn 0.5556 -0.0000 -0.8315
vn 0.8315 -0.0000 -0.5556
vn 0.9808 -0.0000 -0.1951
vn 0.9808 -0.0000 0.1951
vn 0.8315 -0.0000 0.5556
vn 0.5556 -0.0000 0.8315
vn 0.1951 -0.0000 0.9808
vn -0.1951 -0.0000 0.9808
vn -0.5556 -0.0000 0.8315
vn -0.8315 -0.0000 0.5556
vn -0.9808 -0.0000 0.1951
vn -0.9808 -0.0000 -0.1951
vn -0.8315 -0.0000 -0.5556
vn -0.0000 1.0000 -0.0000
vn -0.5556 -0.0000 -0.8315
vn -0.1951 -0.0000 -0.9808
vn -0.0000 -1.0000 -0.0000
vt 1.000000 0.500000
vt 1.000000 1.000000
vt 0.937500 1.000000
vt 0.937500 0.500000
vt 0.875000 1.000000
vt 0.875000 0.500000
vt 0.812500 1.000000
vt 0.812500 0.500000
vt 0.750000 1.000000
vt 0.750000 0.500000
vt 0.687500 1.000000
vt 0.687500 0.500000
vt 0.625000 1.000000
vt 0.625000 0.500000
vt 0.562500 1.000000
vt 0.562500 0.500000
vt 0.500000 1.000000
vt 0.500000 0.500000
vt 0.437500 1.000000
vt 0.437500 0.500000
vt 0.375000 1.000000
vt 0.375000 0.500000
vt 0.312500 1.000000
vt 0.312500 0.500000
vt 0.250000 1.000000
vt 0.250000 0.500000
vt 0.187500 1.000000
vt 0.187500 0.500000
vt 0.125000 1.000000
vt 0.125000 0.500000
vt 0.341844 0.471731
vt 0.250000 0.490000
vt 0.158156 0.471731
vt 0.080294 0.419706
vt 0.028269 0.341844
vt 0.010000 0.250000
vt 0.028269 0.158156
vt 0.080294 0.080294
vt 0.158156 0.028269
vt 0.250000 0.010000
vt 0.341844 0.028269
vt 0.419706 0.080294
vt 0.471731 0.158156
vt 0.490000 0.250000
vt 0.471731 0.341844
vt 0.419706 0.419706
vt 0.062500 1.000000
vt 0.062500 0.500000
vt 0.000000 1.000000
vt 0.000000 0.500000
vt 0.750000 0.490000
vt 0.841844 0.471731
vt 0.919706 0.419706
vt 0.971731 0.341844
vt 0.990000 0.250000
vt 0.971731 0.158156
vt 0.919706 0.080294
vt 0.841844 0.028269
vt 0.750000 0.010000
vt 0.658156 0.028269
vt 0.580294 0.080294
vt 0.528269 0.158156
vt 0.510000 0.250000
vt 0.528269 0.341844
vt 0.580294 0.419706
vt 0.658156 0.471731
s 0
usemtl hg_frame
f 121/249/69 122/250/69 124/251/69 123/252/69
f 123/252/70 124/251/70 126/253/70 125/254/70
f 125/254/71 126/253/71 128/255/71 127/256/71
f 127/256/72 128/255/72 130/257/72 129/258/72
f 129/258/73 130/257/73 132/259/73 131/260/73
f 131/260/74 132/259/74 134/261/74 133/262/74
f 133/262/75 134/261/75 136/263/75 135/264/75
f 135/264/76 136/263/76 138/265/76 137/266/76
f 137/266/77 138/265/77 140/267/77 139/268/77
f 139/268/78 140/267/78 142/269/78 141/270/78
f 141/270/79 142/269/79 144/271/79 143/272/79
f 143/272/80 144/271/80 146/273/80 145/274/80
f 145/274/81 146/273/81 148/275/81 147/276/81
f 147/276/82 148/275/82 150/277/82 149/278/82
f 124/279/83 122/280/83 152/281/83 150/282/83 148/283/83 146/284/83 144/285/83 142/286/83 140/287/83 138/288/83 136/289/83 134/290/83 132/291/83 130/292/83 128/293/83 126/294/83
f 149/278/84 150/277/84 152/295/84 151/296/84
f 151/296/85 152/295/85 122/297/85 121/298/85
f 121/299/86 123/300/86 125/301/86 127/302/86 129/303/86 131/304/86 133/305/86 135/306/86 137/307/86 139/308/86 141/309/86 143/310/86 145/311/86 147/312/86 149/313/86 151/314/86
o 円柱.003
v 0.460000 -0.620000 -0.045000
v 0.460000 0.620000 -0.045000
v 0.491820 -0.620000 -0.031820
v 0.491820 0.620000 -0.031820
v 0.505000 -0.620000 0.000000
v 0.505000 0.620000 0.000000
v 0.491820 -0.620000 0.031820
v 0.491820 0.620000 0.031820
v 0.460000 -0.620000 0.045000
v 0.460000 0.620000 0.045000
v 0.428180 -0.620000 0.031820
v 0.428180 0.620000 0.031820
v 0.415000 -0.620000 0.000000
v 0.415000 0.620000 0.000000
v 0.428180 -0.620000 -0.031820
v 0.428180 0.620000 -0.031820
vn 0.3827 -0.0000 -0.9239
vn 0.9239 -0.0000 -0.3827
vn 0.9239 -0.0000 0.3827
vn 0.3827 -0.0000 0.9239
vn -0.3827 -0.0000 0.9239
vn -0.9239 -0.0000 0.3827
vn -0.0000 1.0000 -0.0000
vn -0.9239 -0.0000 -0.3827
vn -0.3827 -0.0000 -0.9239
vn -0.0000 -1.0000 -0.0000
vt 1.000000 0.500000
vt 1.000000 1.000000
vt 0.875000 1.000000
vt 0.875000 0.500000
vt 0.750000 1.000000
vt 0.750000 0.500000
vt 0.625000 1.000000
vt 0.625000 0.500000
vt 0.500000 1.000000
vt 0.500000 0.500000
vt 0.375000 1.000000
vt 0.375000 0.500000
vt 0.250000 1.000000
vt 0.250000 0.500000
vt 0.419706 0.419706
vt 0.250000 0.490000
vt 0.080294 0.419706
vt 0.010000 0.250000
vt 0.080294 0.080294
vt 0.250000 0.010000
vt 0.419706 0.080294
vt 0.490000 0.250000
vt 0.125000 1.000000
vt 0.125000 0.500000
vt 0.000000 1.000000
vt 0.000000 0.500000
vt 0.750000 0.490000
vt 0.919706 0.419706
vt 0.990000 0.250000
vt 0.919706 0.080294
vt 0.750000 0.010000
vt 0.580294 0.080294
vt 0.510000 0.250000
vt 0.580294 0.419706
s 0
usemtl hg_frame
f 153/315/87 154/316/87 156/317/87 155/318/87
f 155/318/88 156/317/88 158/319/88 157/320/88
f 157/320/89 158/319/89 160/321/89 159/322/89
f 159/322/90 160/321/90 162/323/90 161/324/90
f 161/324/91 162/323/91 164/325/91 163/326/91
f 163/326/92 164/325/92 166/327/92 165/328/92
f 156/329/93 154/330/93 168/331/93 166/332/93 164/333/93 162/334/93 160/335/93 158/336/93
f 165/328/94 166/327/94 168/337/94 167/338/94
f 167/338/95 168/337/95 154/339/95 153/340/95
f 153/341/96 155/342/96 157/343/96 159/344/96 161/345/96 163/346/96 165/347/96 167/348/96
o 円柱.004
v -0.230000 -0.620000 -0.443372
v -0.230000 0.620000 -0.443372
v -0.198180 -0.620000 -0.430192
v -0.198180 0.620000 -0.430192
v -0.185000 -0.620000 -0.398372
v -0.185000 0.620000 -0.398372
v -0.198180 -0.620000 -0.366552
v -0.198180 0.620000 -0.366552
v -0.230000 -0.620000 -0.353372
v -0.230000 0.620000 -0.353372
v -0.261820 -0.620000 -0.366552
v -0.261820 0.620000 -0.366552
v -0.275000 -0.620000 -0.398372
v -0.275000 0.620000 -0.398372
v -0.261820 -0.620000 -0.430192
v -0.261820 0.620000 -0.430192
vn 0.3827 -0.0000 -0.9239
vn 0.9239 -0.0000 -0.3827
vn 0.9239 -0.0000 0.3827
vn 0.3827 -0.0000 0.9239
vn -0.3827 -0.0000 0.9239
vn -0.9239 -0.0000 0.3827
vn -0.0000 1.0000 -0.0000
vn -0.9239 -0.0000 -0.3827
vn -0.3827 -0.0000 -0.9239
vn -0.0000 -1.0000 -0.0000
vt 1.000000 0.500000
vt 1.000000 1.000000
vt 0.875000 1.000000
vt 0.875000 0.500000
vt 0.750000 1.000000
vt 0.750000 0.500000
vt 0.625000 1.000000
vt 0.625000 0.500000
vt 0.500000 1.000000
vt 0.500000 0.500000
vt 0.375000 1.000000
vt 0.375000 0.500000
vt 0.250000 1.000000
vt 0.250000 0.500000
vt 0.419706 0.419706
vt 0.250000 0.490000
vt 0.080294 0.419706
vt 0.010000 0.250000
vt 0.080294 0.080294
vt 0.250000 0.010000
vt 0.419706 0.080294
vt 0.490000 0.250000
vt 0.125000 1.000000
vt 0.125000 0.500000
vt 0.000000 1.000000
vt 0.000000 0.500000
vt 0.750000 0.490000
vt 0.919706 0.419706
vt 0.990000 0.250000
vt 0.919706 0.080294
vt 0.750000 0.010000
vt 0.580294 0.080294
vt 0.510000 0.250000
vt 0.580294 0.419706
s 0
usemtl hg_frame
f 169/349/97 170/350/97 172/351/97 171/352/97
f 171/352/98 172/351/98 174/353/98 173/354/98
f 173/354/99 174/353/99 176/355/99 175/356/99
f 175/356/100 176/355/100 178/357/100 177/358/100
f 177/358/101 178/357/101 180/359/101 179/360/101
f 179/360/102 180/359/102 182/361/102 181/362/102
f 172/363/103 170/364/103 184/365/103 182/366/103 180/367/103 178/368/103 176/369/103 174/370/103
f 181/362/104 182/361/104 184/371/104 183/372/104
f 183/372/105 184/371/105 170/373/105 169/374/105
f 169/375/106 171/376/106 173/377/106 175/378/106 177/379/106 179/380/106 181/381/106 183/382/106
o 円柱.005
v -0.230000 -0.620000 0.353372
v -0.230000 0.620000 0.353372
v -0.198180 -0.620000 0.366552
v -0.198180 0.620000 0.366552
v -0.185000 -0.620000 0.398372
v -0.185000 0.620000 0.398372
v -0.198180 -0.620000 0.430192
v -0.198180 0.620000 0.430192
v -0.230000 -0.620000 0.443372
v -0.230000 0.620000 0.443372
v -0.261820 -0.620000 0.430192
v -0.261820 0.620000 0.430192
v -0.275000 -0.620000 0.398372
v -0.275000 0.620000 0.398372
v -0.261820 -0.620000 0.366552
v -0.261820 0.620000 0.366552
vn 0.3827 -0.0000 -0.9239
vn 0.9239 -0.0000 -0.3827
vn 0.9239 -0.0000 0.3827
vn 0.3827 -0.0000 0.9239
vn -0.3827 -0.0000 0.9239
vn -0.9239 -0.0000 0.3827
vn -0.0000 1.0000 -0.0000
vn -0.9239 -0.0000 -0.3827
vn -0.3827 -0.0000 -0.9239
vn -0.0000 -1.0000 -0.0000
vt 1.000000 0.500000
vt 1.000000 1.000000
vt 0.875000 1.000000
vt 0.875000 0.500000
vt 0.750000 1.000000
vt 0.750000 0.500000
vt 0.625000 1.000000
vt 0.625000 0.500000
vt 0.500000 1.000000
vt 0.500000 0.500000
vt 0.375000 1.000000
vt 0.375000 0.500000
vt 0.250000 1.000000
vt 0.250000 0.500000
vt 0.419706 0.419706
vt 0.250000 0.490000
vt 0.080294 0.419706
vt 0.010000 0.250000
vt 0.080294 0.080294
vt 0.250000 0.010000
vt 0.419706 0.080294
vt 0.490000 0.250000
vt 0.125000 1.000000
vt 0.125000 0.500000
vt 0.000000 1.000000
vt 0.000000 0.500000
vt 0.750000 0.490000
vt 0.919706 0.419706
vt 0.990000 0.250000
vt 0.919706 0.080294
vt 0.750000 0.010000
vt 0.580294 0.080294
vt 0.510000 0.250000
vt 0.580294 0.419706
s 0
usemtl hg_frame
f 185/383/107 186/384/107 188/385/107 187/386/107
f 187/386/108 188/385/108 190/387/108 189/388/108
f 189/388/109 190/387/109 192/389/109 191/390/109
f 191/390/110 192/389/110 194/391/110 193/392/110
f 193/392/111 194/391/111 196/393/111 195/394/111
f 195/394/112 196/393/112 198/395/112 197/396/112
f 188/397/113 186/398/113 200/399/113 198/400/113 196/401/113 194/402/113 192/403/113 190/404/113
f 197/396/114 198/395/114 200/405/114 199/406/114
f 199/406/115 200/405/115 186/407/115 185/408/115
f 185/409/116 187/410/116 189/411/116 191/412/116 193/413/116 195/414/116 197/415/116 199/416/116
