# Blender 4.1.1
# www.blender.org
mtllib Needle_Large.mtl
o Cube
v 0.500000 0.002919 -0.166667
v 0.500000 -0.500000 -0.166667
v 0.500000 0.002919 0.166667
v 0.500000 -0.500000 0.166667
v -0.500000 0.002919 -0.166667
v -0.500000 -0.500000 -0.166667
v -0.500000 0.002919 0.166667
v -0.500000 -0.500000 0.166667
v -0.240246 -0.020026 -0.161257
v -0.007049 -0.019991 -0.082412
v -0.243568 -0.020026 -0.004674
v -0.476766 -0.019991 -0.083520
v -0.241907 0.500000 -0.082966
v 0.247974 -0.020026 -0.161257
v 0.481172 -0.019991 -0.082412
v 0.244652 -0.020026 -0.004674
v 0.011454 -0.019991 -0.083520
v 0.246313 0.500000 -0.082966
v 0.247974 -0.020026 0.002073
v 0.481172 -0.019991 0.080919
v 0.244652 -0.020026 0.158657
v 0.011454 -0.019991 0.079811
v 0.246313 0.500000 0.080365
v -0.240246 -0.020026 0.002073
v -0.007049 -0.019991 0.080919
v -0.243568 -0.020026 0.158657
v -0.476766 -0.019991 0.079811
v -0.241907 0.500000 0.080365
v 0.500000 0.002919 -0.500000
v 0.500000 -0.500000 -0.500000
v 0.500000 0.002919 -0.166667
v 0.500000 -0.500000 -0.166667
v -0.500000 0.002919 -0.500000
v -0.500000 -0.500000 -0.500000
v -0.500000 0.002919 -0.166667
v -0.500000 -0.500000 -0.166667
v -0.240246 -0.020026 -0.494591
v -0.007049 -0.019991 -0.415746
v -0.243568 -0.020026 -0.338008
v -0.476766 -0.019991 -0.416853
v -0.241907 0.500000 -0.416299
v 0.247974 -0.020026 -0.494591
v 0.481172 -0.019991 -0.415746
v 0.244652 -0.020026 -0.338008
v 0.011454 -0.019991 -0.416853
v 0.246313 0.500000 -0.416299
v 0.247974 -0.020026 -0.331260
v 0.481172 -0.019991 -0.252415
v 0.244652 -0.020026 -0.174677
v 0.011454 -0.019991 -0.253522
v 0.246313 0.500000 -0.252968
v -0.240246 -0.020026 -0.331260
v -0.007049 -0.019991 -0.252415
v -0.243568 -0.020026 -0.174677
v -0.476766 -0.019991 -0.253522
v -0.241907 0.500000 -0.252968
v 0.500000 0.002919 0.166667
v 0.500000 -0.500000 0.166667
v 0.500000 0.002919 0.500000
v 0.500000 -0.500000 0.500000
v -0.500000 0.002919 0.166667
v -0.500000 -0.500000 0.166667
v -0.500000 0.002919 0.500000
v -0.500000 -0.500000 0.500000
v -0.240246 -0.020026 0.172076
v -0.007049 -0.019991 0.250921
v -0.243568 -0.020026 0.328659
v -0.476766 -0.019991 0.249814
v -0.241907 0.500000 0.250368
v 0.247974 -0.020026 0.172076
v 0.481172 -0.019991 0.250921
v 0.244652 -0.020026 0.328659
v 0.011454 -0.019991 0.249814
v 0.246313 0.500000 0.250368
v 0.247974 -0.020026 0.335407
v 0.481172 -0.019991 0.414252
v 0.244652 -0.020026 0.491990
v 0.011454 -0.019991 0.413145
v 0.246313 0.500000 0.413698
v -0.240246 -0.020026 0.335407
v -0.007049 -0.019991 0.414252
v -0.243568 -0.020026 0.491990
v -0.476766 -0.019991 0.413145
v -0.241907 0.500000 0.413698
vn -0.0000 1.0000 -0.0000
vn -0.0000 -0.0000 1.0000
vn -1.0000 -0.0000 -0.0000
vn -0.0000 -1.0000 -0.0000
vn 1.0000 -0.0000 -0.0000
vn -0.0000 -0.0000 -1.0000
vn 0.5552 0.6262 -0.5474
vn 0.5474 0.6262 0.5552
vn -0.5552 0.6262 0.5474
vn -0.5474 0.6262 -0.5552
vn -0.0000 -1.0000 -0.0001
vn -0.0000 -1.0000 0.0001
vt 0.335083 0.753906
vt 0.236241 0.852748
vt 0.236241 0.753906
vt 0.137399 0.951591
vt 0.137399 0.852748
vt 0.236241 0.556222
vt 0.137399 0.655064
vt 0.137399 0.556222
vt 0.137399 0.753906
vt 0.038557 0.852748
vt 0.038557 0.753906
vt 0.236241 0.655064
vt 0.875854 0.876534
vt 0.264526 0.265206
vt 0.335083 0.852748
vt 0.236241 0.951591
s 0
usemtl Material
f 5/1/1 3/2/1 1/3/1
f 3/2/2 8/4/2 4/5/2
f 7/6/3 6/7/3 8/8/3
f 2/9/4 8/10/4 6/11/4
f 1/3/5 4/5/5 2/9/5
f 5/12/6 2/9/6 6/7/6
f 9/13/7 13/13/7 10/13/7
f 10/13/8 13/13/8 11/13/8
f 11/13/9 13/13/9 12/13/9
f 12/13/10 13/13/10 9/13/10
f 12/14/11 10/14/11 11/14/11
f 14/13/7 18/13/7 15/13/7
f 15/13/8 18/13/8 16/13/8
f 16/13/9 18/13/9 17/13/9
f 17/13/10 18/13/10 14/13/10
f 17/14/11 15/14/11 16/14/11
f 19/13/7 23/13/7 20/13/7
f 20/13/8 23/13/8 21/13/8
f 21/13/9 23/13/9 22/13/9
f 22/13/10 23/13/10 19/13/10
f 22/14/11 20/14/11 21/14/11
f 24/13/7 28/13/7 25/13/7
f 25/13/8 28/13/8 26/13/8
f 26/13/9 28/13/9 27/13/9
f 27/13/10 28/13/10 24/13/10
f 27/14/11 25/14/11 26/14/11
f 5/1/1 7/15/1 3/2/1
f 3/2/2 7/16/2 8/4/2
f 7/6/3 5/12/3 6/7/3
f 2/9/4 4/5/4 8/10/4
f 1/3/5 3/2/5 4/5/5
f 5/12/6 1/3/6 2/9/6
f 12/14/12 9/14/12 10/14/12
f 17/14/12 14/14/12 15/14/12
f 22/14/12 19/14/12 20/14/12
f 27/14/12 24/14/12 25/14/12
f 33/1/1 31/2/1 29/3/1
f 31/2/2 36/4/2 32/5/2
f 35/6/3 34/7/3 36/8/3
f 30/9/4 36/10/4 34/11/4
f 29/3/5 32/5/5 30/9/5
f 33/12/6 30/9/6 34/7/6
f 37/13/7 41/13/7 38/13/7
f 38/13/8 41/13/8 39/13/8
f 39/13/9 41/13/9 40/13/9
f 40/13/10 41/13/10 37/13/10
f 40/14/11 38/14/11 39/14/11
f 42/13/7 46/13/7 43/13/7
f 43/13/8 46/13/8 44/13/8
f 44/13/9 46/13/9 45/13/9
f 45/13/10 46/13/10 42/13/10
f 45/14/11 43/14/11 44/14/11
f 47/13/7 51/13/7 48/13/7
f 48/13/8 51/13/8 49/13/8
f 49/13/9 51/13/9 50/13/9
f 50/13/10 51/13/10 47/13/10
f 50/14/11 48/14/11 49/14/11
f 52/13/7 56/13/7 53/13/7
f 53/13/8 56/13/8 54/13/8
f 54/13/9 56/13/9 55/13/9
f 55/13/10 56/13/10 52/13/10
f 55/14/11 53/14/11 54/14/11
f 33/1/1 35/15/1 31/2/1
f 31/2/2 35/16/2 36/4/2
f 35/6/3 33/12/3 34/7/3
f 30/9/4 32/5/4 36/10/4
f 29/3/5 31/2/5 32/5/5
f 33/12/6 29/3/6 30/9/6
f 40/14/12 37/14/12 38/14/12
f 45/14/12 42/14/12 43/14/12
f 50/14/12 47/14/12 48/14/12
f 55/14/12 52/14/12 53/14/12
f 61/1/1 59/2/1 57/3/1
f 59/2/2 64/4/2 60/5/2
f 63/6/3 62/7/3 64/8/3
f 58/9/4 64/10/4 62/11/4
f 57/3/5 60/5/5 58/9/5
f 61/12/6 58/9/6 62/7/6
f 65/13/7 69/13/7 66/13/7
f 66/13/8 69/13/8 67/13/8
f 67/13/9 69/13/9 68/13/9
f 68/13/10 69/13/10 65/13/10
f 68/14/11 66/14/11 67/14/11
f 70/13/7 74/13/7 71/13/7
f 71/13/8 74/13/8 72/13/8
f 72/13/9 74/13/9 73/13/9
f 73/13/10 74/13/10 70/13/10
f 73/14/11 71/14/11 72/14/11
f 75/13/7 79/13/7 76/13/7
f 76/13/8 79/13/8 77/13/8
f 77/13/9 79/13/9 78/13/9
f 78/13/10 79/13/10 75/13/10
f 78/14/11 76/14/11 77/14/11
f 80/13/7 84/13/7 81/13/7
f 81/13/8 84/13/8 82/13/8
f 82/13/9 84/13/9 83/13/9
f 83/13/10 84/13/10 80/13/10
f 83/14/11 81/14/11 82/14/11
f 61/1/1 63/15/1 59/2/1
f 59/2/2 63/16/2 64/4/2
f 63/6/3 61/12/3 62/7/3
f 58/9/4 60/5/4 64/10/4
f 57/3/5 59/2/5 60/5/5
f 61/12/6 57/3/6 58/9/6
f 68/14/12 65/14/12 66/14/12
f 73/14/12 70/14/12 71/14/12
f 78/14/12 75/14/12 76/14/12
f 83/14/12 80/14/12 81/14/12
