# Blender 5.2.0 LTS
# www.blender.org
mtllib Intro_D5.mtl
o Intro_D5
v -0.253620 -0.639632 0.287117
v -0.253620 -0.540736 0.287117
v -0.354110 -0.540736 0.287117
v -0.354110 -0.425889 0.287117
v -0.236074 -0.425889 0.287117
v -0.236074 -0.524785 0.287117
v -0.138773 -0.524785 0.287117
v -0.138773 -0.622086 0.287117
v 0.140368 -0.622086 0.287117
v 0.140368 -0.524785 0.287117
v 0.239264 -0.524785 0.287117
v 0.239264 -0.146748 0.287117
v 0.140368 -0.146748 0.287117
v 0.140368 -0.047853 0.287117
v -0.138773 -0.047853 0.287117
v -0.138773 -0.146748 0.287117
v -0.236074 -0.146748 0.287117
v -0.236074 -0.245644 0.287117
v -0.354110 -0.245644 0.287117
v -0.354110 0.559877 0.287117
v 0.255215 0.559877 0.287117
v 0.255215 0.445031 0.287117
v -0.236074 0.445031 0.287117
v -0.236074 -0.030307 0.287117
v -0.154724 -0.030307 0.287117
v -0.154724 0.066994 0.287117
v 0.157914 0.066994 0.287117
v 0.157914 -0.030307 0.287117
v 0.255215 -0.030307 0.287117
v 0.255215 -0.129202 0.287117
v 0.354110 -0.129202 0.287117
v 0.354110 -0.540736 0.287117
v 0.255215 -0.540736 0.287117
v 0.255215 -0.639632 0.287117
v 0.157914 -0.639632 0.287117
v 0.157914 -0.740123 0.287117
v -0.154724 -0.740123 0.287117
v -0.154724 -0.639632 0.287117
v -0.253620 -0.639632 -0.287117
v -0.253620 -0.540736 -0.287117
v -0.354110 -0.540736 -0.287117
v -0.354110 -0.425889 -0.287117
v -0.236074 -0.425889 -0.287117
v -0.236074 -0.524785 -0.287117
v -0.138773 -0.524785 -0.287117
v -0.138773 -0.622086 -0.287117
v 0.140368 -0.622086 -0.287117
v 0.140368 -0.524785 -0.287117
v 0.239264 -0.524785 -0.287117
v 0.239264 -0.146748 -0.287117
v 0.140368 -0.146748 -0.287117
v 0.140368 -0.047853 -0.287117
v -0.138773 -0.047853 -0.287117
v -0.138773 -0.146748 -0.287117
v -0.236074 -0.146748 -0.287117
v -0.236074 -0.245644 -0.287117
v -0.354110 -0.245644 -0.287117
v -0.354110 0.559877 -0.287117
v 0.255215 0.559877 -0.287117
v 0.255215 0.445031 -0.287117
v -0.236074 0.445031 -0.287117
v -0.236074 -0.030307 -0.287117
v -0.154724 -0.030307 -0.287117
v -0.154724 0.066994 -0.287117
v 0.157914 0.066994 -0.287117
v 0.157914 -0.030307 -0.287117
v 0.255215 -0.030307 -0.287117
v 0.255215 -0.129202 -0.287117
v 0.354110 -0.129202 -0.287117
v 0.354110 -0.540736 -0.287117
v 0.255215 -0.540736 -0.287117
v 0.255215 -0.639632 -0.287117
v 0.157914 -0.639632 -0.287117
v 0.157914 -0.740123 -0.287117
v -0.154724 -0.740123 -0.287117
v -0.154724 -0.639632 -0.287117
v -0.253620 -0.639632 -0.287117
v -0.253620 -0.639632 0.287117
v -0.253620 -0.540736 -0.287117
v -0.253620 -0.540736 0.287117
v -0.354110 -0.540736 -0.287117
v -0.354110 -0.540736 0.287117
v -0.354110 -0.425889 -0.287117
v -0.354110 -0.425889 0.287117
v -0.236074 -0.425889 -0.287117
v -0.236074 -0.425889 0.287117
v -0.236074 -0.524785 -0.287117
v -0.236074 -0.524785 0.287117
v -0.138773 -0.524785 -0.287117
v -0.138773 -0.524785 0.287117
v -0.138773 -0.622086 -0.287117
v -0.138773 -0.622086 0.287117
v 0.140368 -0.622086 -0.287117
v 0.140368 -0.622086 0.287117
v 0.140368 -0.524785 -0.287117
v 0.140368 -0.524785 0.287117
v 0.239264 -0.524785 -0.287117
v 0.239264 -0.524785 0.287117
v 0.239264 -0.146748 -0.287117
v 0.239264 -0.146748 0.287117
v 0.140368 -0.146748 -0.287117
v 0.140368 -0.146748 0.287117
v 0.140368 -0.047853 -0.287117
v 0.140368 -0.047853 0.287117
v -0.138773 -0.047853 -0.287117
v -0.138773 -0.047853 0.287117
v -0.138773 -0.146748 -0.287117
v -0.138773 -0.146748 0.287117
v -0.236074 -0.146748 -0.287117
v -0.236074 -0.146748 0.287117
v -0.236074 -0.245644 -0.287117
v -0.236074 -0.245644 0.287117
v -0.354110 -0.245644 -0.287117
v -0.354110 -0.245644 0.287117
v -0.354110 0.559877 -0.287117
v -0.354110 0.559877 0.287117
v 0.255215 0.559877 -0.287117
v 0.255215 0.559877 0.287117
v 0.255215 0.445031 -0.287117
v 0.255215 0.445031 0.287117
v -0.236074 0.445031 -0.287117
v -0.236074 0.445031 0.287117
v -0.236074 -0.030307 -0.287117
v -0.236074 -0.030307 0.287117
v -0.154724 -0.030307 -0.287117
v -0.154724 -0.030307 0.287117
v -0.154724 0.066994 -0.287117
v -0.154724 0.066994 0.287117
v 0.157914 0.066994 -0.287117
v 0.157914 0.066994 0.287117
v 0.157914 -0.030307 -0.287117
v 0.157914 -0.030307 0.287117
v 0.255215 -0.030307 -0.287117
v 0.255215 -0.030307 0.287117
v 0.255215 -0.129202 -0.287117
v 0.255215 -0.129202 0.287117
v 0.354110 -0.129202 -0.287117
v 0.354110 -0.129202 0.287117
v 0.354110 -0.540736 -0.287117
v 0.354110 -0.540736 0.287117
v 0.255215 -0.540736 -0.287117
v 0.255215 -0.540736 0.287117
v 0.255215 -0.639632 -0.287117
v 0.255215 -0.639632 0.287117
v 0.157914 -0.639632 -0.287117
v 0.157914 -0.639632 0.287117
v 0.157914 -0.740123 -0.287117
v 0.157914 -0.740123 0.287117
v -0.154724 -0.740123 -0.287117
v -0.154724 -0.740123 0.287117
v -0.154724 -0.639632 -0.287117
v -0.154724 -0.639632 0.287117
vn -0.0000 -0.0000 1.0000
vn -0.0000 -0.0000 -1.0000
vn -0.7071 -0.7071 -0.0000
vn -0.7071 0.7071 -0.0000
vn 0.7071 0.7071 -0.0000
vn 0.7071 -0.7071 -0.0000
vt 0.187500 0.500000
s 0
usemtl TA_Pal
f 4/1/1 3/1/1 2/1/1
f 2/1/1 6/1/1 4/1/1
f 6/1/1 5/1/1 4/1/1
f 38/1/1 37/1/1 8/1/1
f 2/1/1 1/1/1 38/1/1
f 38/1/1 8/1/1 2/1/1
f 6/1/1 2/1/1 8/1/1
f 8/1/1 7/1/1 6/1/1
f 19/1/1 18/1/1 17/1/1
f 17/1/1 24/1/1 19/1/1
f 20/1/1 19/1/1 24/1/1
f 24/1/1 23/1/1 20/1/1
f 28/1/1 27/1/1 14/1/1
f 36/1/1 35/1/1 9/1/1
f 11/1/1 33/1/1 32/1/1
f 12/1/1 11/1/1 32/1/1
f 32/1/1 31/1/1 12/1/1
f 30/1/1 12/1/1 31/1/1
f 34/1/1 33/1/1 35/1/1
f 33/1/1 11/1/1 35/1/1
f 9/1/1 35/1/1 11/1/1
f 10/1/1 9/1/1 11/1/1
f 14/1/1 13/1/1 12/1/1
f 12/1/1 30/1/1 14/1/1
f 28/1/1 14/1/1 30/1/1
f 30/1/1 29/1/1 28/1/1
f 36/1/1 9/1/1 37/1/1
f 8/1/1 37/1/1 9/1/1
f 17/1/1 16/1/1 15/1/1
f 24/1/1 17/1/1 15/1/1
f 25/1/1 24/1/1 15/1/1
f 26/1/1 25/1/1 15/1/1
f 15/1/1 14/1/1 26/1/1
f 14/1/1 27/1/1 26/1/1
f 22/1/1 21/1/1 23/1/1
f 20/1/1 23/1/1 21/1/1
f 42/1/2 40/1/2 41/1/2
f 40/1/2 42/1/2 44/1/2
f 44/1/2 42/1/2 43/1/2
f 76/1/2 46/1/2 75/1/2
f 40/1/2 76/1/2 39/1/2
f 76/1/2 40/1/2 46/1/2
f 44/1/2 46/1/2 40/1/2
f 46/1/2 44/1/2 45/1/2
f 57/1/2 55/1/2 56/1/2
f 55/1/2 57/1/2 62/1/2
f 58/1/2 62/1/2 57/1/2
f 62/1/2 58/1/2 61/1/2
f 66/1/2 52/1/2 65/1/2
f 74/1/2 47/1/2 73/1/2
f 49/1/2 70/1/2 71/1/2
f 50/1/2 70/1/2 49/1/2
f 70/1/2 50/1/2 69/1/2
f 68/1/2 69/1/2 50/1/2
f 72/1/2 73/1/2 71/1/2
f 71/1/2 73/1/2 49/1/2
f 47/1/2 49/1/2 73/1/2
f 48/1/2 49/1/2 47/1/2
f 52/1/2 50/1/2 51/1/2
f 50/1/2 52/1/2 68/1/2
f 66/1/2 68/1/2 52/1/2
f 68/1/2 66/1/2 67/1/2
f 74/1/2 75/1/2 47/1/2
f 46/1/2 47/1/2 75/1/2
f 55/1/2 53/1/2 54/1/2
f 62/1/2 53/1/2 55/1/2
f 63/1/2 53/1/2 62/1/2
f 64/1/2 53/1/2 63/1/2
f 53/1/2 64/1/2 52/1/2
f 52/1/2 64/1/2 65/1/2
f 60/1/2 61/1/2 59/1/2
f 58/1/2 59/1/2 61/1/2
s 1
f 80/1/3 77/1/3 78/1/3
f 82/1/3 79/1/3 80/1/3
f 84/1/4 81/1/3 82/1/3
f 86/1/5 83/1/4 84/1/4
f 88/1/5 85/1/5 86/1/5
f 90/1/5 87/1/5 88/1/5
f 92/1/5 89/1/5 90/1/5
f 94/1/4 91/1/5 92/1/5
f 96/1/4 93/1/4 94/1/4
f 98/1/4 95/1/4 96/1/4
f 100/1/3 97/1/4 98/1/4
f 102/1/3 99/1/3 100/1/3
f 104/1/3 101/1/3 102/1/3
f 106/1/6 103/1/3 104/1/3
f 108/1/6 105/1/6 106/1/6
f 110/1/6 107/1/6 108/1/6
f 112/1/6 109/1/6 110/1/6
f 114/1/3 111/1/6 112/1/6
f 116/1/4 113/1/3 114/1/3
f 118/1/5 115/1/4 116/1/4
f 120/1/6 117/1/5 118/1/5
f 122/1/6 119/1/6 120/1/6
f 122/1/6 123/1/5 121/1/6
f 126/1/4 123/1/5 124/1/5
f 128/1/4 125/1/4 126/1/4
f 130/1/5 127/1/4 128/1/4
f 132/1/5 129/1/5 130/1/5
f 134/1/5 131/1/5 132/1/5
f 136/1/5 133/1/5 134/1/5
f 138/1/5 135/1/5 136/1/5
f 140/1/6 137/1/5 138/1/5
f 142/1/6 139/1/6 140/1/6
f 144/1/6 141/1/6 142/1/6
f 146/1/6 143/1/6 144/1/6
f 148/1/6 145/1/6 146/1/6
f 150/1/3 147/1/6 148/1/6
f 152/1/3 149/1/3 150/1/3
f 78/1/3 151/1/3 152/1/3
f 80/1/3 79/1/3 77/1/3
f 82/1/3 81/1/3 79/1/3
f 84/1/4 83/1/4 81/1/3
f 86/1/5 85/1/5 83/1/4
f 88/1/5 87/1/5 85/1/5
f 90/1/5 89/1/5 87/1/5
f 92/1/5 91/1/5 89/1/5
f 94/1/4 93/1/4 91/1/5
f 96/1/4 95/1/4 93/1/4
f 98/1/4 97/1/4 95/1/4
f 100/1/3 99/1/3 97/1/4
f 102/1/3 101/1/3 99/1/3
f 104/1/3 103/1/3 101/1/3
f 106/1/6 105/1/6 103/1/3
f 108/1/6 107/1/6 105/1/6
f 110/1/6 109/1/6 107/1/6
f 112/1/6 111/1/6 109/1/6
f 114/1/3 113/1/3 111/1/6
f 116/1/4 115/1/4 113/1/3
f 118/1/5 117/1/5 115/1/4
f 120/1/6 119/1/6 117/1/5
f 122/1/6 121/1/6 119/1/6
f 122/1/6 124/1/5 123/1/5
f 126/1/4 125/1/4 123/1/5
f 128/1/4 127/1/4 125/1/4
f 130/1/5 129/1/5 127/1/4
f 132/1/5 131/1/5 129/1/5
f 134/1/5 133/1/5 131/1/5
f 136/1/5 135/1/5 133/1/5
f 138/1/5 137/1/5 135/1/5
f 140/1/6 139/1/6 137/1/5
f 142/1/6 141/1/6 139/1/6
f 144/1/6 143/1/6 141/1/6
f 146/1/6 145/1/6 143/1/6
f 148/1/6 147/1/6 145/1/6
f 150/1/3 149/1/3 147/1/6
f 152/1/3 151/1/3 149/1/3
f 78/1/3 77/1/3 151/1/3
