# Blender 5.2.0 LTS
# www.blender.org
mtllib Intro_D9_Out.mtl
o Intro_D9_Out
v -0.341350 -0.727362 0.159509
v -0.341350 -0.628466 0.159509
v -0.441840 -0.628466 0.159509
v -0.441840 -0.338160 0.159509
v -0.148344 -0.338160 0.159509
v -0.148344 -0.437055 0.159509
v -0.051043 -0.437055 0.159509
v -0.051043 -0.534356 0.159509
v 0.052638 -0.534356 0.159509
v 0.052638 -0.437055 0.159509
v 0.151534 -0.437055 0.159509
v 0.151534 -0.333374 0.159509
v 0.245644 -0.333374 0.159509
v 0.245644 -0.432270 0.159509
v -0.242454 -0.432270 0.159509
v -0.242454 -0.333374 0.159509
v -0.341350 -0.333374 0.159509
v -0.341350 -0.234478 0.159509
v -0.441840 -0.234478 0.159509
v -0.441840 0.451411 0.159509
v -0.341350 0.451411 0.159509
v -0.341350 0.550307 0.159509
v -0.242454 0.550307 0.159509
v -0.242454 0.647607 0.159509
v 0.245644 0.647607 0.159509
v 0.245644 0.550307 0.159509
v 0.342945 0.550307 0.159509
v 0.342945 0.451411 0.159509
v 0.441840 0.451411 0.159509
v 0.441840 -0.628466 0.159509
v 0.342945 -0.628466 0.159509
v 0.342945 -0.727362 0.159509
v 0.245644 -0.727362 0.159509
v 0.245644 -0.827853 0.159509
v -0.242454 -0.827853 0.159509
v -0.242454 -0.727362 0.159509
v -0.051043 -0.140368 0.159509
v 0.052638 -0.140368 0.159509
v 0.052638 -0.041472 0.159509
v 0.151534 -0.041472 0.159509
v 0.151534 0.258405 0.159509
v 0.052638 0.258405 0.159509
v 0.052638 0.357301 0.159509
v -0.051043 0.357301 0.159509
v -0.051043 0.258405 0.159509
v -0.148344 0.258405 0.159509
v -0.148344 -0.041472 0.159509
v -0.051043 -0.041472 0.159509
v 0.151534 -0.432270 0.159509
v -0.148344 -0.432270 0.159509
v -0.242454 -0.338160 0.159509
v -0.341350 -0.727362 -0.159509
v -0.341350 -0.628466 -0.159509
v -0.441840 -0.628466 -0.159509
v -0.441840 -0.338160 -0.159509
v -0.148344 -0.338160 -0.159509
v -0.148344 -0.437055 -0.159509
v -0.051043 -0.437055 -0.159509
v -0.051043 -0.534356 -0.159509
v 0.052638 -0.534356 -0.159509
v 0.052638 -0.437055 -0.159509
v 0.151534 -0.437055 -0.159509
v 0.151534 -0.333374 -0.159509
v 0.245644 -0.333374 -0.159509
v 0.245644 -0.432270 -0.159509
v -0.242454 -0.432270 -0.159509
v -0.242454 -0.333374 -0.159509
v -0.341350 -0.333374 -0.159509
v -0.341350 -0.234478 -0.159509
v -0.441840 -0.234478 -0.159509
v -0.441840 0.451411 -0.159509
v -0.341350 0.451411 -0.159509
v -0.341350 0.550307 -0.159509
v -0.242454 0.550307 -0.159509
v -0.242454 0.647607 -0.159509
v 0.245644 0.647607 -0.159509
v 0.245644 0.550307 -0.159509
v 0.342945 0.550307 -0.159509
v 0.342945 0.451411 -0.159509
v 0.441840 0.451411 -0.159509
v 0.441840 -0.628466 -0.159509
v 0.342945 -0.628466 -0.159509
v 0.342945 -0.727362 -0.159509
v 0.245644 -0.727362 -0.159509
v 0.245644 -0.827853 -0.159509
v -0.242454 -0.827853 -0.159509
v -0.242454 -0.727362 -0.159509
v -0.051043 -0.140368 -0.159509
v 0.052638 -0.140368 -0.159509
v 0.052638 -0.041472 -0.159509
v 0.151534 -0.041472 -0.159509
v 0.151534 0.258405 -0.159509
v 0.052638 0.258405 -0.159509
v 0.052638 0.357301 -0.159509
v -0.051043 0.357301 -0.159509
v -0.051043 0.258405 -0.159509
v -0.148344 0.258405 -0.159509
v -0.148344 -0.041472 -0.159509
v -0.051043 -0.041472 -0.159509
v 0.151534 -0.432270 -0.159509
v -0.148344 -0.432270 -0.159509
v -0.242454 -0.338160 -0.159509
v -0.341350 -0.727362 -0.159509
v -0.341350 -0.727362 0.159509
v -0.341350 -0.628466 -0.159509
v -0.341350 -0.628466 0.159509
v -0.441840 -0.628466 -0.159509
v -0.441840 -0.628466 0.159509
v -0.441840 -0.338160 -0.159509
v -0.441840 -0.338160 0.159509
v -0.148344 -0.338160 -0.159509
v -0.148344 -0.338160 0.159509
v -0.148344 -0.437055 -0.159509
v -0.148344 -0.437055 0.159509
v -0.051043 -0.437055 -0.159509
v -0.051043 -0.437055 0.159509
v -0.051043 -0.534356 -0.159509
v -0.051043 -0.534356 0.159509
v 0.052638 -0.534356 -0.159509
v 0.052638 -0.534356 0.159509
v 0.052638 -0.437055 -0.159509
v 0.052638 -0.437055 0.159509
v 0.151534 -0.437055 -0.159509
v 0.151534 -0.437055 0.159509
v 0.151534 -0.333374 -0.159509
v 0.151534 -0.333374 0.159509
v 0.245644 -0.333374 -0.159509
v 0.245644 -0.333374 0.159509
v 0.245644 -0.432270 -0.159509
v 0.245644 -0.432270 0.159509
v -0.242454 -0.432270 -0.159509
v -0.242454 -0.432270 0.159509
v -0.242454 -0.333374 -0.159509
v -0.242454 -0.333374 0.159509
v -0.341350 -0.333374 -0.159509
v -0.341350 -0.333374 0.159509
v -0.341350 -0.234478 -0.159509
v -0.341350 -0.234478 0.159509
v -0.441840 -0.234478 -0.159509
v -0.441840 -0.234478 0.159509
v -0.441840 0.451411 -0.159509
v -0.441840 0.451411 0.159509
v -0.341350 0.451411 -0.159509
v -0.341350 0.451411 0.159509
v -0.341350 0.550307 -0.159509
v -0.341350 0.550307 0.159509
v -0.242454 0.550307 -0.159509
v -0.242454 0.550307 0.159509
v -0.242454 0.647607 -0.159509
v -0.242454 0.647607 0.159509
v 0.245644 0.647607 -0.159509
v 0.245644 0.647607 0.159509
v 0.245644 0.550307 -0.159509
v 0.245644 0.550307 0.159509
v 0.342945 0.550307 -0.159509
v 0.342945 0.550307 0.159509
v 0.342945 0.451411 -0.159509
v 0.342945 0.451411 0.159509
v 0.441840 0.451411 -0.159509
v 0.441840 0.451411 0.159509
v 0.441840 -0.628466 -0.159509
v 0.441840 -0.628466 0.159509
v 0.342945 -0.628466 -0.159509
v 0.342945 -0.628466 0.159509
v 0.342945 -0.727362 -0.159509
v 0.342945 -0.727362 0.159509
v 0.245644 -0.727362 -0.159509
v 0.245644 -0.727362 0.159509
v 0.245644 -0.827853 -0.159509
v 0.245644 -0.827853 0.159509
v -0.242454 -0.827853 -0.159509
v -0.242454 -0.827853 0.159509
v -0.242454 -0.727362 -0.159509
v -0.242454 -0.727362 0.159509
v -0.051043 -0.140368 -0.159509
v -0.051043 -0.140368 0.159509
v 0.052638 -0.140368 -0.159509
v 0.052638 -0.140368 0.159509
v 0.052638 -0.041472 -0.159509
v 0.052638 -0.041472 0.159509
v 0.151534 -0.041472 -0.159509
v 0.151534 -0.041472 0.159509
v 0.151534 0.258405 -0.159509
v 0.151534 0.258405 0.159509
v 0.052638 0.258405 -0.159509
v 0.052638 0.258405 0.159509
v 0.052638 0.357301 -0.159509
v 0.052638 0.357301 0.159509
v -0.051043 0.357301 -0.159509
v -0.051043 0.357301 0.159509
v -0.051043 0.258405 -0.159509
v -0.051043 0.258405 0.159509
v -0.148344 0.258405 -0.159509
v -0.148344 0.258405 0.159509
v -0.148344 -0.041472 -0.159509
v -0.148344 -0.041472 0.159509
v -0.051043 -0.041472 -0.159509
v -0.051043 -0.041472 0.159509
vn -0.0000 -0.0000 1.0000
vn -0.0000 -0.0000 -1.0000
vn -0.7071 -0.7071 -0.0000
vn -0.7071 0.7071 -0.0000
vn 0.7071 0.7071 -0.0000
vn 0.7071 -0.7071 -0.0000
vt 0.437500 0.500000
s 0
usemtl TA_Pal2
f 4/1/1 3/1/1 2/1/1
f 2/1/1 1/1/1 36/1/1
f 50/1/1 5/1/1 15/1/1
f 37/1/1 48/1/1 47/1/1
f 8/1/1 7/1/1 6/1/1
f 16/1/1 5/1/1 37/1/1
f 8/1/1 6/1/1 36/1/1
f 2/1/1 36/1/1 6/1/1
f 6/1/1 15/1/1 2/1/1
f 4/1/1 2/1/1 15/1/1
f 15/1/1 5/1/1 51/1/1
f 18/1/1 17/1/1 16/1/1
f 16/1/1 37/1/1 18/1/1
f 37/1/1 47/1/1 18/1/1
f 19/1/1 18/1/1 47/1/1
f 20/1/1 19/1/1 47/1/1
f 47/1/1 46/1/1 20/1/1
f 21/1/1 20/1/1 46/1/1
f 22/1/1 21/1/1 23/1/1
f 43/1/1 42/1/1 41/1/1
f 10/1/1 9/1/1 11/1/1
f 12/1/1 38/1/1 5/1/1
f 39/1/1 38/1/1 40/1/1
f 32/1/1 31/1/1 33/1/1
f 31/1/1 30/1/1 14/1/1
f 13/1/1 14/1/1 30/1/1
f 30/1/1 29/1/1 13/1/1
f 28/1/1 27/1/1 26/1/1
f 34/1/1 33/1/1 9/1/1
f 11/1/1 9/1/1 33/1/1
f 33/1/1 31/1/1 11/1/1
f 31/1/1 14/1/1 11/1/1
f 12/1/1 49/1/1 14/1/1
f 14/1/1 13/1/1 12/1/1
f 38/1/1 12/1/1 13/1/1
f 40/1/1 38/1/1 13/1/1
f 13/1/1 29/1/1 40/1/1
f 41/1/1 40/1/1 29/1/1
f 29/1/1 28/1/1 41/1/1
f 43/1/1 41/1/1 28/1/1
f 28/1/1 26/1/1 43/1/1
f 26/1/1 25/1/1 43/1/1
f 34/1/1 9/1/1 35/1/1
f 36/1/1 35/1/1 9/1/1
f 8/1/1 36/1/1 9/1/1
f 37/1/1 5/1/1 38/1/1
f 45/1/1 44/1/1 46/1/1
f 21/1/1 46/1/1 44/1/1
f 23/1/1 21/1/1 44/1/1
f 24/1/1 23/1/1 44/1/1
f 44/1/1 43/1/1 24/1/1
f 43/1/1 25/1/1 24/1/1
f 5/1/1 16/1/1 51/1/1
f 11/1/1 14/1/1 49/1/1
f 5/1/1 50/1/1 49/1/1
f 49/1/1 12/1/1 5/1/1
f 15/1/1 6/1/1 50/1/1
f 4/1/1 15/1/1 51/1/1
f 55/1/2 53/1/2 54/1/2
f 53/1/2 87/1/2 52/1/2
f 101/1/2 66/1/2 56/1/2
f 88/1/2 98/1/2 99/1/2
f 59/1/2 57/1/2 58/1/2
f 67/1/2 88/1/2 56/1/2
f 59/1/2 87/1/2 57/1/2
f 53/1/2 57/1/2 87/1/2
f 57/1/2 53/1/2 66/1/2
f 55/1/2 66/1/2 53/1/2
f 66/1/2 102/1/2 56/1/2
f 69/1/2 67/1/2 68/1/2
f 67/1/2 69/1/2 88/1/2
f 88/1/2 69/1/2 98/1/2
f 70/1/2 98/1/2 69/1/2
f 71/1/2 98/1/2 70/1/2
f 98/1/2 71/1/2 97/1/2
f 72/1/2 97/1/2 71/1/2
f 73/1/2 74/1/2 72/1/2
f 94/1/2 92/1/2 93/1/2
f 61/1/2 62/1/2 60/1/2
f 63/1/2 56/1/2 89/1/2
f 90/1/2 91/1/2 89/1/2
f 83/1/2 84/1/2 82/1/2
f 82/1/2 65/1/2 81/1/2
f 64/1/2 81/1/2 65/1/2
f 81/1/2 64/1/2 80/1/2
f 79/1/2 77/1/2 78/1/2
f 85/1/2 60/1/2 84/1/2
f 62/1/2 84/1/2 60/1/2
f 84/1/2 62/1/2 82/1/2
f 82/1/2 62/1/2 65/1/2
f 63/1/2 65/1/2 100/1/2
f 65/1/2 63/1/2 64/1/2
f 89/1/2 64/1/2 63/1/2
f 91/1/2 64/1/2 89/1/2
f 64/1/2 91/1/2 80/1/2
f 92/1/2 80/1/2 91/1/2
f 80/1/2 92/1/2 79/1/2
f 94/1/2 79/1/2 92/1/2
f 79/1/2 94/1/2 77/1/2
f 77/1/2 94/1/2 76/1/2
f 85/1/2 86/1/2 60/1/2
f 87/1/2 60/1/2 86/1/2
f 59/1/2 60/1/2 87/1/2
f 88/1/2 89/1/2 56/1/2
f 96/1/2 97/1/2 95/1/2
f 72/1/2 95/1/2 97/1/2
f 74/1/2 95/1/2 72/1/2
f 75/1/2 95/1/2 74/1/2
f 95/1/2 75/1/2 94/1/2
f 94/1/2 75/1/2 76/1/2
f 56/1/2 102/1/2 67/1/2
f 62/1/2 100/1/2 65/1/2
f 56/1/2 100/1/2 101/1/2
f 100/1/2 56/1/2 63/1/2
f 66/1/2 101/1/2 57/1/2
f 55/1/2 102/1/2 66/1/2
s 1
f 106/1/3 103/1/3 104/1/3
f 108/1/3 105/1/3 106/1/3
f 110/1/4 107/1/3 108/1/3
f 112/1/5 109/1/4 110/1/4
f 114/1/5 111/1/5 112/1/5
f 116/1/5 113/1/5 114/1/5
f 118/1/5 115/1/5 116/1/5
f 120/1/4 117/1/5 118/1/5
f 122/1/4 119/1/4 120/1/4
f 124/1/4 121/1/4 122/1/4
f 126/1/4 123/1/4 124/1/4
f 128/1/5 125/1/4 126/1/4
f 130/1/6 127/1/5 128/1/5
f 132/1/3 129/1/6 130/1/6
f 132/1/3 133/1/3 131/1/3
f 136/1/3 133/1/3 134/1/3
f 138/1/3 135/1/3 136/1/3
f 140/1/3 137/1/3 138/1/3
f 140/1/3 141/1/4 139/1/3
f 144/1/4 141/1/4 142/1/4
f 146/1/4 143/1/4 144/1/4
f 148/1/4 145/1/4 146/1/4
f 150/1/4 147/1/4 148/1/4
f 152/1/5 149/1/4 150/1/4
f 154/1/5 151/1/5 152/1/5
f 156/1/5 153/1/5 154/1/5
f 158/1/5 155/1/5 156/1/5
f 160/1/5 157/1/5 158/1/5
f 162/1/6 159/1/5 160/1/5
f 164/1/6 161/1/6 162/1/6
f 166/1/6 163/1/6 164/1/6
f 168/1/6 165/1/6 166/1/6
f 170/1/6 167/1/6 168/1/6
f 172/1/3 169/1/6 170/1/6
f 174/1/3 171/1/3 172/1/3
f 104/1/3 173/1/3 174/1/3
f 178/1/4 175/1/5 176/1/5
f 180/1/4 177/1/4 178/1/4
f 182/1/4 179/1/4 180/1/4
f 184/1/3 181/1/4 182/1/4
f 186/1/3 183/1/3 184/1/3
f 188/1/3 185/1/3 186/1/3
f 190/1/6 187/1/3 188/1/3
f 192/1/6 189/1/6 190/1/6
f 194/1/6 191/1/6 192/1/6
f 196/1/5 193/1/6 194/1/6
f 198/1/5 195/1/5 196/1/5
f 176/1/5 197/1/5 198/1/5
f 106/1/3 105/1/3 103/1/3
f 108/1/3 107/1/3 105/1/3
f 110/1/4 109/1/4 107/1/3
f 112/1/5 111/1/5 109/1/4
f 114/1/5 113/1/5 111/1/5
f 116/1/5 115/1/5 113/1/5
f 118/1/5 117/1/5 115/1/5
f 120/1/4 119/1/4 117/1/5
f 122/1/4 121/1/4 119/1/4
f 124/1/4 123/1/4 121/1/4
f 126/1/4 125/1/4 123/1/4
f 128/1/5 127/1/5 125/1/4
f 130/1/6 129/1/6 127/1/5
f 132/1/3 131/1/3 129/1/6
f 132/1/3 134/1/3 133/1/3
f 136/1/3 135/1/3 133/1/3
f 138/1/3 137/1/3 135/1/3
f 140/1/3 139/1/3 137/1/3
f 140/1/3 142/1/4 141/1/4
f 144/1/4 143/1/4 141/1/4
f 146/1/4 145/1/4 143/1/4
f 148/1/4 147/1/4 145/1/4
f 150/1/4 149/1/4 147/1/4
f 152/1/5 151/1/5 149/1/4
f 154/1/5 153/1/5 151/1/5
f 156/1/5 155/1/5 153/1/5
f 158/1/5 157/1/5 155/1/5
f 160/1/5 159/1/5 157/1/5
f 162/1/6 161/1/6 159/1/5
f 164/1/6 163/1/6 161/1/6
f 166/1/6 165/1/6 163/1/6
f 168/1/6 167/1/6 165/1/6
f 170/1/6 169/1/6 167/1/6
f 172/1/3 171/1/3 169/1/6
f 174/1/3 173/1/3 171/1/3
f 104/1/3 103/1/3 173/1/3
f 178/1/4 177/1/4 175/1/5
f 180/1/4 179/1/4 177/1/4
f 182/1/4 181/1/4 179/1/4
f 184/1/3 183/1/3 181/1/4
f 186/1/3 185/1/3 183/1/3
f 188/1/3 187/1/3 185/1/3
f 190/1/6 189/1/6 187/1/3
f 192/1/6 191/1/6 189/1/6
f 194/1/6 193/1/6 191/1/6
f 196/1/5 195/1/5 193/1/6
f 198/1/5 197/1/5 195/1/5
f 176/1/5 175/1/5 197/1/5
