# Blender 4.1.1
# www.blender.org
mtllib Block.mtl
o Cube
v 0.401975 0.401975 -0.500000
v 0.401975 0.500000 -0.401975
v 0.500000 0.401975 -0.401975
v 0.401975 -0.500000 -0.401975
v 0.401975 -0.401975 -0.500000
v 0.500000 -0.401975 -0.401975
v 0.500000 0.401975 0.401975
v 0.401975 0.500000 0.401975
v 0.401975 0.401975 0.500000
v 0.500000 -0.401975 0.401975
v 0.401975 -0.401975 0.500000
v 0.401975 -0.500000 0.401975
v -0.401975 0.401975 -0.500000
v -0.500000 0.401975 -0.401975
v -0.401975 0.500000 -0.401975
v -0.500000 -0.401975 -0.401975
v -0.401975 -0.401975 -0.500000
v -0.401975 -0.500000 -0.401975
v -0.500000 0.401975 0.401975
v -0.401975 0.401975 0.500000
v -0.401975 0.500000 0.401975
v -0.401975 -0.500000 0.401975
v -0.401975 -0.401975 0.500000
v -0.500000 -0.401975 0.401975
v -0.472975 -0.500000 -0.472975
v -0.472975 -0.500000 0.472975
v -0.500000 -0.472975 0.472975
v -0.500000 -0.472975 -0.472975
v 0.472975 -0.500000 -0.472975
v -0.472975 -0.472975 -0.500000
v 0.472975 -0.472975 -0.500000
v 0.500000 0.472975 -0.472975
v 0.500000 -0.472975 -0.472975
v 0.472975 0.472975 -0.500000
v -0.472975 -0.472975 0.500000
v -0.472975 0.472975 0.500000
v -0.500000 0.472975 0.472975
v 0.472975 0.472975 0.500000
v 0.472975 -0.472975 0.500000
v 0.500000 -0.472975 0.472975
v 0.500000 0.472975 0.472975
v -0.472975 0.472975 -0.500000
v -0.500000 0.472975 -0.472975
v 0.472975 0.500000 0.472975
v -0.472975 0.500000 0.472975
v 0.472975 0.500000 -0.472975
v 0.472975 -0.500000 0.472975
v -0.472975 0.500000 -0.472975
v 0.401975 0.488984 0.401975
v -0.401975 0.488984 0.401975
v 0.401975 0.488984 -0.401975
v -0.401975 0.488984 -0.401975
v -0.401975 -0.401975 0.486387
v -0.401975 0.401975 0.486387
v 0.401975 0.401975 0.486387
v 0.401975 -0.401975 0.486387
v 0.486396 0.401975 -0.401975
v 0.486396 -0.401975 -0.401975
v 0.486396 -0.401975 0.401975
v 0.486396 0.401975 0.401975
v -0.401975 -0.401975 -0.488733
v 0.401975 -0.401975 -0.488733
v 0.401975 0.401975 -0.488733
v -0.401975 0.401975 -0.488733
v -0.487980 -0.401975 0.401975
v -0.487980 -0.401975 -0.401975
v -0.487980 0.401975 0.401975
v -0.487980 0.401975 -0.401975
v -0.401975 -0.488650 -0.401975
v -0.401975 -0.488650 0.401975
v 0.401975 -0.488650 -0.401975
v 0.401975 -0.488650 0.401975
vn 1.0000 -0.0000 -0.0000
vn -0.0000 -0.0000 1.0000
vn -1.0000 -0.0000 -0.0000
vn -0.0000 -0.0000 -1.0000
vn 0.5774 0.5774 -0.5774
vn 0.5774 -0.5774 -0.5774
vn 0.5774 0.5774 0.5774
vn 0.5774 -0.5774 0.5774
vn -0.5774 0.5774 -0.5774
vn -0.5774 -0.5774 -0.5774
vn -0.5774 0.5774 0.5774
vn -0.5774 -0.5774 0.5774
vn -0.7071 -0.7071 -0.0000
vn -0.0000 -0.7071 -0.7071
vn 0.7071 -0.0000 -0.7071
vn -0.7071 -0.0000 0.7071
vn 0.7071 -0.0000 0.7071
vn -0.7071 -0.0000 -0.7071
vn -0.0000 0.7071 0.7071
vn 0.7071 0.7071 -0.0000
vn -0.0000 -0.7071 0.7071
vn -0.7071 0.7071 -0.0000
vn -0.0000 0.7071 -0.7071
vn 0.7071 -0.7071 -0.0000
vn -0.0000 -1.0000 -0.0000
vn -0.0000 1.0000 -0.0000
vt 0.040715 0.750046
vt 0.040715 0.833608
vt 0.144656 0.625728
vt 0.228218 0.625728
vt 0.228218 0.853986
vt 0.144656 0.853986
vt 0.332159 0.750046
vt 0.248596 0.750046
vt 0.144656 0.833608
vt 0.228218 0.833609
vt 0.973491 0.744799
vt 0.976300 0.744799
vt 0.973491 0.747608
vt 0.869551 0.750417
vt 0.869551 0.747608
vt 0.872360 0.750417
vt 0.973491 0.851548
vt 0.976300 0.854357
vt 0.973491 0.854357
vt 0.872360 0.848739
vt 0.869551 0.851548
vt 0.869551 0.848739
vt 0.973491 0.643668
vt 0.973491 0.640859
vt 0.976300 0.640859
vt 0.768420 0.750417
vt 0.771229 0.747608
vt 0.771229 0.750417
vt 0.973491 0.542537
vt 0.973491 0.539728
vt 0.976300 0.542537
vt 0.771229 0.848739
vt 0.771229 0.851548
vt 0.768420 0.848739
vt 0.875169 0.750417
vt 0.973491 0.750417
vt 0.875169 0.542537
vt 0.875169 0.539728
vt 0.875169 0.854357
vt 0.973491 0.848739
vt 0.875169 0.646477
vt 0.973491 0.646477
vt 0.976300 0.952679
vt 0.979109 0.848739
vt 0.979109 0.750417
vt 0.976300 0.646477
vt 0.875169 0.848739
vt 0.144656 0.729668
vt 0.228218 0.729668
vt 0.046916 0.345297
vt 0.039536 0.254354
vt 0.046916 0.261734
vt 0.150856 0.137416
vt 0.143477 0.046474
vt 0.150856 0.053854
vt 0.137859 0.254354
vt 0.130479 0.261734
vt 0.150856 0.241356
vt 0.143477 0.150414
vt 0.150856 0.157794
vt 0.150856 0.261734
vt 0.241799 0.254354
vt 0.234419 0.261734
vt 0.234419 0.241356
vt 0.143477 0.248736
vt 0.234419 0.449237
vt 0.143477 0.456617
vt 0.150856 0.449237
vt 0.241799 0.046474
vt 0.234419 0.053854
vt 0.150856 0.365674
vt 0.241799 0.358294
vt 0.234419 0.365674
vt 0.234419 0.345297
vt 0.143477 0.352676
vt 0.150856 0.345297
vt 0.241799 0.150414
vt 0.234419 0.157794
vt 0.234419 0.137416
vt 0.143477 0.144796
vt 0.338359 0.345297
vt 0.247417 0.352676
vt 0.254796 0.345297
vt 0.241799 0.456617
vt 0.247417 0.254354
vt 0.254797 0.261734
vt 0.241799 0.352676
vt 0.130479 0.345297
vt 0.039536 0.352676
vt 0.143477 0.358294
vt 0.338359 0.261734
vt 0.345739 0.352676
vt 0.241799 0.144796
vt 0.345739 0.254354
vt 0.241799 0.248736
vt 0.137859 0.352676
vt 0.143477 0.254354
vt 0.708856 0.745395
vt 0.625293 0.828958
vt 0.625293 0.745395
vt 0.332159 0.833609
vt 0.248596 0.833608
vt 0.604916 0.849335
vt 0.521353 0.932898
vt 0.521353 0.849335
vt 0.144656 0.937549
vt 0.228218 0.937549
vt 0.604916 0.745395
vt 0.521353 0.828958
vt 0.521353 0.745395
vt 0.144656 0.750046
vt 0.228218 0.750046
vt 0.604916 0.641455
vt 0.521353 0.725018
vt 0.521353 0.641455
vt 0.144656 0.646105
vt 0.228218 0.646105
vt 0.604916 0.537515
vt 0.521353 0.621078
vt 0.521353 0.537515
vt 0.228218 0.542165
vt 0.144656 0.542165
vt 0.500976 0.745395
vt 0.417413 0.828958
vt 0.417413 0.745395
vt 0.124278 0.833609
vt 0.124278 0.750046
vt 0.875169 0.744799
vt 0.875169 0.640859
vt 0.973491 0.952679
vt 0.708856 0.828958
vt 0.604916 0.932898
vt 0.604916 0.828958
vt 0.604916 0.725018
vt 0.604916 0.621078
vt 0.500976 0.828958
s 0
usemtl Material
f 18/1/1 70/2/1 22/2/1
f 16/3/2 68/4/2 14/4/2
f 9/5/3 56/6/3 11/6/3
f 15/7/2 51/8/2 2/8/2
f 10/9/4 60/10/4 7/10/4
f 34/11/5 46/12/5 32/13/5
f 29/14/6 31/15/6 33/16/6
f 41/17/7 44/18/7 38/19/7
f 40/20/8 39/21/8 47/22/8
f 42/23/9 43/24/9 48/25/9
f 28/26/10 30/27/10 25/28/10
f 37/29/11 36/30/11 45/31/11
f 26/32/12 35/33/12 27/34/12
f 26/32/13 28/26/13 25/28/13
f 25/28/14 31/15/14 29/14/14
f 33/35/15 34/11/15 32/36/15
f 36/30/16 27/37/16 35/38/16
f 39/39/17 41/40/17 38/19/17
f 30/41/18 43/24/18 42/42/18
f 45/43/19 38/19/19 44/18/19
f 44/44/20 32/36/20 46/45/20
f 47/22/21 35/33/21 26/32/21
f 48/25/22 37/29/22 45/31/22
f 46/12/23 42/42/23 48/46/23
f 29/14/24 40/47/24 47/22/24
f 5/48/3 63/49/3 1/49/3
f 22/50/25 25/51/25 18/52/25
f 16/53/3 27/54/3 24/55/3
f 18/52/25 29/56/25 4/57/25
f 5/58/4 30/59/4 17/60/4
f 6/61/1 32/62/1 3/63/1
f 1/64/4 31/65/4 5/58/4
f 20/66/2 35/67/2 23/68/2
f 24/55/3 37/69/3 19/70/3
f 11/71/2 38/72/2 9/73/2
f 7/74/1 40/75/1 10/76/1
f 17/60/4 42/77/4 13/78/4
f 14/79/3 28/80/3 16/53/3
f 21/81/26 44/82/26 8/83/26
f 9/73/2 36/84/2 20/66/2
f 8/83/26 46/85/26 2/86/26
f 3/63/1 41/87/1 7/74/1
f 12/88/25 26/89/25 22/50/25
f 23/68/2 39/90/2 11/71/2
f 15/91/26 45/92/26 21/81/26
f 19/70/3 43/93/3 14/79/3
f 2/86/26 48/94/26 15/91/26
f 13/78/4 34/95/4 1/64/4
f 4/57/25 47/96/25 12/88/25
f 10/76/1 33/97/1 6/61/1
f 52/98/26 49/99/26 51/100/26
f 21/101/1 52/7/1 15/7/1
f 2/8/3 49/102/3 8/102/3
f 8/102/4 50/101/4 21/101/4
f 55/103/2 53/104/2 56/105/2
f 23/106/1 54/107/1 20/107/1
f 11/6/26 53/106/26 23/106/26
f 20/107/25 55/5/25 9/5/25
f 57/108/1 59/109/1 58/110/1
f 6/111/26 59/9/26 10/9/26
f 3/112/2 58/111/2 6/111/2
f 7/10/25 57/112/25 3/112/25
f 64/113/4 62/114/4 61/115/4
f 17/116/26 62/48/26 5/48/26
f 13/117/1 61/116/1 17/116/1
f 1/49/25 64/117/25 13/117/25
f 67/118/3 66/119/3 65/120/3
f 19/121/4 65/122/4 24/122/4
f 24/122/26 66/3/26 16/3/26
f 14/4/25 67/121/25 19/121/25
f 71/123/25 70/124/25 69/125/25
f 12/126/3 71/127/3 4/127/3
f 22/2/4 72/126/4 12/126/4
f 4/127/2 69/1/2 18/1/2
f 18/1/1 69/1/1 70/2/1
f 16/3/2 66/3/2 68/4/2
f 9/5/3 55/5/3 56/6/3
f 15/7/2 52/7/2 51/8/2
f 10/9/4 59/9/4 60/10/4
f 26/32/13 27/34/13 28/26/13
f 25/28/14 30/27/14 31/15/14
f 33/35/15 31/128/15 34/11/15
f 36/30/16 37/29/16 27/37/16
f 39/39/17 40/47/17 41/40/17
f 30/41/18 28/129/18 43/24/18
f 45/43/19 36/130/19 38/19/19
f 44/44/20 41/40/20 32/36/20
f 47/22/21 39/21/21 35/33/21
f 48/25/22 43/24/22 37/29/22
f 46/12/23 34/11/23 42/42/23
f 29/14/24 33/35/24 40/47/24
f 5/48/3 62/48/3 63/49/3
f 22/50/25 26/89/25 25/51/25
f 16/53/3 28/80/3 27/54/3
f 18/52/25 25/51/25 29/56/25
f 5/58/4 31/65/4 30/59/4
f 6/61/1 33/97/1 32/62/1
f 1/64/4 34/95/4 31/65/4
f 20/66/2 36/84/2 35/67/2
f 24/55/3 27/54/3 37/69/3
f 11/71/2 39/90/2 38/72/2
f 7/74/1 41/87/1 40/75/1
f 17/60/4 30/59/4 42/77/4
f 14/79/3 43/93/3 28/80/3
f 21/81/26 45/92/26 44/82/26
f 9/73/2 38/72/2 36/84/2
f 8/83/26 44/82/26 46/85/26
f 3/63/1 32/62/1 41/87/1
f 12/88/25 47/96/25 26/89/25
f 23/68/2 35/67/2 39/90/2
f 15/91/26 48/94/26 45/92/26
f 19/70/3 37/69/3 43/93/3
f 2/86/26 46/85/26 48/94/26
f 13/78/4 42/77/4 34/95/4
f 4/57/25 29/56/25 47/96/25
f 10/76/1 40/75/1 33/97/1
f 52/98/26 50/131/26 49/99/26
f 21/101/1 50/101/1 52/7/1
f 2/8/3 51/8/3 49/102/3
f 8/102/4 49/102/4 50/101/4
f 55/103/2 54/132/2 53/104/2
f 23/106/1 53/106/1 54/107/1
f 11/6/26 56/6/26 53/106/26
f 20/107/25 54/107/25 55/5/25
f 57/108/1 60/133/1 59/109/1
f 6/111/26 58/111/26 59/9/26
f 3/112/2 57/112/2 58/111/2
f 7/10/25 60/10/25 57/112/25
f 64/113/4 63/134/4 62/114/4
f 17/116/26 61/116/26 62/48/26
f 13/117/1 64/117/1 61/116/1
f 1/49/25 63/49/25 64/117/25
f 67/118/3 68/135/3 66/119/3
f 19/121/4 67/121/4 65/122/4
f 24/122/26 65/122/26 66/3/26
f 14/4/25 68/4/25 67/121/25
f 71/123/25 72/136/25 70/124/25
f 12/126/3 72/126/3 71/127/3
f 22/2/4 70/2/4 72/126/4
f 4/127/2 71/127/2 69/1/2
